%TF.GenerationSoftware,KiCad,Pcbnew,7.0.10-7.0.10~ubuntu22.04.1*%
%TF.CreationDate,2024-02-29T23:27:08-07:00*%
%TF.ProjectId,boardPcb,626f6172-6450-4636-922e-6b696361645f,v1.0.0*%
%TF.SameCoordinates,Original*%
%TF.FileFunction,Copper,L2,Bot*%
%TF.FilePolarity,Positive*%
%FSLAX46Y46*%
G04 Gerber Fmt 4.6, Leading zero omitted, Abs format (unit mm)*
G04 Created by KiCad (PCBNEW 7.0.10-7.0.10~ubuntu22.04.1) date 2024-02-29 23:27:08*
%MOMM*%
%LPD*%
G01*
G04 APERTURE LIST*
G04 Aperture macros list*
%AMHorizOval*
0 Thick line with rounded ends*
0 $1 width*
0 $2 $3 position (X,Y) of the first rounded end (center of the circle)*
0 $4 $5 position (X,Y) of the second rounded end (center of the circle)*
0 Add line between two ends*
20,1,$1,$2,$3,$4,$5,0*
0 Add two circle primitives to create the rounded ends*
1,1,$1,$2,$3*
1,1,$1,$4,$5*%
%AMRotRect*
0 Rectangle, with rotation*
0 The origin of the aperture is its center*
0 $1 length*
0 $2 width*
0 $3 Rotation angle, in degrees counterclockwise*
0 Add horizontal line*
21,1,$1,$2,0,0,$3*%
%AMFreePoly0*
4,1,6,1.300000,-1.300000,0.000000,-1.300000,-1.300000,0.000000,-1.300000,1.300000,1.300000,1.300000,1.300000,-1.300000,1.300000,-1.300000,$1*%
%AMFreePoly1*
4,1,6,0.250000,0.000000,-0.250000,-0.625000,-0.500000,-0.625000,-0.500000,0.625000,-0.250000,0.625000,0.250000,0.000000,0.250000,0.000000,$1*%
%AMFreePoly2*
4,1,6,0.500000,-0.625000,-0.650000,-0.625000,-0.150000,0.000000,-0.650000,0.625000,0.500000,0.625000,0.500000,-0.625000,0.500000,-0.625000,$1*%
G04 Aperture macros list end*
%TA.AperFunction,ComponentPad*%
%ADD10RotRect,1.778000X1.778000X90.500000*%
%TD*%
%TA.AperFunction,SMDPad,CuDef*%
%ADD11RotRect,0.900000X1.200000X90.500000*%
%TD*%
%TA.AperFunction,ComponentPad*%
%ADD12C,1.905000*%
%TD*%
%TA.AperFunction,ComponentPad*%
%ADD13RotRect,1.778000X1.778000X100.000000*%
%TD*%
%TA.AperFunction,SMDPad,CuDef*%
%ADD14RotRect,0.900000X1.200000X100.000000*%
%TD*%
%TA.AperFunction,ComponentPad*%
%ADD15RotRect,1.778000X1.778000X94.000000*%
%TD*%
%TA.AperFunction,SMDPad,CuDef*%
%ADD16RotRect,0.900000X1.200000X94.000000*%
%TD*%
%TA.AperFunction,SMDPad,CuDef*%
%ADD17RotRect,2.600000X1.000000X0.500000*%
%TD*%
%TA.AperFunction,SMDPad,CuDef*%
%ADD18RotRect,2.000000X1.200000X0.500000*%
%TD*%
%TA.AperFunction,ComponentPad*%
%ADD19RotRect,1.778000X1.778000X75.500000*%
%TD*%
%TA.AperFunction,SMDPad,CuDef*%
%ADD20RotRect,0.900000X1.200000X75.500000*%
%TD*%
%TA.AperFunction,SMDPad,CuDef*%
%ADD21FreePoly0,7.000000*%
%TD*%
%TA.AperFunction,ComponentPad*%
%ADD22C,0.800000*%
%TD*%
%TA.AperFunction,SMDPad,CuDef*%
%ADD23RotRect,2.600000X2.600000X7.000000*%
%TD*%
%TA.AperFunction,SMDPad,CuDef*%
%ADD24RotRect,2.600000X1.000000X10.000000*%
%TD*%
%TA.AperFunction,SMDPad,CuDef*%
%ADD25RotRect,2.000000X1.200000X10.000000*%
%TD*%
%TA.AperFunction,SMDPad,CuDef*%
%ADD26FreePoly0,0.500000*%
%TD*%
%TA.AperFunction,SMDPad,CuDef*%
%ADD27RotRect,2.600000X2.600000X0.500000*%
%TD*%
%TA.AperFunction,ComponentPad*%
%ADD28RotRect,1.778000X1.778000X97.000000*%
%TD*%
%TA.AperFunction,SMDPad,CuDef*%
%ADD29RotRect,0.900000X1.200000X97.000000*%
%TD*%
%TA.AperFunction,ComponentPad*%
%ADD30HorizOval,1.600000X-0.299989X-0.002618X0.299989X0.002618X0*%
%TD*%
%TA.AperFunction,SMDPad,CuDef*%
%ADD31RotRect,2.600000X1.000000X7.000000*%
%TD*%
%TA.AperFunction,SMDPad,CuDef*%
%ADD32RotRect,2.000000X1.200000X7.000000*%
%TD*%
%TA.AperFunction,SMDPad,CuDef*%
%ADD33FreePoly0,10.000000*%
%TD*%
%TA.AperFunction,SMDPad,CuDef*%
%ADD34RotRect,2.600000X2.600000X10.000000*%
%TD*%
%TA.AperFunction,SMDPad,CuDef*%
%ADD35RotRect,2.600000X1.000000X345.500000*%
%TD*%
%TA.AperFunction,SMDPad,CuDef*%
%ADD36RotRect,2.000000X1.200000X345.500000*%
%TD*%
%TA.AperFunction,SMDPad,CuDef*%
%ADD37FreePoly0,4.000000*%
%TD*%
%TA.AperFunction,SMDPad,CuDef*%
%ADD38RotRect,2.600000X2.600000X4.000000*%
%TD*%
%TA.AperFunction,SMDPad,CuDef*%
%ADD39FreePoly0,345.500000*%
%TD*%
%TA.AperFunction,SMDPad,CuDef*%
%ADD40RotRect,2.600000X2.600000X345.500000*%
%TD*%
%TA.AperFunction,ComponentPad*%
%ADD41HorizOval,1.700000X0.000000X0.000000X0.000000X0.000000X0*%
%TD*%
%TA.AperFunction,SMDPad,CuDef*%
%ADD42FreePoly1,0.500000*%
%TD*%
%TA.AperFunction,SMDPad,CuDef*%
%ADD43FreePoly2,0.500000*%
%TD*%
%TA.AperFunction,ComponentPad*%
%ADD44HorizOval,1.700000X0.000000X0.000000X0.000000X0.000000X0*%
%TD*%
%TA.AperFunction,SMDPad,CuDef*%
%ADD45FreePoly2,180.500000*%
%TD*%
%TA.AperFunction,SMDPad,CuDef*%
%ADD46FreePoly1,180.500000*%
%TD*%
%TA.AperFunction,SMDPad,CuDef*%
%ADD47RotRect,2.600000X1.000000X4.000000*%
%TD*%
%TA.AperFunction,SMDPad,CuDef*%
%ADD48RotRect,2.000000X1.200000X4.000000*%
%TD*%
%TA.AperFunction,ViaPad*%
%ADD49C,0.800000*%
%TD*%
%TA.AperFunction,Conductor*%
%ADD50C,0.250000*%
%TD*%
G04 APERTURE END LIST*
D10*
%TO.P,D17,1*%
%TO.N,P21*%
X226301341Y-175114482D03*
D11*
X226282492Y-172954564D03*
%TO.P,D17,2*%
%TO.N,pointer_bottom*%
X226253694Y-169654690D03*
D12*
X226234845Y-167494772D03*
%TD*%
D13*
%TO.P,D3,1*%
%TO.N,P19*%
X137149998Y-147230922D03*
D14*
X136774917Y-145103737D03*
%TO.P,D3,2*%
%TO.N,pinky1_top*%
X136201879Y-141853871D03*
D12*
X135826798Y-139726686D03*
%TD*%
D15*
%TO.P,D15,1*%
%TO.N,P19*%
X202871549Y-138054021D03*
D16*
X202720875Y-135899283D03*
%TO.P,D15,2*%
%TO.N,middle_top*%
X202490679Y-132607321D03*
D12*
X202340005Y-130452583D03*
%TD*%
D17*
%TO.P,LED17,1*%
%TO.N,VCC*%
X214573992Y-172031704D03*
%TO.P,LED17,2*%
%TO.N,L020*%
X214589263Y-173781637D03*
%TO.P,LED17,3*%
%TO.N,GND*%
X218989096Y-173743240D03*
%TO.P,LED17,4*%
%TO.N,L019*%
X218973825Y-171993307D03*
D18*
%TO.P,LED17,11*%
%TO.N,VCC*%
X214267677Y-171309349D03*
%TO.P,LED17,22*%
%TO.N,L020*%
X214295602Y-174509227D03*
%TO.P,LED17,33*%
%TO.N,GND*%
X219295411Y-174465595D03*
%TO.P,LED17,44*%
%TO.N,L019*%
X219267486Y-171265717D03*
%TD*%
D10*
%TO.P,D22,1*%
%TO.N,P20*%
X246134775Y-155940674D03*
D11*
X246115926Y-153780756D03*
%TO.P,D22,2*%
%TO.N,pointer2_middle*%
X246087128Y-150480882D03*
D12*
X246068279Y-148320964D03*
%TD*%
D19*
%TO.P,D28,1*%
%TO.N,P19*%
X267043658Y-184951979D03*
D20*
X267584479Y-182860780D03*
%TO.P,D28,2*%
%TO.N,home2_thumb2*%
X268410733Y-179665892D03*
D12*
X268951554Y-177574693D03*
%TD*%
D17*
%TO.P,LED24,1*%
%TO.N,VCC*%
X234075818Y-114859343D03*
%TO.P,LED24,2*%
%TO.N,L001*%
X234091089Y-116609276D03*
%TO.P,LED24,3*%
%TO.N,GND*%
X238490922Y-116570879D03*
%TO.P,LED24,4*%
%TO.N,P8*%
X238475651Y-114820946D03*
D18*
%TO.P,LED24,11*%
%TO.N,VCC*%
X233769503Y-114136988D03*
%TO.P,LED24,22*%
%TO.N,L001*%
X233797428Y-117336866D03*
%TO.P,LED24,33*%
%TO.N,GND*%
X238797237Y-117293234D03*
%TO.P,LED24,44*%
%TO.N,P8*%
X238769312Y-114093356D03*
%TD*%
D13*
%TO.P,D6,1*%
%TO.N,P20*%
X160145469Y-162469306D03*
D14*
X159770388Y-160342121D03*
%TO.P,D6,2*%
%TO.N,pink2_middle*%
X159197350Y-157092255D03*
D12*
X158822269Y-154965070D03*
%TD*%
D21*
%TO.P,S12,1*%
%TO.N,P4*%
X163111953Y-109344449D03*
D22*
%TO.P,S12,2*%
X165233237Y-112056143D03*
%TO.N,ring_number*%
X174340160Y-116479257D03*
D23*
X174843973Y-110120460D03*
%TD*%
D10*
%TO.P,D23,1*%
%TO.N,P19*%
X245968971Y-136941398D03*
D11*
X245950122Y-134781480D03*
%TO.P,D23,2*%
%TO.N,pointer2_top*%
X245921324Y-131481606D03*
D12*
X245902475Y-129321688D03*
%TD*%
D24*
%TO.P,LED6,1*%
%TO.N,VCC*%
X148070148Y-161364376D03*
%TO.P,LED6,2*%
%TO.N,L017*%
X148374032Y-163087790D03*
%TO.P,LED6,3*%
%TO.N,GND*%
X152707186Y-162323738D03*
%TO.P,LED6,4*%
%TO.N,L016*%
X152403302Y-160600324D03*
D25*
%TO.P,LED6,11*%
%TO.N,VCC*%
X147648811Y-160702485D03*
%TO.P,LED6,22*%
%TO.N,L017*%
X148204485Y-163853870D03*
%TO.P,LED6,33*%
%TO.N,GND*%
X153128523Y-162985629D03*
%TO.P,LED6,44*%
%TO.N,L016*%
X152572849Y-159834244D03*
%TD*%
D10*
%TO.P,D21,1*%
%TO.N,P21*%
X246300579Y-174939951D03*
D11*
X246281730Y-172780033D03*
%TO.P,D21,2*%
%TO.N,pointer2_bottom*%
X246252932Y-169480159D03*
D12*
X246234083Y-167320241D03*
%TD*%
D26*
%TO.P,S18,1*%
%TO.N,P6*%
X213240946Y-142467211D03*
D22*
%TO.P,S18,2*%
X215041622Y-145401609D03*
%TO.N,pointer_middle*%
X223589294Y-150827224D03*
D27*
X224809704Y-144566336D03*
%TD*%
D19*
%TO.P,D29,1*%
%TO.N,P19*%
X286406611Y-189959579D03*
D20*
X286947432Y-187868380D03*
%TO.P,D29,2*%
%TO.N,far2_thumb2*%
X287773686Y-184673492D03*
D12*
X288314507Y-182582293D03*
%TD*%
D26*
%TO.P,S17,1*%
%TO.N,P6*%
X213406750Y-161466487D03*
D22*
%TO.P,S17,2*%
X215207426Y-164400885D03*
%TO.N,pointer_bottom*%
X223755098Y-169826500D03*
D27*
X224975508Y-163565612D03*
%TD*%
D28*
%TO.P,D12,1*%
%TO.N,P18*%
X177468652Y-121445004D03*
D29*
X177205414Y-119301104D03*
%TO.P,D12,2*%
%TO.N,ring_number*%
X176803246Y-116025702D03*
D12*
X176540008Y-113881802D03*
%TD*%
D13*
%TO.P,D2,1*%
%TO.N,P20*%
X140449314Y-165942269D03*
D14*
X140074233Y-163815084D03*
%TO.P,D2,2*%
%TO.N,pinky1_middle*%
X139501195Y-160565218D03*
D12*
X139126114Y-158438033D03*
%TD*%
D30*
%TO.P,TRRS1,1*%
%TO.N,GND*%
X256254888Y-146742010D03*
X256274959Y-149041923D03*
%TO.P,TRRS1,2*%
%TO.N,P9*%
X257334775Y-144432499D03*
X257394988Y-151332236D03*
%TO.P,TRRS1,3*%
%TO.N,P10*%
X261334623Y-144397593D03*
X261394836Y-151297330D03*
%TO.P,TRRS1,4*%
%TO.N,VCC*%
X264334509Y-144371413D03*
X264394722Y-151271150D03*
%TD*%
D31*
%TO.P,LED10,1*%
%TO.N,VCC*%
X170098744Y-157426370D03*
%TO.P,LED10,2*%
%TO.N,L016*%
X170312015Y-159163325D03*
%TO.P,LED10,3*%
%TO.N,GND*%
X174679218Y-158627100D03*
%TO.P,LED10,4*%
%TO.N,L015*%
X174465947Y-156890145D03*
D32*
%TO.P,LED10,11*%
%TO.N,VCC*%
X169712625Y-156743335D03*
%TO.P,LED10,22*%
%TO.N,L016*%
X170102607Y-159919482D03*
%TO.P,LED10,33*%
%TO.N,GND*%
X175065337Y-159310135D03*
%TO.P,LED10,44*%
%TO.N,L015*%
X174675355Y-156133988D03*
%TD*%
D33*
%TO.P,S4,1*%
%TO.N,P2*%
X118880365Y-117186975D03*
D22*
%TO.P,S4,2*%
X121140661Y-119783932D03*
%TO.N,pinky1_number*%
X130466592Y-123724365D03*
D34*
X130636920Y-117347915D03*
%TD*%
D31*
%TO.P,LED11,1*%
%TO.N,VCC*%
X167783226Y-138567993D03*
%TO.P,LED11,2*%
%TO.N,L010*%
X167996497Y-140304948D03*
%TO.P,LED11,3*%
%TO.N,GND*%
X172363700Y-139768723D03*
%TO.P,LED11,4*%
%TO.N,L009*%
X172150429Y-138031768D03*
D32*
%TO.P,LED11,11*%
%TO.N,VCC*%
X167397107Y-137884958D03*
%TO.P,LED11,22*%
%TO.N,L010*%
X167787089Y-141061105D03*
%TO.P,LED11,33*%
%TO.N,GND*%
X172749819Y-140451758D03*
%TO.P,LED11,44*%
%TO.N,L009*%
X172359837Y-137275611D03*
%TD*%
D35*
%TO.P,LED28,1*%
%TO.N,VCC*%
X256513791Y-178938982D03*
%TO.P,LED28,2*%
%TO.N,L026*%
X256075626Y-180633240D03*
%TO.P,LED28,3*%
%TO.N,GND*%
X260335475Y-181734912D03*
%TO.P,LED28,4*%
%TO.N,L025*%
X260773640Y-180040654D03*
D36*
%TO.P,LED28,11*%
%TO.N,VCC*%
X256404872Y-178161961D03*
%TO.P,LED28,22*%
%TO.N,L026*%
X255603656Y-181260033D03*
%TO.P,LED28,33*%
%TO.N,GND*%
X260444394Y-182511933D03*
%TO.P,LED28,44*%
%TO.N,L025*%
X261245610Y-179413861D03*
%TD*%
D21*
%TO.P,S11,1*%
%TO.N,P4*%
X165427471Y-128202826D03*
D22*
%TO.P,S11,2*%
X167548755Y-130914520D03*
%TO.N,ring_top*%
X176655678Y-135337634D03*
D23*
X177159491Y-128978837D03*
%TD*%
D17*
%TO.P,LED18,1*%
%TO.N,VCC*%
X214408188Y-153032427D03*
%TO.P,LED18,2*%
%TO.N,L014*%
X214423459Y-154782360D03*
%TO.P,LED18,3*%
%TO.N,GND*%
X218823292Y-154743963D03*
%TO.P,LED18,4*%
%TO.N,L013*%
X218808021Y-152994030D03*
D18*
%TO.P,LED18,11*%
%TO.N,VCC*%
X214101873Y-152310072D03*
%TO.P,LED18,22*%
%TO.N,L014*%
X214129798Y-155509950D03*
%TO.P,LED18,33*%
%TO.N,GND*%
X219129607Y-155466318D03*
%TO.P,LED18,44*%
%TO.N,L013*%
X219101682Y-152266440D03*
%TD*%
D10*
%TO.P,D19,1*%
%TO.N,P19*%
X225969732Y-137115929D03*
D11*
X225950883Y-134956011D03*
%TO.P,D19,2*%
%TO.N,pointer_top*%
X225922085Y-131656137D03*
D12*
X225903236Y-129496219D03*
%TD*%
D35*
%TO.P,LED26,1*%
%TO.N,VCC*%
X252022917Y-196896418D03*
%TO.P,LED26,2*%
%TO.N,L028*%
X251584752Y-198590676D03*
%TO.P,LED26,3*%
%TO.N,GND*%
X255844601Y-199692348D03*
%TO.P,LED26,4*%
%TO.N,L027*%
X256282766Y-197998090D03*
D36*
%TO.P,LED26,11*%
%TO.N,VCC*%
X251913998Y-196119397D03*
%TO.P,LED26,22*%
%TO.N,L028*%
X251112782Y-199217469D03*
%TO.P,LED26,33*%
%TO.N,GND*%
X255953520Y-200469369D03*
%TO.P,LED26,44*%
%TO.N,L027*%
X256754736Y-197371297D03*
%TD*%
D37*
%TO.P,S15,1*%
%TO.N,P5*%
X189167820Y-125218678D03*
D22*
%TO.P,S15,2*%
X191144278Y-128037675D03*
%TO.N,middle_top*%
X200007233Y-132931347D03*
D38*
X200843149Y-126607632D03*
%TD*%
D19*
%TO.P,D25,1*%
%TO.N,P21*%
X243189831Y-197901814D03*
D20*
X243730652Y-195810615D03*
%TO.P,D25,2*%
%TO.N,near_thumb*%
X244556906Y-192615727D03*
D12*
X245097727Y-190524528D03*
%TD*%
D35*
%TO.P,LED25,1*%
%TO.N,VCC*%
X232659964Y-191888818D03*
%TO.P,LED25,2*%
%TO.N,L029*%
X232221799Y-193583076D03*
%TO.P,LED25,3*%
%TO.N,GND*%
X236481648Y-194684748D03*
%TO.P,LED25,4*%
%TO.N,L028*%
X236919813Y-192990490D03*
D36*
%TO.P,LED25,11*%
%TO.N,VCC*%
X232551045Y-191111797D03*
%TO.P,LED25,22*%
%TO.N,L029*%
X231749829Y-194209869D03*
%TO.P,LED25,33*%
%TO.N,GND*%
X236590567Y-195461769D03*
%TO.P,LED25,44*%
%TO.N,L028*%
X237391783Y-192363697D03*
%TD*%
D31*
%TO.P,LED12,1*%
%TO.N,VCC*%
X165467709Y-119709616D03*
%TO.P,LED12,2*%
%TO.N,L004*%
X165680980Y-121446571D03*
%TO.P,LED12,3*%
%TO.N,GND*%
X170048183Y-120910346D03*
%TO.P,LED12,4*%
%TO.N,L003*%
X169834912Y-119173391D03*
D32*
%TO.P,LED12,11*%
%TO.N,VCC*%
X165081590Y-119026581D03*
%TO.P,LED12,22*%
%TO.N,L004*%
X165471572Y-122202728D03*
%TO.P,LED12,33*%
%TO.N,GND*%
X170434302Y-121593381D03*
%TO.P,LED12,44*%
%TO.N,L003*%
X170044320Y-118417234D03*
%TD*%
D24*
%TO.P,LED2,1*%
%TO.N,VCC*%
X128373993Y-164837339D03*
%TO.P,LED2,2*%
%TO.N,L018*%
X128677877Y-166560753D03*
%TO.P,LED2,3*%
%TO.N,GND*%
X133011031Y-165796701D03*
%TO.P,LED2,4*%
%TO.N,L017*%
X132707147Y-164073287D03*
D25*
%TO.P,LED2,11*%
%TO.N,VCC*%
X127952656Y-164175448D03*
%TO.P,LED2,22*%
%TO.N,L018*%
X128508330Y-167326833D03*
%TO.P,LED2,33*%
%TO.N,GND*%
X133432368Y-166458592D03*
%TO.P,LED2,44*%
%TO.N,L017*%
X132876694Y-163307207D03*
%TD*%
D26*
%TO.P,S19,1*%
%TO.N,P6*%
X213075142Y-123467934D03*
D22*
%TO.P,S19,2*%
X214875818Y-126402332D03*
%TO.N,pointer_top*%
X223423490Y-131827947D03*
D27*
X224643900Y-125567059D03*
%TD*%
D17*
%TO.P,LED19,1*%
%TO.N,VCC*%
X214242384Y-134033151D03*
%TO.P,LED19,2*%
%TO.N,L008*%
X214257655Y-135783084D03*
%TO.P,LED19,3*%
%TO.N,GND*%
X218657488Y-135744687D03*
%TO.P,LED19,4*%
%TO.N,L007*%
X218642217Y-133994754D03*
D18*
%TO.P,LED19,11*%
%TO.N,VCC*%
X213936069Y-133310796D03*
%TO.P,LED19,22*%
%TO.N,L008*%
X213963994Y-136510674D03*
%TO.P,LED19,33*%
%TO.N,GND*%
X218963803Y-136467042D03*
%TO.P,LED19,44*%
%TO.N,L007*%
X218935878Y-133267164D03*
%TD*%
D26*
%TO.P,S23,1*%
%TO.N,P7*%
X233074380Y-123293403D03*
D22*
%TO.P,S23,2*%
X234875056Y-126227801D03*
%TO.N,pointer2_top*%
X243422728Y-131653416D03*
D27*
X244643138Y-125392528D03*
%TD*%
D19*
%TO.P,D26,1*%
%TO.N,P20*%
X262552784Y-202909414D03*
D20*
X263093605Y-200818215D03*
%TO.P,D26,2*%
%TO.N,home_thumb*%
X263919859Y-197623327D03*
D12*
X264460680Y-195532128D03*
%TD*%
D26*
%TO.P,S24,1*%
%TO.N,P7*%
X232908576Y-104294127D03*
D22*
%TO.P,S24,2*%
X234709252Y-107228525D03*
%TO.N,pointer2_number*%
X243256924Y-112654140D03*
D27*
X244477334Y-106393252D03*
%TD*%
D33*
%TO.P,S5,1*%
%TO.N,P3*%
X148474466Y-169848054D03*
D22*
%TO.P,S5,2*%
X150734762Y-172445011D03*
%TO.N,pink2_bottom*%
X160060693Y-176385444D03*
D34*
X160231021Y-170008994D03*
%TD*%
D24*
%TO.P,LED3,1*%
%TO.N,VCC*%
X125074678Y-146125992D03*
%TO.P,LED3,2*%
%TO.N,L012*%
X125378562Y-147849406D03*
%TO.P,LED3,3*%
%TO.N,GND*%
X129711716Y-147085354D03*
%TO.P,LED3,4*%
%TO.N,L011*%
X129407832Y-145361940D03*
D25*
%TO.P,LED3,11*%
%TO.N,VCC*%
X124653341Y-145464101D03*
%TO.P,LED3,22*%
%TO.N,L012*%
X125209015Y-148615486D03*
%TO.P,LED3,33*%
%TO.N,GND*%
X130133053Y-147747245D03*
%TO.P,LED3,44*%
%TO.N,L011*%
X129577379Y-144595860D03*
%TD*%
D39*
%TO.P,S29,1*%
%TO.N,P14*%
X277483754Y-173439262D03*
D22*
%TO.P,S29,2*%
X278463595Y-176739722D03*
%TO.N,far2_thumb2*%
X285315759Y-184192764D03*
D40*
X288115023Y-178461076D03*
%TD*%
D39*
%TO.P,S28,1*%
%TO.N,P16*%
X258120801Y-168431662D03*
D22*
%TO.P,S28,2*%
X259100642Y-171732122D03*
%TO.N,home2_thumb2*%
X265952806Y-179185164D03*
D40*
X268752070Y-173453476D03*
%TD*%
D33*
%TO.P,S2,1*%
%TO.N,P2*%
X125478995Y-154609670D03*
D22*
%TO.P,S2,2*%
X127739291Y-157206627D03*
%TO.N,pinky1_middle*%
X137065222Y-161147060D03*
D34*
X137235550Y-154770610D03*
%TD*%
D13*
%TO.P,D1,1*%
%TO.N,P21*%
X143748629Y-184653616D03*
D14*
X143373548Y-182526431D03*
%TO.P,D1,2*%
%TO.N,pinky1_bottom*%
X142800510Y-179276565D03*
D12*
X142425429Y-177149380D03*
%TD*%
D33*
%TO.P,S1,1*%
%TO.N,P2*%
X128778311Y-173321017D03*
D22*
%TO.P,S1,2*%
X131038607Y-175917974D03*
%TO.N,pinky1_bottom*%
X140364538Y-179858407D03*
D34*
X140534866Y-173481957D03*
%TD*%
D15*
%TO.P,D13,1*%
%TO.N,P21*%
X205522295Y-175961455D03*
D16*
X205371621Y-173806717D03*
%TO.P,D13,2*%
%TO.N,middle_bottom*%
X205141425Y-170514755D03*
D12*
X204990751Y-168360017D03*
%TD*%
D17*
%TO.P,LED20,1*%
%TO.N,VCC*%
X214076580Y-115033874D03*
%TO.P,LED20,2*%
%TO.N,L002*%
X214091851Y-116783807D03*
%TO.P,LED20,3*%
%TO.N,GND*%
X218491684Y-116745410D03*
%TO.P,LED20,4*%
%TO.N,L001*%
X218476413Y-114995477D03*
D18*
%TO.P,LED20,11*%
%TO.N,VCC*%
X213770265Y-114311519D03*
%TO.P,LED20,22*%
%TO.N,L002*%
X213798190Y-117511397D03*
%TO.P,LED20,33*%
%TO.N,GND*%
X218797999Y-117467765D03*
%TO.P,LED20,44*%
%TO.N,L001*%
X218770074Y-114267887D03*
%TD*%
D39*
%TO.P,S27,1*%
%TO.N,P14*%
X272992880Y-191396698D03*
D22*
%TO.P,S27,2*%
X273972721Y-194697158D03*
%TO.N,far_thumb*%
X280824885Y-202150200D03*
D40*
X283624149Y-196418512D03*
%TD*%
D41*
%TO.P,,0*%
%TO.N,_1_0*%
X251571417Y-105111296D03*
D42*
X253571341Y-105093843D03*
D43*
%TO.N,P1*%
X254416309Y-105086469D03*
D22*
X255929252Y-105073266D03*
D41*
%TO.P,,1*%
%TO.N,_1_1*%
X251593583Y-107651199D03*
D42*
X253593507Y-107633746D03*
D43*
%TO.N,P0*%
X254438475Y-107626372D03*
D22*
X255951417Y-107613169D03*
D41*
%TO.P,,2*%
%TO.N,_1_2*%
X251615748Y-110191103D03*
D42*
X253615672Y-110173650D03*
D43*
%TO.N,GND*%
X254460640Y-110166276D03*
D22*
X255973582Y-110153072D03*
D41*
%TO.P,,3*%
%TO.N,_1_3*%
X251637914Y-112731006D03*
D42*
X253637837Y-112713553D03*
D43*
%TO.N,GND*%
X254482805Y-112706179D03*
D22*
X255995748Y-112692976D03*
D41*
%TO.P,,4*%
%TO.N,P2*%
X251660079Y-115270909D03*
%TO.P,,5*%
%TO.N,P3*%
X251682244Y-117810813D03*
%TO.P,,6*%
%TO.N,P4*%
X251704410Y-120350716D03*
%TO.P,,7*%
%TO.N,P5*%
X251726575Y-122890619D03*
%TO.P,,8*%
%TO.N,P6*%
X251748741Y-125430522D03*
%TO.P,,9*%
%TO.N,P7*%
X251770906Y-127970426D03*
%TO.P,,10*%
%TO.N,P8*%
X251793071Y-130510329D03*
%TO.P,,11*%
%TO.N,P9*%
X251815237Y-133050232D03*
D44*
%TO.P,,12*%
%TO.N,P10*%
X267054657Y-132917240D03*
%TO.P,,13*%
%TO.N,P16*%
X267032491Y-130377337D03*
%TO.P,,14*%
%TO.N,P14*%
X267010326Y-127837433D03*
%TO.P,,15*%
%TO.N,P15*%
X266988160Y-125297530D03*
%TO.P,,16*%
%TO.N,P18*%
X266965995Y-122757627D03*
%TO.P,,17*%
%TO.N,P19*%
X266943830Y-120217723D03*
%TO.P,,18*%
%TO.N,P20*%
X266921664Y-117677820D03*
%TO.P,,19*%
%TO.N,P21*%
X266899499Y-115137917D03*
D22*
%TO.P,,20*%
%TO.N,VCC*%
X262519499Y-112636044D03*
D45*
X264032442Y-112622841D03*
D46*
%TO.N,_1_20*%
X264877410Y-112615467D03*
D44*
X266877333Y-112598014D03*
D22*
%TO.P,,21*%
%TO.N,RST*%
X262497334Y-110096141D03*
D45*
X264010276Y-110082937D03*
D46*
%TO.N,_1_21*%
X264855244Y-110075563D03*
D44*
X266855168Y-110058110D03*
D22*
%TO.P,,22*%
%TO.N,GND*%
X262475168Y-107556237D03*
D45*
X263988111Y-107543034D03*
D46*
%TO.N,_1_22*%
X264833079Y-107535660D03*
D44*
X266833003Y-107518207D03*
D22*
%TO.P,,23*%
%TO.N,RAW*%
X262453003Y-105016334D03*
D45*
X263965945Y-105003131D03*
D46*
%TO.N,_1_23*%
X264810913Y-104995757D03*
D44*
X266810837Y-104978304D03*
%TD*%
D37*
%TO.P,S16,1*%
%TO.N,P5*%
X187842447Y-106264961D03*
D22*
%TO.P,S16,2*%
X189818905Y-109083958D03*
%TO.N,middle_number*%
X198681860Y-113977630D03*
D38*
X199517776Y-107653915D03*
%TD*%
D33*
%TO.P,S8,1*%
%TO.N,P3*%
X138576520Y-113714012D03*
D22*
%TO.P,S8,2*%
X140836816Y-116310969D03*
%TO.N,pink2_number*%
X150162747Y-120251402D03*
D34*
X150333075Y-113874952D03*
%TD*%
D10*
%TO.P,D20,1*%
%TO.N,P18*%
X225803928Y-118116652D03*
D11*
X225785079Y-115956734D03*
%TO.P,D20,2*%
%TO.N,pointer_number*%
X225756281Y-112656860D03*
D12*
X225737432Y-110496942D03*
%TD*%
D24*
%TO.P,LED5,1*%
%TO.N,VCC*%
X151369464Y-180075723D03*
%TO.P,LED5,2*%
%TO.N,L023*%
X151673348Y-181799137D03*
%TO.P,LED5,3*%
%TO.N,GND*%
X156006502Y-181035085D03*
%TO.P,LED5,4*%
%TO.N,L022*%
X155702618Y-179311671D03*
D25*
%TO.P,LED5,11*%
%TO.N,VCC*%
X150948127Y-179413832D03*
%TO.P,LED5,22*%
%TO.N,L023*%
X151503801Y-182565217D03*
%TO.P,LED5,33*%
%TO.N,GND*%
X156427839Y-181696976D03*
%TO.P,LED5,44*%
%TO.N,L022*%
X155872165Y-178545591D03*
%TD*%
D15*
%TO.P,D14,1*%
%TO.N,P20*%
X204196922Y-157007738D03*
D16*
X204046248Y-154853000D03*
%TO.P,D14,2*%
%TO.N,middle_middle*%
X203816052Y-151561038D03*
D12*
X203665378Y-149406300D03*
%TD*%
D33*
%TO.P,S3,1*%
%TO.N,P2*%
X122179680Y-135898323D03*
D22*
%TO.P,S3,2*%
X124439976Y-138495280D03*
%TO.N,pinky1_top*%
X133765907Y-142435713D03*
D34*
X133936235Y-136059263D03*
%TD*%
D39*
%TO.P,S26,1*%
%TO.N,P16*%
X253629927Y-186389098D03*
D22*
%TO.P,S26,2*%
X254609768Y-189689558D03*
%TO.N,home_thumb*%
X261461932Y-197142600D03*
D40*
X264261196Y-191410912D03*
%TD*%
D33*
%TO.P,S6,1*%
%TO.N,P3*%
X145175150Y-151136706D03*
D22*
%TO.P,S6,2*%
X147435446Y-153733663D03*
%TO.N,pink2_middle*%
X156761377Y-157674096D03*
D34*
X156931705Y-151297646D03*
%TD*%
D37*
%TO.P,S13,1*%
%TO.N,P5*%
X191818566Y-163126112D03*
D22*
%TO.P,S13,2*%
X193795024Y-165945109D03*
%TO.N,middle_bottom*%
X202657979Y-170838781D03*
D38*
X203493895Y-164515066D03*
%TD*%
D26*
%TO.P,S22,1*%
%TO.N,P7*%
X233240185Y-142292680D03*
D22*
%TO.P,S22,2*%
X235040861Y-145227078D03*
%TO.N,pointer2_middle*%
X243588533Y-150652693D03*
D27*
X244808943Y-144391805D03*
%TD*%
D24*
%TO.P,LED1,1*%
%TO.N,VCC*%
X131673309Y-183548687D03*
%TO.P,LED1,2*%
%TO.N,L024*%
X131977193Y-185272101D03*
%TO.P,LED1,3*%
%TO.N,GND*%
X136310347Y-184508049D03*
%TO.P,LED1,4*%
%TO.N,L023*%
X136006463Y-182784635D03*
D25*
%TO.P,LED1,11*%
%TO.N,VCC*%
X131251972Y-182886796D03*
%TO.P,LED1,22*%
%TO.N,L024*%
X131807646Y-186038181D03*
%TO.P,LED1,33*%
%TO.N,GND*%
X136731684Y-185169940D03*
%TO.P,LED1,44*%
%TO.N,L023*%
X136176010Y-182018555D03*
%TD*%
D13*
%TO.P,D8,1*%
%TO.N,P18*%
X153546838Y-125046611D03*
D14*
X153171757Y-122919426D03*
%TO.P,D8,2*%
%TO.N,pink2_number*%
X152598719Y-119669560D03*
D12*
X152223638Y-117542375D03*
%TD*%
D24*
%TO.P,LED8,1*%
%TO.N,VCC*%
X141471518Y-123941681D03*
%TO.P,LED8,2*%
%TO.N,L005*%
X141775402Y-125665095D03*
%TO.P,LED8,3*%
%TO.N,GND*%
X146108556Y-124901043D03*
%TO.P,LED8,4*%
%TO.N,L004*%
X145804672Y-123177629D03*
D25*
%TO.P,LED8,11*%
%TO.N,VCC*%
X141050181Y-123279790D03*
%TO.P,LED8,22*%
%TO.N,L005*%
X141605855Y-126431175D03*
%TO.P,LED8,33*%
%TO.N,GND*%
X146529893Y-125562934D03*
%TO.P,LED8,44*%
%TO.N,L004*%
X145974219Y-122411549D03*
%TD*%
D26*
%TO.P,S20,1*%
%TO.N,P6*%
X212909338Y-104468658D03*
D22*
%TO.P,S20,2*%
X214710014Y-107403056D03*
%TO.N,pointer_number*%
X223257686Y-112828671D03*
D27*
X224478096Y-106567783D03*
%TD*%
D47*
%TO.P,LED16,1*%
%TO.N,VCC*%
X189652502Y-116739213D03*
%TO.P,LED16,2*%
%TO.N,L003*%
X189774576Y-118484950D03*
%TO.P,LED16,3*%
%TO.N,GND*%
X194163858Y-118178021D03*
%TO.P,LED16,4*%
%TO.N,L002*%
X194041784Y-116432284D03*
D48*
%TO.P,LED16,11*%
%TO.N,VCC*%
X189302660Y-116036906D03*
%TO.P,LED16,22*%
%TO.N,L003*%
X189525880Y-119229111D03*
%TO.P,LED16,33*%
%TO.N,GND*%
X194513700Y-118880328D03*
%TO.P,LED16,44*%
%TO.N,L002*%
X194290480Y-115688123D03*
%TD*%
D35*
%TO.P,LED29,1*%
%TO.N,VCC*%
X275876744Y-183946582D03*
%TO.P,LED29,2*%
%TO.N,L025*%
X275438579Y-185640840D03*
%TO.P,LED29,3*%
%TO.N,GND*%
X279698428Y-186742512D03*
%TO.P,LED29,4*%
%TO.N,L024*%
X280136593Y-185048254D03*
D36*
%TO.P,LED29,11*%
%TO.N,VCC*%
X275767825Y-183169561D03*
%TO.P,LED29,22*%
%TO.N,L025*%
X274966609Y-186267633D03*
%TO.P,LED29,33*%
%TO.N,GND*%
X279807347Y-187519533D03*
%TO.P,LED29,44*%
%TO.N,L024*%
X280608563Y-184421461D03*
%TD*%
D47*
%TO.P,LED13,1*%
%TO.N,VCC*%
X193628621Y-173600364D03*
%TO.P,LED13,2*%
%TO.N,L021*%
X193750695Y-175346101D03*
%TO.P,LED13,3*%
%TO.N,GND*%
X198139977Y-175039172D03*
%TO.P,LED13,4*%
%TO.N,L020*%
X198017903Y-173293435D03*
D48*
%TO.P,LED13,11*%
%TO.N,VCC*%
X193278779Y-172898057D03*
%TO.P,LED13,22*%
%TO.N,L021*%
X193501999Y-176090262D03*
%TO.P,LED13,33*%
%TO.N,GND*%
X198489819Y-175741479D03*
%TO.P,LED13,44*%
%TO.N,L020*%
X198266599Y-172549274D03*
%TD*%
D13*
%TO.P,D7,1*%
%TO.N,P19*%
X156846153Y-143757958D03*
D14*
X156471072Y-141630773D03*
%TO.P,D7,2*%
%TO.N,pink2_top*%
X155898034Y-138380907D03*
D12*
X155522953Y-136253722D03*
%TD*%
D26*
%TO.P,S21,1*%
%TO.N,P7*%
X233405989Y-161291956D03*
D22*
%TO.P,S21,2*%
X235206665Y-164226354D03*
%TO.N,pointer2_bottom*%
X243754337Y-169651969D03*
D27*
X244974747Y-163391081D03*
%TD*%
D35*
%TO.P,LED27,1*%
%TO.N,VCC*%
X271385870Y-201904018D03*
%TO.P,LED27,2*%
%TO.N,L027*%
X270947705Y-203598276D03*
%TO.P,LED27,3*%
%TO.N,GND*%
X275207554Y-204699948D03*
%TO.P,LED27,4*%
%TO.N,L026*%
X275645719Y-203005690D03*
D36*
%TO.P,LED27,11*%
%TO.N,VCC*%
X271276951Y-201126997D03*
%TO.P,LED27,22*%
%TO.N,L027*%
X270475735Y-204225069D03*
%TO.P,LED27,33*%
%TO.N,GND*%
X275316473Y-205476969D03*
%TO.P,LED27,44*%
%TO.N,L026*%
X276117689Y-202378897D03*
%TD*%
D24*
%TO.P,LED4,1*%
%TO.N,VCC*%
X121775363Y-127414645D03*
%TO.P,LED4,2*%
%TO.N,L006*%
X122079247Y-129138059D03*
%TO.P,LED4,3*%
%TO.N,GND*%
X126412401Y-128374007D03*
%TO.P,LED4,4*%
%TO.N,L005*%
X126108517Y-126650593D03*
D25*
%TO.P,LED4,11*%
%TO.N,VCC*%
X121354026Y-126752754D03*
%TO.P,LED4,22*%
%TO.N,L006*%
X121909700Y-129904139D03*
%TO.P,LED4,33*%
%TO.N,GND*%
X126833738Y-129035898D03*
%TO.P,LED4,44*%
%TO.N,L005*%
X126278064Y-125884513D03*
%TD*%
D47*
%TO.P,LED14,1*%
%TO.N,VCC*%
X192303248Y-154646647D03*
%TO.P,LED14,2*%
%TO.N,L015*%
X192425322Y-156392384D03*
%TO.P,LED14,3*%
%TO.N,GND*%
X196814604Y-156085455D03*
%TO.P,LED14,4*%
%TO.N,L014*%
X196692530Y-154339718D03*
D48*
%TO.P,LED14,11*%
%TO.N,VCC*%
X191953406Y-153944340D03*
%TO.P,LED14,22*%
%TO.N,L015*%
X192176626Y-157136545D03*
%TO.P,LED14,33*%
%TO.N,GND*%
X197164446Y-156787762D03*
%TO.P,LED14,44*%
%TO.N,L014*%
X196941226Y-153595557D03*
%TD*%
D17*
%TO.P,LED21,1*%
%TO.N,VCC*%
X234573231Y-171857173D03*
%TO.P,LED21,2*%
%TO.N,L019*%
X234588502Y-173607106D03*
%TO.P,LED21,3*%
%TO.N,GND*%
X238988335Y-173568709D03*
%TO.P,LED21,4*%
%TO.N,L018*%
X238973064Y-171818776D03*
D18*
%TO.P,LED21,11*%
%TO.N,VCC*%
X234266916Y-171134818D03*
%TO.P,LED21,22*%
%TO.N,L019*%
X234294841Y-174334696D03*
%TO.P,LED21,33*%
%TO.N,GND*%
X239294650Y-174291064D03*
%TO.P,LED21,44*%
%TO.N,L018*%
X239266725Y-171091186D03*
%TD*%
D19*
%TO.P,D27,1*%
%TO.N,P20*%
X281915737Y-207917014D03*
D20*
X282456558Y-205825815D03*
%TO.P,D27,2*%
%TO.N,far_thumb*%
X283282812Y-202630927D03*
D12*
X283823633Y-200539728D03*
%TD*%
D28*
%TO.P,D9,1*%
%TO.N,P21*%
X184415205Y-178020135D03*
D29*
X184151967Y-175876235D03*
%TO.P,D9,2*%
%TO.N,ring_bottom*%
X183749799Y-172600833D03*
D12*
X183486561Y-170456933D03*
%TD*%
D33*
%TO.P,S7,1*%
%TO.N,P3*%
X141875835Y-132425359D03*
D22*
%TO.P,S7,2*%
X144136131Y-135022316D03*
%TO.N,pink2_top*%
X153462062Y-138962749D03*
D34*
X153632390Y-132586299D03*
%TD*%
D24*
%TO.P,LED7,1*%
%TO.N,VCC*%
X144770833Y-142653029D03*
%TO.P,LED7,2*%
%TO.N,L011*%
X145074717Y-144376443D03*
%TO.P,LED7,3*%
%TO.N,GND*%
X149407871Y-143612391D03*
%TO.P,LED7,4*%
%TO.N,L010*%
X149103987Y-141888977D03*
D25*
%TO.P,LED7,11*%
%TO.N,VCC*%
X144349496Y-141991138D03*
%TO.P,LED7,22*%
%TO.N,L011*%
X144905170Y-145142523D03*
%TO.P,LED7,33*%
%TO.N,GND*%
X149829208Y-144274282D03*
%TO.P,LED7,44*%
%TO.N,L010*%
X149273534Y-141122897D03*
%TD*%
D39*
%TO.P,S25,1*%
%TO.N,P16*%
X234266974Y-181381498D03*
D22*
%TO.P,S25,2*%
X235246815Y-184681958D03*
%TO.N,near_thumb*%
X242098979Y-192135000D03*
D40*
X244898243Y-186403312D03*
%TD*%
D47*
%TO.P,LED15,1*%
%TO.N,VCC*%
X190977875Y-135692930D03*
%TO.P,LED15,2*%
%TO.N,L009*%
X191099949Y-137438667D03*
%TO.P,LED15,3*%
%TO.N,GND*%
X195489231Y-137131738D03*
%TO.P,LED15,4*%
%TO.N,L008*%
X195367157Y-135386001D03*
D48*
%TO.P,LED15,11*%
%TO.N,VCC*%
X190628033Y-134990623D03*
%TO.P,LED15,22*%
%TO.N,L009*%
X190851253Y-138182828D03*
%TO.P,LED15,33*%
%TO.N,GND*%
X195839073Y-137834045D03*
%TO.P,LED15,44*%
%TO.N,L008*%
X195615853Y-134641840D03*
%TD*%
D37*
%TO.P,S14,1*%
%TO.N,P5*%
X190493193Y-144172395D03*
D22*
%TO.P,S14,2*%
X192469651Y-146991392D03*
%TO.N,middle_middle*%
X201332606Y-151885064D03*
D38*
X202168522Y-145561349D03*
%TD*%
D15*
%TO.P,D16,1*%
%TO.N,P18*%
X201546176Y-119100304D03*
D16*
X201395502Y-116945566D03*
%TO.P,D16,2*%
%TO.N,middle_number*%
X201165306Y-113653604D03*
D12*
X201014632Y-111498866D03*
%TD*%
D10*
%TO.P,D18,1*%
%TO.N,P20*%
X226135537Y-156115205D03*
D11*
X226116688Y-153955287D03*
%TO.P,D18,2*%
%TO.N,pointer_middle*%
X226087890Y-150655413D03*
D12*
X226069041Y-148495495D03*
%TD*%
D10*
%TO.P,D24,1*%
%TO.N,P18*%
X245803167Y-117942121D03*
D11*
X245784318Y-115782203D03*
%TO.P,D24,2*%
%TO.N,pointer2_number*%
X245755520Y-112482329D03*
D12*
X245736671Y-110322411D03*
%TD*%
D13*
%TO.P,D4,1*%
%TO.N,P18*%
X133850683Y-128519575D03*
D14*
X133475602Y-126392390D03*
%TO.P,D4,2*%
%TO.N,pinky1_number*%
X132902564Y-123142524D03*
D12*
X132527483Y-121015339D03*
%TD*%
D21*
%TO.P,S10,1*%
%TO.N,P4*%
X167742988Y-147061203D03*
D22*
%TO.P,S10,2*%
X169864272Y-149772897D03*
%TO.N,ring_middle*%
X178971195Y-154196011D03*
D23*
X179475008Y-147837214D03*
%TD*%
D13*
%TO.P,D5,1*%
%TO.N,P21*%
X163444784Y-181180653D03*
D14*
X163069703Y-179053468D03*
%TO.P,D5,2*%
%TO.N,pink2_bottom*%
X162496665Y-175803602D03*
D12*
X162121584Y-173676417D03*
%TD*%
D31*
%TO.P,LED9,1*%
%TO.N,VCC*%
X172414261Y-176284747D03*
%TO.P,LED9,2*%
%TO.N,L022*%
X172627532Y-178021702D03*
%TO.P,LED9,3*%
%TO.N,GND*%
X176994735Y-177485477D03*
%TO.P,LED9,4*%
%TO.N,L021*%
X176781464Y-175748522D03*
D32*
%TO.P,LED9,11*%
%TO.N,VCC*%
X172028142Y-175601712D03*
%TO.P,LED9,22*%
%TO.N,L022*%
X172418124Y-178777859D03*
%TO.P,LED9,33*%
%TO.N,GND*%
X177380854Y-178168512D03*
%TO.P,LED9,44*%
%TO.N,L021*%
X176990872Y-174992365D03*
%TD*%
D28*
%TO.P,D11,1*%
%TO.N,P19*%
X179784170Y-140303381D03*
D29*
X179520932Y-138159481D03*
%TO.P,D11,2*%
%TO.N,ring_top*%
X179118764Y-134884079D03*
D12*
X178855526Y-132740179D03*
%TD*%
D21*
%TO.P,S9,1*%
%TO.N,P4*%
X170058506Y-165919580D03*
D22*
%TO.P,S9,2*%
X172179790Y-168631274D03*
%TO.N,ring_bottom*%
X181286713Y-173054388D03*
D23*
X181790526Y-166695591D03*
%TD*%
D17*
%TO.P,LED22,1*%
%TO.N,VCC*%
X234407426Y-152857896D03*
%TO.P,LED22,2*%
%TO.N,L013*%
X234422697Y-154607829D03*
%TO.P,LED22,3*%
%TO.N,GND*%
X238822530Y-154569432D03*
%TO.P,LED22,4*%
%TO.N,L012*%
X238807259Y-152819499D03*
D18*
%TO.P,LED22,11*%
%TO.N,VCC*%
X234101111Y-152135541D03*
%TO.P,LED22,22*%
%TO.N,L013*%
X234129036Y-155335419D03*
%TO.P,LED22,33*%
%TO.N,GND*%
X239128845Y-155291787D03*
%TO.P,LED22,44*%
%TO.N,L012*%
X239100920Y-152091909D03*
%TD*%
D28*
%TO.P,D10,1*%
%TO.N,P20*%
X182099687Y-159161758D03*
D29*
X181836449Y-157017858D03*
%TO.P,D10,2*%
%TO.N,ring_middle*%
X181434281Y-153742456D03*
D12*
X181171043Y-151598556D03*
%TD*%
D17*
%TO.P,LED23,1*%
%TO.N,VCC*%
X234241622Y-133858620D03*
%TO.P,LED23,2*%
%TO.N,L007*%
X234256893Y-135608553D03*
%TO.P,LED23,3*%
%TO.N,GND*%
X238656726Y-135570156D03*
%TO.P,LED23,4*%
%TO.N,L006*%
X238641455Y-133820223D03*
D18*
%TO.P,LED23,11*%
%TO.N,VCC*%
X233935307Y-133136265D03*
%TO.P,LED23,22*%
%TO.N,L007*%
X233963232Y-136336143D03*
%TO.P,LED23,33*%
%TO.N,GND*%
X238963041Y-136292511D03*
%TO.P,LED23,44*%
%TO.N,L006*%
X238935116Y-133092633D03*
%TD*%
D49*
%TO.N,P20*%
X269748000Y-118872000D03*
%TO.N,P19*%
X269748000Y-121412000D03*
%TO.N,P8*%
X245618000Y-133604000D03*
X243078000Y-133604000D03*
X240614486Y-113754553D03*
%TO.N,VCC*%
X231648000Y-152146000D03*
X142240000Y-142494000D03*
X211963000Y-171069000D03*
X148844000Y-179324000D03*
X165608000Y-137922000D03*
X139446000Y-123952000D03*
X232156000Y-132588000D03*
X125222000Y-165100000D03*
X231902000Y-115824000D03*
X122936000Y-146050000D03*
X232156000Y-170942000D03*
X269240000Y-200406000D03*
X211836000Y-116078000D03*
X167640000Y-156718000D03*
X250190000Y-195072000D03*
X254508000Y-177546000D03*
X211963000Y-151765000D03*
X187452000Y-117602000D03*
X163576000Y-120396000D03*
X212090000Y-133350000D03*
X191516000Y-172720000D03*
X119126000Y-126746000D03*
X266954000Y-165100000D03*
X188214000Y-134990623D03*
X266954000Y-161798000D03*
X129032000Y-182880000D03*
X189992000Y-153416000D03*
X170180000Y-175514000D03*
X273812000Y-182372000D03*
X245872000Y-98552000D03*
X230632000Y-190246000D03*
X146050000Y-161290000D03*
%TO.N,GND*%
X281686000Y-187706000D03*
X241300000Y-173990000D03*
X257810000Y-200660000D03*
X156718000Y-183134000D03*
X177546000Y-179578000D03*
X240792000Y-136144000D03*
X131826000Y-147066000D03*
X135128000Y-165862000D03*
X260350048Y-109987143D03*
X230378000Y-177546000D03*
X177038000Y-158750000D03*
X151384000Y-143764000D03*
X227838000Y-177546000D03*
X198882000Y-177292000D03*
X172466000Y-120904000D03*
X238506000Y-195834000D03*
X277114000Y-205740000D03*
X220726000Y-136398000D03*
X197612000Y-137160000D03*
X240538000Y-117094000D03*
X262382000Y-182626000D03*
X174752000Y-139954000D03*
X258064246Y-110008440D03*
X196342000Y-118364000D03*
X220980000Y-155448000D03*
X198882000Y-156210000D03*
X154940000Y-162306000D03*
X240792000Y-155448000D03*
X263398000Y-166116000D03*
X221234000Y-174498000D03*
X242824000Y-117094000D03*
X148336000Y-124460000D03*
X138684000Y-184404000D03*
X220472000Y-117348000D03*
X128524000Y-128524000D03*
%TO.N,L001*%
X221488000Y-114300000D03*
X232156000Y-117348000D03*
%TO.N,L002*%
X196088000Y-115316000D03*
X211582000Y-118110000D03*
%TO.N,L003*%
X171958000Y-117856000D03*
X187706000Y-119634000D03*
%TO.N,L004*%
X163830000Y-122682000D03*
X147828000Y-121666000D03*
%TO.N,L005*%
X139954000Y-127000000D03*
X128524000Y-125222000D03*
%TO.N,L006*%
X238506000Y-120142000D03*
X241046000Y-133096000D03*
X121920000Y-132080000D03*
%TO.N,L007*%
X220726000Y-132842000D03*
X232156000Y-136144000D03*
%TO.N,L008*%
X197358000Y-134366000D03*
X212344000Y-136906000D03*
%TO.N,L009*%
X174244000Y-136906000D03*
X189230000Y-138684000D03*
%TO.N,L010*%
X166116000Y-141732000D03*
X151130000Y-140716000D03*
%TO.N,L011*%
X131318000Y-144018000D03*
X143256000Y-145796000D03*
%TO.N,L012*%
X125222000Y-150368000D03*
X241046000Y-151892000D03*
X239100920Y-139024920D03*
%TO.N,L013*%
X220980000Y-152146000D03*
X232410000Y-155448000D03*
%TO.N,L014*%
X198628000Y-153162000D03*
X212344000Y-155956000D03*
%TO.N,L015*%
X190500000Y-157734000D03*
X176530000Y-155702000D03*
%TO.N,L016*%
X168402000Y-160528000D03*
X155194000Y-159004000D03*
%TO.N,L017*%
X135636000Y-162560000D03*
X146558000Y-164592000D03*
%TO.N,L018*%
X128524000Y-169418000D03*
X239268000Y-158242000D03*
X241300000Y-171091186D03*
%TO.N,L019*%
X221234000Y-171196000D03*
X232664000Y-174498000D03*
%TO.N,L020*%
X211582000Y-174752000D03*
X200914000Y-172466000D03*
%TO.N,L021*%
X179832000Y-174498000D03*
X191770000Y-176530000D03*
%TO.N,L022*%
X169418000Y-179324000D03*
X158496000Y-177546000D03*
%TO.N,L023*%
X138684000Y-181356000D03*
X149606000Y-183134000D03*
%TO.N,L024*%
X283210000Y-192532000D03*
X282448000Y-184912000D03*
X227838000Y-178816000D03*
X133096000Y-187452000D03*
%TO.N,L025*%
X273304000Y-185928000D03*
X263144000Y-179832000D03*
%TO.N,L026*%
X278130000Y-202692000D03*
X254762000Y-182880000D03*
%TO.N,L027*%
X268478000Y-203962000D03*
X258572000Y-197612000D03*
%TO.N,L028*%
X249174000Y-198882000D03*
X239268000Y-192532000D03*
%TO.N,L029*%
X229870000Y-193802000D03*
%TD*%
D50*
%TO.N,P2*%
X249428000Y-103498020D02*
X249428000Y-114554000D01*
X124206000Y-132334000D02*
X122179680Y-134360320D01*
X191770000Y-99568000D02*
X245497980Y-99568000D01*
X127508000Y-150114000D02*
X125478995Y-152143005D01*
X127339291Y-157606627D02*
X127339291Y-160867291D01*
X249428000Y-114554000D02*
X250144909Y-115270909D01*
X139317604Y-110998000D02*
X143938601Y-106377003D01*
X118880000Y-117190000D02*
X121140000Y-119780000D01*
X250144909Y-115270909D02*
X251660079Y-115270909D01*
X127339291Y-160867291D02*
X130810000Y-164338000D01*
X125478995Y-152143005D02*
X125478995Y-154609670D01*
X130810000Y-170180000D02*
X128778311Y-172211689D01*
X124039976Y-142073976D02*
X127508000Y-145542000D01*
X122180000Y-135900000D02*
X124440000Y-138500000D01*
X143938601Y-106377003D02*
X163878997Y-106377003D01*
X121140661Y-119783932D02*
X120740661Y-120183932D01*
X124206000Y-127254000D02*
X124206000Y-132334000D01*
X125480000Y-154610000D02*
X127740000Y-157210000D01*
X163878997Y-106377003D02*
X167219494Y-103036506D01*
X120740661Y-120183932D02*
X120740661Y-123788661D01*
X125069340Y-110998000D02*
X139317604Y-110998000D01*
X128780000Y-173320000D02*
X131040000Y-175920000D01*
X130810000Y-164338000D02*
X130810000Y-170180000D01*
X120740661Y-123788661D02*
X124206000Y-127254000D01*
X124439976Y-138495280D02*
X124039976Y-138895280D01*
X188301494Y-103036506D02*
X191770000Y-99568000D01*
X245497980Y-99568000D02*
X249428000Y-103498020D01*
X118880365Y-117186975D02*
X125069340Y-110998000D01*
X128778311Y-172211689D02*
X128778311Y-173321017D01*
X167219494Y-103036506D02*
X188301494Y-103036506D01*
X124039976Y-138895280D02*
X124039976Y-142073976D01*
X127508000Y-145542000D02*
X127508000Y-150114000D01*
X127739291Y-157206627D02*
X127339291Y-157606627D01*
X122179680Y-134360320D02*
X122179680Y-135898323D01*
%TO.N,pinky1_bottom*%
X140530000Y-173480000D02*
X140360000Y-179860000D01*
X142800000Y-179280000D02*
X142430000Y-177150000D01*
%TO.N,pinky1_middle*%
X139500000Y-160570000D02*
X139130000Y-158440000D01*
X137240000Y-154770000D02*
X137070000Y-161150000D01*
%TO.N,pinky1_top*%
X133940000Y-136060000D02*
X133770000Y-142440000D01*
X136200000Y-141850000D02*
X135830000Y-139730000D01*
%TO.N,pinky1_number*%
X132320723Y-123724365D02*
X132902564Y-123142524D01*
X132900000Y-123140000D02*
X132530000Y-121020000D01*
X130640000Y-117350000D02*
X130470000Y-123720000D01*
%TO.N,P3*%
X188487890Y-103486506D02*
X191898396Y-100076000D01*
X141880000Y-132430000D02*
X144140000Y-135020000D01*
X147035446Y-154133663D02*
X147035446Y-157449446D01*
X138576520Y-112375480D02*
X144124997Y-106827003D01*
X143467476Y-123401476D02*
X143467476Y-128820524D01*
X148470000Y-169850000D02*
X150730000Y-172450000D01*
X138580000Y-113710000D02*
X140840000Y-116310000D01*
X147435446Y-153733663D02*
X147035446Y-154133663D01*
X249890813Y-117810813D02*
X251682244Y-117810813D01*
X144124997Y-106827003D02*
X164065393Y-106827003D01*
X167405890Y-103486506D02*
X188487890Y-103486506D01*
X140836816Y-116310969D02*
X140436816Y-116710969D01*
X145180000Y-151140000D02*
X147440000Y-153730000D01*
X147066000Y-146558000D02*
X145175150Y-148448850D01*
X145175150Y-148448850D02*
X145175150Y-151136706D01*
X141875835Y-130412165D02*
X141875835Y-132425359D01*
X248942000Y-103648416D02*
X248942000Y-116862000D01*
X143510000Y-135648447D02*
X143510000Y-138430000D01*
X150368000Y-160782000D02*
X150368000Y-166878000D01*
X140436816Y-116710969D02*
X140436816Y-120370816D01*
X147035446Y-157449446D02*
X150368000Y-160782000D01*
X245369584Y-100076000D02*
X248942000Y-103648416D01*
X150368000Y-166878000D02*
X148474466Y-168771534D01*
X138576520Y-113714012D02*
X138576520Y-112375480D01*
X144136131Y-135022316D02*
X143510000Y-135648447D01*
X140436816Y-120370816D02*
X143467476Y-123401476D01*
X164065393Y-106827003D02*
X167405890Y-103486506D01*
X248942000Y-116862000D02*
X249890813Y-117810813D01*
X191898396Y-100076000D02*
X245369584Y-100076000D01*
X148474466Y-168771534D02*
X148474466Y-169848054D01*
X143510000Y-138430000D02*
X147066000Y-141986000D01*
X143467476Y-128820524D02*
X141875835Y-130412165D01*
X147066000Y-141986000D02*
X147066000Y-146558000D01*
%TO.N,pink2_bottom*%
X160230000Y-170010000D02*
X160060000Y-176390000D01*
X162500000Y-175800000D02*
X162120000Y-173680000D01*
%TO.N,pink2_middle*%
X159200000Y-157090000D02*
X158820000Y-154970000D01*
X156930000Y-151300000D02*
X156760000Y-157670000D01*
%TO.N,pink2_top*%
X155900000Y-138380000D02*
X155520000Y-136250000D01*
X153630000Y-132590000D02*
X153460000Y-138960000D01*
%TO.N,pink2_number*%
X150330000Y-113870000D02*
X150160000Y-120250000D01*
X152600000Y-119670000D02*
X152220000Y-117540000D01*
%TO.N,P4*%
X248492000Y-119369432D02*
X249473284Y-120350716D01*
X163111953Y-108414047D02*
X164248997Y-107277003D01*
X167740000Y-147060000D02*
X169860000Y-149770000D01*
X167357225Y-119097225D02*
X167357225Y-124742775D01*
X192084792Y-100526000D02*
X245183188Y-100526000D01*
X170060000Y-165920000D02*
X172180000Y-168630000D01*
X170180000Y-142240000D02*
X167742988Y-144677012D01*
X170058506Y-164713494D02*
X170058506Y-165919580D01*
X167592286Y-103936506D02*
X188674286Y-103936506D01*
X164833237Y-116573237D02*
X167357225Y-119097225D01*
X165430000Y-128200000D02*
X167550000Y-130910000D01*
X172212000Y-162560000D02*
X170058506Y-164713494D01*
X167548755Y-130914520D02*
X166878000Y-131585275D01*
X163111953Y-109344449D02*
X163111953Y-108414047D01*
X167742988Y-144677012D02*
X167742988Y-147061203D01*
X172212000Y-156464000D02*
X172212000Y-162560000D01*
X164251789Y-107277003D02*
X167592286Y-103936506D01*
X164833237Y-112456143D02*
X164833237Y-116573237D01*
X248492000Y-103834812D02*
X248492000Y-119369432D01*
X163110000Y-109340000D02*
X165230000Y-112060000D01*
X169864272Y-149772897D02*
X169164000Y-150473169D01*
X169164000Y-150473169D02*
X169164000Y-153416000D01*
X166878000Y-134874000D02*
X170180000Y-138176000D01*
X188674286Y-103936506D02*
X192084792Y-100526000D01*
X165427471Y-126672529D02*
X165427471Y-128202826D01*
X170180000Y-138176000D02*
X170180000Y-142240000D01*
X245183188Y-100526000D02*
X248492000Y-103834812D01*
X167357225Y-124742775D02*
X165427471Y-126672529D01*
X249473284Y-120350716D02*
X251704410Y-120350716D01*
X165233237Y-112056143D02*
X164833237Y-112456143D01*
X169164000Y-153416000D02*
X172212000Y-156464000D01*
X164248997Y-107277003D02*
X164251789Y-107277003D01*
X166878000Y-131585275D02*
X166878000Y-134874000D01*
%TO.N,ring_bottom*%
X181790000Y-166700000D02*
X181290000Y-173050000D01*
X183750000Y-172600000D02*
X183490000Y-170460000D01*
%TO.N,ring_middle*%
X181430000Y-153740000D02*
X181170000Y-151600000D01*
X179480000Y-147840000D02*
X178970000Y-154200000D01*
%TO.N,ring_top*%
X177160000Y-128980000D02*
X176660000Y-135340000D01*
X179120000Y-134880000D02*
X178860000Y-132740000D01*
%TO.N,ring_number*%
X174840000Y-110120000D02*
X174340000Y-116480000D01*
X176800000Y-116030000D02*
X176540000Y-113880000D01*
%TO.N,P5*%
X244996792Y-100976000D02*
X248042000Y-104021208D01*
X193294000Y-140716000D02*
X190493193Y-143516807D01*
X191516000Y-116166621D02*
X191516000Y-120904000D01*
X191516000Y-120904000D02*
X189167820Y-123252180D01*
X187840000Y-106260000D02*
X189820000Y-109080000D01*
X190490000Y-144170000D02*
X192470000Y-146990000D01*
X189992000Y-131572000D02*
X193294000Y-134874000D01*
X190493193Y-143516807D02*
X190493193Y-144172395D01*
X248042000Y-121296000D02*
X249636619Y-122890619D01*
X191818566Y-161241434D02*
X191818566Y-163126112D01*
X193294000Y-134874000D02*
X193294000Y-140716000D01*
X189418905Y-114069526D02*
X191516000Y-116166621D01*
X194310000Y-153670000D02*
X194310000Y-158750000D01*
X191516000Y-150876000D02*
X194310000Y-153670000D01*
X191820000Y-163130000D02*
X193800000Y-165950000D01*
X191144278Y-128037675D02*
X189992000Y-129189953D01*
X189818905Y-109083958D02*
X189418905Y-109483958D01*
X187842447Y-105527553D02*
X192394000Y-100976000D01*
X189418905Y-109483958D02*
X189418905Y-114069526D01*
X249636619Y-122890619D02*
X251726575Y-122890619D01*
X194310000Y-158750000D02*
X191818566Y-161241434D01*
X187842447Y-106264961D02*
X187842447Y-105527553D01*
X189170000Y-125220000D02*
X191140000Y-128040000D01*
X191516000Y-147945043D02*
X191516000Y-150876000D01*
X189167820Y-123252180D02*
X189167820Y-125218678D01*
X189992000Y-129189953D02*
X189992000Y-131572000D01*
X192394000Y-100976000D02*
X244996792Y-100976000D01*
X248042000Y-104021208D02*
X248042000Y-121296000D01*
X192469651Y-146991392D02*
X191516000Y-147945043D01*
%TO.N,middle_bottom*%
X203490000Y-164520000D02*
X202660000Y-170840000D01*
X205140000Y-170510000D02*
X204990000Y-168360000D01*
%TO.N,middle_middle*%
X203820000Y-151560000D02*
X203670000Y-149410000D01*
X202170000Y-145560000D02*
X201330000Y-151890000D01*
%TO.N,middle_top*%
X200840000Y-126610000D02*
X200010000Y-132930000D01*
X202490000Y-132610000D02*
X202340000Y-130450000D01*
%TO.N,middle_number*%
X201170000Y-113650000D02*
X201010000Y-111500000D01*
X199520000Y-107650000D02*
X198680000Y-113980000D01*
%TO.N,P6*%
X247592000Y-123640000D02*
X249382522Y-125430522D01*
X215721165Y-118796835D02*
X213075142Y-121442858D01*
X212909338Y-104468658D02*
X215951996Y-101426000D01*
X216408000Y-133096000D02*
X216408000Y-137160000D01*
X213240000Y-142470000D02*
X215040000Y-145400000D01*
X247592000Y-104207604D02*
X247592000Y-123640000D01*
X213410000Y-161470000D02*
X215210000Y-164400000D01*
X215951996Y-101426000D02*
X244810396Y-101426000D01*
X215721165Y-114199369D02*
X215721165Y-118796835D01*
X214146636Y-107966434D02*
X214146636Y-112624840D01*
X214710014Y-107403056D02*
X214146636Y-107966434D01*
X213868000Y-127410150D02*
X213868000Y-130556000D01*
X212910000Y-104470000D02*
X214710000Y-107400000D01*
X216662000Y-152400000D02*
X216662000Y-156210000D01*
X213868000Y-130556000D02*
X216408000Y-133096000D01*
X214875818Y-126402332D02*
X213868000Y-127410150D01*
X216408000Y-137160000D02*
X213240946Y-140327054D01*
X213240946Y-140327054D02*
X213240946Y-142467211D01*
X213614000Y-146829231D02*
X213614000Y-149352000D01*
X216662000Y-156210000D02*
X213406750Y-159465250D01*
X213080000Y-123470000D02*
X214880000Y-126400000D01*
X213075142Y-121442858D02*
X213075142Y-123467934D01*
X213614000Y-149352000D02*
X216662000Y-152400000D01*
X214146636Y-112624840D02*
X215721165Y-114199369D01*
X249382522Y-125430522D02*
X251748741Y-125430522D01*
X213406750Y-159465250D02*
X213406750Y-161466487D01*
X215041622Y-145401609D02*
X213614000Y-146829231D01*
X244810396Y-101426000D02*
X247592000Y-104207604D01*
%TO.N,pointer_bottom*%
X226250000Y-169650000D02*
X226230000Y-167490000D01*
X224980000Y-163570000D02*
X223760000Y-169830000D01*
%TO.N,pointer_middle*%
X226090000Y-150660000D02*
X226070000Y-148500000D01*
X224810000Y-144570000D02*
X223590000Y-150830000D01*
%TO.N,pointer_top*%
X224640000Y-125570000D02*
X223420000Y-131830000D01*
X225920000Y-131660000D02*
X225900000Y-129500000D01*
%TO.N,pointer_number*%
X224480000Y-106570000D02*
X223260000Y-112830000D01*
X225760000Y-112660000D02*
X225740000Y-110500000D01*
X225584470Y-112828671D02*
X225756281Y-112656860D01*
%TO.N,P7*%
X247142000Y-104394000D02*
X247142000Y-125984000D01*
X233074380Y-121509620D02*
X233074380Y-123293403D01*
X233240185Y-140139815D02*
X233240185Y-142292680D01*
X234145874Y-112225874D02*
X235720403Y-113800403D01*
X236474000Y-158223945D02*
X233405989Y-161291956D01*
X232910000Y-104290000D02*
X234710000Y-107230000D01*
X233934000Y-130810000D02*
X236474000Y-133350000D01*
X235720403Y-118863597D02*
X233074380Y-121509620D01*
X247142000Y-125984000D02*
X249128426Y-127970426D01*
X233934000Y-127168857D02*
X233934000Y-130810000D01*
X233240000Y-142290000D02*
X235040000Y-145230000D01*
X235720403Y-113800403D02*
X235720403Y-118863597D01*
X233070000Y-123290000D02*
X234880000Y-126230000D01*
X232908576Y-104294127D02*
X235326703Y-101876000D01*
X235040861Y-145227078D02*
X233934000Y-146333939D01*
X234875056Y-126227801D02*
X233934000Y-127168857D01*
X234709252Y-107228525D02*
X234145874Y-107791903D01*
X236474000Y-151892000D02*
X236474000Y-158223945D01*
X233410000Y-161290000D02*
X235210000Y-164230000D01*
X236474000Y-133350000D02*
X236474000Y-136906000D01*
X235326703Y-101876000D02*
X244624000Y-101876000D01*
X249128426Y-127970426D02*
X251770906Y-127970426D01*
X233934000Y-149352000D02*
X236474000Y-151892000D01*
X233934000Y-146333939D02*
X233934000Y-149352000D01*
X236474000Y-136906000D02*
X233240185Y-140139815D01*
X234145874Y-107791903D02*
X234145874Y-112225874D01*
X244624000Y-101876000D02*
X247142000Y-104394000D01*
%TO.N,pointer2_bottom*%
X244970000Y-163390000D02*
X243750000Y-169650000D01*
X246250000Y-169480000D02*
X246230000Y-167320000D01*
%TO.N,pointer2_middle*%
X246090000Y-150480000D02*
X246070000Y-148320000D01*
X244810000Y-144390000D02*
X243590000Y-150650000D01*
%TO.N,pointer2_top*%
X245920000Y-131480000D02*
X245900000Y-129320000D01*
X244640000Y-125390000D02*
X243420000Y-131650000D01*
%TO.N,pointer2_number*%
X245760000Y-112480000D02*
X245740000Y-110320000D01*
X244480000Y-106390000D02*
X243260000Y-112650000D01*
%TO.N,P14*%
X277480000Y-173440000D02*
X278460000Y-176740000D01*
X276606000Y-181356000D02*
X276606000Y-178597317D01*
X277876000Y-182626000D02*
X276606000Y-181356000D01*
X277483754Y-173439262D02*
X270764000Y-166719508D01*
X276606000Y-178597317D02*
X278463595Y-176739722D01*
X270585433Y-127837433D02*
X267010326Y-127837433D01*
X272990000Y-191400000D02*
X273970000Y-194700000D01*
X272992880Y-191396698D02*
X277876000Y-186513578D01*
X277876000Y-186513578D02*
X277876000Y-182626000D01*
X270764000Y-128016000D02*
X270585433Y-127837433D01*
X270764000Y-166719508D02*
X270764000Y-128016000D01*
%TO.N,near_thumb*%
X244560000Y-192620000D02*
X245100000Y-190520000D01*
X244900000Y-186400000D02*
X242100000Y-192130000D01*
%TO.N,home_thumb*%
X264260000Y-191410000D02*
X261460000Y-197140000D01*
X263920000Y-197620000D02*
X264460000Y-195530000D01*
%TO.N,P16*%
X257302000Y-176276000D02*
X258572000Y-177546000D01*
X269315337Y-130377337D02*
X267032491Y-130377337D01*
X257302000Y-173530764D02*
X257302000Y-176276000D01*
X234270000Y-181380000D02*
X235250000Y-184680000D01*
X270002000Y-131064000D02*
X269315337Y-130377337D01*
X258572000Y-177546000D02*
X258572000Y-181447025D01*
X258120801Y-168431662D02*
X263230463Y-163322000D01*
X258572000Y-181447025D02*
X253629927Y-186389098D01*
X263230463Y-163322000D02*
X270002000Y-163322000D01*
X259100642Y-171732122D02*
X257302000Y-173530764D01*
X253630000Y-186390000D02*
X254610000Y-189690000D01*
X270002000Y-163322000D02*
X270002000Y-131064000D01*
X258120000Y-168430000D02*
X259100000Y-171730000D01*
%TO.N,far_thumb*%
X283280000Y-202630000D02*
X283820000Y-200540000D01*
X283620000Y-196420000D02*
X280820000Y-202150000D01*
%TO.N,home2_thumb2*%
X268410000Y-179670000D02*
X268950000Y-177570000D01*
X268750000Y-173450000D02*
X265950000Y-179190000D01*
%TO.N,far2_thumb2*%
X287770000Y-184670000D02*
X288310000Y-182580000D01*
X288120000Y-178460000D02*
X285320000Y-184190000D01*
%TO.N,P21*%
X243730000Y-195810000D02*
X243190000Y-197900000D01*
X226280000Y-172950000D02*
X226300000Y-175110000D01*
X184150000Y-175880000D02*
X184420000Y-178020000D01*
X205370000Y-173810000D02*
X205520000Y-175960000D01*
X246280000Y-172780000D02*
X246300000Y-174940000D01*
X163070000Y-179050000D02*
X163440000Y-181180000D01*
X143370000Y-182530000D02*
X143750000Y-184650000D01*
%TO.N,P20*%
X246120000Y-153780000D02*
X246130000Y-155940000D01*
X290322000Y-185928000D02*
X290322000Y-188722000D01*
X226120000Y-153960000D02*
X226140000Y-156120000D01*
X288290000Y-171704000D02*
X290830000Y-171704000D01*
X159770000Y-160340000D02*
X160150000Y-162470000D01*
X291846000Y-184404000D02*
X290322000Y-185928000D01*
X286766000Y-203454000D02*
X284394185Y-205825815D01*
X288798000Y-195834000D02*
X286766000Y-197866000D01*
X272542000Y-121666000D02*
X272542000Y-163068000D01*
X204050000Y-154850000D02*
X204200000Y-157010000D01*
X286766000Y-197866000D02*
X286766000Y-203454000D01*
X272542000Y-163068000D02*
X278384000Y-168910000D01*
X278384000Y-168910000D02*
X285496000Y-168910000D01*
X282460000Y-205830000D02*
X281920000Y-207920000D01*
X292862000Y-173736000D02*
X292862000Y-179578000D01*
X181840000Y-157020000D02*
X182100000Y-159160000D01*
X288798000Y-190246000D02*
X288798000Y-195834000D01*
X284394185Y-205825815D02*
X282456558Y-205825815D01*
X291846000Y-180594000D02*
X291846000Y-184404000D01*
X140070000Y-163820000D02*
X140450000Y-165940000D01*
X285496000Y-168910000D02*
X288290000Y-171704000D01*
X292862000Y-179578000D02*
X291846000Y-180594000D01*
X290322000Y-188722000D02*
X288798000Y-190246000D01*
X290830000Y-171704000D02*
X292862000Y-173736000D01*
X269748000Y-118872000D02*
X272542000Y-121666000D01*
X263090000Y-200820000D02*
X262550000Y-202910000D01*
%TO.N,P19*%
X290068000Y-173990000D02*
X291084000Y-175006000D01*
X245950000Y-134780000D02*
X245970000Y-136940000D01*
X284988000Y-171196000D02*
X287782000Y-173990000D01*
X291084000Y-179578000D02*
X290322000Y-180340000D01*
X278384000Y-171196000D02*
X284988000Y-171196000D01*
X286950000Y-187870000D02*
X286410000Y-189960000D01*
X269748000Y-121666000D02*
X269748000Y-121412000D01*
X136770000Y-145100000D02*
X137150000Y-147230000D01*
X287782000Y-173990000D02*
X290068000Y-173990000D01*
X271526000Y-164338000D02*
X278384000Y-171196000D01*
X179520000Y-138160000D02*
X179780000Y-140300000D01*
X267580000Y-182860000D02*
X267040000Y-184950000D01*
X225950000Y-134960000D02*
X225970000Y-137120000D01*
X290322000Y-180340000D02*
X290322000Y-184493812D01*
X271526000Y-123190000D02*
X271526000Y-164338000D01*
X202720000Y-135900000D02*
X202870000Y-138050000D01*
X291084000Y-175006000D02*
X291084000Y-179578000D01*
X156470000Y-141630000D02*
X156850000Y-143760000D01*
X269748000Y-121412000D02*
X271526000Y-123190000D01*
X290322000Y-184493812D02*
X286947432Y-187868380D01*
%TO.N,P18*%
X225790000Y-115960000D02*
X225800000Y-118120000D01*
X153170000Y-122920000D02*
X153550000Y-125050000D01*
X133480000Y-126390000D02*
X133850000Y-128520000D01*
X201400000Y-116950000D02*
X201550000Y-119100000D01*
X177210000Y-119300000D02*
X177470000Y-121450000D01*
X245780000Y-115780000D02*
X245800000Y-117940000D01*
%TO.N,P1*%
X254420000Y-105090000D02*
X255930000Y-105070000D01*
%TO.N,P0*%
X254440000Y-107630000D02*
X255950000Y-107610000D01*
%TO.N,P8*%
X240284000Y-128016000D02*
X239268000Y-127000000D01*
X241554000Y-121158000D02*
X241554000Y-114694067D01*
X245618000Y-133604000D02*
X248699400Y-133604000D01*
X248699400Y-133604000D02*
X251793071Y-130510329D01*
X239268000Y-127000000D02*
X239268000Y-123444000D01*
X243078000Y-133604000D02*
X243078000Y-133343266D01*
X241554000Y-114694067D02*
X240614486Y-113754553D01*
X240284000Y-130810000D02*
X240284000Y-128016000D01*
X240275683Y-114093356D02*
X240614486Y-113754553D01*
X243078000Y-133604000D02*
X240284000Y-130810000D01*
X238769312Y-114093356D02*
X240275683Y-114093356D01*
X239268000Y-123444000D02*
X241554000Y-121158000D01*
%TO.N,P9*%
X255871501Y-144432499D02*
X257334775Y-144432499D01*
X255726236Y-151332236D02*
X254508000Y-150114000D01*
X257394988Y-151332236D02*
X255726236Y-151332236D01*
X254508000Y-150114000D02*
X254508000Y-145796000D01*
X254508000Y-145796000D02*
X255871501Y-144432499D01*
%TO.N,P10*%
X261394836Y-151297330D02*
X261394836Y-144457806D01*
X261394836Y-151297330D02*
X261394836Y-151412836D01*
X261394836Y-144457806D02*
X261334623Y-144397593D01*
%TO.N,RAW*%
X263970000Y-105000000D02*
X262450000Y-105020000D01*
%TO.N,RST*%
X264010000Y-110080000D02*
X262500000Y-110100000D01*
%TO.N,VCC*%
X229108000Y-149606000D02*
X229108000Y-137692192D01*
X191953406Y-153944340D02*
X187960000Y-157937746D01*
X164300958Y-137884958D02*
X161544000Y-135128000D01*
X211963000Y-171069000D02*
X209042000Y-168148000D01*
X209042000Y-138204865D02*
X209042000Y-148844000D01*
X233107376Y-152857896D02*
X234407426Y-152857896D01*
X127028104Y-165100000D02*
X127952656Y-164175448D01*
X245872000Y-98552000D02*
X254762000Y-98552000D01*
X161544000Y-122428000D02*
X163576000Y-120396000D01*
X269960997Y-201126997D02*
X269240000Y-200406000D01*
X264394722Y-151271150D02*
X264394722Y-144431626D01*
X213936069Y-133310796D02*
X209042000Y-138204865D01*
X252476000Y-175514000D02*
X252476000Y-163189872D01*
X185166000Y-119888000D02*
X187452000Y-117602000D01*
X254508000Y-177546000D02*
X252476000Y-175514000D01*
X264334509Y-144371413D02*
X264334509Y-112924908D01*
X267716000Y-188468000D02*
X273812000Y-182372000D01*
X163576000Y-120396000D02*
X164781325Y-120396000D01*
X164781325Y-120396000D02*
X165467709Y-119709616D01*
X267716000Y-198882000D02*
X267716000Y-188468000D01*
X188076623Y-134990623D02*
X185166000Y-132080000D01*
X147917832Y-179413832D02*
X150948127Y-179413832D01*
X138430000Y-138938000D02*
X138430000Y-124968000D01*
X231648000Y-152146000D02*
X229108000Y-149606000D01*
X264394722Y-159238722D02*
X266954000Y-161798000D01*
X233769503Y-114136988D02*
X228854000Y-119052491D01*
X193100722Y-172720000D02*
X193278779Y-172898057D01*
X232941572Y-133858620D02*
X234241622Y-133858620D01*
X256404872Y-178161961D02*
X255123961Y-178161961D01*
X232704265Y-133136265D02*
X233935307Y-133136265D01*
X164423958Y-140858107D02*
X164423958Y-153755958D01*
X211963000Y-171069000D02*
X214027328Y-171069000D01*
X139446000Y-123952000D02*
X141461199Y-123952000D01*
X146124376Y-161364376D02*
X148070148Y-161364376D01*
X131251972Y-182886796D02*
X127260796Y-182886796D01*
X251913998Y-196119397D02*
X251237397Y-196119397D01*
X128128654Y-164592000D02*
X128373993Y-164837339D01*
X122428000Y-146050000D02*
X118618000Y-142240000D01*
X187960000Y-157937746D02*
X187960000Y-169418000D01*
X190628033Y-134990623D02*
X186436000Y-139182656D01*
X232156000Y-170942000D02*
X229362000Y-168148000D01*
X213556801Y-151765000D02*
X214101873Y-152310072D01*
X231243797Y-191111797D02*
X232551045Y-191111797D01*
X188314787Y-116739213D02*
X189652502Y-116739213D01*
X209764796Y-133310796D02*
X208788000Y-132334000D01*
X259080000Y-102870000D02*
X259080000Y-111113272D01*
X166739476Y-172327476D02*
X170013712Y-175601712D01*
X119126000Y-126746000D02*
X119132754Y-126752754D01*
X209042000Y-157369945D02*
X209042000Y-168148000D01*
X191516000Y-172720000D02*
X193100722Y-172720000D01*
X275767825Y-183169561D02*
X274609561Y-183169561D01*
X190628033Y-134990623D02*
X188076623Y-134990623D01*
X208788000Y-132334000D02*
X208788000Y-119126000D01*
X119132754Y-126752754D02*
X121354026Y-126752754D01*
X167411335Y-156743335D02*
X169712625Y-156743335D01*
X170013712Y-175601712D02*
X172028142Y-175601712D01*
X231658459Y-152135541D02*
X231648000Y-152146000D01*
X144349496Y-141991138D02*
X141983383Y-144357251D01*
X211963000Y-151765000D02*
X213556801Y-151765000D01*
X271780000Y-171450000D02*
X266954000Y-166624000D01*
X247904000Y-184150000D02*
X254508000Y-177546000D01*
X191425066Y-153416000D02*
X191953406Y-153944340D01*
X138430000Y-124968000D02*
X139446000Y-123952000D01*
X189992000Y-153416000D02*
X191425066Y-153416000D01*
X251237397Y-196119397D02*
X250190000Y-195072000D01*
X228854000Y-129286000D02*
X232704265Y-133136265D01*
X167397107Y-137884958D02*
X164423958Y-140858107D01*
X141983383Y-157223383D02*
X146124376Y-161364376D01*
X189992000Y-153416000D02*
X189230000Y-153416000D01*
X122936000Y-146050000D02*
X124067442Y-146050000D01*
X122936000Y-146050000D02*
X122428000Y-146050000D01*
X229362000Y-156603272D02*
X233107376Y-152857896D01*
X271276951Y-201126997D02*
X269960997Y-201126997D01*
X264394722Y-151271150D02*
X264394722Y-159238722D01*
X212880126Y-115033874D02*
X214076580Y-115033874D01*
X211836000Y-116078000D02*
X212880126Y-115033874D01*
X121920000Y-161798000D02*
X125222000Y-165100000D01*
X118618000Y-127254000D02*
X119126000Y-126746000D01*
X187452000Y-117602000D02*
X188314787Y-116739213D01*
X211963000Y-151765000D02*
X209042000Y-148844000D01*
X260602772Y-112636044D02*
X262519499Y-112636044D01*
X118618000Y-142240000D02*
X118618000Y-127254000D01*
X166739476Y-159716484D02*
X166739476Y-172327476D01*
X125222000Y-180848000D02*
X125222000Y-165100000D01*
X234074098Y-170942000D02*
X232156000Y-170942000D01*
X214027328Y-171069000D02*
X214267677Y-171309349D01*
X269240000Y-200406000D02*
X267716000Y-198882000D01*
X271780000Y-180340000D02*
X271780000Y-171450000D01*
X145034000Y-163317296D02*
X145034000Y-176530000D01*
X273812000Y-182372000D02*
X271780000Y-180340000D01*
X124067442Y-146050000D02*
X124653341Y-145464101D01*
X141983383Y-144357251D02*
X141983383Y-157223383D01*
X266954000Y-166624000D02*
X266954000Y-165100000D01*
X214101873Y-152310072D02*
X209042000Y-157369945D01*
X142145029Y-142653029D02*
X138430000Y-138938000D01*
X255123961Y-178161961D02*
X254508000Y-177546000D01*
X229362000Y-168148000D02*
X229362000Y-156603272D01*
X167397107Y-137884958D02*
X164300958Y-137884958D01*
X229108000Y-176293734D02*
X229108000Y-188722000D01*
X121920000Y-148197442D02*
X121920000Y-161798000D01*
X264030000Y-112620000D02*
X262520000Y-112640000D01*
X234101111Y-152135541D02*
X231658459Y-152135541D01*
X234266916Y-171134818D02*
X234074098Y-170942000D01*
X254762000Y-98552000D02*
X259080000Y-102870000D01*
X234266916Y-171134818D02*
X229108000Y-176293734D01*
X274609561Y-183169561D02*
X273812000Y-182372000D01*
X259080000Y-111113272D02*
X260602772Y-112636044D01*
X169712625Y-156743335D02*
X166739476Y-159716484D01*
X208788000Y-119126000D02*
X211836000Y-116078000D01*
X250190000Y-195072000D02*
X247904000Y-192786000D01*
X186436000Y-139182656D02*
X186436000Y-150622000D01*
X164423958Y-153755958D02*
X167411335Y-156743335D01*
X145034000Y-176530000D02*
X147917832Y-179413832D01*
X264334509Y-112924908D02*
X264032442Y-112622841D01*
X189230000Y-153416000D02*
X186436000Y-150622000D01*
X230632000Y-190246000D02*
X230632000Y-190500000D01*
X247904000Y-192786000D02*
X247904000Y-184150000D01*
X230632000Y-190500000D02*
X231243797Y-191111797D01*
X191516000Y-172720000D02*
X191262000Y-172720000D01*
X213936069Y-133310796D02*
X209764796Y-133310796D01*
X185166000Y-132080000D02*
X185166000Y-119888000D01*
X161544000Y-135128000D02*
X161544000Y-122428000D01*
X127260796Y-182886796D02*
X125222000Y-180848000D01*
X191262000Y-172720000D02*
X187960000Y-169418000D01*
X264394722Y-144431626D02*
X264334509Y-144371413D01*
X229108000Y-188722000D02*
X230632000Y-190246000D01*
X147648811Y-160702485D02*
X145034000Y-163317296D01*
X125222000Y-165100000D02*
X127028104Y-165100000D01*
X124653341Y-145464101D02*
X121920000Y-148197442D01*
X144770833Y-142653029D02*
X142145029Y-142653029D01*
X141461199Y-123952000D02*
X141471518Y-123941681D01*
X228854000Y-119052491D02*
X228854000Y-129286000D01*
X229108000Y-137692192D02*
X232941572Y-133858620D01*
X252476000Y-163189872D02*
X264394722Y-151271150D01*
%TO.N,GND*%
X255953520Y-200469369D02*
X257619369Y-200469369D01*
X226822000Y-171450000D02*
X228092000Y-170180000D01*
X182118000Y-176276000D02*
X180225488Y-178168512D01*
X220352235Y-117467765D02*
X220472000Y-117348000D01*
X164338000Y-159258000D02*
X162306000Y-157226000D01*
X143764000Y-181102000D02*
X144272000Y-180594000D01*
X240635787Y-155291787D02*
X240792000Y-155448000D01*
X174566723Y-139768723D02*
X174752000Y-139954000D01*
X174679218Y-158627100D02*
X176915100Y-158627100D01*
X246634000Y-122936000D02*
X246634000Y-126238000D01*
X154260371Y-162985629D02*
X154940000Y-162306000D01*
X281686000Y-192278000D02*
X281686000Y-187706000D01*
X144272000Y-180594000D02*
X144272000Y-169164000D01*
X248158000Y-140462000D02*
X255995748Y-140462000D01*
X151384000Y-143764000D02*
X154940000Y-147320000D01*
X247396000Y-127000000D02*
X247396000Y-131826000D01*
X261874000Y-199390000D02*
X264668000Y-199390000D01*
X248158000Y-161036000D02*
X248158000Y-141986000D01*
X162306000Y-140208000D02*
X159258000Y-137160000D01*
X221234000Y-177546000D02*
X227838000Y-177546000D01*
X139954000Y-143256000D02*
X137668000Y-140970000D01*
X160578815Y-177546000D02*
X163576000Y-177546000D01*
X259080000Y-144762003D02*
X259080000Y-143764000D01*
X172459654Y-120910346D02*
X172466000Y-120904000D01*
X159258000Y-133858000D02*
X149860000Y-124460000D01*
X247396000Y-131826000D02*
X246634000Y-132588000D01*
X284480000Y-204216000D02*
X285750000Y-202946000D01*
X181864000Y-127508000D02*
X181864000Y-133604000D01*
X243586000Y-136144000D02*
X243586000Y-138303000D01*
X138938000Y-186436000D02*
X155194000Y-186436000D01*
X254480000Y-112710000D02*
X256000000Y-112690000D01*
X246380000Y-161036000D02*
X240792000Y-155448000D01*
X136310347Y-184508049D02*
X138579951Y-184508049D01*
X246634000Y-126238000D02*
X247396000Y-127000000D01*
X228092000Y-161798000D02*
X221742000Y-155448000D01*
X238797237Y-117293234D02*
X240338766Y-117293234D01*
X163576000Y-177546000D02*
X164338000Y-176784000D01*
X186690000Y-155194000D02*
X186690000Y-162814000D01*
X138579951Y-184508049D02*
X138684000Y-184404000D01*
X198882000Y-177292000D02*
X198882000Y-176133660D01*
X264668000Y-179070000D02*
X264668000Y-182626000D01*
X154940000Y-147320000D02*
X162306000Y-147320000D01*
X199644000Y-156210000D02*
X198882000Y-156210000D01*
X179070000Y-124714000D02*
X181864000Y-127508000D01*
X207518000Y-162052000D02*
X205486000Y-162052000D01*
X205486000Y-162052000D02*
X199644000Y-156210000D01*
X177038000Y-158750000D02*
X181102000Y-162814000D01*
X207518000Y-170434000D02*
X207518000Y-162814000D01*
X221742000Y-155448000D02*
X220980000Y-155448000D01*
X244856000Y-171958000D02*
X245618000Y-171196000D01*
X236590567Y-199135168D02*
X238877399Y-201422000D01*
X245745000Y-140462000D02*
X248158000Y-140462000D01*
X257810000Y-200660000D02*
X263398000Y-206248000D01*
X245608695Y-132588000D02*
X243586000Y-134610695D01*
X264668000Y-182626000D02*
X262382000Y-182626000D01*
X260350048Y-109987143D02*
X262475168Y-107862023D01*
X266446000Y-187706000D02*
X264668000Y-185928000D01*
X243840000Y-173990000D02*
X244856000Y-172974000D01*
X207518000Y-162052000D02*
X207518000Y-144526000D01*
X170048183Y-120910346D02*
X172459654Y-120910346D01*
X138684000Y-184404000D02*
X138684000Y-186182000D01*
X207518000Y-144526000D02*
X205867000Y-144526000D01*
X165354000Y-182880000D02*
X166624000Y-181610000D01*
X281686000Y-187706000D02*
X279993814Y-187706000D01*
X281686000Y-187960000D02*
X281686000Y-187706000D01*
X195839073Y-137834045D02*
X196937955Y-137834045D01*
X204724000Y-172212000D02*
X205740000Y-172212000D01*
X244856000Y-172974000D02*
X244856000Y-171958000D01*
X156464000Y-185166000D02*
X157988000Y-185166000D01*
X260604000Y-200660000D02*
X261874000Y-199390000D01*
X164338000Y-165608000D02*
X164338000Y-159258000D01*
X264668000Y-199390000D02*
X266446000Y-197612000D01*
X242824000Y-119126000D02*
X246634000Y-122936000D01*
X151384000Y-143764000D02*
X150339490Y-143764000D01*
X255000889Y-201422000D02*
X255953520Y-200469369D01*
X279993814Y-187706000D02*
X279807347Y-187519533D01*
X198501000Y-137160000D02*
X197612000Y-137160000D01*
X207518000Y-144526000D02*
X207518000Y-128524000D01*
X156427839Y-181696976D02*
X160578815Y-177546000D01*
X260444394Y-182511933D02*
X262267933Y-182511933D01*
X138684000Y-186182000D02*
X138938000Y-186436000D01*
X198882000Y-179070000D02*
X198882000Y-177292000D01*
X156718000Y-185166000D02*
X156718000Y-183134000D01*
X179324000Y-181610000D02*
X181102000Y-179832000D01*
X139954000Y-150368000D02*
X139954000Y-143256000D01*
X127254000Y-129456160D02*
X126833738Y-129035898D01*
X131826000Y-147066000D02*
X135128000Y-150368000D01*
X177546000Y-178333658D02*
X177380854Y-178168512D01*
X177546000Y-179578000D02*
X177546000Y-178333658D01*
X243586000Y-134610695D02*
X243586000Y-136144000D01*
X277114000Y-205740000D02*
X275579504Y-205740000D01*
X184150000Y-152654000D02*
X186690000Y-155194000D01*
X131144755Y-147747245D02*
X131826000Y-147066000D01*
X198882000Y-176133660D02*
X198489819Y-175741479D01*
X240998936Y-174291064D02*
X241300000Y-173990000D01*
X240643489Y-136292511D02*
X240792000Y-136144000D01*
X181102000Y-179832000D02*
X198120000Y-179832000D01*
X274545442Y-206248000D02*
X275316473Y-205476969D01*
X177546000Y-181610000D02*
X177546000Y-179578000D01*
X241300000Y-173990000D02*
X243840000Y-173990000D01*
X133432368Y-166458592D02*
X134531408Y-166458592D01*
X220961682Y-155466318D02*
X220980000Y-155448000D01*
X135128000Y-165862000D02*
X138430000Y-169164000D01*
X246634000Y-132588000D02*
X245608695Y-132588000D01*
X144272000Y-161036000D02*
X139954000Y-156718000D01*
X180225488Y-178168512D02*
X177380854Y-178168512D01*
X149860000Y-124460000D02*
X148336000Y-124460000D01*
X197164446Y-156787762D02*
X198304238Y-156787762D01*
X236590567Y-195461769D02*
X236590567Y-199135168D01*
X177546000Y-181610000D02*
X179324000Y-181610000D01*
X248158000Y-141986000D02*
X248158000Y-140462000D01*
X236590567Y-195461769D02*
X238133769Y-195461769D01*
X138684000Y-184404000D02*
X141986000Y-181102000D01*
X126833738Y-129035898D02*
X128012102Y-129035898D01*
X238133769Y-195461769D02*
X238506000Y-195834000D01*
X178054000Y-143256000D02*
X184150000Y-143256000D01*
X153128523Y-162985629D02*
X154260371Y-162985629D01*
X130133053Y-147747245D02*
X131144755Y-147747245D01*
X174752000Y-139954000D02*
X178054000Y-143256000D01*
X129794000Y-128524000D02*
X128524000Y-128524000D01*
X154940000Y-162306000D02*
X158242000Y-165608000D01*
X221234000Y-174498000D02*
X219327816Y-174498000D01*
X282956000Y-193548000D02*
X281686000Y-192278000D01*
X182118000Y-175260000D02*
X182118000Y-176276000D01*
X285750000Y-202946000D02*
X285750000Y-194818000D01*
X228092000Y-170180000D02*
X228092000Y-161798000D01*
X162306000Y-147320000D02*
X162306000Y-140208000D01*
X262267933Y-182511933D02*
X262382000Y-182626000D01*
X221996000Y-136398000D02*
X220726000Y-136398000D01*
X275579504Y-205740000D02*
X275316473Y-205476969D01*
X196937955Y-137834045D02*
X197612000Y-137160000D01*
X239128845Y-155291787D02*
X240635787Y-155291787D01*
X254460000Y-110170000D02*
X255970000Y-110150000D01*
X230378000Y-177546000D02*
X236039714Y-177546000D01*
X162306000Y-157226000D02*
X162306000Y-147320000D01*
X240338766Y-117293234D02*
X240538000Y-117094000D01*
X181102000Y-162814000D02*
X186690000Y-162814000D01*
X263398000Y-166116000D02*
X263398000Y-177800000D01*
X257619369Y-200469369D02*
X257810000Y-200660000D01*
X238963041Y-136292511D02*
X240643489Y-136292511D01*
X224282000Y-171450000D02*
X226822000Y-171450000D01*
X256274959Y-149041923D02*
X256274959Y-146762081D01*
X245618000Y-171196000D02*
X247142000Y-171196000D01*
X263398000Y-177800000D02*
X264668000Y-179070000D01*
X205867000Y-144526000D02*
X198501000Y-137160000D01*
X247142000Y-171196000D02*
X248158000Y-170180000D01*
X176915100Y-158627100D02*
X177038000Y-158750000D01*
X228092000Y-142494000D02*
X221996000Y-136398000D01*
X134531408Y-166458592D02*
X135128000Y-165862000D01*
X184150000Y-143256000D02*
X184150000Y-152654000D01*
X218797999Y-117467765D02*
X220352235Y-117467765D01*
X198139977Y-175039172D02*
X201896828Y-175039172D01*
X255995748Y-140679748D02*
X255995748Y-140208000D01*
X137668000Y-136398000D02*
X129794000Y-128524000D01*
X262475168Y-107862023D02*
X262475168Y-107556237D01*
X266446000Y-197612000D02*
X266446000Y-187706000D01*
X263398000Y-206248000D02*
X274545442Y-206248000D01*
X201896828Y-175039172D02*
X204724000Y-172212000D01*
X202438000Y-179070000D02*
X203962000Y-177546000D01*
X228092000Y-151130000D02*
X228092000Y-142494000D01*
X155194000Y-186436000D02*
X156464000Y-185166000D01*
X256254888Y-146742010D02*
X257099993Y-146742010D01*
X176276000Y-124714000D02*
X179070000Y-124714000D01*
X128012102Y-129035898D02*
X128524000Y-128524000D01*
X219327816Y-174498000D02*
X219295411Y-174465595D01*
X236039714Y-177546000D02*
X239294650Y-174291064D01*
X228092000Y-161798000D02*
X228092000Y-151130000D01*
X156718000Y-181987137D02*
X156427839Y-181696976D01*
X198882000Y-179070000D02*
X202438000Y-179070000D01*
X257810000Y-200660000D02*
X260604000Y-200660000D01*
X195825672Y-118880328D02*
X196342000Y-118364000D01*
X159258000Y-137160000D02*
X159258000Y-133858000D01*
X263990000Y-107540000D02*
X262480000Y-107560000D01*
X258064246Y-110008440D02*
X256118214Y-110008440D01*
X172466000Y-120904000D02*
X176276000Y-124714000D01*
X207518000Y-162814000D02*
X207518000Y-162052000D01*
X139954000Y-156718000D02*
X139954000Y-150368000D01*
X228092000Y-142494000D02*
X228092000Y-124968000D01*
X256118214Y-110008440D02*
X255973582Y-110153072D01*
X238877399Y-201422000D02*
X255000889Y-201422000D01*
X186690000Y-172720000D02*
X185420000Y-173990000D01*
X264668000Y-185928000D02*
X264668000Y-182626000D01*
X203962000Y-177546000D02*
X221234000Y-177546000D01*
X243586000Y-138303000D02*
X245745000Y-140462000D01*
X221234000Y-174498000D02*
X224282000Y-171450000D01*
X185420000Y-173990000D02*
X183388000Y-173990000D01*
X150339490Y-143764000D02*
X149829208Y-144274282D01*
X248158000Y-161036000D02*
X246380000Y-161036000D01*
X257099993Y-146742010D02*
X259080000Y-144762003D01*
X205740000Y-172212000D02*
X207518000Y-170434000D01*
X248158000Y-165608000D02*
X248158000Y-161036000D01*
X172363700Y-139768723D02*
X174566723Y-139768723D01*
X278638000Y-205740000D02*
X280162000Y-204216000D01*
X198120000Y-179832000D02*
X198882000Y-179070000D01*
X277114000Y-205740000D02*
X278638000Y-205740000D01*
X248158000Y-170180000D02*
X248158000Y-165608000D01*
X157988000Y-185166000D02*
X160274000Y-182880000D01*
X158242000Y-165608000D02*
X164338000Y-165608000D01*
X221234000Y-174498000D02*
X221234000Y-177546000D01*
X135128000Y-150368000D02*
X139954000Y-150368000D01*
X183388000Y-173990000D02*
X182118000Y-175260000D01*
X164338000Y-176784000D02*
X164338000Y-165608000D01*
X255995748Y-140208000D02*
X255995748Y-112692976D01*
X184150000Y-135890000D02*
X184150000Y-143256000D01*
X240792000Y-136144000D02*
X243586000Y-136144000D01*
X259080000Y-143764000D02*
X255995748Y-140679748D01*
X198304238Y-156787762D02*
X198882000Y-156210000D01*
X141986000Y-181102000D02*
X143764000Y-181102000D01*
X144272000Y-169164000D02*
X144272000Y-161036000D01*
X137668000Y-140970000D02*
X137668000Y-136398000D01*
X197358000Y-118364000D02*
X196342000Y-118364000D01*
X219129607Y-155466318D02*
X220961682Y-155466318D01*
X147632827Y-124460000D02*
X146529893Y-125562934D01*
X148336000Y-124460000D02*
X147632827Y-124460000D01*
X284480000Y-193548000D02*
X282956000Y-193548000D01*
X285750000Y-194818000D02*
X284480000Y-193548000D01*
X220656958Y-136467042D02*
X220726000Y-136398000D01*
X239294650Y-174291064D02*
X240998936Y-174291064D01*
X160274000Y-182880000D02*
X165354000Y-182880000D01*
X228092000Y-124968000D02*
X220472000Y-117348000D01*
X280162000Y-204216000D02*
X284480000Y-204216000D01*
X242824000Y-117094000D02*
X242824000Y-119126000D01*
X218963803Y-136467042D02*
X220656958Y-136467042D01*
X156718000Y-183134000D02*
X156718000Y-181987137D01*
X186690000Y-162814000D02*
X186690000Y-172720000D01*
X256274959Y-146762081D02*
X256254888Y-146742010D01*
X194513700Y-118880328D02*
X195825672Y-118880328D01*
X181864000Y-133604000D02*
X184150000Y-135890000D01*
X138430000Y-169164000D02*
X144272000Y-169164000D01*
X166624000Y-181610000D02*
X177546000Y-181610000D01*
X207518000Y-128524000D02*
X197358000Y-118364000D01*
%TO.N,_1_0*%
X253570000Y-105090000D02*
X251570000Y-105110000D01*
%TO.N,_1_23*%
X264810000Y-105000000D02*
X266810000Y-104980000D01*
%TO.N,_1_1*%
X253590000Y-107630000D02*
X251590000Y-107650000D01*
%TO.N,_1_22*%
X264830000Y-107540000D02*
X266830000Y-107520000D01*
%TO.N,_1_2*%
X253620000Y-110170000D02*
X251620000Y-110190000D01*
%TO.N,_1_21*%
X264860000Y-110080000D02*
X266860000Y-110060000D01*
%TO.N,_1_3*%
X253640000Y-112710000D02*
X251640000Y-112730000D01*
%TO.N,_1_20*%
X264880000Y-112620000D02*
X266880000Y-112600000D01*
%TO.N,L001*%
X233786294Y-117348000D02*
X233797428Y-117336866D01*
X221455887Y-114267887D02*
X218770074Y-114267887D01*
X221488000Y-114300000D02*
X221455887Y-114267887D01*
X232156000Y-117348000D02*
X233786294Y-117348000D01*
%TO.N,L002*%
X213199587Y-118110000D02*
X213798190Y-117511397D01*
X195715877Y-115688123D02*
X196088000Y-115316000D01*
X211582000Y-118110000D02*
X213199587Y-118110000D01*
X194290480Y-115688123D02*
X194936123Y-115688123D01*
X194290480Y-115688123D02*
X195715877Y-115688123D01*
%TO.N,L003*%
X189120991Y-119634000D02*
X189525880Y-119229111D01*
X187706000Y-119634000D02*
X189120991Y-119634000D01*
X171396766Y-118417234D02*
X171958000Y-117856000D01*
X170044320Y-118417234D02*
X171396766Y-118417234D01*
%TO.N,L004*%
X147082451Y-122411549D02*
X147828000Y-121666000D01*
X145974219Y-122411549D02*
X147082451Y-122411549D01*
X164992300Y-122682000D02*
X165471572Y-122202728D01*
X163830000Y-122682000D02*
X164992300Y-122682000D01*
%TO.N,L005*%
X139954000Y-127000000D02*
X141037030Y-127000000D01*
X127861487Y-125884513D02*
X128524000Y-125222000D01*
X141037030Y-127000000D02*
X141605855Y-126431175D01*
X126278064Y-125884513D02*
X127293491Y-125884513D01*
X126278064Y-125884513D02*
X127861487Y-125884513D01*
%TO.N,L006*%
X238506000Y-127508000D02*
X238935116Y-127937116D01*
X121920000Y-132080000D02*
X121909700Y-132069700D01*
X238935116Y-133092633D02*
X241042633Y-133092633D01*
X238935116Y-127937116D02*
X238935116Y-133092633D01*
X238506000Y-120142000D02*
X238506000Y-127508000D01*
X241042633Y-133092633D02*
X241046000Y-133096000D01*
X121909700Y-132069700D02*
X121909700Y-129904139D01*
%TO.N,L007*%
X232156000Y-136144000D02*
X233771089Y-136144000D01*
X220300836Y-133267164D02*
X220726000Y-132842000D01*
X218935878Y-133267164D02*
X220300836Y-133267164D01*
X233771089Y-136144000D02*
X233963232Y-136336143D01*
%TO.N,L008*%
X197082160Y-134641840D02*
X197358000Y-134366000D01*
X213568668Y-136906000D02*
X213963994Y-136510674D01*
X195615853Y-134641840D02*
X197082160Y-134641840D01*
X212344000Y-136906000D02*
X213568668Y-136906000D01*
X195326000Y-134351987D02*
X195615853Y-134641840D01*
X195615853Y-134641840D02*
X196363840Y-134641840D01*
%TO.N,L009*%
X171824970Y-136740744D02*
X172359837Y-137275611D01*
X172359837Y-137275611D02*
X173874389Y-137275611D01*
X190350081Y-138684000D02*
X190851253Y-138182828D01*
X173874389Y-137275611D02*
X174244000Y-136906000D01*
X189230000Y-138684000D02*
X190350081Y-138684000D01*
%TO.N,L010*%
X149273534Y-141122897D02*
X150723103Y-141122897D01*
X150723103Y-141122897D02*
X151130000Y-140716000D01*
X150288961Y-141122897D02*
X149273534Y-141122897D01*
X167116194Y-141732000D02*
X167787089Y-141061105D01*
X148336000Y-141120990D02*
X149103987Y-141888977D01*
X166116000Y-141732000D02*
X167116194Y-141732000D01*
%TO.N,L011*%
X129577379Y-144595860D02*
X130592806Y-144595860D01*
X143256000Y-145796000D02*
X144251693Y-145796000D01*
X130740140Y-144595860D02*
X131318000Y-144018000D01*
X129577379Y-144595860D02*
X130740140Y-144595860D01*
X144251693Y-145796000D02*
X144905170Y-145142523D01*
%TO.N,L012*%
X239100920Y-139024920D02*
X239100920Y-152091909D01*
X125209015Y-150355015D02*
X125209015Y-148615486D01*
X240846091Y-152091909D02*
X241046000Y-151892000D01*
X239100920Y-152091909D02*
X240846091Y-152091909D01*
X125222000Y-150368000D02*
X125209015Y-150355015D01*
%TO.N,L013*%
X232410000Y-155448000D02*
X234016455Y-155448000D01*
X219101682Y-152266440D02*
X220859560Y-152266440D01*
X234016455Y-155448000D02*
X234129036Y-155335419D01*
X220859560Y-152266440D02*
X220980000Y-152146000D01*
%TO.N,L014*%
X212344000Y-155956000D02*
X213683748Y-155956000D01*
X196941226Y-153595557D02*
X198194443Y-153595557D01*
X198194443Y-153595557D02*
X198628000Y-153162000D01*
X213683748Y-155956000D02*
X214129798Y-155509950D01*
X196596000Y-153250331D02*
X196941226Y-153595557D01*
%TO.N,L015*%
X174349420Y-155808053D02*
X174675355Y-156133988D01*
X190500000Y-157734000D02*
X191579171Y-157734000D01*
X176784000Y-155702000D02*
X176530000Y-155702000D01*
X191579171Y-157734000D02*
X192176626Y-157136545D01*
X176098012Y-156133988D02*
X176530000Y-155702000D01*
X174675355Y-156133988D02*
X176098012Y-156133988D01*
%TO.N,L016*%
X155194000Y-159004000D02*
X154363756Y-159834244D01*
X168402000Y-160528000D02*
X169494089Y-160528000D01*
X154363756Y-159834244D02*
X152572849Y-159834244D01*
X169494089Y-160528000D02*
X170102607Y-159919482D01*
%TO.N,L017*%
X147466355Y-164592000D02*
X148204485Y-163853870D01*
X134888793Y-163307207D02*
X132876694Y-163307207D01*
X132876694Y-163307207D02*
X133892121Y-163307207D01*
X135636000Y-162560000D02*
X134888793Y-163307207D01*
X146558000Y-164592000D02*
X147466355Y-164592000D01*
%TO.N,L018*%
X239266725Y-171091186D02*
X241449186Y-171091186D01*
X239266725Y-158243275D02*
X239266725Y-171091186D01*
X128524000Y-169418000D02*
X128508330Y-169402330D01*
X241300000Y-171091186D02*
X239266725Y-171091186D01*
X128508330Y-169402330D02*
X128508330Y-167326833D01*
X239268000Y-158242000D02*
X239266725Y-158243275D01*
%TO.N,L019*%
X234131537Y-174498000D02*
X234294841Y-174334696D01*
X221164283Y-171265717D02*
X219267486Y-171265717D01*
X232664000Y-174498000D02*
X234131537Y-174498000D01*
X221234000Y-171196000D02*
X221164283Y-171265717D01*
%TO.N,L020*%
X211582000Y-174752000D02*
X214052829Y-174752000D01*
X200830726Y-172549274D02*
X198266599Y-172549274D01*
X214052829Y-174752000D02*
X214295602Y-174509227D01*
X200914000Y-172466000D02*
X200830726Y-172549274D01*
X197866000Y-172148675D02*
X198266599Y-172549274D01*
%TO.N,L021*%
X176664938Y-174666431D02*
X176990872Y-174992365D01*
X179337635Y-174992365D02*
X176990872Y-174992365D01*
X179832000Y-174498000D02*
X179337635Y-174992365D01*
X193062261Y-176530000D02*
X193501999Y-176090262D01*
X191770000Y-176530000D02*
X193062261Y-176530000D01*
%TO.N,L022*%
X169418000Y-179324000D02*
X171871983Y-179324000D01*
X158496000Y-177546000D02*
X157496409Y-178545591D01*
X157496409Y-178545591D02*
X155872165Y-178545591D01*
X171871983Y-179324000D02*
X172418124Y-178777859D01*
%TO.N,L023*%
X150935018Y-183134000D02*
X151503801Y-182565217D01*
X138684000Y-181356000D02*
X138021445Y-182018555D01*
X138021445Y-182018555D02*
X136176010Y-182018555D01*
X149606000Y-183134000D02*
X150935018Y-183134000D01*
%TO.N,L024*%
X227330000Y-178308000D02*
X204216000Y-178308000D01*
X155702000Y-187452000D02*
X133096000Y-187452000D01*
X283210000Y-192532000D02*
X283464000Y-192278000D01*
X158496000Y-186182000D02*
X156972000Y-186182000D01*
X179832000Y-182372000D02*
X167132000Y-182372000D01*
X167132000Y-182372000D02*
X165862000Y-183642000D01*
X165862000Y-183642000D02*
X161036000Y-183642000D01*
X202692000Y-179832000D02*
X199390000Y-179832000D01*
X283464000Y-192278000D02*
X283464000Y-185928000D01*
X181610000Y-180594000D02*
X179832000Y-182372000D01*
X199390000Y-179832000D02*
X198628000Y-180594000D01*
X227838000Y-178816000D02*
X227330000Y-178308000D01*
X131807646Y-186163646D02*
X131807646Y-186038181D01*
X281957461Y-184421461D02*
X282448000Y-184912000D01*
X133096000Y-187452000D02*
X131807646Y-186163646D01*
X161036000Y-183642000D02*
X158496000Y-186182000D01*
X198628000Y-180594000D02*
X181610000Y-180594000D01*
X156972000Y-186182000D02*
X155702000Y-187452000D01*
X280608563Y-184421461D02*
X281957461Y-184421461D01*
X283464000Y-185928000D02*
X282448000Y-184912000D01*
X204216000Y-178308000D02*
X202692000Y-179832000D01*
%TO.N,L025*%
X261245610Y-179413861D02*
X262725861Y-179413861D01*
X260773640Y-180040654D02*
X261828654Y-180040654D01*
X274626976Y-185928000D02*
X274966609Y-186267633D01*
X262725861Y-179413861D02*
X263144000Y-179832000D01*
X273304000Y-185928000D02*
X274626976Y-185928000D01*
%TO.N,L026*%
X254762000Y-182880000D02*
X255603656Y-182038344D01*
X277816897Y-202378897D02*
X278130000Y-202692000D01*
X255603656Y-182038344D02*
X255603656Y-181260033D01*
X276117689Y-202378897D02*
X277816897Y-202378897D01*
%TO.N,L027*%
X258331297Y-197371297D02*
X258572000Y-197612000D01*
X268478000Y-203962000D02*
X270212666Y-203962000D01*
X270212666Y-203962000D02*
X270475735Y-204225069D01*
X256754736Y-197371297D02*
X258331297Y-197371297D01*
%TO.N,L028*%
X239099697Y-192363697D02*
X239268000Y-192532000D01*
X237391783Y-192363697D02*
X239099697Y-192363697D01*
X249174000Y-198882000D02*
X250777313Y-198882000D01*
X250777313Y-198882000D02*
X251112782Y-199217469D01*
%TO.N,L029*%
X233564569Y-193583076D02*
X232221799Y-193583076D01*
X229870000Y-193802000D02*
X231341960Y-193802000D01*
X231341960Y-193802000D02*
X231749829Y-194209869D01*
%TD*%
M02*
