M48
; DRILL file {KiCad 7.0.10-7.0.10~ubuntu22.04.1} date Thu 29 Feb 2024 11:27:06 PM MST
; FORMAT={-:-/ absolute / inch / decimal}
; #@! TF.CreationDate,2024-02-29T23:27:06-07:00
; #@! TF.GenerationSoftware,Kicad,Pcbnew,7.0.10-7.0.10~ubuntu22.04.1
; #@! TF.FileFunction,Plated,1,2,PTH
FMAT,2
INCH
; #@! TA.AperFunction,Plated,PTH,ViaDrill
T1C0.0157
; #@! TA.AperFunction,Plated,PTH,ComponentDrill
T2C0.0157
; #@! TA.AperFunction,Plated,PTH,ComponentDrill
T3C0.0354
; #@! TA.AperFunction,Plated,PTH,ComponentDrill
T4C0.0390
; #@! TA.AperFunction,Plated,PTH,ComponentDrill
T5C0.0394
%
G90
G05
T1
X4.69Y-4.99
X4.8Y-5.2
X4.84Y-5.75
X4.93Y-5.92
X4.93Y-6.5
X5.06Y-4.93
X5.06Y-5.06
X5.06Y-6.67
X5.08Y-7.2
X5.17Y-5.67
X5.19Y-5.79
X5.24Y-7.38
X5.32Y-6.53
X5.34Y-6.4
X5.46Y-7.14
X5.46Y-7.26
X5.49Y-4.88
X5.51Y-5.0
X5.6Y-5.61
X5.64Y-5.74
X5.75Y-6.35
X5.77Y-6.48
X5.82Y-4.79
X5.84Y-4.9
X5.86Y-7.06
X5.89Y-7.21
X5.95Y-5.54
X5.96Y-5.66
X6.1Y-6.39
X6.11Y-6.26
X6.17Y-7.21
X6.24Y-6.99
X6.44Y-4.74
X6.45Y-4.83
X6.52Y-5.43
X6.54Y-5.58
X6.6Y-6.17
X6.63Y-6.32
X6.67Y-7.06
X6.7Y-6.91
X6.77Y-4.64
X6.79Y-4.76
X6.86Y-5.39
X6.88Y-5.51
X6.95Y-6.13
X6.97Y-6.25
X6.99Y-7.07
X7.08Y-6.87
X7.38Y-4.63
X7.39Y-4.71
X7.41Y-5.3146
X7.45Y-5.46
X7.48Y-6.04
X7.5Y-6.21
X7.54Y-6.8
X7.55Y-6.95
X7.72Y-4.54
X7.73Y-4.66
X7.77Y-5.29
X7.78Y-5.4
X7.82Y-6.03
X7.83Y-6.15
X7.83Y-6.98
X7.91Y-6.79
X8.33Y-4.65
X8.33Y-6.88
X8.34Y-4.57
X8.345Y-5.975
X8.345Y-6.735
X8.35Y-5.25
X8.36Y-5.39
X8.36Y-6.14
X8.68Y-4.62
X8.69Y-5.23
X8.69Y-5.37
X8.7Y-5.99
X8.7Y-6.12
X8.71Y-6.74
X8.71Y-6.87
X8.72Y-4.5
X8.97Y-6.99
X8.97Y-7.04
X9.05Y-7.63
X9.07Y-6.99
X9.08Y-7.49
X9.12Y-5.99
X9.13Y-4.56
X9.14Y-4.62
X9.14Y-5.22
X9.14Y-5.36
X9.14Y-6.73
X9.15Y-6.12
X9.16Y-6.87
X9.39Y-4.73
X9.39Y-7.71
X9.4134Y-5.4734
X9.42Y-6.23
X9.42Y-7.58
X9.47Y-4.61
X9.473Y-4.4785
X9.48Y-5.36
X9.48Y-6.12
X9.49Y-5.24
X9.49Y-5.98
X9.5Y-6.7359
X9.5Y-6.85
X9.56Y-4.61
X9.57Y-5.26
X9.67Y-5.26
X9.68Y-3.88
X9.81Y-7.83
X9.85Y-7.68
X10.02Y-6.99
X10.03Y-7.2
X10.15Y-7.9
X10.16Y-4.331
X10.18Y-7.78
X10.25Y-4.3302
X10.33Y-7.19
X10.36Y-7.08
X10.37Y-6.54
X10.51Y-6.37
X10.51Y-6.5
X10.57Y-8.03
X10.6Y-7.89
X10.62Y-4.68
X10.62Y-4.78
X10.76Y-7.32
X10.78Y-7.18
X10.91Y-8.1
X10.95Y-7.98
X11.09Y-7.39
X11.12Y-7.28
X11.15Y-7.58
T2
X4.7693Y-4.7159
X4.8992Y-5.4526
X5.0291Y-6.1892
X5.1365Y-4.871
X5.159Y-6.9259
X5.2664Y-5.6077
X5.3963Y-6.3444
X5.5262Y-7.081
X5.5448Y-4.5792
X5.6747Y-5.3158
X5.8045Y-6.0525
X5.9119Y-4.7343
X5.9344Y-6.7892
X6.0418Y-5.471
X6.1717Y-6.2076
X6.3016Y-6.9443
X6.5052Y-4.4117
X6.5964Y-5.1541
X6.6876Y-5.8966
X6.7787Y-6.639
X6.8638Y-4.5858
X6.9549Y-5.3283
X7.0461Y-6.0707
X7.1373Y-6.8132
X7.4732Y-4.2946
X7.5254Y-5.0409
X7.5775Y-5.7871
X7.6297Y-6.5333
X7.8221Y-4.4873
X7.8743Y-5.2335
X7.9265Y-5.9797
X7.9787Y-6.7259
X8.4532Y-4.2285
X8.4597Y-4.9765
X8.4662Y-5.7245
X8.4727Y-6.4725
X8.7897Y-4.4421
X8.7962Y-5.1901
X8.8027Y-5.9381
X8.8093Y-6.6861
X9.2405Y-4.2216
X9.247Y-4.9696
X9.2536Y-5.7176
X9.2601Y-6.4656
X9.2617Y-7.2709
X9.5315Y-7.5644
X9.577Y-4.4352
X9.5836Y-5.1832
X9.5901Y-5.9312
X9.5966Y-6.6792
X10.024Y-7.4681
X10.076Y-4.1367
X10.0768Y-4.2367
X10.0777Y-4.3367
X10.0786Y-4.4367
X10.2008Y-6.7611
X10.2938Y-7.7615
X10.3328Y-4.1345
X10.3337Y-4.2345
X10.3345Y-4.3345
X10.3354Y-4.4345
X10.4706Y-7.0545
X10.7863Y-7.6652
X10.9631Y-6.9583
X11.0561Y-7.9587
X11.2329Y-7.2517
T4
X5.2176Y-4.7644
X5.2697Y-5.0598
X5.3475Y-5.5011
X5.3996Y-5.7965
X5.4774Y-6.2377
X5.5295Y-6.5332
X5.6073Y-6.9744
X5.6594Y-7.2698
X5.9931Y-4.6277
X6.0452Y-4.9231
X6.123Y-5.3643
X6.175Y-5.6598
X6.2528Y-6.101
X6.3049Y-6.3964
X6.3827Y-6.8377
X6.4348Y-7.1331
X6.9504Y-4.4835
X6.987Y-4.7813
X7.0416Y-5.226
X7.0781Y-5.5238
X7.1327Y-5.9684
X7.1693Y-6.2662
X7.2239Y-6.7109
X7.2604Y-7.0087
X7.914Y-4.3897
X7.9349Y-4.689
X7.9661Y-5.1359
X7.9871Y-5.4352
X8.0183Y-5.8821
X8.0392Y-6.1814
X8.0705Y-6.6283
X8.0914Y-6.9276
X8.8873Y-4.3503
X8.8899Y-4.6503
X8.8938Y-5.0983
X8.8964Y-5.3983
X8.9004Y-5.8463
X8.903Y-6.1463
X8.9069Y-6.5943
X8.9095Y-6.8943
X9.5744Y-7.7914
X9.6495Y-7.501
X9.6747Y-4.3434
X9.6773Y-4.6434
X9.6812Y-5.0914
X9.6838Y-5.3914
X9.6877Y-5.8394
X9.6903Y-6.1394
X9.6943Y-6.5874
X9.6969Y-6.8874
X10.3367Y-7.9886
X10.4118Y-7.6981
X10.5135Y-7.2816
X10.5886Y-6.9911
X11.099Y-8.1857
X11.1742Y-7.8953
X11.2759Y-7.4787
X11.351Y-7.1883
T5
X9.9044Y-4.1382
X9.9053Y-4.2382
X9.9061Y-4.3382
X9.907Y-4.4382
X9.9079Y-4.5382
X9.9087Y-4.6382
X9.9096Y-4.7382
X9.9105Y-4.8382
X9.9114Y-4.9382
X9.9122Y-5.0382
X9.9131Y-5.1382
X9.914Y-5.2382
X10.5044Y-4.133
X10.5052Y-4.233
X10.5061Y-4.333
X10.507Y-4.433
X10.5079Y-4.533
X10.5087Y-4.633
X10.5096Y-4.733
X10.5105Y-4.833
X10.5113Y-4.933
X10.5122Y-5.033
X10.5131Y-5.133
X10.514Y-5.233
T3
G00X10.1006Y-5.7771
M15
G01X10.077Y-5.7773
M16
G05
G00X10.1014Y-5.8677
M15
G01X10.0778Y-5.8679
M16
G05
G00X10.1431Y-5.6862
M15
G01X10.1195Y-5.6864
M16
G05
G00X10.1455Y-5.9579
M15
G01X10.1219Y-5.9581
M16
G05
G00X10.3006Y-5.6848
M15
G01X10.277Y-5.685
M16
G05
G00X10.3029Y-5.9565
M15
G01X10.2793Y-5.9567
M16
G05
G00X10.4187Y-5.6838
M15
G01X10.3951Y-5.684
M16
G05
G00X10.4211Y-5.9555
M15
G01X10.3974Y-5.9557
M16
G05
M30
