%TF.GenerationSoftware,KiCad,Pcbnew,7.0.10-7.0.10~ubuntu22.04.1*%
%TF.CreationDate,2024-02-29T23:27:09-07:00*%
%TF.ProjectId,boardPcb,626f6172-6450-4636-922e-6b696361645f,v1.0.0*%
%TF.SameCoordinates,Original*%
%TF.FileFunction,Legend,Bot*%
%TF.FilePolarity,Positive*%
%FSLAX46Y46*%
G04 Gerber Fmt 4.6, Leading zero omitted, Abs format (unit mm)*
G04 Created by KiCad (PCBNEW 7.0.10-7.0.10~ubuntu22.04.1) date 2024-02-29 23:27:09*
%MOMM*%
%LPD*%
G01*
G04 APERTURE LIST*
%ADD10C,0.150000*%
%ADD11C,0.100000*%
G04 APERTURE END LIST*
D10*
X241725220Y-200021819D02*
X241725220Y-199021819D01*
X241725220Y-199021819D02*
X241344268Y-199021819D01*
X241344268Y-199021819D02*
X241249030Y-199069438D01*
X241249030Y-199069438D02*
X241201411Y-199117057D01*
X241201411Y-199117057D02*
X241153792Y-199212295D01*
X241153792Y-199212295D02*
X241153792Y-199355152D01*
X241153792Y-199355152D02*
X241201411Y-199450390D01*
X241201411Y-199450390D02*
X241249030Y-199498009D01*
X241249030Y-199498009D02*
X241344268Y-199545628D01*
X241344268Y-199545628D02*
X241725220Y-199545628D01*
X240772839Y-199117057D02*
X240725220Y-199069438D01*
X240725220Y-199069438D02*
X240629982Y-199021819D01*
X240629982Y-199021819D02*
X240391887Y-199021819D01*
X240391887Y-199021819D02*
X240296649Y-199069438D01*
X240296649Y-199069438D02*
X240249030Y-199117057D01*
X240249030Y-199117057D02*
X240201411Y-199212295D01*
X240201411Y-199212295D02*
X240201411Y-199307533D01*
X240201411Y-199307533D02*
X240249030Y-199450390D01*
X240249030Y-199450390D02*
X240820458Y-200021819D01*
X240820458Y-200021819D02*
X240201411Y-200021819D01*
X239249030Y-200021819D02*
X239820458Y-200021819D01*
X239534744Y-200021819D02*
X239534744Y-199021819D01*
X239534744Y-199021819D02*
X239629982Y-199164676D01*
X239629982Y-199164676D02*
X239725220Y-199259914D01*
X239725220Y-199259914D02*
X239820458Y-199307533D01*
X267521396Y-137398156D02*
X267997569Y-137394001D01*
X267997569Y-137394001D02*
X267988842Y-136394039D01*
X267187244Y-137305831D02*
X267140043Y-137353864D01*
X267140043Y-137353864D02*
X267188076Y-137401065D01*
X267188076Y-137401065D02*
X267235277Y-137353032D01*
X267235277Y-137353032D02*
X267187244Y-137305831D01*
X267187244Y-137305831D02*
X267188076Y-137401065D01*
X265997229Y-137363837D02*
X265854793Y-137412701D01*
X265854793Y-137412701D02*
X265616707Y-137414778D01*
X265616707Y-137414778D02*
X265521057Y-137367992D01*
X265521057Y-137367992D02*
X265473024Y-137320791D01*
X265473024Y-137320791D02*
X265424576Y-137225972D01*
X265424576Y-137225972D02*
X265423745Y-137130737D01*
X265423745Y-137130737D02*
X265470531Y-137035087D01*
X265470531Y-137035087D02*
X265517733Y-136987054D01*
X265517733Y-136987054D02*
X265612552Y-136938606D01*
X265612552Y-136938606D02*
X265802605Y-136889327D01*
X265802605Y-136889327D02*
X265897424Y-136840878D01*
X265897424Y-136840878D02*
X265944626Y-136792845D01*
X265944626Y-136792845D02*
X265991412Y-136697195D01*
X265991412Y-136697195D02*
X265990581Y-136601961D01*
X265990581Y-136601961D02*
X265942132Y-136507142D01*
X265942132Y-136507142D02*
X265894099Y-136459940D01*
X265894099Y-136459940D02*
X265798449Y-136413154D01*
X265798449Y-136413154D02*
X265560363Y-136415232D01*
X265560363Y-136415232D02*
X265417927Y-136464096D01*
X264997683Y-137420181D02*
X264991865Y-136753539D01*
X264988956Y-136420219D02*
X265036989Y-136467420D01*
X265036989Y-136467420D02*
X264989787Y-136515453D01*
X264989787Y-136515453D02*
X264941755Y-136468251D01*
X264941755Y-136468251D02*
X264988956Y-136420219D01*
X264988956Y-136420219D02*
X264989787Y-136515453D01*
X264092956Y-137428076D02*
X264084229Y-136428114D01*
X264092540Y-137380459D02*
X264188190Y-137427245D01*
X264188190Y-137427245D02*
X264378659Y-137425583D01*
X264378659Y-137425583D02*
X264473478Y-137377134D01*
X264473478Y-137377134D02*
X264520680Y-137329102D01*
X264520680Y-137329102D02*
X264567466Y-137233452D01*
X264567466Y-137233452D02*
X264564973Y-136947748D01*
X264564973Y-136947748D02*
X264516524Y-136852929D01*
X264516524Y-136852929D02*
X264468492Y-136805727D01*
X264468492Y-136805727D02*
X264372842Y-136758941D01*
X264372842Y-136758941D02*
X264182373Y-136760604D01*
X264182373Y-136760604D02*
X264087554Y-136809052D01*
X263235430Y-137387939D02*
X263331080Y-137434725D01*
X263331080Y-137434725D02*
X263521549Y-137433063D01*
X263521549Y-137433063D02*
X263616368Y-137384614D01*
X263616368Y-137384614D02*
X263663154Y-137288964D01*
X263663154Y-137288964D02*
X263659830Y-136908026D01*
X263659830Y-136908026D02*
X263611381Y-136813207D01*
X263611381Y-136813207D02*
X263515731Y-136766421D01*
X263515731Y-136766421D02*
X263325262Y-136768083D01*
X263325262Y-136768083D02*
X263230443Y-136816532D01*
X263230443Y-136816532D02*
X263183657Y-136912182D01*
X263183657Y-136912182D02*
X263184488Y-137007416D01*
X263184488Y-137007416D02*
X263661492Y-137098495D01*
X261994473Y-137065422D02*
X261232597Y-137072071D01*
X259703443Y-136466345D02*
X259709677Y-137180603D01*
X259709677Y-137180603D02*
X259758540Y-137323039D01*
X259758540Y-137323039D02*
X259854606Y-137417443D01*
X259854606Y-137417443D02*
X259997873Y-137463813D01*
X259997873Y-137463813D02*
X260093108Y-137462982D01*
X258801625Y-136807561D02*
X258807442Y-137474202D01*
X259230180Y-136803821D02*
X259234751Y-137327610D01*
X259234751Y-137327610D02*
X259187965Y-137423260D01*
X259187965Y-137423260D02*
X259093146Y-137471709D01*
X259093146Y-137471709D02*
X258950294Y-137472955D01*
X258950294Y-137472955D02*
X258854644Y-137426169D01*
X258854644Y-137426169D02*
X258806611Y-137378967D01*
X258331270Y-137478357D02*
X258325452Y-136811716D01*
X258326283Y-136906951D02*
X258278250Y-136859749D01*
X258278250Y-136859749D02*
X258182600Y-136812963D01*
X258182600Y-136812963D02*
X258039749Y-136814209D01*
X258039749Y-136814209D02*
X257944930Y-136862658D01*
X257944930Y-136862658D02*
X257898144Y-136958308D01*
X257898144Y-136958308D02*
X257902715Y-137482097D01*
X257898144Y-136958308D02*
X257849695Y-136863489D01*
X257849695Y-136863489D02*
X257754045Y-136816703D01*
X257754045Y-136816703D02*
X257611194Y-136817949D01*
X257611194Y-136817949D02*
X257516375Y-136866398D01*
X257516375Y-136866398D02*
X257469589Y-136962048D01*
X257469589Y-136962048D02*
X257474160Y-137485837D01*
X256992170Y-136823352D02*
X257000896Y-137823313D01*
X256992585Y-136870969D02*
X256896935Y-136824183D01*
X256896935Y-136824183D02*
X256706466Y-136825845D01*
X256706466Y-136825845D02*
X256611648Y-136874293D01*
X256611648Y-136874293D02*
X256564446Y-136922326D01*
X256564446Y-136922326D02*
X256517660Y-137017976D01*
X256517660Y-137017976D02*
X256520153Y-137303679D01*
X256520153Y-137303679D02*
X256568601Y-137398498D01*
X256568601Y-137398498D02*
X256616634Y-137445700D01*
X256616634Y-137445700D02*
X256712284Y-137492486D01*
X256712284Y-137492486D02*
X256902753Y-137490824D01*
X256902753Y-137490824D02*
X256997572Y-137442376D01*
X255711907Y-137453595D02*
X255807557Y-137500382D01*
X255807557Y-137500382D02*
X255998026Y-137498719D01*
X255998026Y-137498719D02*
X256092844Y-137450271D01*
X256092844Y-137450271D02*
X256139631Y-137354621D01*
X256139631Y-137354621D02*
X256136306Y-136973683D01*
X256136306Y-136973683D02*
X256087858Y-136878864D01*
X256087858Y-136878864D02*
X255992208Y-136832078D01*
X255992208Y-136832078D02*
X255801739Y-136833740D01*
X255801739Y-136833740D02*
X255706920Y-136882189D01*
X255706920Y-136882189D02*
X255660134Y-136977839D01*
X255660134Y-136977839D02*
X255660965Y-137073073D01*
X255660965Y-137073073D02*
X256137968Y-137164152D01*
X255236150Y-137505368D02*
X255230332Y-136838727D01*
X255231994Y-137029196D02*
X255183546Y-136934377D01*
X255183546Y-136934377D02*
X255135513Y-136887175D01*
X255135513Y-136887175D02*
X255039863Y-136840389D01*
X255039863Y-136840389D02*
X254944629Y-136841220D01*
X253855249Y-137517419D02*
X253846523Y-136517457D01*
X253850678Y-136993629D02*
X253279271Y-136998616D01*
X253283842Y-137522406D02*
X253275116Y-136522444D01*
X252426317Y-137482268D02*
X252521967Y-137529054D01*
X252521967Y-137529054D02*
X252712436Y-137527392D01*
X252712436Y-137527392D02*
X252807255Y-137478944D01*
X252807255Y-137478944D02*
X252854041Y-137383294D01*
X252854041Y-137383294D02*
X252850716Y-137002356D01*
X252850716Y-137002356D02*
X252802268Y-136907537D01*
X252802268Y-136907537D02*
X252706618Y-136860751D01*
X252706618Y-136860751D02*
X252516149Y-136862413D01*
X252516149Y-136862413D02*
X252421330Y-136910861D01*
X252421330Y-136910861D02*
X252374544Y-137006512D01*
X252374544Y-137006512D02*
X252375375Y-137101746D01*
X252375375Y-137101746D02*
X252852378Y-137192825D01*
X251950560Y-137534041D02*
X251944742Y-136867400D01*
X251946404Y-137057869D02*
X251897956Y-136963050D01*
X251897956Y-136963050D02*
X251849923Y-136915848D01*
X251849923Y-136915848D02*
X251754273Y-136869062D01*
X251754273Y-136869062D02*
X251659039Y-136869893D01*
X250950182Y-137495150D02*
X251045832Y-137541936D01*
X251045832Y-137541936D02*
X251236301Y-137540274D01*
X251236301Y-137540274D02*
X251331120Y-137491826D01*
X251331120Y-137491826D02*
X251377906Y-137396176D01*
X251377906Y-137396176D02*
X251374582Y-137015238D01*
X251374582Y-137015238D02*
X251326133Y-136920419D01*
X251326133Y-136920419D02*
X251230483Y-136873633D01*
X251230483Y-136873633D02*
X251040014Y-136875295D01*
X251040014Y-136875295D02*
X250945195Y-136923744D01*
X250945195Y-136923744D02*
X250898409Y-137019394D01*
X250898409Y-137019394D02*
X250899240Y-137114628D01*
X250899240Y-137114628D02*
X251376244Y-137205707D01*
X262207969Y-98776387D02*
X262216695Y-99776349D01*
X262208384Y-98824004D02*
X262112734Y-98777218D01*
X262112734Y-98777218D02*
X261922265Y-98778880D01*
X261922265Y-98778880D02*
X261827446Y-98827329D01*
X261827446Y-98827329D02*
X261780245Y-98875361D01*
X261780245Y-98875361D02*
X261733458Y-98971011D01*
X261733458Y-98971011D02*
X261735952Y-99256715D01*
X261735952Y-99256715D02*
X261784400Y-99351534D01*
X261784400Y-99351534D02*
X261832433Y-99398735D01*
X261832433Y-99398735D02*
X261928083Y-99445522D01*
X261928083Y-99445522D02*
X262118552Y-99443859D01*
X262118552Y-99443859D02*
X262213371Y-99395411D01*
X261309059Y-99450924D02*
X261303241Y-98784282D01*
X261304903Y-98974751D02*
X261256455Y-98879932D01*
X261256455Y-98879932D02*
X261208422Y-98832731D01*
X261208422Y-98832731D02*
X261112772Y-98785945D01*
X261112772Y-98785945D02*
X261017538Y-98786776D01*
X260547183Y-99457573D02*
X260642002Y-99409124D01*
X260642002Y-99409124D02*
X260689203Y-99361091D01*
X260689203Y-99361091D02*
X260735989Y-99265441D01*
X260735989Y-99265441D02*
X260733496Y-98979738D01*
X260733496Y-98979738D02*
X260685048Y-98884919D01*
X260685048Y-98884919D02*
X260637015Y-98837717D01*
X260637015Y-98837717D02*
X260541365Y-98790931D01*
X260541365Y-98790931D02*
X260398513Y-98792178D01*
X260398513Y-98792178D02*
X260303694Y-98840626D01*
X260303694Y-98840626D02*
X260256493Y-98888659D01*
X260256493Y-98888659D02*
X260209706Y-98984309D01*
X260209706Y-98984309D02*
X260212200Y-99270012D01*
X260212200Y-99270012D02*
X260260648Y-99364831D01*
X260260648Y-99364831D02*
X260308681Y-99412033D01*
X260308681Y-99412033D02*
X260404331Y-99458819D01*
X260404331Y-99458819D02*
X260547183Y-99457573D01*
X259785307Y-99464221D02*
X259779489Y-98797580D01*
X259780320Y-98892815D02*
X259732287Y-98845613D01*
X259732287Y-98845613D02*
X259636637Y-98798827D01*
X259636637Y-98798827D02*
X259493786Y-98800073D01*
X259493786Y-98800073D02*
X259398967Y-98848522D01*
X259398967Y-98848522D02*
X259352181Y-98944172D01*
X259352181Y-98944172D02*
X259356752Y-99467961D01*
X259352181Y-98944172D02*
X259303732Y-98849353D01*
X259303732Y-98849353D02*
X259208082Y-98802567D01*
X259208082Y-98802567D02*
X259065231Y-98803813D01*
X259065231Y-98803813D02*
X258970412Y-98852262D01*
X258970412Y-98852262D02*
X258923626Y-98947912D01*
X258923626Y-98947912D02*
X258928197Y-99471701D01*
X258452025Y-99475857D02*
X258446207Y-98809215D01*
X258443298Y-98475895D02*
X258491331Y-98523096D01*
X258491331Y-98523096D02*
X258444129Y-98571129D01*
X258444129Y-98571129D02*
X258396096Y-98523928D01*
X258396096Y-98523928D02*
X258443298Y-98475895D01*
X258443298Y-98475895D02*
X258444129Y-98571129D01*
X257546882Y-99436135D02*
X257642532Y-99482921D01*
X257642532Y-99482921D02*
X257833001Y-99481259D01*
X257833001Y-99481259D02*
X257927820Y-99432810D01*
X257927820Y-99432810D02*
X257975022Y-99384778D01*
X257975022Y-99384778D02*
X258021808Y-99289128D01*
X258021808Y-99289128D02*
X258019314Y-99003424D01*
X258019314Y-99003424D02*
X257970866Y-98908605D01*
X257970866Y-98908605D02*
X257922833Y-98861404D01*
X257922833Y-98861404D02*
X257827183Y-98814618D01*
X257827183Y-98814618D02*
X257636714Y-98816280D01*
X257636714Y-98816280D02*
X257541895Y-98864728D01*
X257118742Y-99487492D02*
X257112925Y-98820851D01*
X257114587Y-99011320D02*
X257066138Y-98916501D01*
X257066138Y-98916501D02*
X257018106Y-98869299D01*
X257018106Y-98869299D02*
X256922456Y-98822513D01*
X256922456Y-98822513D02*
X256827221Y-98823344D01*
X256356866Y-99494141D02*
X256451685Y-99445693D01*
X256451685Y-99445693D02*
X256498887Y-99397660D01*
X256498887Y-99397660D02*
X256545673Y-99302010D01*
X256545673Y-99302010D02*
X256543180Y-99016306D01*
X256543180Y-99016306D02*
X256494731Y-98921487D01*
X256494731Y-98921487D02*
X256446699Y-98874286D01*
X256446699Y-98874286D02*
X256351048Y-98827500D01*
X256351048Y-98827500D02*
X256208197Y-98828746D01*
X256208197Y-98828746D02*
X256113378Y-98877195D01*
X256113378Y-98877195D02*
X256066176Y-98925227D01*
X256066176Y-98925227D02*
X256019390Y-99020877D01*
X256019390Y-99020877D02*
X256021883Y-99306581D01*
X256021883Y-99306581D02*
X256070332Y-99401400D01*
X256070332Y-99401400D02*
X256118364Y-99448601D01*
X256118364Y-99448601D02*
X256214014Y-99495388D01*
X256214014Y-99495388D02*
X256356866Y-99494141D01*
D11*
%TO.C,D17*%
X226274638Y-172054598D02*
X226271147Y-171654614D01*
X226271147Y-171654614D02*
X225721168Y-171659413D01*
X226271147Y-171654614D02*
X226821126Y-171649814D01*
X226271147Y-171654614D02*
X225865927Y-171058127D01*
X225865927Y-171058127D02*
X226665896Y-171051146D01*
X226265911Y-171054637D02*
X226261548Y-170554656D01*
X226665896Y-171051146D02*
X226271147Y-171654614D01*
%TO.C,D3*%
X136618634Y-144217410D02*
X136549175Y-143823487D01*
X136549175Y-143823487D02*
X136007531Y-143918993D01*
X136549175Y-143823487D02*
X137090819Y-143727980D01*
X136549175Y-143823487D02*
X136051063Y-143302061D01*
X136051063Y-143302061D02*
X136838909Y-143163143D01*
X136444986Y-143232602D02*
X136358162Y-142740198D01*
X136838909Y-143163143D02*
X136549175Y-143823487D01*
%TO.C,D15*%
X202658094Y-135001475D02*
X202630192Y-134602449D01*
X202630192Y-134602449D02*
X202081532Y-134640815D01*
X202630192Y-134602449D02*
X203178852Y-134564083D01*
X202630192Y-134602449D02*
X202189312Y-134031814D01*
X202189312Y-134031814D02*
X202987364Y-133976008D01*
X202588338Y-134003911D02*
X202553460Y-133505129D01*
X202987364Y-133976008D02*
X202630192Y-134602449D01*
D10*
%TO.C,LED17*%
X214259823Y-170409384D02*
X214303456Y-175409193D01*
X214303456Y-175409193D02*
X219303265Y-175365560D01*
X215016339Y-171152810D02*
X215046882Y-174652677D01*
X215046882Y-174652677D02*
X218546749Y-174622134D01*
X218516206Y-171122267D02*
X215016339Y-171152810D01*
X218546749Y-174622134D02*
X218516206Y-171122267D01*
X219259632Y-170365751D02*
X214259823Y-170409384D01*
X219303265Y-175365560D02*
X219259632Y-170365751D01*
D11*
X221792589Y-174131290D02*
X220800590Y-175052482D01*
X220784664Y-173227552D01*
X221792589Y-174131290D01*
G36*
X221792589Y-174131290D02*
G01*
X220800590Y-175052482D01*
X220784664Y-173227552D01*
X221792589Y-174131290D01*
G37*
%TO.C,D22*%
X246108072Y-152880790D02*
X246104581Y-152480806D01*
X246104581Y-152480806D02*
X245554602Y-152485605D01*
X246104581Y-152480806D02*
X246654560Y-152476006D01*
X246104581Y-152480806D02*
X245699361Y-151884319D01*
X245699361Y-151884319D02*
X246499330Y-151877338D01*
X246099345Y-151880829D02*
X246094982Y-151380848D01*
X246499330Y-151877338D02*
X246104581Y-152480806D01*
%TO.C,D28*%
X267809821Y-181989447D02*
X267909973Y-181602188D01*
X267909973Y-181602188D02*
X267377492Y-181464479D01*
X267909973Y-181602188D02*
X268442454Y-181739897D01*
X267909973Y-181602188D02*
X267672942Y-180921147D01*
X267672942Y-180921147D02*
X268447460Y-181121451D01*
X268060201Y-181021299D02*
X268185391Y-180537225D01*
X268447460Y-181121451D02*
X267909973Y-181602188D01*
D10*
%TO.C,LED24*%
X233761649Y-113237023D02*
X233805282Y-118236832D01*
X233805282Y-118236832D02*
X238805091Y-118193199D01*
X234518165Y-113980449D02*
X234548708Y-117480316D01*
X234548708Y-117480316D02*
X238048575Y-117449773D01*
X238018032Y-113949906D02*
X234518165Y-113980449D01*
X238048575Y-117449773D02*
X238018032Y-113949906D01*
X238761458Y-113193390D02*
X233761649Y-113237023D01*
X238805091Y-118193199D02*
X238761458Y-113193390D01*
D11*
X241294415Y-116958929D02*
X240302416Y-117880121D01*
X240286490Y-116055191D01*
X241294415Y-116958929D01*
G36*
X241294415Y-116958929D02*
G01*
X240302416Y-117880121D01*
X240286490Y-116055191D01*
X241294415Y-116958929D01*
G37*
%TO.C,D6*%
X159614105Y-159455794D02*
X159544646Y-159061871D01*
X159544646Y-159061871D02*
X159003002Y-159157377D01*
X159544646Y-159061871D02*
X160086290Y-158966364D01*
X159544646Y-159061871D02*
X159046534Y-158540445D01*
X159046534Y-158540445D02*
X159834380Y-158401527D01*
X159440457Y-158470986D02*
X159353633Y-157978582D01*
X159834380Y-158401527D02*
X159544646Y-159061871D01*
%TO.C,D23*%
X245942268Y-133881514D02*
X245938777Y-133481530D01*
X245938777Y-133481530D02*
X245388798Y-133486329D01*
X245938777Y-133481530D02*
X246488756Y-133476730D01*
X245938777Y-133481530D02*
X245533557Y-132885043D01*
X245533557Y-132885043D02*
X246333526Y-132878062D01*
X245933541Y-132881553D02*
X245929178Y-132381572D01*
X246333526Y-132878062D02*
X245938777Y-133481530D01*
D10*
%TO.C,LED6*%
X147492527Y-159816158D02*
X148360768Y-164740197D01*
X148360768Y-164740197D02*
X153284807Y-163871956D01*
X148361369Y-160424528D02*
X148969138Y-163871355D01*
X148969138Y-163871355D02*
X152415965Y-163263586D01*
X151808196Y-159816759D02*
X148361369Y-160424528D01*
X152415965Y-163263586D02*
X151808196Y-159816759D01*
X152416566Y-158947917D02*
X147492527Y-159816158D01*
X153284807Y-163871956D02*
X152416566Y-158947917D01*
D11*
X155536278Y-162243756D02*
X154709924Y-163316041D01*
X154393016Y-161518767D01*
X155536278Y-162243756D01*
G36*
X155536278Y-162243756D02*
G01*
X154709924Y-163316041D01*
X154393016Y-161518767D01*
X155536278Y-162243756D01*
G37*
%TO.C,D21*%
X246273876Y-171880067D02*
X246270385Y-171480083D01*
X246270385Y-171480083D02*
X245720406Y-171484882D01*
X246270385Y-171480083D02*
X246820364Y-171475283D01*
X246270385Y-171480083D02*
X245865165Y-170883596D01*
X245865165Y-170883596D02*
X246665134Y-170876615D01*
X246265149Y-170880106D02*
X246260786Y-170380125D01*
X246665134Y-170876615D02*
X246270385Y-171480083D01*
%TO.C,D29*%
X287172774Y-186997047D02*
X287272926Y-186609788D01*
X287272926Y-186609788D02*
X286740445Y-186472079D01*
X287272926Y-186609788D02*
X287805407Y-186747497D01*
X287272926Y-186609788D02*
X287035895Y-185928747D01*
X287035895Y-185928747D02*
X287810413Y-186129051D01*
X287423154Y-186028899D02*
X287548344Y-185544825D01*
X287810413Y-186129051D02*
X287272926Y-186609788D01*
%TO.C,D12*%
X177095732Y-118407813D02*
X177046984Y-118010794D01*
X177046984Y-118010794D02*
X176501084Y-118077822D01*
X177046984Y-118010794D02*
X177592885Y-117943766D01*
X177046984Y-118010794D02*
X176576844Y-117464014D01*
X176576844Y-117464014D02*
X177370881Y-117366519D01*
X176973863Y-117415266D02*
X176912928Y-116918993D01*
X177370881Y-117366519D02*
X177046984Y-118010794D01*
%TO.C,D2*%
X139917950Y-162928757D02*
X139848491Y-162534834D01*
X139848491Y-162534834D02*
X139306847Y-162630340D01*
X139848491Y-162534834D02*
X140390135Y-162439327D01*
X139848491Y-162534834D02*
X139350379Y-162013408D01*
X139350379Y-162013408D02*
X140138225Y-161874490D01*
X139744302Y-161943949D02*
X139657478Y-161451545D01*
X140138225Y-161874490D02*
X139848491Y-162534834D01*
D10*
%TO.C,LED10*%
X169602942Y-155850043D02*
X170212289Y-160812774D01*
X170212289Y-160812774D02*
X175175020Y-160203427D01*
X170438754Y-156503051D02*
X170865297Y-159976962D01*
X170865297Y-159976962D02*
X174339208Y-159550419D01*
X173912665Y-156076508D02*
X170438754Y-156503051D01*
X174339208Y-159550419D02*
X173912665Y-156076508D01*
X174565673Y-155240696D02*
X169602942Y-155850043D01*
X175175020Y-160203427D02*
X174565673Y-155240696D01*
D11*
X177508619Y-158695291D02*
X176627278Y-159722859D01*
X176404867Y-157911462D01*
X177508619Y-158695291D01*
G36*
X177508619Y-158695291D02*
G01*
X176627278Y-159722859D01*
X176404867Y-157911462D01*
X177508619Y-158695291D01*
G37*
D10*
%TO.C,LED11*%
X167287424Y-136991666D02*
X167896771Y-141954397D01*
X167896771Y-141954397D02*
X172859502Y-141345050D01*
X168123236Y-137644674D02*
X168549779Y-141118585D01*
X168549779Y-141118585D02*
X172023690Y-140692042D01*
X171597147Y-137218131D02*
X168123236Y-137644674D01*
X172023690Y-140692042D02*
X171597147Y-137218131D01*
X172250155Y-136382319D02*
X167287424Y-136991666D01*
X172859502Y-141345050D02*
X172250155Y-136382319D01*
D11*
X175193101Y-139836914D02*
X174311760Y-140864482D01*
X174089349Y-139053085D01*
X175193101Y-139836914D01*
G36*
X175193101Y-139836914D02*
G01*
X174311760Y-140864482D01*
X174089349Y-139053085D01*
X175193101Y-139836914D01*
G37*
D10*
%TO.C,LED28*%
X256630214Y-177290628D02*
X255378314Y-182131366D01*
X255378314Y-182131366D02*
X260219052Y-183383266D01*
X257168540Y-178204524D02*
X256292210Y-181593040D01*
X256292210Y-181593040D02*
X259680726Y-182469370D01*
X260557056Y-179080854D02*
X257168540Y-178204524D01*
X259680726Y-182469370D02*
X260557056Y-179080854D01*
X261470952Y-178542528D02*
X256630214Y-177290628D01*
X260219052Y-183383266D02*
X261470952Y-178542528D01*
D11*
X262943007Y-182835337D02*
X261746388Y-183468392D01*
X262203331Y-181701522D01*
X262943007Y-182835337D01*
G36*
X262943007Y-182835337D02*
G01*
X261746388Y-183468392D01*
X262203331Y-181701522D01*
X262943007Y-182835337D01*
G37*
D10*
%TO.C,LED18*%
X214094019Y-151410107D02*
X214137652Y-156409916D01*
X214137652Y-156409916D02*
X219137461Y-156366283D01*
X214850535Y-152153533D02*
X214881078Y-155653400D01*
X214881078Y-155653400D02*
X218380945Y-155622857D01*
X218350402Y-152122990D02*
X214850535Y-152153533D01*
X218380945Y-155622857D02*
X218350402Y-152122990D01*
X219093828Y-151366474D02*
X214094019Y-151410107D01*
X219137461Y-156366283D02*
X219093828Y-151366474D01*
D11*
X221626785Y-155132013D02*
X220634786Y-156053205D01*
X220618860Y-154228275D01*
X221626785Y-155132013D01*
G36*
X221626785Y-155132013D02*
G01*
X220634786Y-156053205D01*
X220618860Y-154228275D01*
X221626785Y-155132013D01*
G37*
%TO.C,D19*%
X225943029Y-134056045D02*
X225939538Y-133656061D01*
X225939538Y-133656061D02*
X225389559Y-133660860D01*
X225939538Y-133656061D02*
X226489517Y-133651261D01*
X225939538Y-133656061D02*
X225534318Y-133059574D01*
X225534318Y-133059574D02*
X226334287Y-133052593D01*
X225934302Y-133056084D02*
X225929939Y-132556103D01*
X226334287Y-133052593D02*
X225939538Y-133656061D01*
D10*
%TO.C,LED26*%
X252139340Y-195248064D02*
X250887440Y-200088802D01*
X250887440Y-200088802D02*
X255728178Y-201340702D01*
X252677666Y-196161960D02*
X251801336Y-199550476D01*
X251801336Y-199550476D02*
X255189852Y-200426806D01*
X256066182Y-197038290D02*
X252677666Y-196161960D01*
X255189852Y-200426806D02*
X256066182Y-197038290D01*
X256980078Y-196499964D02*
X252139340Y-195248064D01*
X255728178Y-201340702D02*
X256980078Y-196499964D01*
D11*
X258452133Y-200792773D02*
X257255514Y-201425828D01*
X257712457Y-199658958D01*
X258452133Y-200792773D01*
G36*
X258452133Y-200792773D02*
G01*
X257255514Y-201425828D01*
X257712457Y-199658958D01*
X258452133Y-200792773D01*
G37*
%TO.C,D25*%
X243955994Y-194939282D02*
X244056146Y-194552023D01*
X244056146Y-194552023D02*
X243523665Y-194414314D01*
X244056146Y-194552023D02*
X244588627Y-194689732D01*
X244056146Y-194552023D02*
X243819115Y-193870982D01*
X243819115Y-193870982D02*
X244593633Y-194071286D01*
X244206374Y-193971134D02*
X244331564Y-193487060D01*
X244593633Y-194071286D02*
X244056146Y-194552023D01*
D10*
%TO.C,LED25*%
X232776387Y-190240464D02*
X231524487Y-195081202D01*
X231524487Y-195081202D02*
X236365225Y-196333102D01*
X233314713Y-191154360D02*
X232438383Y-194542876D01*
X232438383Y-194542876D02*
X235826899Y-195419206D01*
X236703229Y-192030690D02*
X233314713Y-191154360D01*
X235826899Y-195419206D02*
X236703229Y-192030690D01*
X237617125Y-191492364D02*
X232776387Y-190240464D01*
X236365225Y-196333102D02*
X237617125Y-191492364D01*
D11*
X239089180Y-195785173D02*
X237892561Y-196418228D01*
X238349504Y-194651358D01*
X239089180Y-195785173D01*
G36*
X239089180Y-195785173D02*
G01*
X237892561Y-196418228D01*
X238349504Y-194651358D01*
X239089180Y-195785173D01*
G37*
D10*
%TO.C,LED12*%
X164971907Y-118133289D02*
X165581254Y-123096020D01*
X165581254Y-123096020D02*
X170543985Y-122486673D01*
X165807719Y-118786297D02*
X166234262Y-122260208D01*
X166234262Y-122260208D02*
X169708173Y-121833665D01*
X169281630Y-118359754D02*
X165807719Y-118786297D01*
X169708173Y-121833665D02*
X169281630Y-118359754D01*
X169934638Y-117523942D02*
X164971907Y-118133289D01*
X170543985Y-122486673D02*
X169934638Y-117523942D01*
D11*
X172877584Y-120978537D02*
X171996243Y-122006105D01*
X171773832Y-120194708D01*
X172877584Y-120978537D01*
G36*
X172877584Y-120978537D02*
G01*
X171996243Y-122006105D01*
X171773832Y-120194708D01*
X172877584Y-120978537D01*
G37*
D10*
%TO.C,LED2*%
X127796372Y-163289121D02*
X128664613Y-168213160D01*
X128664613Y-168213160D02*
X133588652Y-167344919D01*
X128665214Y-163897491D02*
X129272983Y-167344318D01*
X129272983Y-167344318D02*
X132719810Y-166736549D01*
X132112041Y-163289722D02*
X128665214Y-163897491D01*
X132719810Y-166736549D02*
X132112041Y-163289722D01*
X132720411Y-162420880D02*
X127796372Y-163289121D01*
X133588652Y-167344919D02*
X132720411Y-162420880D01*
D11*
X135840123Y-165716719D02*
X135013769Y-166789004D01*
X134696861Y-164991730D01*
X135840123Y-165716719D01*
G36*
X135840123Y-165716719D02*
G01*
X135013769Y-166789004D01*
X134696861Y-164991730D01*
X135840123Y-165716719D01*
G37*
D10*
%TO.C,LED19*%
X213928215Y-132410831D02*
X213971848Y-137410640D01*
X213971848Y-137410640D02*
X218971657Y-137367007D01*
X214684731Y-133154257D02*
X214715274Y-136654124D01*
X214715274Y-136654124D02*
X218215141Y-136623581D01*
X218184598Y-133123714D02*
X214684731Y-133154257D01*
X218215141Y-136623581D02*
X218184598Y-133123714D01*
X218928024Y-132367198D02*
X213928215Y-132410831D01*
X218971657Y-137367007D02*
X218928024Y-132367198D01*
D11*
X221460981Y-136132737D02*
X220468982Y-137053929D01*
X220453056Y-135228999D01*
X221460981Y-136132737D01*
G36*
X221460981Y-136132737D02*
G01*
X220468982Y-137053929D01*
X220453056Y-135228999D01*
X221460981Y-136132737D01*
G37*
%TO.C,D26*%
X263318947Y-199946882D02*
X263419099Y-199559623D01*
X263419099Y-199559623D02*
X262886618Y-199421914D01*
X263419099Y-199559623D02*
X263951580Y-199697332D01*
X263419099Y-199559623D02*
X263182068Y-198878582D01*
X263182068Y-198878582D02*
X263956586Y-199078886D01*
X263569327Y-198978734D02*
X263694517Y-198494660D01*
X263956586Y-199078886D02*
X263419099Y-199559623D01*
D10*
%TO.C,LED3*%
X124497057Y-144577774D02*
X125365298Y-149501813D01*
X125365298Y-149501813D02*
X130289337Y-148633572D01*
X125365899Y-145186144D02*
X125973668Y-148632971D01*
X125973668Y-148632971D02*
X129420495Y-148025202D01*
X128812726Y-144578375D02*
X125365899Y-145186144D01*
X129420495Y-148025202D02*
X128812726Y-144578375D01*
X129421096Y-143709533D02*
X124497057Y-144577774D01*
X130289337Y-148633572D02*
X129421096Y-143709533D01*
D11*
X132540808Y-147005372D02*
X131714454Y-148077657D01*
X131397546Y-146280383D01*
X132540808Y-147005372D01*
G36*
X132540808Y-147005372D02*
G01*
X131714454Y-148077657D01*
X131397546Y-146280383D01*
X132540808Y-147005372D01*
G37*
%TO.C,D1*%
X143217265Y-181640104D02*
X143147806Y-181246181D01*
X143147806Y-181246181D02*
X142606162Y-181341687D01*
X143147806Y-181246181D02*
X143689450Y-181150674D01*
X143147806Y-181246181D02*
X142649694Y-180724755D01*
X142649694Y-180724755D02*
X143437540Y-180585837D01*
X143043617Y-180655296D02*
X142956793Y-180162892D01*
X143437540Y-180585837D02*
X143147806Y-181246181D01*
%TO.C,D13*%
X205308840Y-172908909D02*
X205280938Y-172509883D01*
X205280938Y-172509883D02*
X204732278Y-172548249D01*
X205280938Y-172509883D02*
X205829598Y-172471517D01*
X205280938Y-172509883D02*
X204840058Y-171939248D01*
X204840058Y-171939248D02*
X205638110Y-171883442D01*
X205239084Y-171911345D02*
X205204206Y-171412563D01*
X205638110Y-171883442D02*
X205280938Y-172509883D01*
D10*
%TO.C,LED20*%
X213762411Y-113411554D02*
X213806044Y-118411363D01*
X213806044Y-118411363D02*
X218805853Y-118367730D01*
X214518927Y-114154980D02*
X214549470Y-117654847D01*
X214549470Y-117654847D02*
X218049337Y-117624304D01*
X218018794Y-114124437D02*
X214518927Y-114154980D01*
X218049337Y-117624304D02*
X218018794Y-114124437D01*
X218762220Y-113367921D02*
X213762411Y-113411554D01*
X218805853Y-118367730D02*
X218762220Y-113367921D01*
D11*
X221295177Y-117133460D02*
X220303178Y-118054652D01*
X220287252Y-116229722D01*
X221295177Y-117133460D01*
G36*
X221295177Y-117133460D02*
G01*
X220303178Y-118054652D01*
X220287252Y-116229722D01*
X221295177Y-117133460D01*
G37*
D10*
%TO.C,*%
X250290383Y-103852427D02*
X250556368Y-134331267D01*
X250556368Y-134331267D02*
X268335691Y-134176109D01*
X255348024Y-101268193D02*
X255370190Y-103808096D01*
X255370190Y-103808096D02*
X250290383Y-103852427D01*
X262967734Y-101201697D02*
X255348024Y-101268193D01*
X262989900Y-103741600D02*
X262967734Y-101201697D01*
X268069706Y-103697269D02*
X262989900Y-103741600D01*
X268335691Y-134176109D02*
X268069706Y-103697269D01*
D11*
%TO.C,D20*%
X225777225Y-115056768D02*
X225773734Y-114656784D01*
X225773734Y-114656784D02*
X225223755Y-114661583D01*
X225773734Y-114656784D02*
X226323713Y-114651984D01*
X225773734Y-114656784D02*
X225368514Y-114060297D01*
X225368514Y-114060297D02*
X226168483Y-114053316D01*
X225768498Y-114056807D02*
X225764135Y-113556826D01*
X226168483Y-114053316D02*
X225773734Y-114656784D01*
D10*
%TO.C,LED5*%
X150791843Y-178527505D02*
X151660084Y-183451544D01*
X151660084Y-183451544D02*
X156584123Y-182583303D01*
X151660685Y-179135875D02*
X152268454Y-182582702D01*
X152268454Y-182582702D02*
X155715281Y-181974933D01*
X155107512Y-178528106D02*
X151660685Y-179135875D01*
X155715281Y-181974933D02*
X155107512Y-178528106D01*
X155715882Y-177659264D02*
X150791843Y-178527505D01*
X156584123Y-182583303D02*
X155715882Y-177659264D01*
D11*
X158835594Y-180955103D02*
X158009240Y-182027388D01*
X157692332Y-180230114D01*
X158835594Y-180955103D01*
G36*
X158835594Y-180955103D02*
G01*
X158009240Y-182027388D01*
X157692332Y-180230114D01*
X158835594Y-180955103D01*
G37*
%TO.C,D14*%
X203983467Y-153955192D02*
X203955565Y-153556166D01*
X203955565Y-153556166D02*
X203406905Y-153594532D01*
X203955565Y-153556166D02*
X204504225Y-153517800D01*
X203955565Y-153556166D02*
X203514685Y-152985531D01*
X203514685Y-152985531D02*
X204312737Y-152929725D01*
X203913711Y-152957628D02*
X203878833Y-152458846D01*
X204312737Y-152929725D02*
X203955565Y-153556166D01*
D10*
%TO.C,LED1*%
X131095688Y-182000469D02*
X131963929Y-186924508D01*
X131963929Y-186924508D02*
X136887968Y-186056267D01*
X131964530Y-182608839D02*
X132572299Y-186055666D01*
X132572299Y-186055666D02*
X136019126Y-185447897D01*
X135411357Y-182001070D02*
X131964530Y-182608839D01*
X136019126Y-185447897D02*
X135411357Y-182001070D01*
X136019727Y-181132228D02*
X131095688Y-182000469D01*
X136887968Y-186056267D02*
X136019727Y-181132228D01*
D11*
X139139439Y-184428067D02*
X138313085Y-185500352D01*
X137996177Y-183703078D01*
X139139439Y-184428067D01*
G36*
X139139439Y-184428067D02*
G01*
X138313085Y-185500352D01*
X137996177Y-183703078D01*
X139139439Y-184428067D01*
G37*
%TO.C,D8*%
X153015474Y-122033099D02*
X152946015Y-121639176D01*
X152946015Y-121639176D02*
X152404371Y-121734682D01*
X152946015Y-121639176D02*
X153487659Y-121543669D01*
X152946015Y-121639176D02*
X152447903Y-121117750D01*
X152447903Y-121117750D02*
X153235749Y-120978832D01*
X152841826Y-121048291D02*
X152755002Y-120555887D01*
X153235749Y-120978832D02*
X152946015Y-121639176D01*
D10*
%TO.C,LED8*%
X140893897Y-122393463D02*
X141762138Y-127317502D01*
X141762138Y-127317502D02*
X146686177Y-126449261D01*
X141762739Y-123001833D02*
X142370508Y-126448660D01*
X142370508Y-126448660D02*
X145817335Y-125840891D01*
X145209566Y-122394064D02*
X141762739Y-123001833D01*
X145817335Y-125840891D02*
X145209566Y-122394064D01*
X145817936Y-121525222D02*
X140893897Y-122393463D01*
X146686177Y-126449261D02*
X145817936Y-121525222D01*
D11*
X148937648Y-124821061D02*
X148111294Y-125893346D01*
X147794386Y-124096072D01*
X148937648Y-124821061D01*
G36*
X148937648Y-124821061D02*
G01*
X148111294Y-125893346D01*
X147794386Y-124096072D01*
X148937648Y-124821061D01*
G37*
D10*
%TO.C,LED16*%
X189239879Y-115139098D02*
X189588661Y-120126918D01*
X189588661Y-120126918D02*
X194576481Y-119778136D01*
X190040369Y-115834954D02*
X190284517Y-119326428D01*
X190284517Y-119326428D02*
X193775991Y-119082280D01*
X193531843Y-115590806D02*
X190040369Y-115834954D01*
X193775991Y-119082280D02*
X193531843Y-115590806D01*
X194227699Y-114790316D02*
X189239879Y-115139098D01*
X194576481Y-119778136D02*
X194227699Y-114790316D01*
D11*
X196985812Y-118394198D02*
X196051900Y-119374232D01*
X195924595Y-117553678D01*
X196985812Y-118394198D01*
G36*
X196985812Y-118394198D02*
G01*
X196051900Y-119374232D01*
X195924595Y-117553678D01*
X196985812Y-118394198D01*
G37*
D10*
%TO.C,LED29*%
X275993167Y-182298228D02*
X274741267Y-187138966D01*
X274741267Y-187138966D02*
X279582005Y-188390866D01*
X276531493Y-183212124D02*
X275655163Y-186600640D01*
X275655163Y-186600640D02*
X279043679Y-187476970D01*
X279920009Y-184088454D02*
X276531493Y-183212124D01*
X279043679Y-187476970D02*
X279920009Y-184088454D01*
X280833905Y-183550128D02*
X275993167Y-182298228D01*
X279582005Y-188390866D02*
X280833905Y-183550128D01*
D11*
X282305960Y-187842937D02*
X281109341Y-188475992D01*
X281566284Y-186709122D01*
X282305960Y-187842937D01*
G36*
X282305960Y-187842937D02*
G01*
X281109341Y-188475992D01*
X281566284Y-186709122D01*
X282305960Y-187842937D01*
G37*
D10*
%TO.C,LED13*%
X193215998Y-172000249D02*
X193564780Y-176988069D01*
X193564780Y-176988069D02*
X198552600Y-176639287D01*
X194016488Y-172696105D02*
X194260636Y-176187579D01*
X194260636Y-176187579D02*
X197752110Y-175943431D01*
X197507962Y-172451957D02*
X194016488Y-172696105D01*
X197752110Y-175943431D02*
X197507962Y-172451957D01*
X198203818Y-171651467D02*
X193215998Y-172000249D01*
X198552600Y-176639287D02*
X198203818Y-171651467D01*
D11*
X200961931Y-175255349D02*
X200028019Y-176235383D01*
X199900714Y-174414829D01*
X200961931Y-175255349D01*
G36*
X200961931Y-175255349D02*
G01*
X200028019Y-176235383D01*
X199900714Y-174414829D01*
X200961931Y-175255349D01*
G37*
%TO.C,D7*%
X156314789Y-140744446D02*
X156245330Y-140350523D01*
X156245330Y-140350523D02*
X155703686Y-140446029D01*
X156245330Y-140350523D02*
X156786974Y-140255016D01*
X156245330Y-140350523D02*
X155747218Y-139829097D01*
X155747218Y-139829097D02*
X156535064Y-139690179D01*
X156141141Y-139759638D02*
X156054317Y-139267234D01*
X156535064Y-139690179D02*
X156245330Y-140350523D01*
D10*
%TO.C,LED27*%
X271502293Y-200255664D02*
X270250393Y-205096402D01*
X270250393Y-205096402D02*
X275091131Y-206348302D01*
X272040619Y-201169560D02*
X271164289Y-204558076D01*
X271164289Y-204558076D02*
X274552805Y-205434406D01*
X275429135Y-202045890D02*
X272040619Y-201169560D01*
X274552805Y-205434406D02*
X275429135Y-202045890D01*
X276343031Y-201507564D02*
X271502293Y-200255664D01*
X275091131Y-206348302D02*
X276343031Y-201507564D01*
D11*
X277815086Y-205800373D02*
X276618467Y-206433428D01*
X277075410Y-204666558D01*
X277815086Y-205800373D01*
G36*
X277815086Y-205800373D02*
G01*
X276618467Y-206433428D01*
X277075410Y-204666558D01*
X277815086Y-205800373D01*
G37*
D10*
%TO.C,LED4*%
X121197742Y-125866427D02*
X122065983Y-130790466D01*
X122065983Y-130790466D02*
X126990022Y-129922225D01*
X122066584Y-126474797D02*
X122674353Y-129921624D01*
X122674353Y-129921624D02*
X126121180Y-129313855D01*
X125513411Y-125867028D02*
X122066584Y-126474797D01*
X126121180Y-129313855D02*
X125513411Y-125867028D01*
X126121781Y-124998186D02*
X121197742Y-125866427D01*
X126990022Y-129922225D02*
X126121781Y-124998186D01*
D11*
X129241493Y-128294025D02*
X128415139Y-129366310D01*
X128098231Y-127569036D01*
X129241493Y-128294025D01*
G36*
X129241493Y-128294025D02*
G01*
X128415139Y-129366310D01*
X128098231Y-127569036D01*
X129241493Y-128294025D01*
G37*
D10*
%TO.C,LED14*%
X191890625Y-153046532D02*
X192239407Y-158034352D01*
X192239407Y-158034352D02*
X197227227Y-157685570D01*
X192691115Y-153742388D02*
X192935263Y-157233862D01*
X192935263Y-157233862D02*
X196426737Y-156989714D01*
X196182589Y-153498240D02*
X192691115Y-153742388D01*
X196426737Y-156989714D02*
X196182589Y-153498240D01*
X196878445Y-152697750D02*
X191890625Y-153046532D01*
X197227227Y-157685570D02*
X196878445Y-152697750D01*
D11*
X199636558Y-156301632D02*
X198702646Y-157281666D01*
X198575341Y-155461112D01*
X199636558Y-156301632D01*
G36*
X199636558Y-156301632D02*
G01*
X198702646Y-157281666D01*
X198575341Y-155461112D01*
X199636558Y-156301632D01*
G37*
D10*
%TO.C,LED21*%
X234259062Y-170234853D02*
X234302695Y-175234662D01*
X234302695Y-175234662D02*
X239302504Y-175191029D01*
X235015578Y-170978279D02*
X235046121Y-174478146D01*
X235046121Y-174478146D02*
X238545988Y-174447603D01*
X238515445Y-170947736D02*
X235015578Y-170978279D01*
X238545988Y-174447603D02*
X238515445Y-170947736D01*
X239258871Y-170191220D02*
X234259062Y-170234853D01*
X239302504Y-175191029D02*
X239258871Y-170191220D01*
D11*
X241791828Y-173956759D02*
X240799829Y-174877951D01*
X240783903Y-173053021D01*
X241791828Y-173956759D01*
G36*
X241791828Y-173956759D02*
G01*
X240799829Y-174877951D01*
X240783903Y-173053021D01*
X241791828Y-173956759D01*
G37*
%TO.C,D27*%
X282681900Y-204954482D02*
X282782052Y-204567223D01*
X282782052Y-204567223D02*
X282249571Y-204429514D01*
X282782052Y-204567223D02*
X283314533Y-204704932D01*
X282782052Y-204567223D02*
X282545021Y-203886182D01*
X282545021Y-203886182D02*
X283319539Y-204086486D01*
X282932280Y-203986334D02*
X283057470Y-203502260D01*
X283319539Y-204086486D02*
X282782052Y-204567223D01*
%TO.C,D9*%
X184042285Y-174982944D02*
X183993537Y-174585925D01*
X183993537Y-174585925D02*
X183447637Y-174652953D01*
X183993537Y-174585925D02*
X184539438Y-174518897D01*
X183993537Y-174585925D02*
X183523397Y-174039145D01*
X183523397Y-174039145D02*
X184317434Y-173941650D01*
X183920416Y-173990397D02*
X183859481Y-173494124D01*
X184317434Y-173941650D02*
X183993537Y-174585925D01*
D10*
%TO.C,LED7*%
X144193212Y-141104811D02*
X145061453Y-146028850D01*
X145061453Y-146028850D02*
X149985492Y-145160609D01*
X145062054Y-141713181D02*
X145669823Y-145160008D01*
X145669823Y-145160008D02*
X149116650Y-144552239D01*
X148508881Y-141105412D02*
X145062054Y-141713181D01*
X149116650Y-144552239D02*
X148508881Y-141105412D01*
X149117251Y-140236570D02*
X144193212Y-141104811D01*
X149985492Y-145160609D02*
X149117251Y-140236570D01*
D11*
X152236963Y-143532409D02*
X151410609Y-144604694D01*
X151093701Y-142807420D01*
X152236963Y-143532409D01*
G36*
X152236963Y-143532409D02*
G01*
X151410609Y-144604694D01*
X151093701Y-142807420D01*
X152236963Y-143532409D01*
G37*
D10*
%TO.C,LED15*%
X190565252Y-134092815D02*
X190914034Y-139080635D01*
X190914034Y-139080635D02*
X195901854Y-138731853D01*
X191365742Y-134788671D02*
X191609890Y-138280145D01*
X191609890Y-138280145D02*
X195101364Y-138035997D01*
X194857216Y-134544523D02*
X191365742Y-134788671D01*
X195101364Y-138035997D02*
X194857216Y-134544523D01*
X195553072Y-133744033D02*
X190565252Y-134092815D01*
X195901854Y-138731853D02*
X195553072Y-133744033D01*
D11*
X198311185Y-137347915D02*
X197377273Y-138327949D01*
X197249968Y-136507395D01*
X198311185Y-137347915D01*
G36*
X198311185Y-137347915D02*
G01*
X197377273Y-138327949D01*
X197249968Y-136507395D01*
X198311185Y-137347915D01*
G37*
%TO.C,D16*%
X201332721Y-116047758D02*
X201304819Y-115648732D01*
X201304819Y-115648732D02*
X200756159Y-115687098D01*
X201304819Y-115648732D02*
X201853479Y-115610366D01*
X201304819Y-115648732D02*
X200863939Y-115078097D01*
X200863939Y-115078097D02*
X201661991Y-115022291D01*
X201262965Y-115050194D02*
X201228087Y-114551412D01*
X201661991Y-115022291D02*
X201304819Y-115648732D01*
%TO.C,D18*%
X226108834Y-153055321D02*
X226105343Y-152655337D01*
X226105343Y-152655337D02*
X225555364Y-152660136D01*
X226105343Y-152655337D02*
X226655322Y-152650537D01*
X226105343Y-152655337D02*
X225700123Y-152058850D01*
X225700123Y-152058850D02*
X226500092Y-152051869D01*
X226100107Y-152055360D02*
X226095744Y-151555379D01*
X226500092Y-152051869D02*
X226105343Y-152655337D01*
%TO.C,D24*%
X245776464Y-114882237D02*
X245772973Y-114482253D01*
X245772973Y-114482253D02*
X245222994Y-114487052D01*
X245772973Y-114482253D02*
X246322952Y-114477453D01*
X245772973Y-114482253D02*
X245367753Y-113885766D01*
X245367753Y-113885766D02*
X246167722Y-113878785D01*
X245767737Y-113882276D02*
X245763374Y-113382295D01*
X246167722Y-113878785D02*
X245772973Y-114482253D01*
%TO.C,D4*%
X133319319Y-125506063D02*
X133249860Y-125112140D01*
X133249860Y-125112140D02*
X132708216Y-125207646D01*
X133249860Y-125112140D02*
X133791504Y-125016633D01*
X133249860Y-125112140D02*
X132751748Y-124590714D01*
X132751748Y-124590714D02*
X133539594Y-124451796D01*
X133145671Y-124521255D02*
X133058847Y-124028851D01*
X133539594Y-124451796D02*
X133249860Y-125112140D01*
%TO.C,D5*%
X162913420Y-178167141D02*
X162843961Y-177773218D01*
X162843961Y-177773218D02*
X162302317Y-177868724D01*
X162843961Y-177773218D02*
X163385605Y-177677711D01*
X162843961Y-177773218D02*
X162345849Y-177251792D01*
X162345849Y-177251792D02*
X163133695Y-177112874D01*
X162739772Y-177182333D02*
X162652948Y-176689929D01*
X163133695Y-177112874D02*
X162843961Y-177773218D01*
D10*
%TO.C,LED9*%
X171918459Y-174708420D02*
X172527806Y-179671151D01*
X172527806Y-179671151D02*
X177490537Y-179061804D01*
X172754271Y-175361428D02*
X173180814Y-178835339D01*
X173180814Y-178835339D02*
X176654725Y-178408796D01*
X176228182Y-174934885D02*
X172754271Y-175361428D01*
X176654725Y-178408796D02*
X176228182Y-174934885D01*
X176881190Y-174099073D02*
X171918459Y-174708420D01*
X177490537Y-179061804D02*
X176881190Y-174099073D01*
D11*
X179824136Y-177553668D02*
X178942795Y-178581236D01*
X178720384Y-176769839D01*
X179824136Y-177553668D01*
G36*
X179824136Y-177553668D02*
G01*
X178942795Y-178581236D01*
X178720384Y-176769839D01*
X179824136Y-177553668D01*
G37*
%TO.C,D11*%
X179411250Y-137266190D02*
X179362502Y-136869171D01*
X179362502Y-136869171D02*
X178816602Y-136936199D01*
X179362502Y-136869171D02*
X179908403Y-136802143D01*
X179362502Y-136869171D02*
X178892362Y-136322391D01*
X178892362Y-136322391D02*
X179686399Y-136224896D01*
X179289381Y-136273643D02*
X179228446Y-135777370D01*
X179686399Y-136224896D02*
X179362502Y-136869171D01*
D10*
%TO.C,LED22*%
X234093257Y-151235576D02*
X234136890Y-156235385D01*
X234136890Y-156235385D02*
X239136699Y-156191752D01*
X234849773Y-151979002D02*
X234880316Y-155478869D01*
X234880316Y-155478869D02*
X238380183Y-155448326D01*
X238349640Y-151948459D02*
X234849773Y-151979002D01*
X238380183Y-155448326D02*
X238349640Y-151948459D01*
X239093066Y-151191943D02*
X234093257Y-151235576D01*
X239136699Y-156191752D02*
X239093066Y-151191943D01*
D11*
X241626023Y-154957482D02*
X240634024Y-155878674D01*
X240618098Y-154053744D01*
X241626023Y-154957482D01*
G36*
X241626023Y-154957482D02*
G01*
X240634024Y-155878674D01*
X240618098Y-154053744D01*
X241626023Y-154957482D01*
G37*
%TO.C,D10*%
X181726767Y-156124567D02*
X181678019Y-155727548D01*
X181678019Y-155727548D02*
X181132119Y-155794576D01*
X181678019Y-155727548D02*
X182223920Y-155660520D01*
X181678019Y-155727548D02*
X181207879Y-155180768D01*
X181207879Y-155180768D02*
X182001916Y-155083273D01*
X181604898Y-155132020D02*
X181543963Y-154635747D01*
X182001916Y-155083273D02*
X181678019Y-155727548D01*
D10*
%TO.C,LED23*%
X233927453Y-132236300D02*
X233971086Y-137236109D01*
X233971086Y-137236109D02*
X238970895Y-137192476D01*
X234683969Y-132979726D02*
X234714512Y-136479593D01*
X234714512Y-136479593D02*
X238214379Y-136449050D01*
X238183836Y-132949183D02*
X234683969Y-132979726D01*
X238214379Y-136449050D02*
X238183836Y-132949183D01*
X238927262Y-132192667D02*
X233927453Y-132236300D01*
X238970895Y-137192476D02*
X238927262Y-132192667D01*
D11*
X241460219Y-135958206D02*
X240468220Y-136879398D01*
X240452294Y-135054468D01*
X241460219Y-135958206D01*
G36*
X241460219Y-135958206D02*
G01*
X240468220Y-136879398D01*
X240452294Y-135054468D01*
X241460219Y-135958206D01*
G37*
%TD*%
M02*
