M48
; DRILL file {KiCad 7.0.10-7.0.10~ubuntu22.04.1} date Thu 29 Feb 2024 11:27:06 PM MST
; FORMAT={-:-/ absolute / inch / decimal}
; #@! TF.CreationDate,2024-02-29T23:27:06-07:00
; #@! TF.GenerationSoftware,Kicad,Pcbnew,7.0.10-7.0.10~ubuntu22.04.1
; #@! TF.FileFunction,NonPlated,1,2,NPTH
FMAT,2
INCH
; #@! TA.AperFunction,NonPlated,NPTH,ComponentDrill
T1C0.0591
; #@! TA.AperFunction,NonPlated,NPTH,ComponentDrill
T2C0.0670
; #@! TA.AperFunction,NonPlated,NPTH,ComponentDrill
T3C0.1181
; #@! TA.AperFunction,NonPlated,NPTH,ComponentDrill
T4C0.1350
%
G90
G05
T1
X10.1951Y-5.7763
X10.1959Y-5.8669
X10.4707Y-5.7739
X10.4714Y-5.8645
T2
X4.6347Y-4.8596
X4.7646Y-5.5962
X4.8945Y-6.3329
X5.0244Y-7.0696
X5.0612Y-4.7844
X5.1911Y-5.521
X5.321Y-6.2577
X5.4102Y-4.7228
X5.4509Y-6.9944
X5.5401Y-5.4595
X5.67Y-6.1962
X5.7999Y-6.9328
X5.8367Y-4.6476
X5.9666Y-5.3843
X6.0965Y-6.121
X6.2264Y-6.8576
X6.3633Y-4.5481
X6.4545Y-5.2905
X6.5457Y-6.033
X6.6368Y-6.7754
X6.7932Y-4.4953
X6.8843Y-5.2378
X6.9755Y-5.9802
X7.0667Y-6.7227
X7.3243Y-4.4235
X7.3765Y-5.1697
X7.4287Y-5.9159
X7.4809Y-6.6621
X7.7563Y-4.3932
X7.8085Y-5.1395
X7.8607Y-5.8857
X7.9129Y-6.6319
X8.2967Y-4.3479
X8.3032Y-5.0959
X8.3098Y-5.844
X8.3163Y-6.592
X8.7298Y-4.3442
X8.7363Y-5.0922
X8.7428Y-5.8402
X8.7493Y-6.5882
X9.0796Y-7.3459
X9.0841Y-4.3411
X9.0906Y-5.0891
X9.0971Y-5.8371
X9.1037Y-6.5851
X9.4989Y-7.4543
X9.5171Y-4.3373
X9.5237Y-5.0853
X9.5302Y-5.8333
X9.5367Y-6.5813
X9.842Y-7.543
X10.0188Y-6.836
X10.2612Y-7.6514
X10.4381Y-6.9445
X10.6043Y-7.7402
X10.7811Y-7.0332
X11.0236Y-7.8486
X11.2004Y-7.1416
T3
X4.6285Y-4.7108
X4.7584Y-5.4474
X4.8073Y-4.5913
X4.8883Y-6.1841
X4.9372Y-5.3279
X5.0162Y-4.6424
X5.0182Y-6.9208
X5.0671Y-6.0646
X5.1461Y-5.3791
X5.197Y-6.8013
X5.276Y-6.1157
X5.4039Y-4.574
X5.4059Y-6.8524
X5.5338Y-5.3107
X5.5827Y-4.4545
X5.6637Y-6.0474
X5.7126Y-5.1912
X5.7916Y-4.5057
X5.7936Y-6.784
X5.8425Y-5.9279
X5.9215Y-5.2423
X5.9724Y-6.6645
X6.0514Y-5.979
X6.1813Y-6.7157
X6.3649Y-4.3991
X6.456Y-5.1416
X6.5472Y-5.8841
X6.5497Y-4.2892
X6.6384Y-6.6265
X6.6409Y-5.0316
X6.732Y-5.7741
X6.7556Y-4.3512
X6.8232Y-6.5166
X6.8468Y-5.0936
X6.938Y-5.8361
X7.0291Y-6.5785
X7.3337Y-4.2748
X7.3858Y-5.021
X7.438Y-5.7672
X7.4902Y-6.5134
X7.524Y-4.1747
X7.5762Y-4.9209
X7.6284Y-5.6671
X7.6805Y-6.4133
X7.7264Y-4.2473
X7.7786Y-4.9935
X7.8308Y-5.7398
X7.8829Y-6.486
X8.3151Y-4.2001
X8.3216Y-4.9481
X8.3282Y-5.6961
X8.3347Y-6.4442
X8.5112Y-4.1118
X8.5177Y-4.8598
X8.5242Y-5.6078
X8.5308Y-6.3558
X8.7088Y-4.1967
X8.7153Y-4.9447
X8.7218Y-5.6927
X8.7284Y-6.4407
X9.1025Y-4.1933
X9.109Y-4.9413
X9.1155Y-5.6893
X9.1221Y-6.4373
X9.1357Y-7.2079
X9.2986Y-4.1049
X9.3051Y-4.8529
X9.3116Y-5.6009
X9.3181Y-6.349
X9.3479Y-7.1733
X9.4962Y-4.1898
X9.5027Y-4.9378
X9.5092Y-5.6858
X9.5157Y-6.4338
X9.5168Y-7.3064
X9.898Y-7.405
X10.0748Y-6.698
X10.1103Y-7.3704
X10.2792Y-7.5036
X10.2871Y-6.6635
X10.456Y-6.7966
X10.6603Y-7.6022
X10.8371Y-6.8952
X10.8726Y-7.5676
X11.0415Y-7.7007
X11.0494Y-6.8606
X11.2183Y-6.9937
T4
X4.848Y-4.822
X4.9779Y-5.5586
X5.1078Y-6.2953
X5.2377Y-7.032
X5.6234Y-4.6852
X5.7533Y-5.4219
X5.8832Y-6.1586
X6.0131Y-6.8952
X6.5783Y-4.5217
X6.6694Y-5.2641
X6.7606Y-6.0066
X6.8517Y-6.7491
X7.5403Y-4.4083
X7.5925Y-5.1546
X7.6447Y-5.9008
X7.6969Y-6.647
X8.5132Y-4.3461
X8.5198Y-5.0941
X8.5263Y-5.8421
X8.5328Y-6.5901
X9.2893Y-7.4001
X9.3006Y-4.3392
X9.3071Y-5.0872
X9.3137Y-5.8352
X9.3202Y-6.5832
X10.0516Y-7.5972
X10.2284Y-6.8902
X10.8139Y-7.7944
X10.9907Y-7.0874
M30
