%TF.GenerationSoftware,KiCad,Pcbnew,7.0.10-7.0.10~ubuntu22.04.1*%
%TF.CreationDate,2024-02-29T19:07:42-07:00*%
%TF.ProjectId,boardPcb,626f6172-6450-4636-922e-6b696361645f,v1.0.0*%
%TF.SameCoordinates,Original*%
%TF.FileFunction,Profile,NP*%
%FSLAX46Y46*%
G04 Gerber Fmt 4.6, Leading zero omitted, Abs format (unit mm)*
G04 Created by KiCad (PCBNEW 7.0.10-7.0.10~ubuntu22.04.1) date 2024-02-29 19:07:42*
%MOMM*%
%LPD*%
G01*
G04 APERTURE LIST*
%TA.AperFunction,Profile*%
%ADD10C,0.150000*%
%TD*%
G04 APERTURE END LIST*
D10*
X175609717Y-185344738D02*
X125618069Y-194138129D01*
X110699560Y-109451756D02*
X165122689Y-99986600D01*
X119827842Y-190081970D02*
X106632250Y-115246051D01*
X190611827Y-97000113D02*
G75*
G03*
X190345159Y-97024136I315073J-4989487D01*
G01*
X196694599Y-182791643D02*
G75*
G03*
X196261325Y-182825328I170601J-4997657D01*
G01*
X279861620Y-213750158D02*
X223539185Y-198844948D01*
X220204110Y-192085529D02*
X221478527Y-189032033D01*
X175872093Y-185305733D02*
G75*
G03*
X175609716Y-185344739I603707J-4962867D01*
G01*
X220204085Y-192085518D02*
G75*
G03*
X223539184Y-198844947I4614315J-1925782D01*
G01*
X196261325Y-182825328D02*
X175872093Y-185305731D01*
X277265037Y-164934786D02*
X291594790Y-169138922D01*
X216197189Y-95388007D02*
X268007608Y-94026701D01*
X216693747Y-182109127D02*
X196694599Y-182791644D01*
X295027937Y-175188601D02*
G75*
G03*
X291594789Y-169138921I-4840737J1251901D01*
G01*
X165397670Y-99946613D02*
X190345159Y-97024136D01*
X190611827Y-97000115D02*
X216013438Y-95396219D01*
X273138746Y-98981343D02*
X273672824Y-160180641D01*
X165397670Y-99946611D02*
G75*
G03*
X165122688Y-99986601I581830J-4966289D01*
G01*
X216197189Y-95388008D02*
G75*
G03*
X216013437Y-95396219I131311J-4998392D01*
G01*
X119827841Y-190081970D02*
G75*
G03*
X125618069Y-194138129I4924059J868270D01*
G01*
X295027932Y-175188600D02*
X285981526Y-210168454D01*
X273138732Y-98981343D02*
G75*
G03*
X268007607Y-94026701I-4999832J-43657D01*
G01*
X273672792Y-160180641D02*
G75*
G03*
X277265036Y-164934785I4999808J43641D01*
G01*
X279861616Y-213750175D02*
G75*
G03*
X285981525Y-210168454I1279184J4833575D01*
G01*
X110699557Y-109451737D02*
G75*
G03*
X106632252Y-115246051I856743J-4926063D01*
G01*
X221478517Y-189032029D02*
G75*
G03*
X216693747Y-182109128I-4614217J1925829D01*
G01*
M02*
