%TF.GenerationSoftware,KiCad,Pcbnew,7.0.10-7.0.10~ubuntu22.04.1*%
%TF.CreationDate,2024-02-29T19:07:42-07:00*%
%TF.ProjectId,boardPcb,626f6172-6450-4636-922e-6b696361645f,v1.0.0*%
%TF.SameCoordinates,Original*%
%TF.FileFunction,Paste,Top*%
%TF.FilePolarity,Positive*%
%FSLAX46Y46*%
G04 Gerber Fmt 4.6, Leading zero omitted, Abs format (unit mm)*
G04 Created by KiCad (PCBNEW 7.0.10-7.0.10~ubuntu22.04.1) date 2024-02-29 19:07:42*
%MOMM*%
%LPD*%
G01*
G04 APERTURE LIST*
G04 Aperture macros list*
%AMRotRect*
0 Rectangle, with rotation*
0 The origin of the aperture is its center*
0 $1 length*
0 $2 width*
0 $3 Rotation angle, in degrees counterclockwise*
0 Add horizontal line*
21,1,$1,$2,0,0,$3*%
G04 Aperture macros list end*
%ADD10RotRect,0.900000X1.200000X90.500000*%
%ADD11RotRect,0.900000X1.200000X100.000000*%
%ADD12RotRect,0.900000X1.200000X94.000000*%
%ADD13RotRect,2.600000X1.000000X0.500000*%
%ADD14RotRect,2.000000X1.200000X0.500000*%
%ADD15RotRect,0.900000X1.200000X75.500000*%
%ADD16RotRect,2.600000X2.600000X7.000000*%
%ADD17RotRect,2.600000X2.600000X0.500000*%
%ADD18RotRect,0.900000X1.200000X97.000000*%
%ADD19RotRect,2.600000X1.000000X345.500000*%
%ADD20RotRect,2.000000X1.200000X345.500000*%
%ADD21RotRect,2.600000X1.000000X10.000000*%
%ADD22RotRect,2.000000X1.200000X10.000000*%
%ADD23RotRect,2.600000X2.600000X10.000000*%
%ADD24RotRect,2.600000X1.000000X4.000000*%
%ADD25RotRect,2.000000X1.200000X4.000000*%
%ADD26RotRect,2.600000X2.600000X4.000000*%
%ADD27RotRect,2.600000X1.000000X7.000000*%
%ADD28RotRect,2.000000X1.200000X7.000000*%
%ADD29RotRect,2.600000X2.600000X345.500000*%
G04 APERTURE END LIST*
D10*
%TO.C,D17*%
X226282492Y-172954564D03*
X226253694Y-169654690D03*
%TD*%
D11*
%TO.C,D3*%
X136774917Y-145103737D03*
X136201879Y-141853871D03*
%TD*%
D12*
%TO.C,D15*%
X202720875Y-135899283D03*
X202490679Y-132607321D03*
%TD*%
D13*
%TO.C,LED50*%
X234573231Y-171857173D03*
X234588502Y-173607106D03*
X238988335Y-173568709D03*
X238973064Y-171818776D03*
D14*
X234266916Y-171134818D03*
X234294841Y-174334696D03*
X239294650Y-174291064D03*
X239266725Y-171091186D03*
%TD*%
D10*
%TO.C,D22*%
X246115926Y-153780756D03*
X246087128Y-150480882D03*
%TD*%
D15*
%TO.C,D28*%
X267584479Y-182860780D03*
X268410733Y-179665892D03*
%TD*%
D11*
%TO.C,D6*%
X159770388Y-160342121D03*
X159197350Y-157092255D03*
%TD*%
D16*
%TO.C,S12*%
X158417335Y-112137398D03*
%TD*%
D10*
%TO.C,D23*%
X245950122Y-134781480D03*
X245921324Y-131481606D03*
%TD*%
%TO.C,D21*%
X246281730Y-172780033D03*
X246252932Y-169480159D03*
%TD*%
D17*
%TO.C,S18*%
X208260335Y-144710760D03*
%TD*%
D15*
%TO.C,D29*%
X286947432Y-187868380D03*
X287773686Y-184673492D03*
%TD*%
D17*
%TO.C,S17*%
X208426139Y-163710036D03*
%TD*%
D18*
%TO.C,D12*%
X177205414Y-119301104D03*
X176803246Y-116025702D03*
%TD*%
D19*
%TO.C,LED56*%
X271385870Y-201904018D03*
X270947705Y-203598276D03*
X275207554Y-204699948D03*
X275645719Y-203005690D03*
D20*
X271276951Y-201126997D03*
X270475735Y-204225069D03*
X275316473Y-205476969D03*
X276117689Y-202378897D03*
%TD*%
D21*
%TO.C,LED32*%
X125074678Y-146125992D03*
X125378562Y-147849406D03*
X129711716Y-147085354D03*
X129407832Y-145361940D03*
D22*
X124653341Y-145464101D03*
X125209015Y-148615486D03*
X130133053Y-147747245D03*
X129577379Y-144595860D03*
%TD*%
D11*
%TO.C,D2*%
X140074233Y-163815084D03*
X139501195Y-160565218D03*
%TD*%
D21*
%TO.C,LED37*%
X141471518Y-123941681D03*
X141775402Y-125665095D03*
X146108556Y-124901043D03*
X145804672Y-123177629D03*
D22*
X141050181Y-123279790D03*
X141605855Y-126431175D03*
X146529893Y-125562934D03*
X145974219Y-122411549D03*
%TD*%
D23*
%TO.C,S4*%
X114338352Y-120221793D03*
%TD*%
D24*
%TO.C,LED44*%
X190977875Y-135692930D03*
X191099949Y-137438667D03*
X195489231Y-137131738D03*
X195367157Y-135386001D03*
D25*
X190628033Y-134990623D03*
X190851253Y-138182828D03*
X195839073Y-137834045D03*
X195615853Y-134641840D03*
%TD*%
D21*
%TO.C,LED36*%
X144770833Y-142653029D03*
X145074717Y-144376443D03*
X149407871Y-143612391D03*
X149103987Y-141888977D03*
D22*
X144349496Y-141991138D03*
X144905170Y-145142523D03*
X149829208Y-144274282D03*
X149273534Y-141122897D03*
%TD*%
D13*
%TO.C,LED48*%
X214242384Y-134033151D03*
X214257655Y-135783084D03*
X218657488Y-135744687D03*
X218642217Y-133994754D03*
D14*
X213936069Y-133310796D03*
X213963994Y-136510674D03*
X218963803Y-136467042D03*
X218935878Y-133267164D03*
%TD*%
D16*
%TO.C,S11*%
X160732853Y-130995775D03*
%TD*%
D10*
%TO.C,D19*%
X225950883Y-134956011D03*
X225922085Y-131656137D03*
%TD*%
D19*
%TO.C,LED57*%
X256513791Y-178938982D03*
X256075626Y-180633240D03*
X260335475Y-181734912D03*
X260773640Y-180040654D03*
D20*
X256404872Y-178161961D03*
X255603656Y-181260033D03*
X260444394Y-182511933D03*
X261245610Y-179413861D03*
%TD*%
D26*
%TO.C,S15*%
X184333464Y-127762102D03*
%TD*%
D15*
%TO.C,D25*%
X243730652Y-195810615D03*
X244556906Y-192615727D03*
%TD*%
D17*
%TO.C,S19*%
X208094531Y-125711483D03*
%TD*%
%TO.C,S23*%
X228093769Y-125536952D03*
%TD*%
D15*
%TO.C,D26*%
X263093605Y-200818215D03*
X263919859Y-197623327D03*
%TD*%
D17*
%TO.C,S24*%
X227927965Y-106537676D03*
%TD*%
D27*
%TO.C,LED40*%
X167783226Y-138567993D03*
X167996497Y-140304948D03*
X172363700Y-139768723D03*
X172150429Y-138031768D03*
D28*
X167397107Y-137884958D03*
X167787089Y-141061105D03*
X172749819Y-140451758D03*
X172359837Y-137275611D03*
%TD*%
D23*
%TO.C,S5*%
X143932453Y-172882872D03*
%TD*%
D29*
%TO.C,S29*%
X272092179Y-174317287D03*
%TD*%
%TO.C,S28*%
X252729226Y-169309687D03*
%TD*%
D23*
%TO.C,S2*%
X120936982Y-157644488D03*
%TD*%
D21*
%TO.C,LED30*%
X131673309Y-183548687D03*
X131977193Y-185272101D03*
X136310347Y-184508049D03*
X136006463Y-182784635D03*
D22*
X131251972Y-182886796D03*
X131807646Y-186038181D03*
X136731684Y-185169940D03*
X136176010Y-182018555D03*
%TD*%
D21*
%TO.C,LED35*%
X148070148Y-161364376D03*
X148374032Y-163087790D03*
X152707186Y-162323738D03*
X152403302Y-160600324D03*
D22*
X147648811Y-160702485D03*
X148204485Y-163853870D03*
X153128523Y-162985629D03*
X152572849Y-159834244D03*
%TD*%
D19*
%TO.C,LED58*%
X275876744Y-183946582D03*
X275438579Y-185640840D03*
X279698428Y-186742512D03*
X280136593Y-185048254D03*
D20*
X275767825Y-183169561D03*
X274966609Y-186267633D03*
X279807347Y-187519533D03*
X280608563Y-184421461D03*
%TD*%
D11*
%TO.C,D1*%
X143373548Y-182526431D03*
X142800510Y-179276565D03*
%TD*%
D13*
%TO.C,LED53*%
X234075818Y-114859343D03*
X234091089Y-116609276D03*
X238490922Y-116570879D03*
X238475651Y-114820946D03*
D14*
X233769503Y-114136988D03*
X233797428Y-117336866D03*
X238797237Y-117293234D03*
X238769312Y-114093356D03*
%TD*%
D19*
%TO.C,LED54*%
X232659964Y-191888818D03*
X232221799Y-193583076D03*
X236481648Y-194684748D03*
X236919813Y-192990490D03*
D20*
X232551045Y-191111797D03*
X231749829Y-194209869D03*
X236590567Y-195461769D03*
X237391783Y-192363697D03*
%TD*%
D23*
%TO.C,S1*%
X124236298Y-176355835D03*
%TD*%
D12*
%TO.C,D13*%
X205371621Y-173806717D03*
X205141425Y-170514755D03*
%TD*%
D29*
%TO.C,S27*%
X267601305Y-192274723D03*
%TD*%
D21*
%TO.C,LED31*%
X128373993Y-164837339D03*
X128677877Y-166560753D03*
X133011031Y-165796701D03*
X132707147Y-164073287D03*
D22*
X127952656Y-164175448D03*
X128508330Y-167326833D03*
X133432368Y-166458592D03*
X132876694Y-163307207D03*
%TD*%
D26*
%TO.C,S16*%
X183008091Y-108808385D03*
%TD*%
D23*
%TO.C,S8*%
X134034507Y-116748830D03*
%TD*%
D27*
%TO.C,LED41*%
X165467709Y-119709616D03*
X165680980Y-121446571D03*
X170048183Y-120910346D03*
X169834912Y-119173391D03*
D28*
X165081590Y-119026581D03*
X165471572Y-122202728D03*
X170434302Y-121593381D03*
X170044320Y-118417234D03*
%TD*%
D10*
%TO.C,D20*%
X225785079Y-115956734D03*
X225756281Y-112656860D03*
%TD*%
D12*
%TO.C,D14*%
X204046248Y-154853000D03*
X203816052Y-151561038D03*
%TD*%
D13*
%TO.C,LED51*%
X234407426Y-152857896D03*
X234422697Y-154607829D03*
X238822530Y-154569432D03*
X238807259Y-152819499D03*
D14*
X234101111Y-152135541D03*
X234129036Y-155335419D03*
X239128845Y-155291787D03*
X239100920Y-152091909D03*
%TD*%
D23*
%TO.C,S3*%
X117637667Y-138933141D03*
%TD*%
D29*
%TO.C,S26*%
X248238352Y-187267123D03*
%TD*%
D23*
%TO.C,S6*%
X140633137Y-154171524D03*
%TD*%
D26*
%TO.C,S13*%
X186984210Y-165669536D03*
%TD*%
D21*
%TO.C,LED34*%
X151369464Y-180075723D03*
X151673348Y-181799137D03*
X156006502Y-181035085D03*
X155702618Y-179311671D03*
D22*
X150948127Y-179413832D03*
X151503801Y-182565217D03*
X156427839Y-181696976D03*
X155872165Y-178545591D03*
%TD*%
D17*
%TO.C,S22*%
X228259574Y-144536229D03*
%TD*%
D27*
%TO.C,LED39*%
X170098744Y-157426370D03*
X170312015Y-159163325D03*
X174679218Y-158627100D03*
X174465947Y-156890145D03*
D28*
X169712625Y-156743335D03*
X170102607Y-159919482D03*
X175065337Y-159310135D03*
X174675355Y-156133988D03*
%TD*%
D24*
%TO.C,LED43*%
X192303248Y-154646647D03*
X192425322Y-156392384D03*
X196814604Y-156085455D03*
X196692530Y-154339718D03*
D25*
X191953406Y-153944340D03*
X192176626Y-157136545D03*
X197164446Y-156787762D03*
X196941226Y-153595557D03*
%TD*%
D11*
%TO.C,D8*%
X153171757Y-122919426D03*
X152598719Y-119669560D03*
%TD*%
D13*
%TO.C,LED47*%
X214408188Y-153032427D03*
X214423459Y-154782360D03*
X218823292Y-154743963D03*
X218808021Y-152994030D03*
D14*
X214101873Y-152310072D03*
X214129798Y-155509950D03*
X219129607Y-155466318D03*
X219101682Y-152266440D03*
%TD*%
D24*
%TO.C,LED42*%
X193628621Y-173600364D03*
X193750695Y-175346101D03*
X198139977Y-175039172D03*
X198017903Y-173293435D03*
D25*
X193278779Y-172898057D03*
X193501999Y-176090262D03*
X198489819Y-175741479D03*
X198266599Y-172549274D03*
%TD*%
D17*
%TO.C,S20*%
X207928727Y-106712207D03*
%TD*%
D13*
%TO.C,LED49*%
X214076580Y-115033874D03*
X214091851Y-116783807D03*
X218491684Y-116745410D03*
X218476413Y-114995477D03*
D14*
X213770265Y-114311519D03*
X213798190Y-117511397D03*
X218797999Y-117467765D03*
X218770074Y-114267887D03*
%TD*%
D11*
%TO.C,D7*%
X156471072Y-141630773D03*
X155898034Y-138380907D03*
%TD*%
D13*
%TO.C,LED46*%
X214573992Y-172031704D03*
X214589263Y-173781637D03*
X218989096Y-173743240D03*
X218973825Y-171993307D03*
D14*
X214267677Y-171309349D03*
X214295602Y-174509227D03*
X219295411Y-174465595D03*
X219267486Y-171265717D03*
%TD*%
D17*
%TO.C,S21*%
X228425378Y-163535505D03*
%TD*%
D19*
%TO.C,LED55*%
X252022917Y-196896418D03*
X251584752Y-198590676D03*
X255844601Y-199692348D03*
X256282766Y-197998090D03*
D20*
X251913998Y-196119397D03*
X251112782Y-199217469D03*
X255953520Y-200469369D03*
X256754736Y-197371297D03*
%TD*%
D24*
%TO.C,LED45*%
X189652502Y-116739213D03*
X189774576Y-118484950D03*
X194163858Y-118178021D03*
X194041784Y-116432284D03*
D25*
X189302660Y-116036906D03*
X189525880Y-119229111D03*
X194513700Y-118880328D03*
X194290480Y-115688123D03*
%TD*%
D15*
%TO.C,D27*%
X282456558Y-205825815D03*
X283282812Y-202630927D03*
%TD*%
D18*
%TO.C,D9*%
X184151967Y-175876235D03*
X183749799Y-172600833D03*
%TD*%
D23*
%TO.C,S7*%
X137333822Y-135460177D03*
%TD*%
D29*
%TO.C,S25*%
X228875399Y-182259523D03*
%TD*%
D26*
%TO.C,S14*%
X185658837Y-146715819D03*
%TD*%
D12*
%TO.C,D16*%
X201395502Y-116945566D03*
X201165306Y-113653604D03*
%TD*%
D10*
%TO.C,D18*%
X226116688Y-153955287D03*
X226087890Y-150655413D03*
%TD*%
%TO.C,D24*%
X245784318Y-115782203D03*
X245755520Y-112482329D03*
%TD*%
D21*
%TO.C,LED33*%
X121775363Y-127414645D03*
X122079247Y-129138059D03*
X126412401Y-128374007D03*
X126108517Y-126650593D03*
D22*
X121354026Y-126752754D03*
X121909700Y-129904139D03*
X126833738Y-129035898D03*
X126278064Y-125884513D03*
%TD*%
D11*
%TO.C,D4*%
X133475602Y-126392390D03*
X132902564Y-123142524D03*
%TD*%
D16*
%TO.C,S10*%
X163048370Y-149854152D03*
%TD*%
D11*
%TO.C,D5*%
X163069703Y-179053468D03*
X162496665Y-175803602D03*
%TD*%
D18*
%TO.C,D11*%
X179520932Y-138159481D03*
X179118764Y-134884079D03*
%TD*%
D16*
%TO.C,S9*%
X165363888Y-168712529D03*
%TD*%
D13*
%TO.C,LED52*%
X234241622Y-133858620D03*
X234256893Y-135608553D03*
X238656726Y-135570156D03*
X238641455Y-133820223D03*
D14*
X233935307Y-133136265D03*
X233963232Y-136336143D03*
X238963041Y-136292511D03*
X238935116Y-133092633D03*
%TD*%
D27*
%TO.C,LED38*%
X172414261Y-176284747D03*
X172627532Y-178021702D03*
X176994735Y-177485477D03*
X176781464Y-175748522D03*
D28*
X172028142Y-175601712D03*
X172418124Y-178777859D03*
X177380854Y-178168512D03*
X176990872Y-174992365D03*
%TD*%
D18*
%TO.C,D10*%
X181836449Y-157017858D03*
X181434281Y-153742456D03*
%TD*%
M02*
