%TF.GenerationSoftware,KiCad,Pcbnew,7.0.10-7.0.10~ubuntu22.04.1*%
%TF.CreationDate,2024-03-04T12:43:43-07:00*%
%TF.ProjectId,boardPcb,626f6172-6450-4636-922e-6b696361645f,v1.0.0*%
%TF.SameCoordinates,Original*%
%TF.FileFunction,Paste,Bot*%
%TF.FilePolarity,Positive*%
%FSLAX46Y46*%
G04 Gerber Fmt 4.6, Leading zero omitted, Abs format (unit mm)*
G04 Created by KiCad (PCBNEW 7.0.10-7.0.10~ubuntu22.04.1) date 2024-03-04 12:43:43*
%MOMM*%
%LPD*%
G01*
G04 APERTURE LIST*
G04 Aperture macros list*
%AMRotRect*
0 Rectangle, with rotation*
0 The origin of the aperture is its center*
0 $1 length*
0 $2 width*
0 $3 Rotation angle, in degrees counterclockwise*
0 Add horizontal line*
21,1,$1,$2,0,0,$3*%
G04 Aperture macros list end*
%ADD10RotRect,0.900000X1.200000X100.000000*%
%ADD11RotRect,0.700000X0.700000X345.500000*%
%ADD12RotRect,0.900000X1.200000X90.500000*%
%ADD13RotRect,2.600000X2.600000X10.000000*%
%ADD14RotRect,2.600000X2.600000X7.000000*%
%ADD15RotRect,0.700000X0.700000X10.000000*%
%ADD16RotRect,2.600000X2.600000X4.000000*%
%ADD17RotRect,0.900000X1.200000X94.000000*%
%ADD18RotRect,0.700000X0.700000X7.000000*%
%ADD19RotRect,0.700000X0.700000X0.500000*%
%ADD20RotRect,0.900000X1.200000X75.500000*%
%ADD21RotRect,0.700000X0.700000X4.000000*%
%ADD22RotRect,2.600000X2.600000X0.500000*%
%ADD23RotRect,2.600000X2.600000X345.500000*%
%ADD24RotRect,0.900000X1.200000X97.000000*%
G04 APERTURE END LIST*
D10*
%TO.C,D7*%
X156471072Y-141630773D03*
X155898034Y-138380907D03*
%TD*%
D11*
%TO.C,REF\u002A\u002A*%
X254882209Y-198281444D03*
X255157627Y-197216482D03*
X253385917Y-196758286D03*
X253110499Y-197823248D03*
%TD*%
D12*
%TO.C,D23*%
X245950122Y-134781480D03*
X245921324Y-131481606D03*
%TD*%
D13*
%TO.C,S7*%
X153632390Y-132586299D03*
%TD*%
D14*
%TO.C,S9*%
X181790526Y-166695591D03*
%TD*%
D13*
%TO.C,S2*%
X137235550Y-154770610D03*
%TD*%
D15*
%TO.C,REF\u002A\u002A*%
X131550200Y-164911930D03*
X131359187Y-163828642D03*
X129556988Y-164146418D03*
X129748001Y-165229706D03*
%TD*%
D16*
%TO.C,S14*%
X202168522Y-145561349D03*
%TD*%
D14*
%TO.C,S11*%
X177159491Y-128978837D03*
%TD*%
D17*
%TO.C,D15*%
X202720875Y-135899283D03*
X202490679Y-132607321D03*
%TD*%
D18*
%TO.C,REF\u002A\u002A*%
X170951176Y-138808711D03*
X170817120Y-137716910D03*
X169000760Y-137939931D03*
X169134816Y-139031732D03*
%TD*%
D15*
%TO.C,REF\u002A\u002A*%
X154545670Y-180150314D03*
X154354657Y-179067026D03*
X152552458Y-179384802D03*
X152743471Y-180468090D03*
%TD*%
D19*
%TO.C,REF\u002A\u002A*%
X217196916Y-115631667D03*
X217187317Y-114531709D03*
X215357386Y-114547679D03*
X215366985Y-115647637D03*
%TD*%
D17*
%TO.C,D16*%
X201395502Y-116945566D03*
X201165306Y-113653604D03*
%TD*%
D12*
%TO.C,D17*%
X226282492Y-172954564D03*
X226253694Y-169654690D03*
%TD*%
D10*
%TO.C,D5*%
X163069703Y-179053468D03*
X162496665Y-175803602D03*
%TD*%
D14*
%TO.C,S10*%
X179475008Y-147837214D03*
%TD*%
D19*
%TO.C,REF\u002A\u002A*%
X217528524Y-153630220D03*
X217518925Y-152530262D03*
X215688994Y-152546232D03*
X215698593Y-153646190D03*
%TD*%
D20*
%TO.C,D29*%
X286947432Y-187868380D03*
X287773686Y-184673492D03*
%TD*%
D15*
%TO.C,REF\u002A\u002A*%
X124951569Y-127489236D03*
X124760556Y-126405948D03*
X122958357Y-126723724D03*
X123149370Y-127807012D03*
%TD*%
D21*
%TO.C,REF\u002A\u002A*%
X192803512Y-117145399D03*
X192726780Y-116048079D03*
X190901238Y-116175733D03*
X190977970Y-117273053D03*
%TD*%
D22*
%TO.C,S17*%
X224975508Y-163565612D03*
%TD*%
%TO.C,S20*%
X224478096Y-106567783D03*
%TD*%
D10*
%TO.C,D6*%
X159770388Y-160342121D03*
X159197350Y-157092255D03*
%TD*%
D11*
%TO.C,REF\u002A\u002A*%
X259373083Y-180324008D03*
X259648501Y-179259046D03*
X257876791Y-178800850D03*
X257601373Y-179865812D03*
%TD*%
D15*
%TO.C,REF\u002A\u002A*%
X128250884Y-146200583D03*
X128059871Y-145117295D03*
X126257672Y-145435071D03*
X126448685Y-146518359D03*
%TD*%
D19*
%TO.C,REF\u002A\u002A*%
X217362720Y-134630943D03*
X217353121Y-133530985D03*
X215523190Y-133546955D03*
X215532789Y-134646913D03*
%TD*%
D23*
%TO.C,S29*%
X288115023Y-178461076D03*
%TD*%
D15*
%TO.C,REF\u002A\u002A*%
X151246355Y-161438967D03*
X151055342Y-160355679D03*
X149253143Y-160673455D03*
X149444156Y-161756743D03*
%TD*%
%TO.C,REF\u002A\u002A*%
X144647724Y-124016272D03*
X144456711Y-122932984D03*
X142654512Y-123250760D03*
X142845525Y-124334048D03*
%TD*%
D23*
%TO.C,S25*%
X244898243Y-186403312D03*
%TD*%
D16*
%TO.C,S13*%
X203493895Y-164515066D03*
%TD*%
D11*
%TO.C,REF\u002A\u002A*%
X235519256Y-193273844D03*
X235794674Y-192208882D03*
X234022964Y-191750686D03*
X233747546Y-192815648D03*
%TD*%
D10*
%TO.C,D1*%
X143373548Y-182526431D03*
X142800510Y-179276565D03*
%TD*%
D12*
%TO.C,D18*%
X226116688Y-153955287D03*
X226087890Y-150655413D03*
%TD*%
D13*
%TO.C,S4*%
X130636920Y-117347915D03*
%TD*%
D24*
%TO.C,D10*%
X181836449Y-157017858D03*
X181434281Y-153742456D03*
%TD*%
D22*
%TO.C,S18*%
X224809704Y-144566336D03*
%TD*%
D10*
%TO.C,D2*%
X140074233Y-163815084D03*
X139501195Y-160565218D03*
%TD*%
D15*
%TO.C,REF\u002A\u002A*%
X134849515Y-183623278D03*
X134658502Y-182539990D03*
X132856303Y-182857766D03*
X133047316Y-183941054D03*
%TD*%
D24*
%TO.C,D9*%
X184151967Y-175876235D03*
X183749799Y-172600833D03*
%TD*%
D20*
%TO.C,D26*%
X263093605Y-200818215D03*
X263919859Y-197623327D03*
%TD*%
D19*
%TO.C,REF\u002A\u002A*%
X237693567Y-172454965D03*
X237683968Y-171355007D03*
X235854037Y-171370977D03*
X235863636Y-172470935D03*
%TD*%
D23*
%TO.C,S27*%
X283624149Y-196418512D03*
%TD*%
D10*
%TO.C,D4*%
X133475602Y-126392390D03*
X132902564Y-123142524D03*
%TD*%
D13*
%TO.C,S3*%
X133936235Y-136059263D03*
%TD*%
D21*
%TO.C,REF\u002A\u002A*%
X194128885Y-136099116D03*
X194052153Y-135001796D03*
X192226611Y-135129450D03*
X192303343Y-136226770D03*
%TD*%
D15*
%TO.C,REF\u002A\u002A*%
X147947039Y-142727619D03*
X147756026Y-141644331D03*
X145953827Y-141962107D03*
X146144840Y-143045395D03*
%TD*%
D22*
%TO.C,S21*%
X244974747Y-163391081D03*
%TD*%
D18*
%TO.C,REF\u002A\u002A*%
X173266693Y-157667088D03*
X173132637Y-156575287D03*
X171316277Y-156798308D03*
X171450333Y-157890109D03*
%TD*%
D12*
%TO.C,D21*%
X246281730Y-172780033D03*
X246252932Y-169480159D03*
%TD*%
%TO.C,D20*%
X225785079Y-115956734D03*
X225756281Y-112656860D03*
%TD*%
D24*
%TO.C,D12*%
X177205414Y-119301104D03*
X176803246Y-116025702D03*
%TD*%
D18*
%TO.C,REF\u002A\u002A*%
X175582211Y-176525465D03*
X175448155Y-175433664D03*
X173631795Y-175656685D03*
X173765851Y-176748486D03*
%TD*%
D10*
%TO.C,D8*%
X153171757Y-122919426D03*
X152598719Y-119669560D03*
%TD*%
D22*
%TO.C,S23*%
X244643138Y-125392528D03*
%TD*%
D19*
%TO.C,REF\u002A\u002A*%
X237361958Y-134456412D03*
X237352359Y-133356454D03*
X235522428Y-133372424D03*
X235532027Y-134472382D03*
%TD*%
D18*
%TO.C,REF\u002A\u002A*%
X168635658Y-119950334D03*
X168501602Y-118858533D03*
X166685242Y-119081554D03*
X166819298Y-120173355D03*
%TD*%
D19*
%TO.C,REF\u002A\u002A*%
X217694328Y-172629496D03*
X217684729Y-171529538D03*
X215854798Y-171545508D03*
X215864397Y-172645466D03*
%TD*%
D16*
%TO.C,S16*%
X199517776Y-107653915D03*
%TD*%
D12*
%TO.C,D19*%
X225950883Y-134956011D03*
X225922085Y-131656137D03*
%TD*%
D22*
%TO.C,S19*%
X224643900Y-125567059D03*
%TD*%
D12*
%TO.C,D24*%
X245784318Y-115782203D03*
X245755520Y-112482329D03*
%TD*%
%TO.C,D22*%
X246115926Y-153780756D03*
X246087128Y-150480882D03*
%TD*%
D19*
%TO.C,REF\u002A\u002A*%
X237527762Y-153455689D03*
X237518163Y-152355731D03*
X235688232Y-152371701D03*
X235697831Y-153471659D03*
%TD*%
D14*
%TO.C,S12*%
X174843973Y-110120460D03*
%TD*%
D17*
%TO.C,D14*%
X204046248Y-154853000D03*
X203816052Y-151561038D03*
%TD*%
%TO.C,D13*%
X205371621Y-173806717D03*
X205141425Y-170514755D03*
%TD*%
D24*
%TO.C,D11*%
X179520932Y-138159481D03*
X179118764Y-134884079D03*
%TD*%
D13*
%TO.C,S6*%
X156931705Y-151297646D03*
%TD*%
D20*
%TO.C,D25*%
X243730652Y-195810615D03*
X244556906Y-192615727D03*
%TD*%
D11*
%TO.C,REF\u002A\u002A*%
X274245162Y-203289044D03*
X274520580Y-202224082D03*
X272748870Y-201765886D03*
X272473452Y-202830848D03*
%TD*%
D22*
%TO.C,S22*%
X244808943Y-144391805D03*
%TD*%
D13*
%TO.C,S5*%
X160231021Y-170008994D03*
%TD*%
D11*
%TO.C,REF\u002A\u002A*%
X278736036Y-185331608D03*
X279011454Y-184266646D03*
X277239744Y-183808450D03*
X276964326Y-184873412D03*
%TD*%
D20*
%TO.C,D27*%
X282456558Y-205825815D03*
X283282812Y-202630927D03*
%TD*%
D21*
%TO.C,REF\u002A\u002A*%
X196779631Y-174006550D03*
X196702899Y-172909230D03*
X194877357Y-173036884D03*
X194954089Y-174134204D03*
%TD*%
%TO.C,REF\u002A\u002A*%
X195454258Y-155052833D03*
X195377526Y-153955513D03*
X193551984Y-154083167D03*
X193628716Y-155180487D03*
%TD*%
D22*
%TO.C,S24*%
X244477334Y-106393252D03*
%TD*%
D19*
%TO.C,REF\u002A\u002A*%
X237196154Y-115457136D03*
X237186555Y-114357178D03*
X235356624Y-114373148D03*
X235366223Y-115473106D03*
%TD*%
D13*
%TO.C,S1*%
X140534866Y-173481957D03*
%TD*%
D23*
%TO.C,S26*%
X264261196Y-191410912D03*
%TD*%
D10*
%TO.C,D3*%
X136774917Y-145103737D03*
X136201879Y-141853871D03*
%TD*%
D16*
%TO.C,S15*%
X200843149Y-126607632D03*
%TD*%
D13*
%TO.C,S8*%
X150333075Y-113874952D03*
%TD*%
D20*
%TO.C,D28*%
X267584479Y-182860780D03*
X268410733Y-179665892D03*
%TD*%
D23*
%TO.C,S28*%
X268752070Y-173453476D03*
%TD*%
M02*
