%TF.GenerationSoftware,KiCad,Pcbnew,7.0.10-7.0.10~ubuntu22.04.1*%
%TF.CreationDate,2024-03-04T12:43:43-07:00*%
%TF.ProjectId,boardPcb,626f6172-6450-4636-922e-6b696361645f,v1.0.0*%
%TF.SameCoordinates,Original*%
%TF.FileFunction,Copper,L1,Top*%
%TF.FilePolarity,Positive*%
%FSLAX46Y46*%
G04 Gerber Fmt 4.6, Leading zero omitted, Abs format (unit mm)*
G04 Created by KiCad (PCBNEW 7.0.10-7.0.10~ubuntu22.04.1) date 2024-03-04 12:43:43*
%MOMM*%
%LPD*%
G01*
G04 APERTURE LIST*
G04 Aperture macros list*
%AMHorizOval*
0 Thick line with rounded ends*
0 $1 width*
0 $2 $3 position (X,Y) of the first rounded end (center of the circle)*
0 $4 $5 position (X,Y) of the second rounded end (center of the circle)*
0 Add line between two ends*
20,1,$1,$2,$3,$4,$5,0*
0 Add two circle primitives to create the rounded ends*
1,1,$1,$2,$3*
1,1,$1,$4,$5*%
%AMRotRect*
0 Rectangle, with rotation*
0 The origin of the aperture is its center*
0 $1 length*
0 $2 width*
0 $3 Rotation angle, in degrees counterclockwise*
0 Add horizontal line*
21,1,$1,$2,0,0,$3*%
%AMFreePoly0*
4,1,6,1.300000,0.000000,0.000000,-1.300000,-1.300000,-1.300000,-1.300000,1.300000,1.300000,1.300000,1.300000,0.000000,1.300000,0.000000,$1*%
%AMFreePoly1*
4,1,6,0.250000,0.000000,-0.250000,-0.625000,-0.500000,-0.625000,-0.500000,0.625000,-0.250000,0.625000,0.250000,0.000000,0.250000,0.000000,$1*%
%AMFreePoly2*
4,1,6,0.500000,-0.625000,-0.650000,-0.625000,-0.150000,0.000000,-0.650000,0.625000,0.500000,0.625000,0.500000,-0.625000,0.500000,-0.625000,$1*%
G04 Aperture macros list end*
%TA.AperFunction,ComponentPad*%
%ADD10RotRect,1.778000X1.778000X100.000000*%
%TD*%
%TA.AperFunction,SMDPad,CuDef*%
%ADD11RotRect,0.900000X1.200000X100.000000*%
%TD*%
%TA.AperFunction,ComponentPad*%
%ADD12C,1.905000*%
%TD*%
%TA.AperFunction,SMDPad,CuDef*%
%ADD13RotRect,0.700000X0.700000X345.500000*%
%TD*%
%TA.AperFunction,ComponentPad*%
%ADD14RotRect,1.778000X1.778000X90.500000*%
%TD*%
%TA.AperFunction,SMDPad,CuDef*%
%ADD15RotRect,0.900000X1.200000X90.500000*%
%TD*%
%TA.AperFunction,SMDPad,CuDef*%
%ADD16FreePoly0,10.000000*%
%TD*%
%TA.AperFunction,SMDPad,CuDef*%
%ADD17RotRect,2.600000X2.600000X10.000000*%
%TD*%
%TA.AperFunction,ComponentPad*%
%ADD18C,0.800000*%
%TD*%
%TA.AperFunction,SMDPad,CuDef*%
%ADD19FreePoly0,7.000000*%
%TD*%
%TA.AperFunction,SMDPad,CuDef*%
%ADD20RotRect,2.600000X2.600000X7.000000*%
%TD*%
%TA.AperFunction,SMDPad,CuDef*%
%ADD21RotRect,0.700000X0.700000X10.000000*%
%TD*%
%TA.AperFunction,SMDPad,CuDef*%
%ADD22FreePoly0,4.000000*%
%TD*%
%TA.AperFunction,SMDPad,CuDef*%
%ADD23RotRect,2.600000X2.600000X4.000000*%
%TD*%
%TA.AperFunction,ComponentPad*%
%ADD24RotRect,1.778000X1.778000X94.000000*%
%TD*%
%TA.AperFunction,SMDPad,CuDef*%
%ADD25RotRect,0.900000X1.200000X94.000000*%
%TD*%
%TA.AperFunction,SMDPad,CuDef*%
%ADD26RotRect,0.700000X0.700000X7.000000*%
%TD*%
%TA.AperFunction,ComponentPad*%
%ADD27HorizOval,1.600000X-0.299989X-0.002618X0.299989X0.002618X0*%
%TD*%
%TA.AperFunction,SMDPad,CuDef*%
%ADD28RotRect,0.700000X0.700000X0.500000*%
%TD*%
%TA.AperFunction,ComponentPad*%
%ADD29RotRect,1.778000X1.778000X75.500000*%
%TD*%
%TA.AperFunction,SMDPad,CuDef*%
%ADD30RotRect,0.900000X1.200000X75.500000*%
%TD*%
%TA.AperFunction,SMDPad,CuDef*%
%ADD31RotRect,0.700000X0.700000X4.000000*%
%TD*%
%TA.AperFunction,SMDPad,CuDef*%
%ADD32FreePoly0,0.500000*%
%TD*%
%TA.AperFunction,SMDPad,CuDef*%
%ADD33RotRect,2.600000X2.600000X0.500000*%
%TD*%
%TA.AperFunction,SMDPad,CuDef*%
%ADD34FreePoly0,345.500000*%
%TD*%
%TA.AperFunction,SMDPad,CuDef*%
%ADD35RotRect,2.600000X2.600000X345.500000*%
%TD*%
%TA.AperFunction,ComponentPad*%
%ADD36RotRect,1.778000X1.778000X97.000000*%
%TD*%
%TA.AperFunction,SMDPad,CuDef*%
%ADD37RotRect,0.900000X1.200000X97.000000*%
%TD*%
%TA.AperFunction,ComponentPad*%
%ADD38HorizOval,1.700000X0.000000X0.000000X0.000000X0.000000X0*%
%TD*%
%TA.AperFunction,SMDPad,CuDef*%
%ADD39FreePoly1,0.500000*%
%TD*%
%TA.AperFunction,SMDPad,CuDef*%
%ADD40FreePoly2,180.500000*%
%TD*%
%TA.AperFunction,ComponentPad*%
%ADD41HorizOval,1.700000X0.000000X0.000000X0.000000X0.000000X0*%
%TD*%
%TA.AperFunction,SMDPad,CuDef*%
%ADD42FreePoly2,0.500000*%
%TD*%
%TA.AperFunction,SMDPad,CuDef*%
%ADD43FreePoly1,180.500000*%
%TD*%
%TA.AperFunction,ViaPad*%
%ADD44C,0.800000*%
%TD*%
%TA.AperFunction,Conductor*%
%ADD45C,0.250000*%
%TD*%
G04 APERTURE END LIST*
D10*
%TO.P,D7,1*%
%TO.N,P19*%
X156846153Y-143757958D03*
D11*
X156471072Y-141630773D03*
%TO.P,D7,2*%
%TO.N,pink2_top*%
X155898034Y-138380907D03*
D12*
X155522953Y-136253722D03*
%TD*%
D13*
%TO.P,REF\u002A\u002A,1*%
%TO.N,L28*%
X254882209Y-198281444D03*
%TO.P,REF\u002A\u002A,2*%
%TO.N,VCC*%
X255157627Y-197216482D03*
%TO.P,REF\u002A\u002A,3*%
%TO.N,L29*%
X253385917Y-196758286D03*
%TO.P,REF\u002A\u002A,4*%
%TO.N,GND*%
X253110499Y-197823248D03*
%TD*%
D14*
%TO.P,D23,1*%
%TO.N,P19*%
X245968971Y-136941398D03*
D15*
X245950122Y-134781480D03*
%TO.P,D23,2*%
%TO.N,pointer2_top*%
X245921324Y-131481606D03*
D12*
X245902475Y-129321688D03*
%TD*%
D16*
%TO.P,S7,1*%
%TO.N,P3*%
X148326326Y-131287963D03*
D17*
%TO.P,S7,2*%
%TO.N,pink2_top*%
X137333822Y-135460177D03*
D18*
%TO.N,P3*%
X144136131Y-135022316D03*
%TO.N,pink2_top*%
X153462062Y-138962749D03*
%TD*%
D19*
%TO.P,S9,1*%
%TO.N,P4*%
X176559683Y-165121336D03*
D20*
%TO.P,S9,2*%
%TO.N,ring_bottom*%
X165363888Y-168712529D03*
D18*
%TO.N,P4*%
X172179790Y-168631274D03*
%TO.N,ring_bottom*%
X181286713Y-173054388D03*
%TD*%
D16*
%TO.P,S2,1*%
%TO.N,P2*%
X131929486Y-153472274D03*
D17*
%TO.P,S2,2*%
%TO.N,pinky1_middle*%
X120936982Y-157644488D03*
D18*
%TO.N,P2*%
X127739291Y-157206627D03*
%TO.N,pinky1_middle*%
X137065222Y-161147060D03*
%TD*%
D21*
%TO.P,REF\u002A\u002A,1*%
%TO.N,L18*%
X131550200Y-164911930D03*
%TO.P,REF\u002A\u002A,2*%
%TO.N,VCC*%
X131359187Y-163828642D03*
%TO.P,REF\u002A\u002A,3*%
%TO.N,L19*%
X129556988Y-164146418D03*
%TO.P,REF\u002A\u002A,4*%
%TO.N,GND*%
X129748001Y-165229706D03*
%TD*%
D22*
%TO.P,S14,1*%
%TO.N,P5*%
X197027237Y-143715490D03*
D23*
%TO.P,S14,2*%
%TO.N,middle_middle*%
X185658837Y-146715819D03*
D18*
%TO.N,P5*%
X192469651Y-146991392D03*
%TO.N,middle_middle*%
X201332606Y-151885064D03*
%TD*%
D19*
%TO.P,S11,1*%
%TO.N,P4*%
X171928648Y-127404582D03*
D20*
%TO.P,S11,2*%
%TO.N,ring_top*%
X160732853Y-130995775D03*
D18*
%TO.N,P4*%
X167548755Y-130914520D03*
%TO.N,ring_top*%
X176655678Y-135337634D03*
%TD*%
D24*
%TO.P,D15,1*%
%TO.N,P19*%
X202871549Y-138054021D03*
D25*
X202720875Y-135899283D03*
%TO.P,D15,2*%
%TO.N,middle_top*%
X202490679Y-132607321D03*
D12*
X202340005Y-130452583D03*
%TD*%
D26*
%TO.P,REF\u002A\u002A,1*%
%TO.N,L10*%
X170951176Y-138808711D03*
%TO.P,REF\u002A\u002A,2*%
%TO.N,VCC*%
X170817120Y-137716910D03*
%TO.P,REF\u002A\u002A,3*%
%TO.N,L11*%
X169000760Y-137939931D03*
%TO.P,REF\u002A\u002A,4*%
%TO.N,GND*%
X169134816Y-139031732D03*
%TD*%
D27*
%TO.P,TRRS1,1*%
%TO.N,GND*%
X256254888Y-146742010D03*
X256274959Y-149041923D03*
%TO.P,TRRS1,2*%
%TO.N,P9*%
X257334775Y-144432499D03*
X257394988Y-151332236D03*
%TO.P,TRRS1,3*%
%TO.N,P10*%
X261334623Y-144397593D03*
X261394836Y-151297330D03*
%TO.P,TRRS1,4*%
%TO.N,VCC*%
X264334509Y-144371413D03*
X264394722Y-151271150D03*
%TD*%
D21*
%TO.P,REF\u002A\u002A,1*%
%TO.N,L23*%
X154545670Y-180150314D03*
%TO.P,REF\u002A\u002A,2*%
%TO.N,VCC*%
X154354657Y-179067026D03*
%TO.P,REF\u002A\u002A,3*%
%TO.N,L24*%
X152552458Y-179384802D03*
%TO.P,REF\u002A\u002A,4*%
%TO.N,GND*%
X152743471Y-180468090D03*
%TD*%
D28*
%TO.P,REF\u002A\u002A,1*%
%TO.N,L02*%
X217196916Y-115631667D03*
%TO.P,REF\u002A\u002A,2*%
%TO.N,VCC*%
X217187317Y-114531709D03*
%TO.P,REF\u002A\u002A,3*%
%TO.N,L03*%
X215357386Y-114547679D03*
%TO.P,REF\u002A\u002A,4*%
%TO.N,GND*%
X215366985Y-115647637D03*
%TD*%
D24*
%TO.P,D16,1*%
%TO.N,P18*%
X201546176Y-119100304D03*
D25*
X201395502Y-116945566D03*
%TO.P,D16,2*%
%TO.N,middle_number*%
X201165306Y-113653604D03*
D12*
X201014632Y-111498866D03*
%TD*%
D14*
%TO.P,D17,1*%
%TO.N,P21*%
X226301341Y-175114482D03*
D15*
X226282492Y-172954564D03*
%TO.P,D17,2*%
%TO.N,pointer_bottom*%
X226253694Y-169654690D03*
D12*
X226234845Y-167494772D03*
%TD*%
D10*
%TO.P,D5,1*%
%TO.N,P21*%
X163444784Y-181180653D03*
D11*
X163069703Y-179053468D03*
%TO.P,D5,2*%
%TO.N,pink2_bottom*%
X162496665Y-175803602D03*
D12*
X162121584Y-173676417D03*
%TD*%
D19*
%TO.P,S10,1*%
%TO.N,P4*%
X174244165Y-146262959D03*
D20*
%TO.P,S10,2*%
%TO.N,ring_middle*%
X163048370Y-149854152D03*
D18*
%TO.N,P4*%
X169864272Y-149772897D03*
%TO.N,ring_middle*%
X178971195Y-154196011D03*
%TD*%
D28*
%TO.P,REF\u002A\u002A,1*%
%TO.N,L14*%
X217528524Y-153630220D03*
%TO.P,REF\u002A\u002A,2*%
%TO.N,VCC*%
X217518925Y-152530262D03*
%TO.P,REF\u002A\u002A,3*%
%TO.N,L15*%
X215688994Y-152546232D03*
%TO.P,REF\u002A\u002A,4*%
%TO.N,GND*%
X215698593Y-153646190D03*
%TD*%
D29*
%TO.P,D29,1*%
%TO.N,P19*%
X286406611Y-189959579D03*
D30*
X286947432Y-187868380D03*
%TO.P,D29,2*%
%TO.N,far2_thumb2*%
X287773686Y-184673492D03*
D12*
X288314507Y-182582293D03*
%TD*%
D21*
%TO.P,REF\u002A\u002A,1*%
%TO.N,L06*%
X124951569Y-127489236D03*
%TO.P,REF\u002A\u002A,2*%
%TO.N,VCC*%
X124760556Y-126405948D03*
%TO.P,REF\u002A\u002A,3*%
%TO.N,L07*%
X122958357Y-126723724D03*
%TO.P,REF\u002A\u002A,4*%
%TO.N,GND*%
X123149370Y-127807012D03*
%TD*%
D31*
%TO.P,REF\u002A\u002A,1*%
%TO.N,L03*%
X192803512Y-117145399D03*
%TO.P,REF\u002A\u002A,2*%
%TO.N,VCC*%
X192726780Y-116048079D03*
%TO.P,REF\u002A\u002A,3*%
%TO.N,L04*%
X190901238Y-116175733D03*
%TO.P,REF\u002A\u002A,4*%
%TO.N,GND*%
X190977970Y-117273053D03*
%TD*%
D32*
%TO.P,S17,1*%
%TO.N,P6*%
X219956500Y-161409328D03*
D33*
%TO.P,S17,2*%
%TO.N,pointer_bottom*%
X208426139Y-163710036D03*
D18*
%TO.N,P6*%
X215207426Y-164400885D03*
%TO.N,pointer_bottom*%
X223755098Y-169826500D03*
%TD*%
D32*
%TO.P,S20,1*%
%TO.N,P6*%
X219459088Y-104411499D03*
D33*
%TO.P,S20,2*%
%TO.N,pointer_number*%
X207928727Y-106712207D03*
D18*
%TO.N,P6*%
X214710014Y-107403056D03*
%TO.N,pointer_number*%
X223257686Y-112828671D03*
%TD*%
D10*
%TO.P,D6,1*%
%TO.N,P20*%
X160145469Y-162469306D03*
D11*
X159770388Y-160342121D03*
%TO.P,D6,2*%
%TO.N,pink2_middle*%
X159197350Y-157092255D03*
D12*
X158822269Y-154965070D03*
%TD*%
D13*
%TO.P,REF\u002A\u002A,1*%
%TO.N,L26*%
X259373083Y-180324008D03*
%TO.P,REF\u002A\u002A,2*%
%TO.N,VCC*%
X259648501Y-179259046D03*
%TO.P,REF\u002A\u002A,3*%
%TO.N,L27*%
X257876791Y-178800850D03*
%TO.P,REF\u002A\u002A,4*%
%TO.N,GND*%
X257601373Y-179865812D03*
%TD*%
D21*
%TO.P,REF\u002A\u002A,1*%
%TO.N,L12*%
X128250884Y-146200583D03*
%TO.P,REF\u002A\u002A,2*%
%TO.N,VCC*%
X128059871Y-145117295D03*
%TO.P,REF\u002A\u002A,3*%
%TO.N,L13*%
X126257672Y-145435071D03*
%TO.P,REF\u002A\u002A,4*%
%TO.N,GND*%
X126448685Y-146518359D03*
%TD*%
D28*
%TO.P,REF\u002A\u002A,1*%
%TO.N,L08*%
X217362720Y-134630943D03*
%TO.P,REF\u002A\u002A,2*%
%TO.N,VCC*%
X217353121Y-133530985D03*
%TO.P,REF\u002A\u002A,3*%
%TO.N,L09*%
X215523190Y-133546955D03*
%TO.P,REF\u002A\u002A,4*%
%TO.N,GND*%
X215532789Y-134646913D03*
%TD*%
D34*
%TO.P,S29,1*%
%TO.N,P14*%
X283825121Y-175079251D03*
D35*
%TO.P,S29,2*%
%TO.N,far2_thumb2*%
X272092179Y-174317287D03*
D18*
%TO.N,P14*%
X278463595Y-176739722D03*
%TO.N,far2_thumb2*%
X285315759Y-184192764D03*
%TD*%
D21*
%TO.P,REF\u002A\u002A,1*%
%TO.N,L17*%
X151246355Y-161438967D03*
%TO.P,REF\u002A\u002A,2*%
%TO.N,VCC*%
X151055342Y-160355679D03*
%TO.P,REF\u002A\u002A,3*%
%TO.N,L18*%
X149253143Y-160673455D03*
%TO.P,REF\u002A\u002A,4*%
%TO.N,GND*%
X149444156Y-161756743D03*
%TD*%
%TO.P,REF\u002A\u002A,1*%
%TO.N,L05*%
X144647724Y-124016272D03*
%TO.P,REF\u002A\u002A,2*%
%TO.N,VCC*%
X144456711Y-122932984D03*
%TO.P,REF\u002A\u002A,3*%
%TO.N,L06*%
X142654512Y-123250760D03*
%TO.P,REF\u002A\u002A,4*%
%TO.N,GND*%
X142845525Y-124334048D03*
%TD*%
D34*
%TO.P,S25,1*%
%TO.N,P16*%
X240608341Y-183021487D03*
D35*
%TO.P,S25,2*%
%TO.N,near_thumb*%
X228875399Y-182259523D03*
D18*
%TO.N,P16*%
X235246815Y-184681958D03*
%TO.N,near_thumb*%
X242098979Y-192135000D03*
%TD*%
D22*
%TO.P,S13,1*%
%TO.N,P5*%
X198352610Y-162669207D03*
D23*
%TO.P,S13,2*%
%TO.N,middle_bottom*%
X186984210Y-165669536D03*
D18*
%TO.N,P5*%
X193795024Y-165945109D03*
%TO.N,middle_bottom*%
X202657979Y-170838781D03*
%TD*%
D13*
%TO.P,REF\u002A\u002A,1*%
%TO.N,L29*%
X235519256Y-193273844D03*
%TO.P,REF\u002A\u002A,2*%
%TO.N,VCC*%
X235794674Y-192208882D03*
%TO.P,REF\u002A\u002A,3*%
%TO.N,L30*%
X234022964Y-191750686D03*
%TO.P,REF\u002A\u002A,4*%
%TO.N,GND*%
X233747546Y-192815648D03*
%TD*%
D10*
%TO.P,D1,1*%
%TO.N,P21*%
X143748629Y-184653616D03*
D11*
X143373548Y-182526431D03*
%TO.P,D1,2*%
%TO.N,pinky1_bottom*%
X142800510Y-179276565D03*
D12*
X142425429Y-177149380D03*
%TD*%
D14*
%TO.P,D18,1*%
%TO.N,P20*%
X226135537Y-156115205D03*
D15*
X226116688Y-153955287D03*
%TO.P,D18,2*%
%TO.N,pointer_middle*%
X226087890Y-150655413D03*
D12*
X226069041Y-148495495D03*
%TD*%
D16*
%TO.P,S4,1*%
%TO.N,P2*%
X125330856Y-116049579D03*
D17*
%TO.P,S4,2*%
%TO.N,pinky1_number*%
X114338352Y-120221793D03*
D18*
%TO.N,P2*%
X121140661Y-119783932D03*
%TO.N,pinky1_number*%
X130466592Y-123724365D03*
%TD*%
D36*
%TO.P,D10,1*%
%TO.N,P20*%
X182099687Y-159161758D03*
D37*
X181836449Y-157017858D03*
%TO.P,D10,2*%
%TO.N,ring_middle*%
X181434281Y-153742456D03*
D12*
X181171043Y-151598556D03*
%TD*%
D32*
%TO.P,S18,1*%
%TO.N,P6*%
X219790696Y-142410052D03*
D33*
%TO.P,S18,2*%
%TO.N,pointer_middle*%
X208260335Y-144710760D03*
D18*
%TO.N,P6*%
X215041622Y-145401609D03*
%TO.N,pointer_middle*%
X223589294Y-150827224D03*
%TD*%
D10*
%TO.P,D2,1*%
%TO.N,P20*%
X140449314Y-165942269D03*
D11*
X140074233Y-163815084D03*
%TO.P,D2,2*%
%TO.N,pinky1_middle*%
X139501195Y-160565218D03*
D12*
X139126114Y-158438033D03*
%TD*%
D21*
%TO.P,REF\u002A\u002A,1*%
%TO.N,L24*%
X134849515Y-183623278D03*
%TO.P,REF\u002A\u002A,2*%
%TO.N,VCC*%
X134658502Y-182539990D03*
%TO.P,REF\u002A\u002A,3*%
%TO.N,L25*%
X132856303Y-182857766D03*
%TO.P,REF\u002A\u002A,4*%
%TO.N,GND*%
X133047316Y-183941054D03*
%TD*%
D36*
%TO.P,D9,1*%
%TO.N,P21*%
X184415205Y-178020135D03*
D37*
X184151967Y-175876235D03*
%TO.P,D9,2*%
%TO.N,ring_bottom*%
X183749799Y-172600833D03*
D12*
X183486561Y-170456933D03*
%TD*%
D29*
%TO.P,D26,1*%
%TO.N,P20*%
X262552784Y-202909414D03*
D30*
X263093605Y-200818215D03*
%TO.P,D26,2*%
%TO.N,home_thumb*%
X263919859Y-197623327D03*
D12*
X264460680Y-195532128D03*
%TD*%
D28*
%TO.P,REF\u002A\u002A,1*%
%TO.N,L19*%
X237693567Y-172454965D03*
%TO.P,REF\u002A\u002A,2*%
%TO.N,VCC*%
X237683968Y-171355007D03*
%TO.P,REF\u002A\u002A,3*%
%TO.N,L20*%
X235854037Y-171370977D03*
%TO.P,REF\u002A\u002A,4*%
%TO.N,GND*%
X235863636Y-172470935D03*
%TD*%
D34*
%TO.P,S27,1*%
%TO.N,P14*%
X279334247Y-193036687D03*
D35*
%TO.P,S27,2*%
%TO.N,far_thumb*%
X267601305Y-192274723D03*
D18*
%TO.N,P14*%
X273972721Y-194697158D03*
%TO.N,far_thumb*%
X280824885Y-202150200D03*
%TD*%
D10*
%TO.P,D4,1*%
%TO.N,P18*%
X133850683Y-128519575D03*
D11*
X133475602Y-126392390D03*
%TO.P,D4,2*%
%TO.N,pinky1_number*%
X132902564Y-123142524D03*
D12*
X132527483Y-121015339D03*
%TD*%
D16*
%TO.P,S3,1*%
%TO.N,P2*%
X128630171Y-134760927D03*
D17*
%TO.P,S3,2*%
%TO.N,pinky1_top*%
X117637667Y-138933141D03*
D18*
%TO.N,P2*%
X124439976Y-138495280D03*
%TO.N,pinky1_top*%
X133765907Y-142435713D03*
%TD*%
D31*
%TO.P,REF\u002A\u002A,1*%
%TO.N,L09*%
X194128885Y-136099116D03*
%TO.P,REF\u002A\u002A,2*%
%TO.N,VCC*%
X194052153Y-135001796D03*
%TO.P,REF\u002A\u002A,3*%
%TO.N,L10*%
X192226611Y-135129450D03*
%TO.P,REF\u002A\u002A,4*%
%TO.N,GND*%
X192303343Y-136226770D03*
%TD*%
D21*
%TO.P,REF\u002A\u002A,1*%
%TO.N,L11*%
X147947039Y-142727619D03*
%TO.P,REF\u002A\u002A,2*%
%TO.N,VCC*%
X147756026Y-141644331D03*
%TO.P,REF\u002A\u002A,3*%
%TO.N,L12*%
X145953827Y-141962107D03*
%TO.P,REF\u002A\u002A,4*%
%TO.N,GND*%
X146144840Y-143045395D03*
%TD*%
D32*
%TO.P,S21,1*%
%TO.N,P7*%
X239955739Y-161234797D03*
D33*
%TO.P,S21,2*%
%TO.N,pointer2_bottom*%
X228425378Y-163535505D03*
D18*
%TO.N,P7*%
X235206665Y-164226354D03*
%TO.N,pointer2_bottom*%
X243754337Y-169651969D03*
%TD*%
D26*
%TO.P,REF\u002A\u002A,1*%
%TO.N,L16*%
X173266693Y-157667088D03*
%TO.P,REF\u002A\u002A,2*%
%TO.N,VCC*%
X173132637Y-156575287D03*
%TO.P,REF\u002A\u002A,3*%
%TO.N,L17*%
X171316277Y-156798308D03*
%TO.P,REF\u002A\u002A,4*%
%TO.N,GND*%
X171450333Y-157890109D03*
%TD*%
D14*
%TO.P,D21,1*%
%TO.N,P21*%
X246300579Y-174939951D03*
D15*
X246281730Y-172780033D03*
%TO.P,D21,2*%
%TO.N,pointer2_bottom*%
X246252932Y-169480159D03*
D12*
X246234083Y-167320241D03*
%TD*%
D38*
%TO.P,,0*%
%TO.N,_1_0*%
X251571417Y-105111296D03*
D39*
X253571341Y-105093843D03*
D18*
%TO.N,P1*%
X255929252Y-105073266D03*
D40*
X263965945Y-105003131D03*
D38*
%TO.P,,1*%
%TO.N,_1_1*%
X251593583Y-107651199D03*
D39*
X253593507Y-107633746D03*
D18*
%TO.N,P0*%
X255951417Y-107613169D03*
D40*
X263988111Y-107543034D03*
D38*
%TO.P,,2*%
%TO.N,_1_2*%
X251615748Y-110191103D03*
D39*
X253615672Y-110173650D03*
D18*
%TO.N,GND*%
X255973582Y-110153072D03*
D40*
X264010276Y-110082937D03*
D38*
%TO.P,,3*%
%TO.N,_1_3*%
X251637914Y-112731006D03*
D39*
X253637837Y-112713553D03*
D18*
%TO.N,GND*%
X255995748Y-112692976D03*
D40*
X264032442Y-112622841D03*
D38*
%TO.P,,4*%
%TO.N,P2*%
X251660079Y-115270909D03*
%TO.P,,5*%
%TO.N,P3*%
X251682244Y-117810813D03*
%TO.P,,6*%
%TO.N,P4*%
X251704410Y-120350716D03*
%TO.P,,7*%
%TO.N,P5*%
X251726575Y-122890619D03*
%TO.P,,8*%
%TO.N,P6*%
X251748741Y-125430522D03*
%TO.P,,9*%
%TO.N,P7*%
X251770906Y-127970426D03*
%TO.P,,10*%
%TO.N,P8*%
X251793071Y-130510329D03*
%TO.P,,11*%
%TO.N,P9*%
X251815237Y-133050232D03*
D41*
%TO.P,,12*%
%TO.N,P10*%
X267054657Y-132917240D03*
%TO.P,,13*%
%TO.N,P16*%
X267032491Y-130377337D03*
%TO.P,,14*%
%TO.N,P14*%
X267010326Y-127837433D03*
%TO.P,,15*%
%TO.N,P15*%
X266988160Y-125297530D03*
%TO.P,,16*%
%TO.N,P18*%
X266965995Y-122757627D03*
%TO.P,,17*%
%TO.N,P19*%
X266943830Y-120217723D03*
%TO.P,,18*%
%TO.N,P20*%
X266921664Y-117677820D03*
%TO.P,,19*%
%TO.N,P21*%
X266899499Y-115137917D03*
D42*
%TO.P,,20*%
%TO.N,VCC*%
X254482805Y-112706179D03*
D18*
X262519499Y-112636044D03*
D43*
%TO.N,_1_20*%
X264877410Y-112615467D03*
D41*
X266877333Y-112598014D03*
D42*
%TO.P,,21*%
%TO.N,RST*%
X254460640Y-110166276D03*
D18*
X262497334Y-110096141D03*
D43*
%TO.N,_1_21*%
X264855244Y-110075563D03*
D41*
X266855168Y-110058110D03*
D42*
%TO.P,,22*%
%TO.N,GND*%
X254438475Y-107626372D03*
D18*
X262475168Y-107556237D03*
D43*
%TO.N,_1_22*%
X264833079Y-107535660D03*
D41*
X266833003Y-107518207D03*
D42*
%TO.P,,23*%
%TO.N,RAW*%
X254416309Y-105086469D03*
D18*
X262453003Y-105016334D03*
D43*
%TO.N,_1_23*%
X264810913Y-104995757D03*
D41*
X266810837Y-104978304D03*
%TD*%
D14*
%TO.P,D20,1*%
%TO.N,P18*%
X225803928Y-118116652D03*
D15*
X225785079Y-115956734D03*
%TO.P,D20,2*%
%TO.N,pointer_number*%
X225756281Y-112656860D03*
D12*
X225737432Y-110496942D03*
%TD*%
D36*
%TO.P,D12,1*%
%TO.N,P18*%
X177468652Y-121445004D03*
D37*
X177205414Y-119301104D03*
%TO.P,D12,2*%
%TO.N,ring_number*%
X176803246Y-116025702D03*
D12*
X176540008Y-113881802D03*
%TD*%
D26*
%TO.P,REF\u002A\u002A,1*%
%TO.N,L22*%
X175582211Y-176525465D03*
%TO.P,REF\u002A\u002A,2*%
%TO.N,VCC*%
X175448155Y-175433664D03*
%TO.P,REF\u002A\u002A,3*%
%TO.N,L23*%
X173631795Y-175656685D03*
%TO.P,REF\u002A\u002A,4*%
%TO.N,GND*%
X173765851Y-176748486D03*
%TD*%
D10*
%TO.P,D8,1*%
%TO.N,P18*%
X153546838Y-125046611D03*
D11*
X153171757Y-122919426D03*
%TO.P,D8,2*%
%TO.N,pink2_number*%
X152598719Y-119669560D03*
D12*
X152223638Y-117542375D03*
%TD*%
D32*
%TO.P,S23,1*%
%TO.N,P7*%
X239624130Y-123236244D03*
D33*
%TO.P,S23,2*%
%TO.N,pointer2_top*%
X228093769Y-125536952D03*
D18*
%TO.N,P7*%
X234875056Y-126227801D03*
%TO.N,pointer2_top*%
X243422728Y-131653416D03*
%TD*%
D28*
%TO.P,REF\u002A\u002A,1*%
%TO.N,L07*%
X237361958Y-134456412D03*
%TO.P,REF\u002A\u002A,2*%
%TO.N,VCC*%
X237352359Y-133356454D03*
%TO.P,REF\u002A\u002A,3*%
%TO.N,L08*%
X235522428Y-133372424D03*
%TO.P,REF\u002A\u002A,4*%
%TO.N,GND*%
X235532027Y-134472382D03*
%TD*%
D26*
%TO.P,REF\u002A\u002A,1*%
%TO.N,L04*%
X168635658Y-119950334D03*
%TO.P,REF\u002A\u002A,2*%
%TO.N,VCC*%
X168501602Y-118858533D03*
%TO.P,REF\u002A\u002A,3*%
%TO.N,L05*%
X166685242Y-119081554D03*
%TO.P,REF\u002A\u002A,4*%
%TO.N,GND*%
X166819298Y-120173355D03*
%TD*%
D28*
%TO.P,REF\u002A\u002A,1*%
%TO.N,L20*%
X217694328Y-172629496D03*
%TO.P,REF\u002A\u002A,2*%
%TO.N,VCC*%
X217684729Y-171529538D03*
%TO.P,REF\u002A\u002A,3*%
%TO.N,L21*%
X215854798Y-171545508D03*
%TO.P,REF\u002A\u002A,4*%
%TO.N,GND*%
X215864397Y-172645466D03*
%TD*%
D22*
%TO.P,S16,1*%
%TO.N,P5*%
X194376491Y-105808056D03*
D23*
%TO.P,S16,2*%
%TO.N,middle_number*%
X183008091Y-108808385D03*
D18*
%TO.N,P5*%
X189818905Y-109083958D03*
%TO.N,middle_number*%
X198681860Y-113977630D03*
%TD*%
D14*
%TO.P,D19,1*%
%TO.N,P19*%
X225969732Y-137115929D03*
D15*
X225950883Y-134956011D03*
%TO.P,D19,2*%
%TO.N,pointer_top*%
X225922085Y-131656137D03*
D12*
X225903236Y-129496219D03*
%TD*%
D32*
%TO.P,S19,1*%
%TO.N,P6*%
X219624892Y-123410775D03*
D33*
%TO.P,S19,2*%
%TO.N,pointer_top*%
X208094531Y-125711483D03*
D18*
%TO.N,P6*%
X214875818Y-126402332D03*
%TO.N,pointer_top*%
X223423490Y-131827947D03*
%TD*%
D14*
%TO.P,D24,1*%
%TO.N,P18*%
X245803167Y-117942121D03*
D15*
X245784318Y-115782203D03*
%TO.P,D24,2*%
%TO.N,pointer2_number*%
X245755520Y-112482329D03*
D12*
X245736671Y-110322411D03*
%TD*%
D14*
%TO.P,D22,1*%
%TO.N,P20*%
X246134775Y-155940674D03*
D15*
X246115926Y-153780756D03*
%TO.P,D22,2*%
%TO.N,pointer2_middle*%
X246087128Y-150480882D03*
D12*
X246068279Y-148320964D03*
%TD*%
D28*
%TO.P,REF\u002A\u002A,1*%
%TO.N,L13*%
X237527762Y-153455689D03*
%TO.P,REF\u002A\u002A,2*%
%TO.N,VCC*%
X237518163Y-152355731D03*
%TO.P,REF\u002A\u002A,3*%
%TO.N,L14*%
X235688232Y-152371701D03*
%TO.P,REF\u002A\u002A,4*%
%TO.N,GND*%
X235697831Y-153471659D03*
%TD*%
D19*
%TO.P,S12,1*%
%TO.N,P4*%
X169613130Y-108546205D03*
D20*
%TO.P,S12,2*%
%TO.N,ring_number*%
X158417335Y-112137398D03*
D18*
%TO.N,P4*%
X165233237Y-112056143D03*
%TO.N,ring_number*%
X174340160Y-116479257D03*
%TD*%
D24*
%TO.P,D14,1*%
%TO.N,P20*%
X204196922Y-157007738D03*
D25*
X204046248Y-154853000D03*
%TO.P,D14,2*%
%TO.N,middle_middle*%
X203816052Y-151561038D03*
D12*
X203665378Y-149406300D03*
%TD*%
D24*
%TO.P,D13,1*%
%TO.N,P21*%
X205522295Y-175961455D03*
D25*
X205371621Y-173806717D03*
%TO.P,D13,2*%
%TO.N,middle_bottom*%
X205141425Y-170514755D03*
D12*
X204990751Y-168360017D03*
%TD*%
D36*
%TO.P,D11,1*%
%TO.N,P19*%
X179784170Y-140303381D03*
D37*
X179520932Y-138159481D03*
%TO.P,D11,2*%
%TO.N,ring_top*%
X179118764Y-134884079D03*
D12*
X178855526Y-132740179D03*
%TD*%
D16*
%TO.P,S6,1*%
%TO.N,P3*%
X151625641Y-149999310D03*
D17*
%TO.P,S6,2*%
%TO.N,pink2_middle*%
X140633137Y-154171524D03*
D18*
%TO.N,P3*%
X147435446Y-153733663D03*
%TO.N,pink2_middle*%
X156761377Y-157674096D03*
%TD*%
D29*
%TO.P,D25,1*%
%TO.N,P21*%
X243189831Y-197901814D03*
D30*
X243730652Y-195810615D03*
%TO.P,D25,2*%
%TO.N,near_thumb*%
X244556906Y-192615727D03*
D12*
X245097727Y-190524528D03*
%TD*%
D13*
%TO.P,REF\u002A\u002A,1*%
%TO.N,L27*%
X274245162Y-203289044D03*
%TO.P,REF\u002A\u002A,2*%
%TO.N,VCC*%
X274520580Y-202224082D03*
%TO.P,REF\u002A\u002A,3*%
%TO.N,L28*%
X272748870Y-201765886D03*
%TO.P,REF\u002A\u002A,4*%
%TO.N,GND*%
X272473452Y-202830848D03*
%TD*%
D32*
%TO.P,S22,1*%
%TO.N,P7*%
X239789935Y-142235521D03*
D33*
%TO.P,S22,2*%
%TO.N,pointer2_middle*%
X228259574Y-144536229D03*
D18*
%TO.N,P7*%
X235040861Y-145227078D03*
%TO.N,pointer2_middle*%
X243588533Y-150652693D03*
%TD*%
D16*
%TO.P,S5,1*%
%TO.N,P3*%
X154924957Y-168710658D03*
D17*
%TO.P,S5,2*%
%TO.N,pink2_bottom*%
X143932453Y-172882872D03*
D18*
%TO.N,P3*%
X150734762Y-172445011D03*
%TO.N,pink2_bottom*%
X160060693Y-176385444D03*
%TD*%
D13*
%TO.P,REF\u002A\u002A,1*%
%TO.N,L25*%
X278736036Y-185331608D03*
%TO.P,REF\u002A\u002A,2*%
%TO.N,VCC*%
X279011454Y-184266646D03*
%TO.P,REF\u002A\u002A,3*%
%TO.N,L26*%
X277239744Y-183808450D03*
%TO.P,REF\u002A\u002A,4*%
%TO.N,GND*%
X276964326Y-184873412D03*
%TD*%
D29*
%TO.P,D27,1*%
%TO.N,P20*%
X281915737Y-207917014D03*
D30*
X282456558Y-205825815D03*
%TO.P,D27,2*%
%TO.N,far_thumb*%
X283282812Y-202630927D03*
D12*
X283823633Y-200539728D03*
%TD*%
D31*
%TO.P,REF\u002A\u002A,1*%
%TO.N,L21*%
X196779631Y-174006550D03*
%TO.P,REF\u002A\u002A,2*%
%TO.N,VCC*%
X196702899Y-172909230D03*
%TO.P,REF\u002A\u002A,3*%
%TO.N,L22*%
X194877357Y-173036884D03*
%TO.P,REF\u002A\u002A,4*%
%TO.N,GND*%
X194954089Y-174134204D03*
%TD*%
%TO.P,REF\u002A\u002A,1*%
%TO.N,L15*%
X195454258Y-155052833D03*
%TO.P,REF\u002A\u002A,2*%
%TO.N,VCC*%
X195377526Y-153955513D03*
%TO.P,REF\u002A\u002A,3*%
%TO.N,L16*%
X193551984Y-154083167D03*
%TO.P,REF\u002A\u002A,4*%
%TO.N,GND*%
X193628716Y-155180487D03*
%TD*%
D32*
%TO.P,S24,1*%
%TO.N,P7*%
X239458326Y-104236968D03*
D33*
%TO.P,S24,2*%
%TO.N,pointer2_number*%
X227927965Y-106537676D03*
D18*
%TO.N,P7*%
X234709252Y-107228525D03*
%TO.N,pointer2_number*%
X243256924Y-112654140D03*
%TD*%
D28*
%TO.P,REF\u002A\u002A,1*%
%TO.N,P8*%
X237196154Y-115457136D03*
%TO.P,REF\u002A\u002A,2*%
%TO.N,VCC*%
X237186555Y-114357178D03*
%TO.P,REF\u002A\u002A,3*%
%TO.N,L02*%
X235356624Y-114373148D03*
%TO.P,REF\u002A\u002A,4*%
%TO.N,GND*%
X235366223Y-115473106D03*
%TD*%
D16*
%TO.P,S1,1*%
%TO.N,P2*%
X135228802Y-172183621D03*
D17*
%TO.P,S1,2*%
%TO.N,pinky1_bottom*%
X124236298Y-176355835D03*
D18*
%TO.N,P2*%
X131038607Y-175917974D03*
%TO.N,pinky1_bottom*%
X140364538Y-179858407D03*
%TD*%
D34*
%TO.P,S26,1*%
%TO.N,P16*%
X259971294Y-188029087D03*
D35*
%TO.P,S26,2*%
%TO.N,home_thumb*%
X248238352Y-187267123D03*
D18*
%TO.N,P16*%
X254609768Y-189689558D03*
%TO.N,home_thumb*%
X261461932Y-197142600D03*
%TD*%
D10*
%TO.P,D3,1*%
%TO.N,P19*%
X137149998Y-147230922D03*
D11*
X136774917Y-145103737D03*
%TO.P,D3,2*%
%TO.N,pinky1_top*%
X136201879Y-141853871D03*
D12*
X135826798Y-139726686D03*
%TD*%
D22*
%TO.P,S15,1*%
%TO.N,P5*%
X195701864Y-124761773D03*
D23*
%TO.P,S15,2*%
%TO.N,middle_top*%
X184333464Y-127762102D03*
D18*
%TO.N,P5*%
X191144278Y-128037675D03*
%TO.N,middle_top*%
X200007233Y-132931347D03*
%TD*%
D16*
%TO.P,S8,1*%
%TO.N,P3*%
X145027011Y-112576616D03*
D17*
%TO.P,S8,2*%
%TO.N,pink2_number*%
X134034507Y-116748830D03*
D18*
%TO.N,P3*%
X140836816Y-116310969D03*
%TO.N,pink2_number*%
X150162747Y-120251402D03*
%TD*%
D29*
%TO.P,D28,1*%
%TO.N,P19*%
X267043658Y-184951979D03*
D30*
X267584479Y-182860780D03*
%TO.P,D28,2*%
%TO.N,home2_thumb2*%
X268410733Y-179665892D03*
D12*
X268951554Y-177574693D03*
%TD*%
D34*
%TO.P,S28,1*%
%TO.N,P16*%
X264462168Y-170071651D03*
D35*
%TO.P,S28,2*%
%TO.N,home2_thumb2*%
X252729226Y-169309687D03*
D18*
%TO.N,P16*%
X259100642Y-171732122D03*
%TO.N,home2_thumb2*%
X265952806Y-179185164D03*
%TD*%
D44*
%TO.N,P20*%
X271018000Y-117602000D03*
%TO.N,P19*%
X271018000Y-120142000D03*
%TO.N,P8*%
X238506000Y-114300000D03*
%TO.N,VCC*%
X219202000Y-115824000D03*
X195834000Y-135890000D03*
X239776000Y-153416000D03*
X170180000Y-119950334D03*
X149860000Y-142748000D03*
X242316000Y-177038000D03*
X276606000Y-203289044D03*
X126746000Y-127508000D03*
X157988000Y-184404000D03*
X195326000Y-117094000D03*
X136906000Y-183388000D03*
X197358000Y-154940000D03*
X281432000Y-185166000D03*
X219710000Y-172720000D03*
X237490000Y-193802000D03*
X180340000Y-180340000D03*
X129794000Y-145796000D03*
X200660000Y-178054000D03*
X220980000Y-177038000D03*
X175260000Y-157480000D03*
X261874000Y-180594000D03*
X239776000Y-172466000D03*
X257048000Y-198628000D03*
X239014000Y-134620000D03*
X218948000Y-134620000D03*
X239268000Y-115570000D03*
X172720000Y-138684000D03*
X219710000Y-153670000D03*
X133604000Y-164846000D03*
X198882000Y-173990000D03*
X146558000Y-123952000D03*
X156718000Y-179832000D03*
X153162000Y-161036000D03*
X177800000Y-176276000D03*
X141732000Y-186690000D03*
X265430000Y-166624000D03*
%TO.N,GND*%
X150368000Y-179578000D03*
X229870000Y-103886000D03*
X188722000Y-116332000D03*
X160020000Y-109220000D03*
X135382000Y-113792000D03*
X147320000Y-161036000D03*
X233934000Y-133350000D03*
X165354000Y-119126000D03*
X120650000Y-127000000D03*
X213360000Y-152654000D03*
X233680000Y-152371701D03*
X191516000Y-154178000D03*
X274574000Y-183642000D03*
X256032000Y-200406000D03*
X251714000Y-196342000D03*
X233934000Y-171450000D03*
X232410000Y-191262000D03*
X192532000Y-173228000D03*
X232918000Y-114300000D03*
X143764000Y-142240000D03*
X169418000Y-156798308D03*
X171196000Y-176022000D03*
X141224000Y-123444000D03*
X184658000Y-105918000D03*
X213614000Y-171450000D03*
X213360000Y-114554000D03*
X245364000Y-98044000D03*
X209804000Y-103886000D03*
X255561000Y-178816000D03*
X213868000Y-133350000D03*
X258318000Y-200406000D03*
X127699582Y-164146418D03*
X190500000Y-135128000D03*
X130556000Y-183134000D03*
X167386000Y-138176000D03*
X270510000Y-201676000D03*
X124206000Y-145796000D03*
%TO.N,L02*%
X233934000Y-115570000D03*
X218440000Y-114554000D03*
%TO.N,L03*%
X213868000Y-115824000D03*
X194310000Y-115824000D03*
%TO.N,L04*%
X170180000Y-118364000D03*
X189484000Y-117602000D03*
%TO.N,L05*%
X165354000Y-120396000D03*
X146050000Y-122613996D03*
%TO.N,L06*%
X126186808Y-126253997D03*
X141224000Y-124714000D03*
%TO.N,L07*%
X121666000Y-128270000D03*
X239014000Y-133350000D03*
X120392942Y-129543539D03*
X238760000Y-120142000D03*
%TO.N,L08*%
X218948000Y-133350000D03*
X234188000Y-134620000D03*
%TO.N,L09*%
X214122000Y-134874000D03*
X195580000Y-134620000D03*
%TO.N,L10*%
X172466000Y-137160000D03*
X190500000Y-136652000D03*
%TO.N,L11*%
X167640000Y-139446000D03*
X149352000Y-141224000D03*
%TO.N,L12*%
X144780000Y-143510000D03*
X129540000Y-144526000D03*
%TO.N,L13*%
X239014000Y-152400000D03*
X238506000Y-138938000D03*
X124968000Y-147066000D03*
%TO.N,L30*%
X232664000Y-192532000D03*
%TO.N,L14*%
X218948000Y-152400000D03*
X234442000Y-153416000D03*
%TO.N,L15*%
X214376000Y-153670000D03*
X196850000Y-153924000D03*
%TO.N,L16*%
X174498000Y-156464000D03*
X192278000Y-155448000D03*
%TO.N,L17*%
X170180000Y-157988000D03*
X152400000Y-160020000D03*
%TO.N,L18*%
X148336000Y-162052000D03*
X132842000Y-163576000D03*
%TO.N,L19*%
X238919007Y-171355007D03*
X238992975Y-157982942D03*
X128524000Y-165354000D03*
%TO.N,L20*%
X218948000Y-171450000D03*
X234696000Y-172466000D03*
%TO.N,L21*%
X198120000Y-172720000D03*
X214630000Y-172720000D03*
%TO.N,L22*%
X176784000Y-175260000D03*
X193548000Y-174244000D03*
%TO.N,L23*%
X172466000Y-177038000D03*
X155702000Y-178816000D03*
%TO.N,L24*%
X151384000Y-180848000D03*
X135890000Y-182118000D03*
%TO.N,L25*%
X131826000Y-184404000D03*
X280416000Y-184658000D03*
%TO.N,L26*%
X275336000Y-184658000D03*
X260858000Y-180340000D03*
%TO.N,L27*%
X279654000Y-189738000D03*
X275844000Y-202438000D03*
X256286000Y-179578000D03*
%TO.N,L28*%
X256286000Y-197612000D03*
X271272000Y-202438000D03*
%TO.N,L29*%
X236982000Y-192532000D03*
X251968000Y-197612000D03*
%TD*%
D45*
%TO.N,P2*%
X135230000Y-172180000D02*
X133990000Y-175400000D01*
X131930000Y-153470000D02*
X130690000Y-156690000D01*
X127390000Y-137970000D02*
X124440000Y-138500000D01*
X125330000Y-116050000D02*
X124100000Y-119260000D01*
X133990000Y-175400000D02*
X131040000Y-175920000D01*
X128630000Y-134760000D02*
X127390000Y-137970000D01*
X130690000Y-156690000D02*
X127740000Y-157210000D01*
X124100000Y-119260000D02*
X121140000Y-119780000D01*
%TO.N,pinky1_bottom*%
X140360000Y-179860000D02*
X126580000Y-182290000D01*
X124240000Y-176360000D02*
X126580000Y-182290000D01*
X142218668Y-179858407D02*
X142800510Y-179276565D01*
X142800000Y-179280000D02*
X142430000Y-177150000D01*
X140364538Y-179858407D02*
X142218668Y-179858407D01*
%TO.N,pinky1_middle*%
X138919353Y-161147060D02*
X139501195Y-160565218D01*
X120940000Y-157640000D02*
X123280000Y-163580000D01*
X137070000Y-161150000D02*
X123280000Y-163580000D01*
X139500000Y-160570000D02*
X139130000Y-158440000D01*
X137065222Y-161147060D02*
X138919353Y-161147060D01*
%TO.N,pinky1_top*%
X117640000Y-138930000D02*
X119980000Y-144870000D01*
X133765907Y-142435713D02*
X135620037Y-142435713D01*
X133770000Y-142440000D02*
X119980000Y-144870000D01*
X135620037Y-142435713D02*
X136201879Y-141853871D01*
X136200000Y-141850000D02*
X135830000Y-139730000D01*
%TO.N,pinky1_number*%
X132900000Y-123140000D02*
X132530000Y-121020000D01*
X132320723Y-123724365D02*
X132902564Y-123142524D01*
X130466592Y-123724365D02*
X132320723Y-123724365D01*
X114340000Y-120220000D02*
X116680000Y-126160000D01*
X130470000Y-123720000D02*
X116680000Y-126160000D01*
%TO.N,P3*%
X153690000Y-171920000D02*
X150730000Y-172450000D01*
X145030000Y-112580000D02*
X143790000Y-115790000D01*
X151630000Y-150000000D02*
X150390000Y-153210000D01*
X143790000Y-115790000D02*
X140840000Y-116310000D01*
X154920000Y-168710000D02*
X153690000Y-171920000D01*
X147090000Y-134500000D02*
X144140000Y-135020000D01*
X150390000Y-153210000D02*
X147440000Y-153730000D01*
X148330000Y-131290000D02*
X147090000Y-134500000D01*
%TO.N,pink2_bottom*%
X162500000Y-175800000D02*
X162120000Y-173680000D01*
X143930000Y-172880000D02*
X146270000Y-178820000D01*
X160060000Y-176390000D02*
X146270000Y-178820000D01*
X161914823Y-176385444D02*
X162496665Y-175803602D01*
X160060693Y-176385444D02*
X161914823Y-176385444D01*
%TO.N,pink2_middle*%
X156760000Y-157670000D02*
X142970000Y-160110000D01*
X156761377Y-157674096D02*
X158615509Y-157674096D01*
X159200000Y-157090000D02*
X158820000Y-154970000D01*
X140630000Y-154170000D02*
X142970000Y-160110000D01*
X158615509Y-157674096D02*
X159197350Y-157092255D01*
%TO.N,pink2_top*%
X153462062Y-138962749D02*
X155316192Y-138962749D01*
X153460000Y-138960000D02*
X139670000Y-141390000D01*
X155900000Y-138380000D02*
X155520000Y-136250000D01*
X155316192Y-138962749D02*
X155898034Y-138380907D01*
X137330000Y-135460000D02*
X139670000Y-141390000D01*
%TO.N,pink2_number*%
X150160000Y-120250000D02*
X136380000Y-122680000D01*
X152600000Y-119670000D02*
X152220000Y-117540000D01*
X152016877Y-120251402D02*
X152598719Y-119669560D01*
X150162747Y-120251402D02*
X152016877Y-120251402D01*
X134030000Y-116750000D02*
X136380000Y-122680000D01*
%TO.N,P4*%
X176560000Y-165120000D02*
X175160000Y-168270000D01*
X172840000Y-149410000D02*
X169860000Y-149770000D01*
X169610000Y-108550000D02*
X168210000Y-111690000D01*
X170530000Y-130550000D02*
X167550000Y-130910000D01*
X174240000Y-146260000D02*
X172840000Y-149410000D01*
X171930000Y-127400000D02*
X170530000Y-130550000D01*
X175160000Y-168270000D02*
X172180000Y-168630000D01*
X168210000Y-111690000D02*
X165230000Y-112060000D01*
%TO.N,ring_bottom*%
X165360000Y-168710000D02*
X167390000Y-174760000D01*
X183750000Y-172600000D02*
X183490000Y-170460000D01*
X183296244Y-173054388D02*
X183749799Y-172600833D01*
X181290000Y-173050000D02*
X167390000Y-174760000D01*
X181286713Y-173054388D02*
X183296244Y-173054388D01*
%TO.N,ring_middle*%
X163050000Y-149850000D02*
X165080000Y-155900000D01*
X180980726Y-154196011D02*
X181434281Y-153742456D01*
X181430000Y-153740000D02*
X181170000Y-151600000D01*
X178970000Y-154200000D02*
X165080000Y-155900000D01*
X178971195Y-154196011D02*
X180980726Y-154196011D01*
%TO.N,ring_top*%
X176660000Y-135340000D02*
X162760000Y-137040000D01*
X176655678Y-135337634D02*
X178665209Y-135337634D01*
X160730000Y-131000000D02*
X162760000Y-137040000D01*
X179120000Y-134880000D02*
X178860000Y-132740000D01*
X178665209Y-135337634D02*
X179118764Y-134884079D01*
%TO.N,ring_number*%
X176349691Y-116479257D02*
X176803246Y-116025702D01*
X174340000Y-116480000D02*
X160440000Y-118190000D01*
X158420000Y-112140000D02*
X160440000Y-118190000D01*
X176800000Y-116030000D02*
X176540000Y-113880000D01*
X174340160Y-116479257D02*
X176349691Y-116479257D01*
%TO.N,P5*%
X195460000Y-146780000D02*
X192470000Y-146990000D01*
X194140000Y-127830000D02*
X191140000Y-128040000D01*
X196790000Y-165740000D02*
X193800000Y-165950000D01*
X192810000Y-108870000D02*
X189820000Y-109080000D01*
X194380000Y-105810000D02*
X192810000Y-108870000D01*
X198350000Y-162670000D02*
X196790000Y-165740000D01*
X197030000Y-143720000D02*
X195460000Y-146780000D01*
X195700000Y-124760000D02*
X194140000Y-127830000D01*
%TO.N,middle_bottom*%
X202660000Y-170840000D02*
X188690000Y-171820000D01*
X204817399Y-170838781D02*
X205141425Y-170514755D01*
X205140000Y-170510000D02*
X204990000Y-168360000D01*
X202657979Y-170838781D02*
X204817399Y-170838781D01*
X186980000Y-165670000D02*
X188690000Y-171820000D01*
%TO.N,middle_middle*%
X203492026Y-151885064D02*
X203816052Y-151561038D01*
X185660000Y-146720000D02*
X187370000Y-152860000D01*
X201330000Y-151890000D02*
X187370000Y-152860000D01*
X201332606Y-151885064D02*
X203492026Y-151885064D01*
X203820000Y-151560000D02*
X203670000Y-149410000D01*
%TO.N,middle_top*%
X202490000Y-132610000D02*
X202340000Y-130450000D01*
X184330000Y-127760000D02*
X186040000Y-133910000D01*
X200010000Y-132930000D02*
X186040000Y-133910000D01*
X200007233Y-132931347D02*
X202166653Y-132931347D01*
X202166653Y-132931347D02*
X202490679Y-132607321D01*
%TO.N,middle_number*%
X198681860Y-113977630D02*
X200841280Y-113977630D01*
X198680000Y-113980000D02*
X184720000Y-114950000D01*
X200841280Y-113977630D02*
X201165306Y-113653604D01*
X183010000Y-108810000D02*
X184720000Y-114950000D01*
X201170000Y-113650000D02*
X201010000Y-111500000D01*
%TO.N,P6*%
X219460000Y-104410000D02*
X217710000Y-107380000D01*
X217880000Y-126380000D02*
X214880000Y-126400000D01*
X219960000Y-161410000D02*
X218210000Y-164370000D01*
X219620000Y-123410000D02*
X217880000Y-126380000D01*
X217710000Y-107380000D02*
X214710000Y-107400000D01*
X219790000Y-142410000D02*
X218040000Y-145380000D01*
X218040000Y-145380000D02*
X215040000Y-145400000D01*
X218210000Y-164370000D02*
X215210000Y-164400000D01*
%TO.N,pointer_bottom*%
X223760000Y-169830000D02*
X209760000Y-169950000D01*
X208430000Y-163710000D02*
X209760000Y-169950000D01*
X226081884Y-169826500D02*
X226253694Y-169654690D01*
X223755098Y-169826500D02*
X226081884Y-169826500D01*
X226250000Y-169650000D02*
X226230000Y-167490000D01*
%TO.N,pointer_middle*%
X223589294Y-150827224D02*
X225916079Y-150827224D01*
X226090000Y-150660000D02*
X226070000Y-148500000D01*
X208260000Y-144710000D02*
X209590000Y-150950000D01*
X225916079Y-150827224D02*
X226087890Y-150655413D01*
X223590000Y-150830000D02*
X209590000Y-150950000D01*
%TO.N,pointer_top*%
X225920000Y-131660000D02*
X225900000Y-129500000D01*
X223420000Y-131830000D02*
X209420000Y-131950000D01*
X223423490Y-131827947D02*
X225750275Y-131827947D01*
X208090000Y-125710000D02*
X209420000Y-131950000D01*
X225750275Y-131827947D02*
X225922085Y-131656137D01*
%TO.N,pointer_number*%
X207930000Y-106710000D02*
X209260000Y-112950000D01*
X223257686Y-112828671D02*
X225584470Y-112828671D01*
X225584470Y-112828671D02*
X225756281Y-112656860D01*
X225760000Y-112660000D02*
X225740000Y-110500000D01*
X223260000Y-112830000D02*
X209260000Y-112950000D01*
%TO.N,P7*%
X239790000Y-142240000D02*
X238040000Y-145200000D01*
X238040000Y-145200000D02*
X235040000Y-145230000D01*
X239960000Y-161230000D02*
X238210000Y-164200000D01*
X238210000Y-164200000D02*
X235210000Y-164230000D01*
X237870000Y-126200000D02*
X234880000Y-126230000D01*
X239460000Y-104240000D02*
X237710000Y-107200000D01*
X239620000Y-123240000D02*
X237870000Y-126200000D01*
X237710000Y-107200000D02*
X234710000Y-107230000D01*
%TO.N,pointer2_bottom*%
X228430000Y-163540000D02*
X229750000Y-169770000D01*
X243750000Y-169650000D02*
X229750000Y-169770000D01*
X246081122Y-169651969D02*
X246252932Y-169480159D01*
X246250000Y-169480000D02*
X246230000Y-167320000D01*
X243754337Y-169651969D02*
X246081122Y-169651969D01*
%TO.N,pointer2_middle*%
X228260000Y-144540000D02*
X229590000Y-150770000D01*
X245915317Y-150652693D02*
X246087128Y-150480882D01*
X246090000Y-150480000D02*
X246070000Y-148320000D01*
X243588533Y-150652693D02*
X245915317Y-150652693D01*
X243590000Y-150650000D02*
X229590000Y-150770000D01*
%TO.N,pointer2_top*%
X243420000Y-131650000D02*
X229420000Y-131780000D01*
X243422728Y-131653416D02*
X245749514Y-131653416D01*
X245920000Y-131480000D02*
X245900000Y-129320000D01*
X228090000Y-125540000D02*
X229420000Y-131780000D01*
X245749514Y-131653416D02*
X245921324Y-131481606D01*
%TO.N,pointer2_number*%
X227930000Y-106540000D02*
X229260000Y-112780000D01*
X243260000Y-112650000D02*
X229260000Y-112780000D01*
X245760000Y-112480000D02*
X245740000Y-110320000D01*
X245583709Y-112654140D02*
X245755520Y-112482329D01*
X243256924Y-112654140D02*
X245583709Y-112654140D01*
%TO.N,P14*%
X281370000Y-177490000D02*
X278460000Y-176740000D01*
X283830000Y-175080000D02*
X281370000Y-177490000D01*
X279330000Y-193040000D02*
X276880000Y-195450000D01*
X276880000Y-195450000D02*
X273970000Y-194700000D01*
%TO.N,near_thumb*%
X242100000Y-192130000D02*
X228540000Y-188630000D01*
X244560000Y-192620000D02*
X245100000Y-190520000D01*
X228880000Y-182260000D02*
X228540000Y-188630000D01*
X244076179Y-192135000D02*
X244556906Y-192615727D01*
X242098979Y-192135000D02*
X244076179Y-192135000D01*
%TO.N,home_thumb*%
X261460000Y-197140000D02*
X247910000Y-193640000D01*
X263439132Y-197142600D02*
X263919859Y-197623327D01*
X248240000Y-187270000D02*
X247910000Y-193640000D01*
X263920000Y-197620000D02*
X264460000Y-195530000D01*
X261461932Y-197142600D02*
X263439132Y-197142600D01*
%TO.N,P16*%
X257510000Y-190440000D02*
X254610000Y-189690000D01*
X238150000Y-185430000D02*
X235250000Y-184680000D01*
X262010000Y-172480000D02*
X259100000Y-171730000D01*
X249823487Y-183021487D02*
X240608341Y-183021487D01*
X254609768Y-189689558D02*
X254609768Y-187807768D01*
X259970000Y-188030000D02*
X257510000Y-190440000D01*
X264460000Y-170070000D02*
X262010000Y-172480000D01*
X240610000Y-183020000D02*
X238150000Y-185430000D01*
X254609768Y-187807768D02*
X249823487Y-183021487D01*
%TO.N,far_thumb*%
X267600000Y-192270000D02*
X267270000Y-198640000D01*
X283280000Y-202630000D02*
X283820000Y-200540000D01*
X280820000Y-202150000D02*
X267270000Y-198640000D01*
X280824885Y-202150200D02*
X282802085Y-202150200D01*
X282802085Y-202150200D02*
X283282812Y-202630927D01*
%TO.N,home2_thumb2*%
X252730000Y-169310000D02*
X252400000Y-175680000D01*
X267930005Y-179185164D02*
X268410733Y-179665892D01*
X268410000Y-179670000D02*
X268950000Y-177570000D01*
X265950000Y-179190000D02*
X252400000Y-175680000D01*
X265952806Y-179185164D02*
X267930005Y-179185164D01*
%TO.N,far2_thumb2*%
X285315759Y-184192764D02*
X287292958Y-184192764D01*
X287292958Y-184192764D02*
X287773686Y-184673492D01*
X285320000Y-184190000D02*
X271760000Y-180690000D01*
X287770000Y-184670000D02*
X288310000Y-182580000D01*
X272090000Y-174320000D02*
X271760000Y-180690000D01*
%TO.N,P21*%
X205522295Y-175961455D02*
X225454368Y-175961455D01*
X205370000Y-173810000D02*
X205520000Y-175960000D01*
X161491437Y-183134000D02*
X163444784Y-181180653D01*
X183365340Y-179070000D02*
X184415205Y-178020135D01*
X246280000Y-172780000D02*
X246300000Y-174940000D01*
X246281730Y-172780033D02*
X248666000Y-170395763D01*
X226301341Y-175114482D02*
X246126048Y-175114482D01*
X267918812Y-97108000D02*
X270764000Y-99953188D01*
X243730000Y-195810000D02*
X243190000Y-197900000D01*
X204699750Y-176784000D02*
X205522295Y-175961455D01*
X248666000Y-170395763D02*
X248666000Y-98552000D01*
X184415205Y-178020135D02*
X185651340Y-176784000D01*
X163444784Y-181180653D02*
X165555437Y-179070000D01*
X270764000Y-99953188D02*
X270764000Y-114046000D01*
X250110000Y-97108000D02*
X267918812Y-97108000D01*
X226280000Y-172950000D02*
X226300000Y-175110000D01*
X270764000Y-114046000D02*
X269672083Y-115137917D01*
X165555437Y-179070000D02*
X183365340Y-179070000D01*
X145268245Y-183134000D02*
X161491437Y-183134000D01*
X248666000Y-98552000D02*
X250110000Y-97108000D01*
X163070000Y-179050000D02*
X163440000Y-181180000D01*
X246126048Y-175114482D02*
X246300579Y-174939951D01*
X184150000Y-175880000D02*
X184420000Y-178020000D01*
X269672083Y-115137917D02*
X266899499Y-115137917D01*
X143370000Y-182530000D02*
X143750000Y-184650000D01*
X225454368Y-175961455D02*
X226301341Y-175114482D01*
X143748629Y-184653616D02*
X145268245Y-183134000D01*
X185651340Y-176784000D02*
X204699750Y-176784000D01*
%TO.N,P20*%
X142053583Y-164338000D02*
X158276775Y-164338000D01*
X271272000Y-116078000D02*
X270510000Y-116840000D01*
X249800792Y-96658000D02*
X268105208Y-96658000D01*
X162086775Y-160528000D02*
X180733445Y-160528000D01*
X266663414Y-202909414D02*
X271671014Y-207917014D01*
X246120000Y-153780000D02*
X246130000Y-155940000D01*
X248158000Y-151738682D02*
X248158000Y-98300792D01*
X182099687Y-159161758D02*
X183527445Y-157734000D01*
X271272000Y-99824792D02*
X271272000Y-116078000D01*
X268105208Y-96658000D02*
X271272000Y-99824792D01*
X282460000Y-205830000D02*
X281920000Y-207920000D01*
X270510000Y-116840000D02*
X269672180Y-117677820D01*
X204050000Y-154850000D02*
X204200000Y-157010000D01*
X158276775Y-164338000D02*
X160145469Y-162469306D01*
X159770000Y-160340000D02*
X160150000Y-162470000D01*
X183527445Y-157734000D02*
X203470660Y-157734000D01*
X246115926Y-153780756D02*
X248158000Y-151738682D01*
X226120000Y-153960000D02*
X226140000Y-156120000D01*
X225243004Y-157007738D02*
X226135537Y-156115205D01*
X140070000Y-163820000D02*
X140450000Y-165940000D01*
X181840000Y-157020000D02*
X182100000Y-159160000D01*
X204196922Y-157007738D02*
X225243004Y-157007738D01*
X269672180Y-117677820D02*
X266921664Y-117677820D01*
X263090000Y-200820000D02*
X262550000Y-202910000D01*
X140449314Y-165942269D02*
X142053583Y-164338000D01*
X262552784Y-202909414D02*
X266663414Y-202909414D01*
X271671014Y-207917014D02*
X281915737Y-207917014D01*
X245960244Y-156115205D02*
X246134775Y-155940674D01*
X180733445Y-160528000D02*
X182099687Y-159161758D01*
X203470660Y-157734000D02*
X204196922Y-157007738D01*
X248158000Y-98300792D02*
X249800792Y-96658000D01*
X226135537Y-156115205D02*
X245960244Y-156115205D01*
X160145469Y-162469306D02*
X162086775Y-160528000D01*
X270383000Y-116967000D02*
X271018000Y-117602000D01*
%TO.N,P19*%
X249614396Y-96208000D02*
X268291604Y-96208000D01*
X202720000Y-135900000D02*
X202870000Y-138050000D01*
X179784170Y-140303381D02*
X181149551Y-138938000D01*
X201987570Y-138938000D02*
X202871549Y-138054021D01*
X156846153Y-143757958D02*
X158618111Y-141986000D01*
X269289679Y-187198000D02*
X283645032Y-187198000D01*
X137149998Y-147230922D02*
X138838920Y-145542000D01*
X267580000Y-182860000D02*
X267040000Y-184950000D01*
X225671661Y-137414000D02*
X225969732Y-137115929D01*
X158618111Y-141986000D02*
X178101551Y-141986000D01*
X178101551Y-141986000D02*
X179784170Y-140303381D01*
X225969732Y-137115929D02*
X245794440Y-137115929D01*
X138838920Y-145542000D02*
X155062111Y-145542000D01*
X155062111Y-145542000D02*
X156846153Y-143757958D01*
X202871549Y-138054021D02*
X203511570Y-137414000D01*
X156470000Y-141630000D02*
X156850000Y-143760000D01*
X247650000Y-133081602D02*
X247650000Y-98172396D01*
X270256000Y-119634000D02*
X269672277Y-120217723D01*
X268291604Y-96208000D02*
X271838000Y-99754396D01*
X267043658Y-184951979D02*
X269289679Y-187198000D01*
X181149551Y-138938000D02*
X201987570Y-138938000D01*
X271838000Y-99754396D02*
X271838000Y-118052000D01*
X203511570Y-137414000D02*
X225671661Y-137414000D01*
X245950000Y-134780000D02*
X245970000Y-136940000D01*
X225950000Y-134960000D02*
X225970000Y-137120000D01*
X269672277Y-120217723D02*
X266943830Y-120217723D01*
X283645032Y-187198000D02*
X286406611Y-189959579D01*
X286950000Y-187870000D02*
X286410000Y-189960000D01*
X245950122Y-134781480D02*
X247650000Y-133081602D01*
X245794440Y-137115929D02*
X245968971Y-136941398D01*
X271838000Y-118052000D02*
X270256000Y-119634000D01*
X179520000Y-138160000D02*
X179780000Y-140300000D01*
X247650000Y-98172396D02*
X249614396Y-96208000D01*
X270383000Y-119507000D02*
X271018000Y-120142000D01*
X136770000Y-145100000D02*
X137150000Y-147230000D01*
%TO.N,P18*%
X249428000Y-95758000D02*
X268478000Y-95758000D01*
X179025656Y-119888000D02*
X200758480Y-119888000D01*
X155657449Y-122936000D02*
X175977656Y-122936000D01*
X135624258Y-126746000D02*
X151847449Y-126746000D01*
X247142000Y-98044000D02*
X249428000Y-95758000D01*
X247142000Y-114424521D02*
X247142000Y-98044000D01*
X225302580Y-118618000D02*
X225803928Y-118116652D01*
X245780000Y-115780000D02*
X245800000Y-117940000D01*
X225790000Y-115960000D02*
X225800000Y-118120000D01*
X245628636Y-118116652D02*
X245803167Y-117942121D01*
X175977656Y-122936000D02*
X177468652Y-121445004D01*
X201400000Y-116950000D02*
X201550000Y-119100000D01*
X268478000Y-95758000D02*
X272288000Y-99568000D01*
X269926373Y-122757627D02*
X266965995Y-122757627D01*
X151847449Y-126746000D02*
X153546838Y-125046611D01*
X153170000Y-122920000D02*
X153550000Y-125050000D01*
X202028480Y-118618000D02*
X225302580Y-118618000D01*
X201546176Y-119100304D02*
X202028480Y-118618000D01*
X133850683Y-128519575D02*
X135624258Y-126746000D01*
X225803928Y-118116652D02*
X245628636Y-118116652D01*
X177210000Y-119300000D02*
X177470000Y-121450000D01*
X177468652Y-121445004D02*
X179025656Y-119888000D01*
X200758480Y-119888000D02*
X201546176Y-119100304D01*
X153546838Y-125046611D02*
X155657449Y-122936000D01*
X133480000Y-126390000D02*
X133850000Y-128520000D01*
X272288000Y-120396000D02*
X269926373Y-122757627D01*
X272288000Y-99568000D02*
X272288000Y-120396000D01*
X245784318Y-115782203D02*
X247142000Y-114424521D01*
%TO.N,P1*%
X263220000Y-105860000D02*
X256780000Y-105920000D01*
X263970000Y-105000000D02*
X263220000Y-105860000D01*
X256780000Y-105920000D02*
X255930000Y-105070000D01*
%TO.N,P0*%
X256800000Y-108460000D02*
X255950000Y-107610000D01*
X263240000Y-108400000D02*
X256800000Y-108460000D01*
X263990000Y-107540000D02*
X263240000Y-108400000D01*
%TO.N,P8*%
X237196154Y-115457136D02*
X237348864Y-115457136D01*
X237348864Y-115457136D02*
X238506000Y-114300000D01*
%TO.N,P9*%
X260350000Y-149860000D02*
X260350000Y-146050000D01*
X251815237Y-133050232D02*
X251815237Y-138912961D01*
X258732499Y-144432499D02*
X257334775Y-144432499D01*
X251815237Y-138912961D02*
X257334775Y-144432499D01*
X258877764Y-151332236D02*
X260350000Y-149860000D01*
X257394988Y-151332236D02*
X258877764Y-151332236D01*
X260350000Y-146050000D02*
X258732499Y-144432499D01*
%TO.N,P10*%
X267054657Y-132917240D02*
X267054657Y-138677559D01*
X261394836Y-151297330D02*
X261394836Y-144457806D01*
X261394836Y-144457806D02*
X261334623Y-144397593D01*
X267054657Y-138677559D02*
X261334623Y-144397593D01*
%TO.N,RAW*%
X255160000Y-104230000D02*
X261600000Y-104170000D01*
X261600000Y-104170000D02*
X262450000Y-105020000D01*
X254420000Y-105090000D02*
X255160000Y-104230000D01*
%TO.N,RST*%
X261650000Y-109250000D02*
X262500000Y-110100000D01*
X254460000Y-110170000D02*
X255210000Y-109310000D01*
X255210000Y-109310000D02*
X261650000Y-109250000D01*
%TO.N,VCC*%
X219710000Y-153670000D02*
X219673000Y-153633000D01*
X238198894Y-151675000D02*
X239314305Y-151675000D01*
X207010000Y-178054000D02*
X208026000Y-177038000D01*
X260802351Y-179259046D02*
X261874000Y-180330695D01*
X219248305Y-132625000D02*
X219710000Y-133086695D01*
X194052153Y-135001796D02*
X195158949Y-133895000D01*
X180340000Y-180340000D02*
X185674000Y-180340000D01*
X196134039Y-153199000D02*
X195377526Y-153955513D01*
X148901357Y-140499000D02*
X149897000Y-140499000D01*
X217684729Y-171529538D02*
X218489267Y-170725000D01*
X217353121Y-133530985D02*
X218259106Y-132625000D01*
X276606000Y-202174695D02*
X276144305Y-201713000D01*
X200660000Y-178054000D02*
X207010000Y-178054000D01*
X219202000Y-114046000D02*
X219202000Y-115824000D01*
X130265000Y-145325000D02*
X129794000Y-145796000D01*
X255487109Y-196887000D02*
X256586305Y-196887000D01*
X173228000Y-138176000D02*
X172720000Y-138684000D01*
X175043000Y-155739000D02*
X175260000Y-155956000D01*
X124760556Y-126405948D02*
X125637507Y-125528997D01*
X133387000Y-162851000D02*
X132336829Y-162851000D01*
X195158949Y-133895000D02*
X195880305Y-133895000D01*
X238806305Y-113575000D02*
X239268000Y-114036695D01*
X256586305Y-196887000D02*
X257048000Y-197348695D01*
X177800000Y-175250695D02*
X177800000Y-176276000D01*
X170905000Y-119225334D02*
X170180000Y-119950334D01*
X237968733Y-113575000D02*
X238806305Y-113575000D01*
X220980000Y-177038000D02*
X227076000Y-177038000D01*
X257048000Y-197348695D02*
X257048000Y-198628000D01*
X146526996Y-121888996D02*
X146775000Y-122137000D01*
X153162000Y-159512000D02*
X153162000Y-161036000D01*
X129020766Y-143801000D02*
X129840305Y-143801000D01*
X249682000Y-173990000D02*
X249682000Y-166116000D01*
X151760621Y-159295000D02*
X152945000Y-159295000D01*
X246634000Y-177038000D02*
X249682000Y-173990000D01*
X217187317Y-114531709D02*
X217890026Y-113829000D01*
X134658502Y-182539990D02*
X134658502Y-182184590D01*
X239314305Y-151675000D02*
X239776000Y-152136695D01*
X198665000Y-171995000D02*
X198882000Y-172212000D01*
X255230000Y-111850000D02*
X261670000Y-111790000D01*
X237352359Y-133356454D02*
X238083813Y-132625000D01*
X173968924Y-155739000D02*
X175043000Y-155739000D01*
X127000000Y-126041884D02*
X127000000Y-127254000D01*
X219248305Y-170725000D02*
X219710000Y-171186695D01*
X175448155Y-175433664D02*
X176346819Y-174535000D01*
X250698000Y-165100000D02*
X264394722Y-165100000D01*
X218259106Y-132625000D02*
X219248305Y-132625000D01*
X237236000Y-191516000D02*
X236487556Y-191516000D01*
X135450092Y-181393000D02*
X136190305Y-181393000D01*
X227076000Y-177038000D02*
X242316000Y-177038000D01*
X145034000Y-186690000D02*
X147320000Y-184404000D01*
X185674000Y-180340000D02*
X187960000Y-178054000D01*
X264394722Y-151271150D02*
X264394722Y-144431626D01*
X176346819Y-174535000D02*
X177084305Y-174535000D01*
X276144305Y-201713000D02*
X275031662Y-201713000D01*
X265430000Y-166624000D02*
X264394722Y-165588722D01*
X126487113Y-125528997D02*
X127000000Y-126041884D01*
X239219312Y-170630007D02*
X238408968Y-170630007D01*
X275031662Y-201713000D02*
X274520580Y-202224082D01*
X195326000Y-115814695D02*
X195326000Y-117094000D01*
X175260000Y-155956000D02*
X175260000Y-157480000D01*
X128059871Y-145117295D02*
X128059871Y-144761895D01*
X239776000Y-152136695D02*
X239776000Y-153416000D01*
X219493000Y-151675000D02*
X218374187Y-151675000D01*
X187960000Y-178054000D02*
X200660000Y-178054000D01*
X236487556Y-191516000D02*
X235794674Y-192208882D01*
X197358000Y-154940000D02*
X197575000Y-154723000D01*
X261670000Y-111790000D02*
X262520000Y-112640000D01*
X146775000Y-123735000D02*
X146558000Y-123952000D01*
X156718000Y-178562000D02*
X156718000Y-179832000D01*
X194610305Y-115099000D02*
X195326000Y-115814695D01*
X195880305Y-133895000D02*
X196305000Y-134319695D01*
X219710000Y-133086695D02*
X219710000Y-133858000D01*
X281432000Y-185166000D02*
X281432000Y-184648695D01*
X128059871Y-144761895D02*
X129020766Y-143801000D01*
X239739000Y-133895000D02*
X239014000Y-134620000D01*
X279345100Y-183933000D02*
X279011454Y-184266646D01*
X239739000Y-133049695D02*
X239739000Y-133895000D01*
X208026000Y-177038000D02*
X220980000Y-177038000D01*
X133604000Y-164846000D02*
X133604000Y-163068000D01*
X197617129Y-171995000D02*
X198665000Y-171995000D01*
X192726780Y-116048079D02*
X193675859Y-115099000D01*
X249682000Y-166116000D02*
X250698000Y-165100000D01*
X152945000Y-159295000D02*
X153162000Y-159512000D01*
X134658502Y-182184590D02*
X135450092Y-181393000D01*
X239314305Y-132625000D02*
X239739000Y-133049695D01*
X125637507Y-125528997D02*
X126487113Y-125528997D01*
X133604000Y-163068000D02*
X133387000Y-162851000D01*
X242316000Y-177038000D02*
X246634000Y-177038000D01*
X219673000Y-153633000D02*
X219673000Y-151855000D01*
X198882000Y-172212000D02*
X198882000Y-173990000D01*
X254480000Y-112710000D02*
X255230000Y-111850000D01*
X132336829Y-162851000D02*
X131359187Y-163828642D01*
X197575000Y-154723000D02*
X197575000Y-153623695D01*
X218489267Y-170725000D02*
X219248305Y-170725000D01*
X144456711Y-122932984D02*
X145500699Y-121888996D01*
X237518163Y-152355731D02*
X238198894Y-151675000D01*
X157988000Y-184404000D02*
X163322000Y-184404000D01*
X163322000Y-184404000D02*
X167386000Y-180340000D01*
X239644007Y-172334007D02*
X239644007Y-171054702D01*
X170725000Y-117639000D02*
X170905000Y-117819000D01*
X196305000Y-134319695D02*
X196305000Y-135419000D01*
X238408968Y-170630007D02*
X237683968Y-171355007D01*
X177084305Y-174535000D02*
X177800000Y-175250695D01*
X238083813Y-132625000D02*
X239314305Y-132625000D01*
X219710000Y-133858000D02*
X218948000Y-134620000D01*
X264394722Y-144431626D02*
X264334509Y-144371413D01*
X239644007Y-171054702D02*
X239219312Y-170630007D01*
X193675859Y-115099000D02*
X194610305Y-115099000D01*
X197575000Y-153623695D02*
X197150305Y-153199000D01*
X150077000Y-140679000D02*
X150077000Y-142531000D01*
X237707000Y-191987000D02*
X237236000Y-191516000D01*
X173132637Y-156575287D02*
X173968924Y-155739000D01*
X156247000Y-178091000D02*
X156718000Y-178562000D01*
X219710000Y-171186695D02*
X219710000Y-172720000D01*
X237186555Y-114357178D02*
X237968733Y-113575000D01*
X147320000Y-184404000D02*
X157988000Y-184404000D01*
X218985000Y-113829000D02*
X219202000Y-114046000D01*
X281432000Y-184648695D02*
X280716305Y-183933000D01*
X196305000Y-135419000D02*
X195834000Y-135890000D01*
X255157627Y-197216482D02*
X255487109Y-196887000D01*
X170905000Y-117819000D02*
X170905000Y-119225334D01*
X129840305Y-143801000D02*
X130265000Y-144225695D01*
X147756026Y-141644331D02*
X148901357Y-140499000D01*
X151055342Y-160355679D02*
X151055342Y-160000279D01*
X146775000Y-122137000D02*
X146775000Y-123735000D01*
X218374187Y-151675000D02*
X217518925Y-152530262D01*
X149897000Y-140499000D02*
X150077000Y-140679000D01*
X169721135Y-117639000D02*
X170725000Y-117639000D01*
X219673000Y-151855000D02*
X219493000Y-151675000D01*
X196702899Y-172909230D02*
X197617129Y-171995000D01*
X276606000Y-203289044D02*
X276606000Y-202174695D01*
X136906000Y-182108695D02*
X136906000Y-183388000D01*
X155330683Y-178091000D02*
X156247000Y-178091000D01*
X167386000Y-180340000D02*
X180340000Y-180340000D01*
X168501602Y-118858533D02*
X169721135Y-117639000D01*
X141732000Y-186690000D02*
X145034000Y-186690000D01*
X237490000Y-193802000D02*
X237707000Y-193585000D01*
X172766305Y-136435000D02*
X173228000Y-136896695D01*
X239776000Y-172466000D02*
X239644007Y-172334007D01*
X145500699Y-121888996D02*
X146526996Y-121888996D01*
X154354657Y-179067026D02*
X155330683Y-178091000D01*
X237707000Y-193585000D02*
X237707000Y-191987000D01*
X173228000Y-136896695D02*
X173228000Y-138176000D01*
X264394722Y-165588722D02*
X264394722Y-165100000D01*
X136190305Y-181393000D02*
X136906000Y-182108695D01*
X170817120Y-137716910D02*
X172099030Y-136435000D01*
X259713455Y-179324000D02*
X259648501Y-179259046D01*
X127000000Y-127254000D02*
X126746000Y-127508000D01*
X197150305Y-153199000D02*
X196134039Y-153199000D01*
X150077000Y-142531000D02*
X149860000Y-142748000D01*
X130265000Y-144225695D02*
X130265000Y-145325000D01*
X261874000Y-180330695D02*
X261874000Y-180594000D01*
X172099030Y-136435000D02*
X172766305Y-136435000D01*
X217890026Y-113829000D02*
X218985000Y-113829000D01*
X259648501Y-179259046D02*
X260802351Y-179259046D01*
X280716305Y-183933000D02*
X279345100Y-183933000D01*
X239268000Y-114036695D02*
X239268000Y-115570000D01*
X264394722Y-165100000D02*
X264394722Y-151271150D01*
X151055342Y-160000279D02*
X151760621Y-159295000D01*
%TO.N,GND*%
X256850000Y-113540000D02*
X256000000Y-112690000D01*
X255985695Y-180303000D02*
X257164185Y-180303000D01*
X191153113Y-137377000D02*
X189955000Y-137377000D01*
X140923695Y-125439000D02*
X140499000Y-125014305D01*
X130556000Y-184404000D02*
X130556000Y-183134000D01*
X127699582Y-164146418D02*
X127699582Y-165554887D01*
X125494444Y-147828000D02*
X126448685Y-146873759D01*
X167894000Y-102616000D02*
X184658000Y-102616000D01*
X123149370Y-127807012D02*
X123149370Y-128162412D01*
X164338000Y-106172000D02*
X166878000Y-103632000D01*
X255190000Y-106770000D02*
X261630000Y-106710000D01*
X189955000Y-137377000D02*
X189775000Y-137197000D01*
X164592000Y-120659305D02*
X164592000Y-119888000D01*
X133047316Y-183941054D02*
X133047316Y-184296454D01*
X264030000Y-112620000D02*
X263280000Y-113480000D01*
X251243000Y-196813000D02*
X251243000Y-197912305D01*
X233463000Y-134920305D02*
X233887695Y-135345000D01*
X131318000Y-185166000D02*
X130556000Y-184404000D01*
X135382000Y-113792000D02*
X135382000Y-112522000D01*
X256274959Y-146762081D02*
X256254888Y-146742010D01*
X270510000Y-201676000D02*
X270510000Y-202701305D01*
X120650000Y-127000000D02*
X115316000Y-127000000D01*
X209804000Y-98806000D02*
X229870000Y-98806000D01*
X170590442Y-158750000D02*
X171450333Y-157890109D01*
X229870000Y-103886000D02*
X229870000Y-98806000D01*
X166819298Y-120173355D02*
X165871653Y-121121000D01*
X169916695Y-158750000D02*
X170590442Y-158750000D01*
X194954089Y-174134204D02*
X194119293Y-174969000D01*
X167995548Y-140171000D02*
X167339695Y-140171000D01*
X193247695Y-174969000D02*
X192532000Y-174253305D01*
X213614000Y-172729305D02*
X214366695Y-173482000D01*
X251714000Y-196342000D02*
X251243000Y-196813000D01*
X270971695Y-203163000D02*
X272141300Y-203163000D01*
X214465622Y-116549000D02*
X213323000Y-116549000D01*
X135890000Y-110744000D02*
X139954000Y-110744000D01*
X213868000Y-133350000D02*
X213397000Y-133821000D01*
X111760000Y-115062000D02*
X113792000Y-113030000D01*
X251243000Y-197912305D02*
X251667695Y-198337000D01*
X133047316Y-184296454D02*
X132177770Y-185166000D01*
X213143000Y-114771000D02*
X213360000Y-114554000D01*
X261630000Y-106710000D02*
X262480000Y-107560000D01*
X233680000Y-152371701D02*
X233680000Y-153924000D01*
X213577000Y-135599000D02*
X214580702Y-135599000D01*
X122316782Y-128995000D02*
X120867000Y-128995000D01*
X145273635Y-144272000D02*
X146144840Y-143400795D01*
X124704695Y-147828000D02*
X125494444Y-147828000D01*
X213360000Y-152654000D02*
X213360000Y-153679305D01*
X148742299Y-162814000D02*
X148072695Y-162814000D01*
X232363695Y-193257000D02*
X231902000Y-192795305D01*
X184658000Y-105918000D02*
X184658000Y-102616000D01*
X233747546Y-192815648D02*
X233306194Y-193257000D01*
X139954000Y-110744000D02*
X144526000Y-106172000D01*
X213323000Y-116549000D02*
X213143000Y-116369000D01*
X167339695Y-140171000D02*
X166915000Y-139746305D01*
X165871653Y-121121000D02*
X165053695Y-121121000D01*
X188722000Y-102616000D02*
X192532000Y-98806000D01*
X124206000Y-145796000D02*
X124206000Y-147329305D01*
X133604000Y-113030000D02*
X134747000Y-111887000D01*
X135382000Y-112522000D02*
X134747000Y-111887000D01*
X150368000Y-180857305D02*
X150368000Y-179578000D01*
X231902000Y-192795305D02*
X231902000Y-191770000D01*
X160020000Y-109220000D02*
X160020000Y-106172000D01*
X233633695Y-116295000D02*
X232918000Y-115579305D01*
X173103965Y-177763000D02*
X171921000Y-177763000D01*
X233897000Y-154141000D02*
X235028490Y-154141000D01*
X144516695Y-144272000D02*
X145273635Y-144272000D01*
X192636203Y-156173000D02*
X193628716Y-155180487D01*
X188759000Y-118147000D02*
X188939000Y-118327000D01*
X169418000Y-156798308D02*
X169418000Y-158251305D01*
X270510000Y-202701305D02*
X270971695Y-203163000D01*
X188939000Y-118327000D02*
X189924023Y-118327000D01*
X213143000Y-116369000D02*
X213143000Y-114771000D01*
X274574000Y-185166000D02*
X274791000Y-185383000D01*
X252596747Y-198337000D02*
X253110499Y-197823248D01*
X256820000Y-111000000D02*
X255970000Y-110150000D01*
X214949783Y-154395000D02*
X215698593Y-153646190D01*
X234544329Y-116295000D02*
X233633695Y-116295000D01*
X194119293Y-174969000D02*
X193247695Y-174969000D01*
X113792000Y-113030000D02*
X133604000Y-113030000D01*
X120650000Y-128778000D02*
X120650000Y-127000000D01*
X143764000Y-143519305D02*
X144516695Y-144272000D01*
X234151000Y-173191000D02*
X233934000Y-172974000D01*
X263280000Y-113480000D02*
X256850000Y-113540000D01*
X214366695Y-173482000D02*
X215027863Y-173482000D01*
X151956961Y-181610000D02*
X151120695Y-181610000D01*
X140499000Y-124169000D02*
X141224000Y-123444000D01*
X192532000Y-174253305D02*
X192532000Y-173228000D01*
X232918000Y-115579305D02*
X232918000Y-114300000D01*
X235143571Y-173191000D02*
X234151000Y-173191000D01*
X214075695Y-154395000D02*
X214949783Y-154395000D01*
X191977695Y-156173000D02*
X192636203Y-156173000D01*
X256274959Y-149041923D02*
X256274959Y-146762081D01*
X192303343Y-136226770D02*
X191153113Y-137377000D01*
X127699582Y-164146418D02*
X127508000Y-164338000D01*
X169134816Y-139031732D02*
X167995548Y-140171000D01*
X256032000Y-200406000D02*
X258318000Y-200406000D01*
X191553000Y-155748305D02*
X191977695Y-156173000D01*
X171921000Y-177763000D02*
X171196000Y-177038000D01*
X189775000Y-135853000D02*
X190500000Y-135128000D01*
X189775000Y-137197000D02*
X189775000Y-135853000D01*
X209804000Y-103886000D02*
X209804000Y-98806000D01*
X141740573Y-125439000D02*
X140923695Y-125439000D01*
X148072695Y-162814000D02*
X147320000Y-162061305D01*
X120867000Y-128995000D02*
X120650000Y-128778000D01*
X192532000Y-98806000D02*
X194818000Y-98806000D01*
X264010000Y-110080000D02*
X263260000Y-110940000D01*
X214580702Y-135599000D02*
X215532789Y-134646913D01*
X149444156Y-162112143D02*
X148742299Y-162814000D01*
X152743471Y-180468090D02*
X152743471Y-180823490D01*
X126448685Y-146873759D02*
X126448685Y-146518359D01*
X254440000Y-107630000D02*
X255190000Y-106770000D01*
X274574000Y-183642000D02*
X274574000Y-185166000D01*
X152743471Y-180823490D02*
X151956961Y-181610000D01*
X127699582Y-165554887D02*
X128223695Y-166079000D01*
X173765851Y-176748486D02*
X173765851Y-177101114D01*
X251667695Y-198337000D02*
X252596747Y-198337000D01*
X142845525Y-124334048D02*
X141740573Y-125439000D01*
X213360000Y-153679305D02*
X214075695Y-154395000D01*
X165053695Y-121121000D02*
X164592000Y-120659305D01*
X233934000Y-172974000D02*
X233934000Y-171450000D01*
X255561000Y-178816000D02*
X255561000Y-179878305D01*
X166915000Y-139746305D02*
X166915000Y-138647000D01*
X171196000Y-177038000D02*
X171196000Y-176022000D01*
X276454738Y-185383000D02*
X276964326Y-184873412D01*
X115316000Y-127000000D02*
X115062000Y-126746000D01*
X194818000Y-98806000D02*
X209804000Y-98806000D01*
X134747000Y-111887000D02*
X135890000Y-110744000D01*
X233934000Y-133350000D02*
X233463000Y-133821000D01*
X234659409Y-135345000D02*
X235532027Y-134472382D01*
X213614000Y-171450000D02*
X213614000Y-172729305D01*
X132177770Y-185166000D02*
X131318000Y-185166000D01*
X244602000Y-98806000D02*
X245364000Y-98044000D01*
X128898707Y-166079000D02*
X129748001Y-165229706D01*
X147320000Y-162061305D02*
X147320000Y-161036000D01*
X188759000Y-116369000D02*
X188759000Y-118147000D01*
X191516000Y-154178000D02*
X191553000Y-154215000D01*
X235863636Y-172470935D02*
X235143571Y-173191000D01*
X263260000Y-110940000D02*
X256820000Y-111000000D01*
X215366985Y-115647637D02*
X214465622Y-116549000D01*
X173765851Y-177101114D02*
X173103965Y-177763000D01*
X274791000Y-185383000D02*
X276454738Y-185383000D01*
X166878000Y-103632000D02*
X167894000Y-102616000D01*
X128223695Y-166079000D02*
X128898707Y-166079000D01*
X233306194Y-193257000D02*
X232363695Y-193257000D01*
X140499000Y-125014305D02*
X140499000Y-124169000D01*
X146144840Y-143400795D02*
X146144840Y-143045395D01*
X123149370Y-128162412D02*
X122316782Y-128995000D01*
X143764000Y-142240000D02*
X143764000Y-143519305D01*
X257164185Y-180303000D02*
X257601373Y-179865812D01*
X169418000Y-158251305D02*
X169916695Y-158750000D01*
X231902000Y-191770000D02*
X232410000Y-191262000D01*
X164592000Y-119888000D02*
X165354000Y-119126000D01*
X233887695Y-135345000D02*
X234659409Y-135345000D01*
X235028490Y-154141000D02*
X235697831Y-153471659D01*
X124206000Y-147329305D02*
X124704695Y-147828000D01*
X229870000Y-98806000D02*
X244602000Y-98806000D01*
X233680000Y-153924000D02*
X233897000Y-154141000D01*
X115062000Y-126746000D02*
X111760000Y-123444000D01*
X160020000Y-106172000D02*
X164338000Y-106172000D01*
X144526000Y-106172000D02*
X160020000Y-106172000D01*
X184658000Y-102616000D02*
X188722000Y-102616000D01*
X189924023Y-118327000D02*
X190977970Y-117273053D01*
X213397000Y-135419000D02*
X213577000Y-135599000D01*
X215027863Y-173482000D02*
X215864397Y-172645466D01*
X255561000Y-179878305D02*
X255985695Y-180303000D01*
X188722000Y-116332000D02*
X188759000Y-116369000D01*
X233463000Y-133821000D02*
X233463000Y-134920305D01*
X235366223Y-115473106D02*
X234544329Y-116295000D01*
X213397000Y-133821000D02*
X213397000Y-135419000D01*
X111760000Y-123444000D02*
X111760000Y-115062000D01*
X149444156Y-161756743D02*
X149444156Y-162112143D01*
X191553000Y-154215000D02*
X191553000Y-155748305D01*
X151120695Y-181610000D02*
X150368000Y-180857305D01*
X166915000Y-138647000D02*
X167386000Y-138176000D01*
X272141300Y-203163000D02*
X272473452Y-202830848D01*
%TO.N,_1_0*%
X253570000Y-105090000D02*
X251570000Y-105110000D01*
%TO.N,_1_23*%
X264810000Y-105000000D02*
X266810000Y-104980000D01*
%TO.N,_1_1*%
X253590000Y-107630000D02*
X251590000Y-107650000D01*
%TO.N,_1_22*%
X264830000Y-107540000D02*
X266830000Y-107520000D01*
%TO.N,_1_2*%
X253620000Y-110170000D02*
X251620000Y-110190000D01*
%TO.N,_1_21*%
X264860000Y-110080000D02*
X266860000Y-110060000D01*
%TO.N,_1_3*%
X253640000Y-112710000D02*
X251640000Y-112730000D01*
%TO.N,_1_20*%
X264880000Y-112620000D02*
X266880000Y-112600000D01*
%TO.N,L02*%
X217196916Y-115631667D02*
X218114249Y-116549000D01*
X224028000Y-114554000D02*
X230867388Y-114554000D01*
X217362333Y-115631667D02*
X218440000Y-114554000D01*
X217196916Y-115631667D02*
X217362333Y-115631667D01*
X235130852Y-114373148D02*
X233934000Y-115570000D01*
X235356624Y-114373148D02*
X235130852Y-114373148D01*
X222033000Y-116549000D02*
X224028000Y-114554000D01*
X230867388Y-114554000D02*
X231883388Y-113538000D01*
X218114249Y-116549000D02*
X222033000Y-116549000D01*
X231883388Y-113538000D02*
X234521476Y-113538000D01*
X234521476Y-113538000D02*
X235356624Y-114373148D01*
%TO.N,L03*%
X214347707Y-113538000D02*
X215357386Y-114547679D01*
X197866000Y-115824000D02*
X209804000Y-115824000D01*
X215144321Y-114547679D02*
X215357386Y-114547679D01*
X192988601Y-117145399D02*
X194310000Y-115824000D01*
X209804000Y-115824000D02*
X212090000Y-113538000D01*
X192803512Y-117145399D02*
X193514113Y-117856000D01*
X192803512Y-117145399D02*
X192988601Y-117145399D01*
X212090000Y-113538000D02*
X214347707Y-113538000D01*
X213868000Y-115824000D02*
X215144321Y-114547679D01*
X195834000Y-117856000D02*
X197866000Y-115824000D01*
X193514113Y-117856000D02*
X195834000Y-117856000D01*
%TO.N,L04*%
X173202666Y-120675334D02*
X169360658Y-120675334D01*
X170180000Y-118364000D02*
X168635658Y-119908342D01*
X185420000Y-117856000D02*
X176022000Y-117856000D01*
X187960000Y-115316000D02*
X185420000Y-117856000D01*
X176022000Y-117856000D02*
X173202666Y-120675334D01*
X187960000Y-115316000D02*
X190041505Y-115316000D01*
X168635658Y-119908342D02*
X168635658Y-119950334D01*
X189484000Y-117592971D02*
X190901238Y-116175733D01*
X190041505Y-115316000D02*
X190901238Y-116175733D01*
X169360658Y-120675334D02*
X168635658Y-119950334D01*
X189484000Y-117602000D02*
X189484000Y-117592971D01*
%TO.N,L05*%
X165967688Y-118364000D02*
X166685242Y-119081554D01*
X145308452Y-124677000D02*
X144647724Y-124016272D01*
X164338000Y-118364000D02*
X161290000Y-121412000D01*
X161290000Y-121412000D02*
X151892000Y-121412000D01*
X166685242Y-119081554D02*
X166668446Y-119081554D01*
X148627000Y-124677000D02*
X145308452Y-124677000D01*
X146050000Y-122613996D02*
X144647724Y-124016272D01*
X151892000Y-121412000D02*
X148627000Y-124677000D01*
X166668446Y-119081554D02*
X165354000Y-120396000D01*
X164338000Y-118364000D02*
X165967688Y-118364000D01*
%TO.N,L06*%
X142654512Y-123283488D02*
X141224000Y-124714000D01*
X138176000Y-124968000D02*
X140462000Y-122682000D01*
X128307000Y-128233000D02*
X131572000Y-124968000D01*
X126186808Y-126253997D02*
X124951569Y-127489236D01*
X125695333Y-128233000D02*
X128307000Y-128233000D01*
X131572000Y-124968000D02*
X138176000Y-124968000D01*
X124951569Y-127489236D02*
X125695333Y-128233000D01*
X142654512Y-123250760D02*
X142654512Y-123283488D01*
X140462000Y-122682000D02*
X142085752Y-122682000D01*
X142085752Y-122682000D02*
X142654512Y-123250760D01*
%TO.N,L07*%
X179578000Y-124206000D02*
X182118000Y-121666000D01*
X138684000Y-128270000D02*
X154940000Y-128270000D01*
X159004000Y-124206000D02*
X179578000Y-124206000D01*
X154940000Y-128270000D02*
X157734000Y-125476000D01*
X204724000Y-120142000D02*
X238760000Y-120142000D01*
X136652000Y-130302000D02*
X138684000Y-128270000D01*
X120392942Y-129543539D02*
X120399539Y-129543539D01*
X121666000Y-128270000D02*
X121666000Y-128016081D01*
X237907588Y-134456412D02*
X239014000Y-133350000D01*
X120399539Y-129543539D02*
X121158000Y-130302000D01*
X237361958Y-134456412D02*
X237907588Y-134456412D01*
X182118000Y-121666000D02*
X202438000Y-121666000D01*
X202438000Y-121666000D02*
X203200000Y-121666000D01*
X121158000Y-130302000D02*
X136652000Y-130302000D01*
X157734000Y-125476000D02*
X159004000Y-124206000D01*
X121666000Y-128016081D02*
X122958357Y-126723724D01*
X203200000Y-121666000D02*
X204724000Y-120142000D01*
%TO.N,L08*%
X231611000Y-132625000D02*
X234775004Y-132625000D01*
X234775004Y-132625000D02*
X235522428Y-133372424D01*
X230886000Y-133350000D02*
X231611000Y-132625000D01*
X217667057Y-134630943D02*
X218948000Y-133350000D01*
X217362720Y-134630943D02*
X217667057Y-134630943D01*
X224028000Y-133350000D02*
X230886000Y-133350000D01*
X235522428Y-133372424D02*
X235435576Y-133372424D01*
X218113777Y-135382000D02*
X217362720Y-134630943D01*
X235435576Y-133372424D02*
X234188000Y-134620000D01*
X221996000Y-135382000D02*
X224028000Y-133350000D01*
X221996000Y-135382000D02*
X218113777Y-135382000D01*
%TO.N,L09*%
X198882000Y-136652000D02*
X200914000Y-134620000D01*
X215449045Y-133546955D02*
X214122000Y-134874000D01*
X195580000Y-134648001D02*
X195580000Y-134620000D01*
X194128885Y-136099116D02*
X195580000Y-134648001D01*
X200914000Y-134620000D02*
X210566000Y-134620000D01*
X194128885Y-136099116D02*
X194681769Y-136652000D01*
X214564235Y-132588000D02*
X215523190Y-133546955D01*
X194681769Y-136652000D02*
X198882000Y-136652000D01*
X212598000Y-132588000D02*
X214564235Y-132588000D01*
X210566000Y-134620000D02*
X212598000Y-132588000D01*
X215523190Y-133546955D02*
X215449045Y-133546955D01*
%TO.N,L10*%
X177546000Y-136652000D02*
X187452000Y-136652000D01*
X170951176Y-138808711D02*
X171842465Y-139700000D01*
X170951176Y-138808711D02*
X172466000Y-137293887D01*
X191463161Y-134366000D02*
X192226611Y-135129450D01*
X171842465Y-139700000D02*
X174498000Y-139700000D01*
X192022550Y-135129450D02*
X190500000Y-136652000D01*
X172466000Y-137160000D02*
X172466000Y-137293887D01*
X187452000Y-136652000D02*
X189738000Y-134366000D01*
X192226611Y-135129450D02*
X192022550Y-135129450D01*
X174498000Y-139700000D02*
X177546000Y-136652000D01*
X189738000Y-134366000D02*
X191463161Y-134366000D01*
%TO.N,L11*%
X147947039Y-142628961D02*
X149352000Y-141224000D01*
X150913000Y-143473000D02*
X148692420Y-143473000D01*
X147947039Y-142727619D02*
X147947039Y-142628961D01*
X167640000Y-139300691D02*
X167640000Y-139446000D01*
X148692420Y-143473000D02*
X147947039Y-142727619D01*
X169000760Y-137939931D02*
X167640000Y-139300691D01*
X168474829Y-137414000D02*
X169000760Y-137939931D01*
X154178000Y-140208000D02*
X150913000Y-143473000D01*
X163830000Y-140208000D02*
X154178000Y-140208000D01*
X166624000Y-137414000D02*
X163830000Y-140208000D01*
X166624000Y-137414000D02*
X168474829Y-137414000D01*
%TO.N,L12*%
X145953827Y-141962107D02*
X144780000Y-143135934D01*
X128571301Y-146521000D02*
X132117000Y-146521000D01*
X132117000Y-146521000D02*
X135128000Y-143510000D01*
X140716000Y-143510000D02*
X142748000Y-141478000D01*
X144780000Y-143135934D02*
X144780000Y-143510000D01*
X142748000Y-141478000D02*
X145469720Y-141478000D01*
X128250884Y-146200583D02*
X128571301Y-146521000D01*
X129540000Y-144911467D02*
X129540000Y-144526000D01*
X135128000Y-143510000D02*
X140716000Y-143510000D01*
X145469720Y-141478000D02*
X145953827Y-141962107D01*
X128250884Y-146200583D02*
X129540000Y-144911467D01*
%TO.N,L13*%
X122936000Y-147574000D02*
X122936000Y-145288000D01*
X123153000Y-145071000D02*
X125893601Y-145071000D01*
X157734000Y-147066000D02*
X141224000Y-147066000D01*
X124460000Y-149098000D02*
X122936000Y-147574000D01*
X182626000Y-140716000D02*
X179578000Y-143764000D01*
X126257672Y-145435071D02*
X124968000Y-146724743D01*
X125893601Y-145071000D02*
X126257672Y-145435071D01*
X179578000Y-143764000D02*
X161036000Y-143764000D01*
X161036000Y-143764000D02*
X157734000Y-147066000D01*
X204216000Y-140716000D02*
X182626000Y-140716000D01*
X237527762Y-153455689D02*
X237958311Y-153455689D01*
X141224000Y-147066000D02*
X139192000Y-149098000D01*
X238506000Y-138938000D02*
X205994000Y-138938000D01*
X124968000Y-146724743D02*
X124968000Y-147066000D01*
X139192000Y-149098000D02*
X124460000Y-149098000D01*
X237958311Y-153455689D02*
X239014000Y-152400000D01*
X122936000Y-145288000D02*
X123153000Y-145071000D01*
X205994000Y-138938000D02*
X204216000Y-140716000D01*
%TO.N,L30*%
X233445314Y-191750686D02*
X234022964Y-191750686D01*
X232664000Y-192532000D02*
X233445314Y-191750686D01*
%TO.N,L14*%
X217528524Y-154028524D02*
X218186000Y-154686000D01*
X232410000Y-151384000D02*
X234700531Y-151384000D01*
X220218000Y-154686000D02*
X222504000Y-152400000D01*
X217528524Y-153630220D02*
X217528524Y-154028524D01*
X235486299Y-152371701D02*
X234442000Y-153416000D01*
X217717780Y-153630220D02*
X218948000Y-152400000D01*
X230886000Y-152400000D02*
X231394000Y-152400000D01*
X235688232Y-152371701D02*
X235486299Y-152371701D01*
X231394000Y-152400000D02*
X232410000Y-151384000D01*
X234700531Y-151384000D02*
X235688232Y-152371701D01*
X222504000Y-152400000D02*
X230886000Y-152400000D01*
X218186000Y-154686000D02*
X220218000Y-154686000D01*
X217528524Y-153630220D02*
X217717780Y-153630220D01*
%TO.N,L15*%
X211836000Y-151892000D02*
X215034762Y-151892000D01*
X215688994Y-152546232D02*
X215499768Y-152546232D01*
X195454258Y-155052833D02*
X195721167Y-155052833D01*
X215499768Y-152546232D02*
X214376000Y-153670000D01*
X215034762Y-151892000D02*
X215688994Y-152546232D01*
X196066425Y-155665000D02*
X195454258Y-155052833D01*
X195721167Y-155052833D02*
X196850000Y-153924000D01*
X211836000Y-151892000D02*
X210312000Y-153416000D01*
X210312000Y-153416000D02*
X202946000Y-153416000D01*
X202946000Y-153416000D02*
X200697000Y-155665000D01*
X200697000Y-155665000D02*
X196066425Y-155665000D01*
%TO.N,L16*%
X177800000Y-158750000D02*
X181102000Y-155448000D01*
X173266693Y-157667088D02*
X173266693Y-158026693D01*
X173294912Y-157667088D02*
X174498000Y-156464000D01*
X173266693Y-157667088D02*
X173294912Y-157667088D01*
X188214000Y-155448000D02*
X190246000Y-153416000D01*
X173990000Y-158750000D02*
X177800000Y-158750000D01*
X181102000Y-155448000D02*
X185928000Y-155448000D01*
X190246000Y-153416000D02*
X192884817Y-153416000D01*
X193551984Y-154083167D02*
X192278000Y-155357151D01*
X192278000Y-155357151D02*
X192278000Y-155448000D01*
X173266693Y-158026693D02*
X173990000Y-158750000D01*
X185928000Y-155448000D02*
X188214000Y-155448000D01*
X192884817Y-153416000D02*
X193551984Y-154083167D01*
%TO.N,L17*%
X168123086Y-155980914D02*
X170498883Y-155980914D01*
X157734000Y-159004000D02*
X165100000Y-159004000D01*
X170498883Y-155980914D02*
X171316277Y-156798308D01*
X151246355Y-161438967D02*
X152400000Y-160285322D01*
X154432000Y-162306000D02*
X157734000Y-159004000D01*
X165100000Y-159004000D02*
X168123086Y-155980914D01*
X151246355Y-161438967D02*
X151246355Y-161914355D01*
X171316277Y-156798308D02*
X171316277Y-156851723D01*
X151638000Y-162306000D02*
X154432000Y-162306000D01*
X171316277Y-156851723D02*
X170180000Y-157988000D01*
X152400000Y-160285322D02*
X152400000Y-160020000D01*
X151246355Y-161914355D02*
X151638000Y-162306000D01*
%TO.N,L18*%
X148336000Y-161590598D02*
X148336000Y-162052000D01*
X131550200Y-164867800D02*
X132842000Y-163576000D01*
X131550200Y-164911930D02*
X131550200Y-164867800D01*
X132080000Y-165862000D02*
X131550200Y-165332200D01*
X145251000Y-160311000D02*
X143002000Y-162560000D01*
X149253143Y-160673455D02*
X148336000Y-161590598D01*
X138176000Y-162560000D02*
X134874000Y-165862000D01*
X143002000Y-162560000D02*
X138176000Y-162560000D01*
X149253143Y-160673455D02*
X148890688Y-160311000D01*
X134874000Y-165862000D02*
X132080000Y-165862000D01*
X148890688Y-160311000D02*
X145251000Y-160311000D01*
X131550200Y-165332200D02*
X131550200Y-164911930D01*
%TO.N,L19*%
X128524000Y-165179406D02*
X128524000Y-165354000D01*
X127256505Y-163336215D02*
X128746785Y-163336215D01*
X129556988Y-164146418D02*
X128524000Y-165179406D01*
X206507058Y-157982942D02*
X204978000Y-159512000D01*
X145034000Y-165862000D02*
X142748000Y-168148000D01*
X160782000Y-165862000D02*
X145034000Y-165862000D01*
X185166000Y-159512000D02*
X182118000Y-162560000D01*
X182118000Y-162560000D02*
X164084000Y-162560000D01*
X238992975Y-157982942D02*
X206507058Y-157982942D01*
X142748000Y-168148000D02*
X128778000Y-168148000D01*
X237693567Y-172454965D02*
X237819049Y-172454965D01*
X164084000Y-162560000D02*
X160782000Y-165862000D01*
X128778000Y-168148000D02*
X126746000Y-166116000D01*
X126746000Y-163846720D02*
X127256505Y-163336215D01*
X204978000Y-159512000D02*
X185166000Y-159512000D01*
X126746000Y-166116000D02*
X126746000Y-163846720D01*
X237819049Y-172454965D02*
X238919007Y-171355007D01*
X128746785Y-163336215D02*
X129556988Y-164146418D01*
%TO.N,L20*%
X218948000Y-174244000D02*
X217694328Y-172990328D01*
X229325000Y-170725000D02*
X228600000Y-171450000D01*
X235208060Y-170725000D02*
X229325000Y-170725000D01*
X235854037Y-171370977D02*
X235791023Y-171370977D01*
X224282000Y-171450000D02*
X221488000Y-174244000D01*
X217694328Y-172990328D02*
X217694328Y-172629496D01*
X235854037Y-171370977D02*
X235208060Y-170725000D01*
X221488000Y-174244000D02*
X218948000Y-174244000D01*
X217768504Y-172629496D02*
X218948000Y-171450000D01*
X217694328Y-172629496D02*
X217768504Y-172629496D01*
X228600000Y-171450000D02*
X224282000Y-171450000D01*
X235791023Y-171370977D02*
X234696000Y-172466000D01*
%TO.N,L21*%
X215804492Y-171545508D02*
X214630000Y-172720000D01*
X211836000Y-170688000D02*
X214997290Y-170688000D01*
X200152000Y-175006000D02*
X202946000Y-172212000D01*
X215854798Y-171545508D02*
X215804492Y-171545508D01*
X196779631Y-174006550D02*
X197779081Y-175006000D01*
X197779081Y-175006000D02*
X200152000Y-175006000D01*
X214997290Y-170688000D02*
X215854798Y-171545508D01*
X196779631Y-174006550D02*
X196833450Y-174006550D01*
X210312000Y-172212000D02*
X211836000Y-170688000D01*
X202946000Y-172212000D02*
X210312000Y-172212000D01*
X196833450Y-174006550D02*
X198120000Y-172720000D01*
%TO.N,L22*%
X191262000Y-172466000D02*
X192795305Y-172466000D01*
X175582211Y-176525465D02*
X175582211Y-177106211D01*
X189230000Y-174498000D02*
X191262000Y-172466000D01*
X192795305Y-172466000D02*
X193548000Y-173218695D01*
X194755116Y-173036884D02*
X193548000Y-174244000D01*
X194877357Y-173036884D02*
X194755116Y-173036884D01*
X177800000Y-177800000D02*
X181102000Y-174498000D01*
X175582211Y-176525465D02*
X175582211Y-176461789D01*
X176276000Y-177800000D02*
X177800000Y-177800000D01*
X175582211Y-176461789D02*
X176784000Y-175260000D01*
X181102000Y-174498000D02*
X189230000Y-174498000D01*
X193548000Y-173218695D02*
X193548000Y-174244000D01*
X175582211Y-177106211D02*
X176276000Y-177800000D01*
%TO.N,L23*%
X155702000Y-178993984D02*
X155702000Y-178816000D01*
X171205305Y-175006000D02*
X172466000Y-176266695D01*
X161036000Y-177546000D02*
X167640000Y-177546000D01*
X170180000Y-175006000D02*
X171205305Y-175006000D01*
X172466000Y-176266695D02*
X172466000Y-177038000D01*
X167640000Y-177546000D02*
X170180000Y-175006000D01*
X157226000Y-181356000D02*
X161036000Y-177546000D01*
X154545670Y-180150314D02*
X154545670Y-180707670D01*
X154545670Y-180707670D02*
X155194000Y-181356000D01*
X154545670Y-180150314D02*
X155702000Y-178993984D01*
X172466000Y-176822480D02*
X172466000Y-177038000D01*
X155194000Y-181356000D02*
X157226000Y-181356000D01*
X173631795Y-175656685D02*
X172466000Y-176822480D01*
%TO.N,L24*%
X134849515Y-183623278D02*
X135890000Y-182582793D01*
X134849515Y-184379515D02*
X135382000Y-184912000D01*
X134849515Y-183623278D02*
X134849515Y-184379515D01*
X151384000Y-180553260D02*
X151384000Y-180848000D01*
X140716000Y-181102000D02*
X147320000Y-181102000D01*
X147320000Y-181102000D02*
X149606000Y-178816000D01*
X149606000Y-178816000D02*
X151983656Y-178816000D01*
X136906000Y-184912000D02*
X140716000Y-181102000D01*
X135890000Y-182582793D02*
X135890000Y-182118000D01*
X151983656Y-178816000D02*
X152552458Y-179384802D01*
X135382000Y-184912000D02*
X136906000Y-184912000D01*
X152552458Y-179384802D02*
X151384000Y-180553260D01*
%TO.N,L25*%
X131318000Y-182372000D02*
X129794000Y-182372000D01*
X283464000Y-170180000D02*
X290830000Y-177546000D01*
X129540000Y-182626000D02*
X129540000Y-185166000D01*
X207772000Y-179324000D02*
X208788000Y-178308000D01*
X132856303Y-182857766D02*
X131826000Y-183888069D01*
X146050000Y-187706000D02*
X148082000Y-185674000D01*
X290322000Y-184658000D02*
X288798000Y-186182000D01*
X148082000Y-185674000D02*
X164338000Y-185674000D01*
X250444000Y-174498000D02*
X250444000Y-166624000D01*
X279586428Y-186182000D02*
X278736036Y-185331608D01*
X265430000Y-168148000D02*
X267208000Y-168148000D01*
X269240000Y-170180000D02*
X283464000Y-170180000D01*
X290830000Y-180848000D02*
X290322000Y-181356000D01*
X263144000Y-165862000D02*
X265430000Y-168148000D01*
X188722000Y-179324000D02*
X207772000Y-179324000D01*
X132856303Y-182857766D02*
X131803766Y-182857766D01*
X129540000Y-185166000D02*
X132080000Y-187706000D01*
X288798000Y-186182000D02*
X279586428Y-186182000D01*
X280416000Y-184658000D02*
X279742392Y-185331608D01*
X132080000Y-187706000D02*
X146050000Y-187706000D01*
X131826000Y-183888069D02*
X131826000Y-184404000D01*
X246634000Y-178308000D02*
X250444000Y-174498000D01*
X186436000Y-181610000D02*
X188722000Y-179324000D01*
X250444000Y-166624000D02*
X251206000Y-165862000D01*
X208788000Y-178308000D02*
X246634000Y-178308000D01*
X279742392Y-185331608D02*
X278736036Y-185331608D01*
X290322000Y-181356000D02*
X290322000Y-184658000D01*
X131803766Y-182857766D02*
X131318000Y-182372000D01*
X164338000Y-185674000D02*
X168402000Y-181610000D01*
X168402000Y-181610000D02*
X186436000Y-181610000D01*
X267208000Y-168148000D02*
X269240000Y-170180000D01*
X251206000Y-165862000D02*
X263144000Y-165862000D01*
X129794000Y-182372000D02*
X129540000Y-182626000D01*
X290830000Y-177546000D02*
X290830000Y-180848000D01*
%TO.N,L26*%
X275336000Y-184658000D02*
X275336000Y-183134000D01*
X269494000Y-182118000D02*
X268732000Y-181356000D01*
X260858000Y-180340000D02*
X260842008Y-180324008D01*
X260842008Y-180324008D02*
X259373083Y-180324008D01*
X260405075Y-181356000D02*
X259373083Y-180324008D01*
X276185550Y-183808450D02*
X275336000Y-184658000D01*
X277239744Y-183808450D02*
X276185550Y-183808450D01*
X275336000Y-183134000D02*
X274320000Y-182118000D01*
X268732000Y-181356000D02*
X260405075Y-181356000D01*
X274320000Y-182118000D02*
X269494000Y-182118000D01*
%TO.N,L27*%
X278638000Y-188722000D02*
X279654000Y-189738000D01*
X256286000Y-178515695D02*
X255824305Y-178054000D01*
X254508000Y-181356000D02*
X256794000Y-183642000D01*
X256286000Y-179578000D02*
X256286000Y-178515695D01*
X274992956Y-203289044D02*
X274245162Y-203289044D01*
X267716000Y-188722000D02*
X278638000Y-188722000D01*
X256794000Y-183642000D02*
X258318000Y-183642000D01*
X256286000Y-179578000D02*
X257063150Y-178800850D01*
X275844000Y-202438000D02*
X274992956Y-203289044D01*
X255824305Y-178054000D02*
X254762000Y-178054000D01*
X262636000Y-183642000D02*
X267716000Y-188722000D01*
X258318000Y-183642000D02*
X262636000Y-183642000D01*
X257063150Y-178800850D02*
X257876791Y-178800850D01*
X254508000Y-178308000D02*
X254508000Y-181356000D01*
X254762000Y-178054000D02*
X254508000Y-178308000D01*
%TO.N,L28*%
X271272000Y-202438000D02*
X271272000Y-201412695D01*
X271272000Y-202438000D02*
X271944114Y-201765886D01*
X271944114Y-201765886D02*
X272748870Y-201765886D01*
X255990765Y-199390000D02*
X254882209Y-198281444D01*
X266192000Y-200914000D02*
X264668000Y-199390000D01*
X255616556Y-198281444D02*
X256286000Y-197612000D01*
X271272000Y-201412695D02*
X270773305Y-200914000D01*
X270773305Y-200914000D02*
X266192000Y-200914000D01*
X264668000Y-199390000D02*
X255990765Y-199390000D01*
X254882209Y-198281444D02*
X255616556Y-198281444D01*
%TO.N,L29*%
X236809412Y-194564000D02*
X235519256Y-193273844D01*
X246634000Y-195326000D02*
X245872000Y-194564000D01*
X236240156Y-193273844D02*
X236982000Y-192532000D01*
X245872000Y-194564000D02*
X236809412Y-194564000D01*
X253385917Y-196758286D02*
X251953631Y-195326000D01*
X251968000Y-197612000D02*
X252821714Y-196758286D01*
X252821714Y-196758286D02*
X253385917Y-196758286D01*
X251953631Y-195326000D02*
X246634000Y-195326000D01*
X235519256Y-193273844D02*
X236240156Y-193273844D01*
%TD*%
M02*
