M48
; DRILL file {KiCad 7.0.10-7.0.10~ubuntu22.04.1} date Mon 04 Mar 2024 12:14:41 AM MST
; FORMAT={-:-/ absolute / inch / decimal}
; #@! TF.CreationDate,2024-03-04T00:14:41-07:00
; #@! TF.GenerationSoftware,Kicad,Pcbnew,7.0.10-7.0.10~ubuntu22.04.1
; #@! TF.FileFunction,Plated,1,2,PTH
FMAT,2
INCH
; #@! TA.AperFunction,Plated,PTH,ViaDrill
T1C0.0157
; #@! TA.AperFunction,Plated,PTH,ComponentDrill
T2C0.0157
; #@! TA.AperFunction,Plated,PTH,ComponentDrill
T3C0.0354
; #@! TA.AperFunction,Plated,PTH,ComponentDrill
T4C0.0390
; #@! TA.AperFunction,Plated,PTH,ComponentDrill
T5C0.0394
%
G90
G05
T1
X4.7399Y-5.1001
X4.75Y-5.0
X4.79Y-5.05
X4.89Y-5.74
X4.92Y-5.79
X4.968Y-4.9706
X4.99Y-5.02
X5.0275Y-6.4625
X5.06Y-6.51
X5.1Y-5.69
X5.11Y-5.74
X5.14Y-7.21
X5.19Y-7.26
X5.23Y-6.44
X5.26Y-6.49
X5.33Y-4.48
X5.35Y-7.17
X5.39Y-7.22
X5.56Y-4.86
X5.56Y-4.91
X5.58Y-7.35
X5.66Y-5.6
X5.7Y-5.65
X5.75Y-4.8273
X5.77Y-4.88
X5.8Y-6.34
X5.84Y-6.38
X5.88Y-5.56
X5.9Y-5.62
X5.92Y-7.07
X5.96Y-7.12
X6.0Y-6.3
X6.03Y-6.34
X6.13Y-7.04
X6.17Y-7.08
X6.22Y-7.26
X6.3Y-4.3
X6.51Y-4.69
X6.51Y-4.74
X6.59Y-5.44
X6.6Y-5.49
X6.67Y-6.1732
X6.7Y-4.66
X6.7Y-4.7225
X6.7Y-6.22
X6.74Y-6.93
X6.79Y-5.4
X6.79Y-6.97
X6.8Y-5.46
X6.87Y-6.16
X6.9Y-6.2
X6.96Y-6.9
X7.0Y-6.94
X7.1Y-7.1
X7.27Y-4.17
X7.43Y-4.58
X7.46Y-4.63
X7.5Y-5.32
X7.5Y-5.38
X7.54Y-6.07
X7.57Y-6.12
X7.58Y-6.82
X7.62Y-6.86
X7.65Y-4.56
X7.69Y-4.61
X7.7Y-5.3
X7.71Y-5.35
X7.75Y-6.06
X7.77Y-6.1
X7.8Y-6.8
X7.83Y-6.85
X7.9Y-7.01
X8.26Y-4.09
X8.4Y-4.51
X8.4Y-6.01
X8.41Y-6.75
X8.42Y-4.56
X8.42Y-5.25
X8.43Y-5.31
X8.44Y-6.05
X8.45Y-6.8
X8.6Y-4.51
X8.62Y-5.25
X8.62Y-5.3
X8.62Y-6.0
X8.62Y-6.75
X8.63Y-4.56
X8.65Y-6.05
X8.65Y-6.8
X8.7Y-6.97
X9.05Y-4.09
X9.15Y-7.53
X9.16Y-7.58
X9.17Y-4.5
X9.2Y-5.9989
X9.21Y-4.55
X9.21Y-5.25
X9.21Y-6.75
X9.22Y-5.3
X9.23Y-6.04
X9.24Y-6.79
X9.33Y-7.58
X9.35Y-7.63
X9.39Y-4.5
X9.39Y-5.47
X9.4Y-4.73
X9.4063Y-6.7463
X9.4092Y-6.2198
X9.41Y-5.25
X9.41Y-5.3
X9.41Y-6.0
X9.42Y-4.55
X9.44Y-6.04
X9.44Y-6.79
X9.54Y-6.97
X9.66Y-3.86
X9.91Y-7.73
X9.92Y-7.78
X10.0615Y-7.04
X10.08Y-7.89
X10.09Y-7.07
X10.09Y-7.78
X10.12Y-7.82
X10.17Y-7.89
X10.27Y-7.1
X10.31Y-7.11
X10.45Y-6.56
X10.65Y-7.94
X10.67Y-4.63
X10.67Y-4.73
X10.68Y-7.97
X10.81Y-7.23
X10.84Y-7.27
X10.86Y-7.97
X10.89Y-8.0035
X11.01Y-7.47
X11.04Y-7.27
X11.08Y-7.29
T2
X4.7693Y-4.7159
X4.8992Y-5.4526
X5.0291Y-6.1892
X5.1365Y-4.871
X5.159Y-6.9259
X5.2664Y-5.6077
X5.3963Y-6.3444
X5.5262Y-7.081
X5.5448Y-4.5792
X5.6747Y-5.3158
X5.8045Y-6.0525
X5.9119Y-4.7343
X5.9344Y-6.7892
X6.0418Y-5.471
X6.1717Y-6.2076
X6.3016Y-6.9443
X6.5052Y-4.4117
X6.5964Y-5.1541
X6.6876Y-5.8966
X6.7787Y-6.639
X6.8638Y-4.5858
X6.9549Y-5.3283
X7.0461Y-6.0707
X7.1373Y-6.8132
X7.4732Y-4.2946
X7.5254Y-5.0409
X7.5775Y-5.7871
X7.6297Y-6.5333
X7.8221Y-4.4873
X7.8743Y-5.2335
X7.9265Y-5.9797
X7.9787Y-6.7259
X8.4532Y-4.2285
X8.4597Y-4.9765
X8.4662Y-5.7245
X8.4727Y-6.4725
X8.7897Y-4.4421
X8.7962Y-5.1901
X8.8027Y-5.9381
X8.8093Y-6.6861
X9.2405Y-4.2216
X9.247Y-4.9696
X9.2536Y-5.7176
X9.2601Y-6.4656
X9.2617Y-7.2709
X9.5315Y-7.5644
X9.577Y-4.4352
X9.5836Y-5.1832
X9.5901Y-5.9312
X9.5966Y-6.6792
X10.024Y-7.4681
X10.076Y-4.1367
X10.0768Y-4.2367
X10.0777Y-4.3367
X10.0786Y-4.4367
X10.2008Y-6.7611
X10.2938Y-7.7615
X10.3328Y-4.1345
X10.3337Y-4.2345
X10.3345Y-4.3345
X10.3354Y-4.4345
X10.4706Y-7.0545
X10.7863Y-7.6652
X10.9631Y-6.9583
X11.0561Y-7.9587
X11.2329Y-7.2517
T4
X5.2176Y-4.7644
X5.2697Y-5.0598
X5.3475Y-5.5011
X5.3996Y-5.7965
X5.4774Y-6.2377
X5.5295Y-6.5332
X5.6073Y-6.9744
X5.6594Y-7.2698
X5.9931Y-4.6277
X6.0452Y-4.9231
X6.123Y-5.3643
X6.175Y-5.6598
X6.2528Y-6.101
X6.3049Y-6.3964
X6.3827Y-6.8377
X6.4348Y-7.1331
X6.9504Y-4.4835
X6.987Y-4.7813
X7.0416Y-5.226
X7.0781Y-5.5238
X7.1327Y-5.9684
X7.1693Y-6.2662
X7.2239Y-6.7109
X7.2604Y-7.0087
X7.914Y-4.3897
X7.9349Y-4.689
X7.9661Y-5.1359
X7.9871Y-5.4352
X8.0183Y-5.8821
X8.0392Y-6.1814
X8.0705Y-6.6283
X8.0914Y-6.9276
X8.8873Y-4.3503
X8.8899Y-4.6503
X8.8938Y-5.0983
X8.8964Y-5.3983
X8.9004Y-5.8463
X8.903Y-6.1463
X8.9069Y-6.5943
X8.9095Y-6.8943
X9.5744Y-7.7914
X9.6495Y-7.501
X9.6747Y-4.3434
X9.6773Y-4.6434
X9.6812Y-5.0914
X9.6838Y-5.3914
X9.6877Y-5.8394
X9.6903Y-6.1394
X9.6943Y-6.5874
X9.6969Y-6.8874
X10.3367Y-7.9886
X10.4118Y-7.6981
X10.5135Y-7.2816
X10.5886Y-6.9911
X11.099Y-8.1857
X11.1742Y-7.8953
X11.2759Y-7.4787
X11.351Y-7.1883
T5
X9.9044Y-4.1382
X9.9053Y-4.2382
X9.9061Y-4.3382
X9.907Y-4.4382
X9.9079Y-4.5382
X9.9087Y-4.6382
X9.9096Y-4.7382
X9.9105Y-4.8382
X9.9114Y-4.9382
X9.9122Y-5.0382
X9.9131Y-5.1382
X9.914Y-5.2382
X10.5044Y-4.133
X10.5052Y-4.233
X10.5061Y-4.333
X10.507Y-4.433
X10.5079Y-4.533
X10.5087Y-4.633
X10.5096Y-4.733
X10.5105Y-4.833
X10.5113Y-4.933
X10.5122Y-5.033
X10.5131Y-5.133
X10.514Y-5.233
T3
G00X10.1006Y-5.7771
M15
G01X10.077Y-5.7773
M16
G05
G00X10.1014Y-5.8677
M15
G01X10.0778Y-5.8679
M16
G05
G00X10.1431Y-5.6862
M15
G01X10.1195Y-5.6864
M16
G05
G00X10.1455Y-5.9579
M15
G01X10.1219Y-5.9581
M16
G05
G00X10.3006Y-5.6848
M15
G01X10.277Y-5.685
M16
G05
G00X10.3029Y-5.9565
M15
G01X10.2793Y-5.9567
M16
G05
G00X10.4187Y-5.6838
M15
G01X10.3951Y-5.684
M16
G05
G00X10.4211Y-5.9555
M15
G01X10.3974Y-5.9557
M16
G05
M30
