%TF.GenerationSoftware,KiCad,Pcbnew,7.0.10-7.0.10~ubuntu22.04.1*%
%TF.CreationDate,2024-03-04T12:43:43-07:00*%
%TF.ProjectId,boardPcb,626f6172-6450-4636-922e-6b696361645f,v1.0.0*%
%TF.SameCoordinates,Original*%
%TF.FileFunction,Copper,L2,Bot*%
%TF.FilePolarity,Positive*%
%FSLAX46Y46*%
G04 Gerber Fmt 4.6, Leading zero omitted, Abs format (unit mm)*
G04 Created by KiCad (PCBNEW 7.0.10-7.0.10~ubuntu22.04.1) date 2024-03-04 12:43:43*
%MOMM*%
%LPD*%
G01*
G04 APERTURE LIST*
G04 Aperture macros list*
%AMHorizOval*
0 Thick line with rounded ends*
0 $1 width*
0 $2 $3 position (X,Y) of the first rounded end (center of the circle)*
0 $4 $5 position (X,Y) of the second rounded end (center of the circle)*
0 Add line between two ends*
20,1,$1,$2,$3,$4,$5,0*
0 Add two circle primitives to create the rounded ends*
1,1,$1,$2,$3*
1,1,$1,$4,$5*%
%AMRotRect*
0 Rectangle, with rotation*
0 The origin of the aperture is its center*
0 $1 length*
0 $2 width*
0 $3 Rotation angle, in degrees counterclockwise*
0 Add horizontal line*
21,1,$1,$2,0,0,$3*%
%AMFreePoly0*
4,1,6,1.300000,-1.300000,0.000000,-1.300000,-1.300000,0.000000,-1.300000,1.300000,1.300000,1.300000,1.300000,-1.300000,1.300000,-1.300000,$1*%
%AMFreePoly1*
4,1,6,0.250000,0.000000,-0.250000,-0.625000,-0.500000,-0.625000,-0.500000,0.625000,-0.250000,0.625000,0.250000,0.000000,0.250000,0.000000,$1*%
%AMFreePoly2*
4,1,6,0.500000,-0.625000,-0.650000,-0.625000,-0.150000,0.000000,-0.650000,0.625000,0.500000,0.625000,0.500000,-0.625000,0.500000,-0.625000,$1*%
G04 Aperture macros list end*
%TA.AperFunction,ComponentPad*%
%ADD10RotRect,1.778000X1.778000X100.000000*%
%TD*%
%TA.AperFunction,SMDPad,CuDef*%
%ADD11RotRect,0.900000X1.200000X100.000000*%
%TD*%
%TA.AperFunction,ComponentPad*%
%ADD12C,1.905000*%
%TD*%
%TA.AperFunction,SMDPad,CuDef*%
%ADD13RotRect,0.700000X0.700000X345.500000*%
%TD*%
%TA.AperFunction,ComponentPad*%
%ADD14RotRect,1.778000X1.778000X90.500000*%
%TD*%
%TA.AperFunction,SMDPad,CuDef*%
%ADD15RotRect,0.900000X1.200000X90.500000*%
%TD*%
%TA.AperFunction,SMDPad,CuDef*%
%ADD16FreePoly0,10.000000*%
%TD*%
%TA.AperFunction,ComponentPad*%
%ADD17C,0.800000*%
%TD*%
%TA.AperFunction,SMDPad,CuDef*%
%ADD18RotRect,2.600000X2.600000X10.000000*%
%TD*%
%TA.AperFunction,SMDPad,CuDef*%
%ADD19FreePoly0,7.000000*%
%TD*%
%TA.AperFunction,SMDPad,CuDef*%
%ADD20RotRect,2.600000X2.600000X7.000000*%
%TD*%
%TA.AperFunction,SMDPad,CuDef*%
%ADD21RotRect,0.700000X0.700000X10.000000*%
%TD*%
%TA.AperFunction,SMDPad,CuDef*%
%ADD22FreePoly0,4.000000*%
%TD*%
%TA.AperFunction,SMDPad,CuDef*%
%ADD23RotRect,2.600000X2.600000X4.000000*%
%TD*%
%TA.AperFunction,ComponentPad*%
%ADD24RotRect,1.778000X1.778000X94.000000*%
%TD*%
%TA.AperFunction,SMDPad,CuDef*%
%ADD25RotRect,0.900000X1.200000X94.000000*%
%TD*%
%TA.AperFunction,SMDPad,CuDef*%
%ADD26RotRect,0.700000X0.700000X7.000000*%
%TD*%
%TA.AperFunction,ComponentPad*%
%ADD27HorizOval,1.600000X-0.299989X-0.002618X0.299989X0.002618X0*%
%TD*%
%TA.AperFunction,SMDPad,CuDef*%
%ADD28RotRect,0.700000X0.700000X0.500000*%
%TD*%
%TA.AperFunction,ComponentPad*%
%ADD29RotRect,1.778000X1.778000X75.500000*%
%TD*%
%TA.AperFunction,SMDPad,CuDef*%
%ADD30RotRect,0.900000X1.200000X75.500000*%
%TD*%
%TA.AperFunction,SMDPad,CuDef*%
%ADD31RotRect,0.700000X0.700000X4.000000*%
%TD*%
%TA.AperFunction,SMDPad,CuDef*%
%ADD32FreePoly0,0.500000*%
%TD*%
%TA.AperFunction,SMDPad,CuDef*%
%ADD33RotRect,2.600000X2.600000X0.500000*%
%TD*%
%TA.AperFunction,SMDPad,CuDef*%
%ADD34FreePoly0,345.500000*%
%TD*%
%TA.AperFunction,SMDPad,CuDef*%
%ADD35RotRect,2.600000X2.600000X345.500000*%
%TD*%
%TA.AperFunction,ComponentPad*%
%ADD36RotRect,1.778000X1.778000X97.000000*%
%TD*%
%TA.AperFunction,SMDPad,CuDef*%
%ADD37RotRect,0.900000X1.200000X97.000000*%
%TD*%
%TA.AperFunction,ComponentPad*%
%ADD38HorizOval,1.700000X0.000000X0.000000X0.000000X0.000000X0*%
%TD*%
%TA.AperFunction,SMDPad,CuDef*%
%ADD39FreePoly1,0.500000*%
%TD*%
%TA.AperFunction,SMDPad,CuDef*%
%ADD40FreePoly2,0.500000*%
%TD*%
%TA.AperFunction,ComponentPad*%
%ADD41HorizOval,1.700000X0.000000X0.000000X0.000000X0.000000X0*%
%TD*%
%TA.AperFunction,SMDPad,CuDef*%
%ADD42FreePoly2,180.500000*%
%TD*%
%TA.AperFunction,SMDPad,CuDef*%
%ADD43FreePoly1,180.500000*%
%TD*%
%TA.AperFunction,ViaPad*%
%ADD44C,0.800000*%
%TD*%
%TA.AperFunction,Conductor*%
%ADD45C,0.250000*%
%TD*%
G04 APERTURE END LIST*
D10*
%TO.P,D7,1*%
%TO.N,P19*%
X156846153Y-143757958D03*
D11*
X156471072Y-141630773D03*
%TO.P,D7,2*%
%TO.N,pink2_top*%
X155898034Y-138380907D03*
D12*
X155522953Y-136253722D03*
%TD*%
D13*
%TO.P,REF\u002A\u002A,1*%
%TO.N,VCC*%
X254882209Y-198281444D03*
%TO.P,REF\u002A\u002A,2*%
%TO.N,L28*%
X255157627Y-197216482D03*
%TO.P,REF\u002A\u002A,3*%
%TO.N,GND*%
X253385917Y-196758286D03*
%TO.P,REF\u002A\u002A,4*%
%TO.N,L29*%
X253110499Y-197823248D03*
%TD*%
D14*
%TO.P,D23,1*%
%TO.N,P19*%
X245968971Y-136941398D03*
D15*
X245950122Y-134781480D03*
%TO.P,D23,2*%
%TO.N,pointer2_top*%
X245921324Y-131481606D03*
D12*
X245902475Y-129321688D03*
%TD*%
D16*
%TO.P,S7,1*%
%TO.N,P3*%
X141875835Y-132425359D03*
D17*
%TO.P,S7,2*%
X144136131Y-135022316D03*
%TO.N,pink2_top*%
X153462062Y-138962749D03*
D18*
X153632390Y-132586299D03*
%TD*%
D19*
%TO.P,S9,1*%
%TO.N,P4*%
X170058506Y-165919580D03*
D17*
%TO.P,S9,2*%
X172179790Y-168631274D03*
%TO.N,ring_bottom*%
X181286713Y-173054388D03*
D20*
X181790526Y-166695591D03*
%TD*%
D16*
%TO.P,S2,1*%
%TO.N,P2*%
X125478995Y-154609670D03*
D17*
%TO.P,S2,2*%
X127739291Y-157206627D03*
%TO.N,pinky1_middle*%
X137065222Y-161147060D03*
D18*
X137235550Y-154770610D03*
%TD*%
D21*
%TO.P,REF\u002A\u002A,1*%
%TO.N,VCC*%
X131550200Y-164911930D03*
%TO.P,REF\u002A\u002A,2*%
%TO.N,L18*%
X131359187Y-163828642D03*
%TO.P,REF\u002A\u002A,3*%
%TO.N,GND*%
X129556988Y-164146418D03*
%TO.P,REF\u002A\u002A,4*%
%TO.N,L19*%
X129748001Y-165229706D03*
%TD*%
D22*
%TO.P,S14,1*%
%TO.N,P5*%
X190493193Y-144172395D03*
D17*
%TO.P,S14,2*%
X192469651Y-146991392D03*
%TO.N,middle_middle*%
X201332606Y-151885064D03*
D23*
X202168522Y-145561349D03*
%TD*%
D19*
%TO.P,S11,1*%
%TO.N,P4*%
X165427471Y-128202826D03*
D17*
%TO.P,S11,2*%
X167548755Y-130914520D03*
%TO.N,ring_top*%
X176655678Y-135337634D03*
D20*
X177159491Y-128978837D03*
%TD*%
D24*
%TO.P,D15,1*%
%TO.N,P19*%
X202871549Y-138054021D03*
D25*
X202720875Y-135899283D03*
%TO.P,D15,2*%
%TO.N,middle_top*%
X202490679Y-132607321D03*
D12*
X202340005Y-130452583D03*
%TD*%
D26*
%TO.P,REF\u002A\u002A,1*%
%TO.N,VCC*%
X170951176Y-138808711D03*
%TO.P,REF\u002A\u002A,2*%
%TO.N,L10*%
X170817120Y-137716910D03*
%TO.P,REF\u002A\u002A,3*%
%TO.N,GND*%
X169000760Y-137939931D03*
%TO.P,REF\u002A\u002A,4*%
%TO.N,L11*%
X169134816Y-139031732D03*
%TD*%
D27*
%TO.P,TRRS1,1*%
%TO.N,GND*%
X256254888Y-146742010D03*
X256274959Y-149041923D03*
%TO.P,TRRS1,2*%
%TO.N,P9*%
X257334775Y-144432499D03*
X257394988Y-151332236D03*
%TO.P,TRRS1,3*%
%TO.N,P10*%
X261334623Y-144397593D03*
X261394836Y-151297330D03*
%TO.P,TRRS1,4*%
%TO.N,VCC*%
X264334509Y-144371413D03*
X264394722Y-151271150D03*
%TD*%
D21*
%TO.P,REF\u002A\u002A,1*%
%TO.N,VCC*%
X154545670Y-180150314D03*
%TO.P,REF\u002A\u002A,2*%
%TO.N,L23*%
X154354657Y-179067026D03*
%TO.P,REF\u002A\u002A,3*%
%TO.N,GND*%
X152552458Y-179384802D03*
%TO.P,REF\u002A\u002A,4*%
%TO.N,L24*%
X152743471Y-180468090D03*
%TD*%
D28*
%TO.P,REF\u002A\u002A,1*%
%TO.N,VCC*%
X217196916Y-115631667D03*
%TO.P,REF\u002A\u002A,2*%
%TO.N,L02*%
X217187317Y-114531709D03*
%TO.P,REF\u002A\u002A,3*%
%TO.N,GND*%
X215357386Y-114547679D03*
%TO.P,REF\u002A\u002A,4*%
%TO.N,L03*%
X215366985Y-115647637D03*
%TD*%
D24*
%TO.P,D16,1*%
%TO.N,P18*%
X201546176Y-119100304D03*
D25*
X201395502Y-116945566D03*
%TO.P,D16,2*%
%TO.N,middle_number*%
X201165306Y-113653604D03*
D12*
X201014632Y-111498866D03*
%TD*%
D14*
%TO.P,D17,1*%
%TO.N,P21*%
X226301341Y-175114482D03*
D15*
X226282492Y-172954564D03*
%TO.P,D17,2*%
%TO.N,pointer_bottom*%
X226253694Y-169654690D03*
D12*
X226234845Y-167494772D03*
%TD*%
D10*
%TO.P,D5,1*%
%TO.N,P21*%
X163444784Y-181180653D03*
D11*
X163069703Y-179053468D03*
%TO.P,D5,2*%
%TO.N,pink2_bottom*%
X162496665Y-175803602D03*
D12*
X162121584Y-173676417D03*
%TD*%
D19*
%TO.P,S10,1*%
%TO.N,P4*%
X167742988Y-147061203D03*
D17*
%TO.P,S10,2*%
X169864272Y-149772897D03*
%TO.N,ring_middle*%
X178971195Y-154196011D03*
D20*
X179475008Y-147837214D03*
%TD*%
D28*
%TO.P,REF\u002A\u002A,1*%
%TO.N,VCC*%
X217528524Y-153630220D03*
%TO.P,REF\u002A\u002A,2*%
%TO.N,L14*%
X217518925Y-152530262D03*
%TO.P,REF\u002A\u002A,3*%
%TO.N,GND*%
X215688994Y-152546232D03*
%TO.P,REF\u002A\u002A,4*%
%TO.N,L15*%
X215698593Y-153646190D03*
%TD*%
D29*
%TO.P,D29,1*%
%TO.N,P19*%
X286406611Y-189959579D03*
D30*
X286947432Y-187868380D03*
%TO.P,D29,2*%
%TO.N,far2_thumb2*%
X287773686Y-184673492D03*
D12*
X288314507Y-182582293D03*
%TD*%
D21*
%TO.P,REF\u002A\u002A,1*%
%TO.N,VCC*%
X124951569Y-127489236D03*
%TO.P,REF\u002A\u002A,2*%
%TO.N,L06*%
X124760556Y-126405948D03*
%TO.P,REF\u002A\u002A,3*%
%TO.N,GND*%
X122958357Y-126723724D03*
%TO.P,REF\u002A\u002A,4*%
%TO.N,L07*%
X123149370Y-127807012D03*
%TD*%
D31*
%TO.P,REF\u002A\u002A,1*%
%TO.N,VCC*%
X192803512Y-117145399D03*
%TO.P,REF\u002A\u002A,2*%
%TO.N,L03*%
X192726780Y-116048079D03*
%TO.P,REF\u002A\u002A,3*%
%TO.N,GND*%
X190901238Y-116175733D03*
%TO.P,REF\u002A\u002A,4*%
%TO.N,L04*%
X190977970Y-117273053D03*
%TD*%
D32*
%TO.P,S17,1*%
%TO.N,P6*%
X213406750Y-161466487D03*
D17*
%TO.P,S17,2*%
X215207426Y-164400885D03*
%TO.N,pointer_bottom*%
X223755098Y-169826500D03*
D33*
X224975508Y-163565612D03*
%TD*%
D32*
%TO.P,S20,1*%
%TO.N,P6*%
X212909338Y-104468658D03*
D17*
%TO.P,S20,2*%
X214710014Y-107403056D03*
%TO.N,pointer_number*%
X223257686Y-112828671D03*
D33*
X224478096Y-106567783D03*
%TD*%
D10*
%TO.P,D6,1*%
%TO.N,P20*%
X160145469Y-162469306D03*
D11*
X159770388Y-160342121D03*
%TO.P,D6,2*%
%TO.N,pink2_middle*%
X159197350Y-157092255D03*
D12*
X158822269Y-154965070D03*
%TD*%
D13*
%TO.P,REF\u002A\u002A,1*%
%TO.N,VCC*%
X259373083Y-180324008D03*
%TO.P,REF\u002A\u002A,2*%
%TO.N,L26*%
X259648501Y-179259046D03*
%TO.P,REF\u002A\u002A,3*%
%TO.N,GND*%
X257876791Y-178800850D03*
%TO.P,REF\u002A\u002A,4*%
%TO.N,L27*%
X257601373Y-179865812D03*
%TD*%
D21*
%TO.P,REF\u002A\u002A,1*%
%TO.N,VCC*%
X128250884Y-146200583D03*
%TO.P,REF\u002A\u002A,2*%
%TO.N,L12*%
X128059871Y-145117295D03*
%TO.P,REF\u002A\u002A,3*%
%TO.N,GND*%
X126257672Y-145435071D03*
%TO.P,REF\u002A\u002A,4*%
%TO.N,L13*%
X126448685Y-146518359D03*
%TD*%
D28*
%TO.P,REF\u002A\u002A,1*%
%TO.N,VCC*%
X217362720Y-134630943D03*
%TO.P,REF\u002A\u002A,2*%
%TO.N,L08*%
X217353121Y-133530985D03*
%TO.P,REF\u002A\u002A,3*%
%TO.N,GND*%
X215523190Y-133546955D03*
%TO.P,REF\u002A\u002A,4*%
%TO.N,L09*%
X215532789Y-134646913D03*
%TD*%
D34*
%TO.P,S29,1*%
%TO.N,P14*%
X277483754Y-173439262D03*
D17*
%TO.P,S29,2*%
X278463595Y-176739722D03*
%TO.N,far2_thumb2*%
X285315759Y-184192764D03*
D35*
X288115023Y-178461076D03*
%TD*%
D21*
%TO.P,REF\u002A\u002A,1*%
%TO.N,VCC*%
X151246355Y-161438967D03*
%TO.P,REF\u002A\u002A,2*%
%TO.N,L17*%
X151055342Y-160355679D03*
%TO.P,REF\u002A\u002A,3*%
%TO.N,GND*%
X149253143Y-160673455D03*
%TO.P,REF\u002A\u002A,4*%
%TO.N,L18*%
X149444156Y-161756743D03*
%TD*%
%TO.P,REF\u002A\u002A,1*%
%TO.N,VCC*%
X144647724Y-124016272D03*
%TO.P,REF\u002A\u002A,2*%
%TO.N,L05*%
X144456711Y-122932984D03*
%TO.P,REF\u002A\u002A,3*%
%TO.N,GND*%
X142654512Y-123250760D03*
%TO.P,REF\u002A\u002A,4*%
%TO.N,L06*%
X142845525Y-124334048D03*
%TD*%
D34*
%TO.P,S25,1*%
%TO.N,P16*%
X234266974Y-181381498D03*
D17*
%TO.P,S25,2*%
X235246815Y-184681958D03*
%TO.N,near_thumb*%
X242098979Y-192135000D03*
D35*
X244898243Y-186403312D03*
%TD*%
D22*
%TO.P,S13,1*%
%TO.N,P5*%
X191818566Y-163126112D03*
D17*
%TO.P,S13,2*%
X193795024Y-165945109D03*
%TO.N,middle_bottom*%
X202657979Y-170838781D03*
D23*
X203493895Y-164515066D03*
%TD*%
D13*
%TO.P,REF\u002A\u002A,1*%
%TO.N,VCC*%
X235519256Y-193273844D03*
%TO.P,REF\u002A\u002A,2*%
%TO.N,L29*%
X235794674Y-192208882D03*
%TO.P,REF\u002A\u002A,3*%
%TO.N,GND*%
X234022964Y-191750686D03*
%TO.P,REF\u002A\u002A,4*%
%TO.N,L30*%
X233747546Y-192815648D03*
%TD*%
D10*
%TO.P,D1,1*%
%TO.N,P21*%
X143748629Y-184653616D03*
D11*
X143373548Y-182526431D03*
%TO.P,D1,2*%
%TO.N,pinky1_bottom*%
X142800510Y-179276565D03*
D12*
X142425429Y-177149380D03*
%TD*%
D14*
%TO.P,D18,1*%
%TO.N,P20*%
X226135537Y-156115205D03*
D15*
X226116688Y-153955287D03*
%TO.P,D18,2*%
%TO.N,pointer_middle*%
X226087890Y-150655413D03*
D12*
X226069041Y-148495495D03*
%TD*%
D16*
%TO.P,S4,1*%
%TO.N,P2*%
X118880365Y-117186975D03*
D17*
%TO.P,S4,2*%
X121140661Y-119783932D03*
%TO.N,pinky1_number*%
X130466592Y-123724365D03*
D18*
X130636920Y-117347915D03*
%TD*%
D36*
%TO.P,D10,1*%
%TO.N,P20*%
X182099687Y-159161758D03*
D37*
X181836449Y-157017858D03*
%TO.P,D10,2*%
%TO.N,ring_middle*%
X181434281Y-153742456D03*
D12*
X181171043Y-151598556D03*
%TD*%
D32*
%TO.P,S18,1*%
%TO.N,P6*%
X213240946Y-142467211D03*
D17*
%TO.P,S18,2*%
X215041622Y-145401609D03*
%TO.N,pointer_middle*%
X223589294Y-150827224D03*
D33*
X224809704Y-144566336D03*
%TD*%
D10*
%TO.P,D2,1*%
%TO.N,P20*%
X140449314Y-165942269D03*
D11*
X140074233Y-163815084D03*
%TO.P,D2,2*%
%TO.N,pinky1_middle*%
X139501195Y-160565218D03*
D12*
X139126114Y-158438033D03*
%TD*%
D21*
%TO.P,REF\u002A\u002A,1*%
%TO.N,VCC*%
X134849515Y-183623278D03*
%TO.P,REF\u002A\u002A,2*%
%TO.N,L24*%
X134658502Y-182539990D03*
%TO.P,REF\u002A\u002A,3*%
%TO.N,GND*%
X132856303Y-182857766D03*
%TO.P,REF\u002A\u002A,4*%
%TO.N,L25*%
X133047316Y-183941054D03*
%TD*%
D36*
%TO.P,D9,1*%
%TO.N,P21*%
X184415205Y-178020135D03*
D37*
X184151967Y-175876235D03*
%TO.P,D9,2*%
%TO.N,ring_bottom*%
X183749799Y-172600833D03*
D12*
X183486561Y-170456933D03*
%TD*%
D29*
%TO.P,D26,1*%
%TO.N,P20*%
X262552784Y-202909414D03*
D30*
X263093605Y-200818215D03*
%TO.P,D26,2*%
%TO.N,home_thumb*%
X263919859Y-197623327D03*
D12*
X264460680Y-195532128D03*
%TD*%
D28*
%TO.P,REF\u002A\u002A,1*%
%TO.N,VCC*%
X237693567Y-172454965D03*
%TO.P,REF\u002A\u002A,2*%
%TO.N,L19*%
X237683968Y-171355007D03*
%TO.P,REF\u002A\u002A,3*%
%TO.N,GND*%
X235854037Y-171370977D03*
%TO.P,REF\u002A\u002A,4*%
%TO.N,L20*%
X235863636Y-172470935D03*
%TD*%
D34*
%TO.P,S27,1*%
%TO.N,P14*%
X272992880Y-191396698D03*
D17*
%TO.P,S27,2*%
X273972721Y-194697158D03*
%TO.N,far_thumb*%
X280824885Y-202150200D03*
D35*
X283624149Y-196418512D03*
%TD*%
D10*
%TO.P,D4,1*%
%TO.N,P18*%
X133850683Y-128519575D03*
D11*
X133475602Y-126392390D03*
%TO.P,D4,2*%
%TO.N,pinky1_number*%
X132902564Y-123142524D03*
D12*
X132527483Y-121015339D03*
%TD*%
D16*
%TO.P,S3,1*%
%TO.N,P2*%
X122179680Y-135898323D03*
D17*
%TO.P,S3,2*%
X124439976Y-138495280D03*
%TO.N,pinky1_top*%
X133765907Y-142435713D03*
D18*
X133936235Y-136059263D03*
%TD*%
D31*
%TO.P,REF\u002A\u002A,1*%
%TO.N,VCC*%
X194128885Y-136099116D03*
%TO.P,REF\u002A\u002A,2*%
%TO.N,L09*%
X194052153Y-135001796D03*
%TO.P,REF\u002A\u002A,3*%
%TO.N,GND*%
X192226611Y-135129450D03*
%TO.P,REF\u002A\u002A,4*%
%TO.N,L10*%
X192303343Y-136226770D03*
%TD*%
D21*
%TO.P,REF\u002A\u002A,1*%
%TO.N,VCC*%
X147947039Y-142727619D03*
%TO.P,REF\u002A\u002A,2*%
%TO.N,L11*%
X147756026Y-141644331D03*
%TO.P,REF\u002A\u002A,3*%
%TO.N,GND*%
X145953827Y-141962107D03*
%TO.P,REF\u002A\u002A,4*%
%TO.N,L12*%
X146144840Y-143045395D03*
%TD*%
D32*
%TO.P,S21,1*%
%TO.N,P7*%
X233405989Y-161291956D03*
D17*
%TO.P,S21,2*%
X235206665Y-164226354D03*
%TO.N,pointer2_bottom*%
X243754337Y-169651969D03*
D33*
X244974747Y-163391081D03*
%TD*%
D26*
%TO.P,REF\u002A\u002A,1*%
%TO.N,VCC*%
X173266693Y-157667088D03*
%TO.P,REF\u002A\u002A,2*%
%TO.N,L16*%
X173132637Y-156575287D03*
%TO.P,REF\u002A\u002A,3*%
%TO.N,GND*%
X171316277Y-156798308D03*
%TO.P,REF\u002A\u002A,4*%
%TO.N,L17*%
X171450333Y-157890109D03*
%TD*%
D14*
%TO.P,D21,1*%
%TO.N,P21*%
X246300579Y-174939951D03*
D15*
X246281730Y-172780033D03*
%TO.P,D21,2*%
%TO.N,pointer2_bottom*%
X246252932Y-169480159D03*
D12*
X246234083Y-167320241D03*
%TD*%
D38*
%TO.P,,0*%
%TO.N,_1_0*%
X251571417Y-105111296D03*
D39*
X253571341Y-105093843D03*
D40*
%TO.N,P1*%
X254416309Y-105086469D03*
D17*
X255929252Y-105073266D03*
D38*
%TO.P,,1*%
%TO.N,_1_1*%
X251593583Y-107651199D03*
D39*
X253593507Y-107633746D03*
D40*
%TO.N,P0*%
X254438475Y-107626372D03*
D17*
X255951417Y-107613169D03*
D38*
%TO.P,,2*%
%TO.N,_1_2*%
X251615748Y-110191103D03*
D39*
X253615672Y-110173650D03*
D40*
%TO.N,GND*%
X254460640Y-110166276D03*
D17*
X255973582Y-110153072D03*
D38*
%TO.P,,3*%
%TO.N,_1_3*%
X251637914Y-112731006D03*
D39*
X253637837Y-112713553D03*
D40*
%TO.N,GND*%
X254482805Y-112706179D03*
D17*
X255995748Y-112692976D03*
D38*
%TO.P,,4*%
%TO.N,P2*%
X251660079Y-115270909D03*
%TO.P,,5*%
%TO.N,P3*%
X251682244Y-117810813D03*
%TO.P,,6*%
%TO.N,P4*%
X251704410Y-120350716D03*
%TO.P,,7*%
%TO.N,P5*%
X251726575Y-122890619D03*
%TO.P,,8*%
%TO.N,P6*%
X251748741Y-125430522D03*
%TO.P,,9*%
%TO.N,P7*%
X251770906Y-127970426D03*
%TO.P,,10*%
%TO.N,P8*%
X251793071Y-130510329D03*
%TO.P,,11*%
%TO.N,P9*%
X251815237Y-133050232D03*
D41*
%TO.P,,12*%
%TO.N,P10*%
X267054657Y-132917240D03*
%TO.P,,13*%
%TO.N,P16*%
X267032491Y-130377337D03*
%TO.P,,14*%
%TO.N,P14*%
X267010326Y-127837433D03*
%TO.P,,15*%
%TO.N,P15*%
X266988160Y-125297530D03*
%TO.P,,16*%
%TO.N,P18*%
X266965995Y-122757627D03*
%TO.P,,17*%
%TO.N,P19*%
X266943830Y-120217723D03*
%TO.P,,18*%
%TO.N,P20*%
X266921664Y-117677820D03*
%TO.P,,19*%
%TO.N,P21*%
X266899499Y-115137917D03*
D17*
%TO.P,,20*%
%TO.N,VCC*%
X262519499Y-112636044D03*
D42*
X264032442Y-112622841D03*
D43*
%TO.N,_1_20*%
X264877410Y-112615467D03*
D41*
X266877333Y-112598014D03*
D17*
%TO.P,,21*%
%TO.N,RST*%
X262497334Y-110096141D03*
D42*
X264010276Y-110082937D03*
D43*
%TO.N,_1_21*%
X264855244Y-110075563D03*
D41*
X266855168Y-110058110D03*
D17*
%TO.P,,22*%
%TO.N,GND*%
X262475168Y-107556237D03*
D42*
X263988111Y-107543034D03*
D43*
%TO.N,_1_22*%
X264833079Y-107535660D03*
D41*
X266833003Y-107518207D03*
D17*
%TO.P,,23*%
%TO.N,RAW*%
X262453003Y-105016334D03*
D42*
X263965945Y-105003131D03*
D43*
%TO.N,_1_23*%
X264810913Y-104995757D03*
D41*
X266810837Y-104978304D03*
%TD*%
D14*
%TO.P,D20,1*%
%TO.N,P18*%
X225803928Y-118116652D03*
D15*
X225785079Y-115956734D03*
%TO.P,D20,2*%
%TO.N,pointer_number*%
X225756281Y-112656860D03*
D12*
X225737432Y-110496942D03*
%TD*%
D36*
%TO.P,D12,1*%
%TO.N,P18*%
X177468652Y-121445004D03*
D37*
X177205414Y-119301104D03*
%TO.P,D12,2*%
%TO.N,ring_number*%
X176803246Y-116025702D03*
D12*
X176540008Y-113881802D03*
%TD*%
D26*
%TO.P,REF\u002A\u002A,1*%
%TO.N,VCC*%
X175582211Y-176525465D03*
%TO.P,REF\u002A\u002A,2*%
%TO.N,L22*%
X175448155Y-175433664D03*
%TO.P,REF\u002A\u002A,3*%
%TO.N,GND*%
X173631795Y-175656685D03*
%TO.P,REF\u002A\u002A,4*%
%TO.N,L23*%
X173765851Y-176748486D03*
%TD*%
D10*
%TO.P,D8,1*%
%TO.N,P18*%
X153546838Y-125046611D03*
D11*
X153171757Y-122919426D03*
%TO.P,D8,2*%
%TO.N,pink2_number*%
X152598719Y-119669560D03*
D12*
X152223638Y-117542375D03*
%TD*%
D32*
%TO.P,S23,1*%
%TO.N,P7*%
X233074380Y-123293403D03*
D17*
%TO.P,S23,2*%
X234875056Y-126227801D03*
%TO.N,pointer2_top*%
X243422728Y-131653416D03*
D33*
X244643138Y-125392528D03*
%TD*%
D28*
%TO.P,REF\u002A\u002A,1*%
%TO.N,VCC*%
X237361958Y-134456412D03*
%TO.P,REF\u002A\u002A,2*%
%TO.N,L07*%
X237352359Y-133356454D03*
%TO.P,REF\u002A\u002A,3*%
%TO.N,GND*%
X235522428Y-133372424D03*
%TO.P,REF\u002A\u002A,4*%
%TO.N,L08*%
X235532027Y-134472382D03*
%TD*%
D26*
%TO.P,REF\u002A\u002A,1*%
%TO.N,VCC*%
X168635658Y-119950334D03*
%TO.P,REF\u002A\u002A,2*%
%TO.N,L04*%
X168501602Y-118858533D03*
%TO.P,REF\u002A\u002A,3*%
%TO.N,GND*%
X166685242Y-119081554D03*
%TO.P,REF\u002A\u002A,4*%
%TO.N,L05*%
X166819298Y-120173355D03*
%TD*%
D28*
%TO.P,REF\u002A\u002A,1*%
%TO.N,VCC*%
X217694328Y-172629496D03*
%TO.P,REF\u002A\u002A,2*%
%TO.N,L20*%
X217684729Y-171529538D03*
%TO.P,REF\u002A\u002A,3*%
%TO.N,GND*%
X215854798Y-171545508D03*
%TO.P,REF\u002A\u002A,4*%
%TO.N,L21*%
X215864397Y-172645466D03*
%TD*%
D22*
%TO.P,S16,1*%
%TO.N,P5*%
X187842447Y-106264961D03*
D17*
%TO.P,S16,2*%
X189818905Y-109083958D03*
%TO.N,middle_number*%
X198681860Y-113977630D03*
D23*
X199517776Y-107653915D03*
%TD*%
D14*
%TO.P,D19,1*%
%TO.N,P19*%
X225969732Y-137115929D03*
D15*
X225950883Y-134956011D03*
%TO.P,D19,2*%
%TO.N,pointer_top*%
X225922085Y-131656137D03*
D12*
X225903236Y-129496219D03*
%TD*%
D32*
%TO.P,S19,1*%
%TO.N,P6*%
X213075142Y-123467934D03*
D17*
%TO.P,S19,2*%
X214875818Y-126402332D03*
%TO.N,pointer_top*%
X223423490Y-131827947D03*
D33*
X224643900Y-125567059D03*
%TD*%
D14*
%TO.P,D24,1*%
%TO.N,P18*%
X245803167Y-117942121D03*
D15*
X245784318Y-115782203D03*
%TO.P,D24,2*%
%TO.N,pointer2_number*%
X245755520Y-112482329D03*
D12*
X245736671Y-110322411D03*
%TD*%
D14*
%TO.P,D22,1*%
%TO.N,P20*%
X246134775Y-155940674D03*
D15*
X246115926Y-153780756D03*
%TO.P,D22,2*%
%TO.N,pointer2_middle*%
X246087128Y-150480882D03*
D12*
X246068279Y-148320964D03*
%TD*%
D28*
%TO.P,REF\u002A\u002A,1*%
%TO.N,VCC*%
X237527762Y-153455689D03*
%TO.P,REF\u002A\u002A,2*%
%TO.N,L13*%
X237518163Y-152355731D03*
%TO.P,REF\u002A\u002A,3*%
%TO.N,GND*%
X235688232Y-152371701D03*
%TO.P,REF\u002A\u002A,4*%
%TO.N,L14*%
X235697831Y-153471659D03*
%TD*%
D19*
%TO.P,S12,1*%
%TO.N,P4*%
X163111953Y-109344449D03*
D17*
%TO.P,S12,2*%
X165233237Y-112056143D03*
%TO.N,ring_number*%
X174340160Y-116479257D03*
D20*
X174843973Y-110120460D03*
%TD*%
D24*
%TO.P,D14,1*%
%TO.N,P20*%
X204196922Y-157007738D03*
D25*
X204046248Y-154853000D03*
%TO.P,D14,2*%
%TO.N,middle_middle*%
X203816052Y-151561038D03*
D12*
X203665378Y-149406300D03*
%TD*%
D24*
%TO.P,D13,1*%
%TO.N,P21*%
X205522295Y-175961455D03*
D25*
X205371621Y-173806717D03*
%TO.P,D13,2*%
%TO.N,middle_bottom*%
X205141425Y-170514755D03*
D12*
X204990751Y-168360017D03*
%TD*%
D36*
%TO.P,D11,1*%
%TO.N,P19*%
X179784170Y-140303381D03*
D37*
X179520932Y-138159481D03*
%TO.P,D11,2*%
%TO.N,ring_top*%
X179118764Y-134884079D03*
D12*
X178855526Y-132740179D03*
%TD*%
D16*
%TO.P,S6,1*%
%TO.N,P3*%
X145175150Y-151136706D03*
D17*
%TO.P,S6,2*%
X147435446Y-153733663D03*
%TO.N,pink2_middle*%
X156761377Y-157674096D03*
D18*
X156931705Y-151297646D03*
%TD*%
D29*
%TO.P,D25,1*%
%TO.N,P21*%
X243189831Y-197901814D03*
D30*
X243730652Y-195810615D03*
%TO.P,D25,2*%
%TO.N,near_thumb*%
X244556906Y-192615727D03*
D12*
X245097727Y-190524528D03*
%TD*%
D13*
%TO.P,REF\u002A\u002A,1*%
%TO.N,VCC*%
X274245162Y-203289044D03*
%TO.P,REF\u002A\u002A,2*%
%TO.N,L27*%
X274520580Y-202224082D03*
%TO.P,REF\u002A\u002A,3*%
%TO.N,GND*%
X272748870Y-201765886D03*
%TO.P,REF\u002A\u002A,4*%
%TO.N,L28*%
X272473452Y-202830848D03*
%TD*%
D32*
%TO.P,S22,1*%
%TO.N,P7*%
X233240185Y-142292680D03*
D17*
%TO.P,S22,2*%
X235040861Y-145227078D03*
%TO.N,pointer2_middle*%
X243588533Y-150652693D03*
D33*
X244808943Y-144391805D03*
%TD*%
D16*
%TO.P,S5,1*%
%TO.N,P3*%
X148474466Y-169848054D03*
D17*
%TO.P,S5,2*%
X150734762Y-172445011D03*
%TO.N,pink2_bottom*%
X160060693Y-176385444D03*
D18*
X160231021Y-170008994D03*
%TD*%
D13*
%TO.P,REF\u002A\u002A,1*%
%TO.N,VCC*%
X278736036Y-185331608D03*
%TO.P,REF\u002A\u002A,2*%
%TO.N,L25*%
X279011454Y-184266646D03*
%TO.P,REF\u002A\u002A,3*%
%TO.N,GND*%
X277239744Y-183808450D03*
%TO.P,REF\u002A\u002A,4*%
%TO.N,L26*%
X276964326Y-184873412D03*
%TD*%
D29*
%TO.P,D27,1*%
%TO.N,P20*%
X281915737Y-207917014D03*
D30*
X282456558Y-205825815D03*
%TO.P,D27,2*%
%TO.N,far_thumb*%
X283282812Y-202630927D03*
D12*
X283823633Y-200539728D03*
%TD*%
D31*
%TO.P,REF\u002A\u002A,1*%
%TO.N,VCC*%
X196779631Y-174006550D03*
%TO.P,REF\u002A\u002A,2*%
%TO.N,L21*%
X196702899Y-172909230D03*
%TO.P,REF\u002A\u002A,3*%
%TO.N,GND*%
X194877357Y-173036884D03*
%TO.P,REF\u002A\u002A,4*%
%TO.N,L22*%
X194954089Y-174134204D03*
%TD*%
%TO.P,REF\u002A\u002A,1*%
%TO.N,VCC*%
X195454258Y-155052833D03*
%TO.P,REF\u002A\u002A,2*%
%TO.N,L15*%
X195377526Y-153955513D03*
%TO.P,REF\u002A\u002A,3*%
%TO.N,GND*%
X193551984Y-154083167D03*
%TO.P,REF\u002A\u002A,4*%
%TO.N,L16*%
X193628716Y-155180487D03*
%TD*%
D32*
%TO.P,S24,1*%
%TO.N,P7*%
X232908576Y-104294127D03*
D17*
%TO.P,S24,2*%
X234709252Y-107228525D03*
%TO.N,pointer2_number*%
X243256924Y-112654140D03*
D33*
X244477334Y-106393252D03*
%TD*%
D28*
%TO.P,REF\u002A\u002A,1*%
%TO.N,VCC*%
X237196154Y-115457136D03*
%TO.P,REF\u002A\u002A,2*%
%TO.N,P8*%
X237186555Y-114357178D03*
%TO.P,REF\u002A\u002A,3*%
%TO.N,GND*%
X235356624Y-114373148D03*
%TO.P,REF\u002A\u002A,4*%
%TO.N,L02*%
X235366223Y-115473106D03*
%TD*%
D16*
%TO.P,S1,1*%
%TO.N,P2*%
X128778311Y-173321017D03*
D17*
%TO.P,S1,2*%
X131038607Y-175917974D03*
%TO.N,pinky1_bottom*%
X140364538Y-179858407D03*
D18*
X140534866Y-173481957D03*
%TD*%
D34*
%TO.P,S26,1*%
%TO.N,P16*%
X253629927Y-186389098D03*
D17*
%TO.P,S26,2*%
X254609768Y-189689558D03*
%TO.N,home_thumb*%
X261461932Y-197142600D03*
D35*
X264261196Y-191410912D03*
%TD*%
D10*
%TO.P,D3,1*%
%TO.N,P19*%
X137149998Y-147230922D03*
D11*
X136774917Y-145103737D03*
%TO.P,D3,2*%
%TO.N,pinky1_top*%
X136201879Y-141853871D03*
D12*
X135826798Y-139726686D03*
%TD*%
D22*
%TO.P,S15,1*%
%TO.N,P5*%
X189167820Y-125218678D03*
D17*
%TO.P,S15,2*%
X191144278Y-128037675D03*
%TO.N,middle_top*%
X200007233Y-132931347D03*
D23*
X200843149Y-126607632D03*
%TD*%
D16*
%TO.P,S8,1*%
%TO.N,P3*%
X138576520Y-113714012D03*
D17*
%TO.P,S8,2*%
X140836816Y-116310969D03*
%TO.N,pink2_number*%
X150162747Y-120251402D03*
D18*
X150333075Y-113874952D03*
%TD*%
D29*
%TO.P,D28,1*%
%TO.N,P19*%
X267043658Y-184951979D03*
D30*
X267584479Y-182860780D03*
%TO.P,D28,2*%
%TO.N,home2_thumb2*%
X268410733Y-179665892D03*
D12*
X268951554Y-177574693D03*
%TD*%
D34*
%TO.P,S28,1*%
%TO.N,P16*%
X258120801Y-168431662D03*
D17*
%TO.P,S28,2*%
X259100642Y-171732122D03*
%TO.N,home2_thumb2*%
X265952806Y-179185164D03*
D35*
X268752070Y-173453476D03*
%TD*%
D44*
%TO.N,P20*%
X271018000Y-117602000D03*
%TO.N,P19*%
X271018000Y-120142000D03*
%TO.N,P8*%
X238506000Y-114300000D03*
%TO.N,VCC*%
X219202000Y-115824000D03*
X195834000Y-135890000D03*
X239776000Y-153416000D03*
X170180000Y-119950334D03*
X149860000Y-142748000D03*
X242316000Y-177038000D03*
X276606000Y-203289044D03*
X126746000Y-127508000D03*
X157988000Y-184404000D03*
X195326000Y-117094000D03*
X136906000Y-183388000D03*
X197358000Y-154940000D03*
X281432000Y-185166000D03*
X219710000Y-172720000D03*
X237490000Y-193802000D03*
X180340000Y-180340000D03*
X129794000Y-145796000D03*
X200660000Y-178054000D03*
X220980000Y-177038000D03*
X175260000Y-157480000D03*
X261874000Y-180594000D03*
X239776000Y-172466000D03*
X257048000Y-198628000D03*
X239014000Y-134620000D03*
X218948000Y-134620000D03*
X239268000Y-115570000D03*
X172720000Y-138684000D03*
X219710000Y-153670000D03*
X133604000Y-164846000D03*
X198882000Y-173990000D03*
X146558000Y-123952000D03*
X156718000Y-179832000D03*
X153162000Y-161036000D03*
X177800000Y-176276000D03*
X141732000Y-186690000D03*
X265430000Y-166624000D03*
%TO.N,GND*%
X150368000Y-179578000D03*
X229870000Y-103886000D03*
X188722000Y-116332000D03*
X160020000Y-109220000D03*
X135382000Y-113792000D03*
X147320000Y-161036000D03*
X233934000Y-133350000D03*
X165354000Y-119126000D03*
X120650000Y-127000000D03*
X213360000Y-152654000D03*
X233680000Y-152371701D03*
X191516000Y-154178000D03*
X274574000Y-183642000D03*
X256032000Y-200406000D03*
X251714000Y-196342000D03*
X233934000Y-171450000D03*
X232410000Y-191262000D03*
X192532000Y-173228000D03*
X232918000Y-114300000D03*
X143764000Y-142240000D03*
X169418000Y-156798308D03*
X171196000Y-176022000D03*
X141224000Y-123444000D03*
X184658000Y-105918000D03*
X213614000Y-171450000D03*
X213360000Y-114554000D03*
X245364000Y-98044000D03*
X209804000Y-103886000D03*
X255561000Y-178816000D03*
X213868000Y-133350000D03*
X258318000Y-200406000D03*
X127699582Y-164146418D03*
X190500000Y-135128000D03*
X130556000Y-183134000D03*
X167386000Y-138176000D03*
X270510000Y-201676000D03*
X124206000Y-145796000D03*
%TO.N,L02*%
X233934000Y-115570000D03*
X218440000Y-114554000D03*
%TO.N,L03*%
X213868000Y-115824000D03*
X194310000Y-115824000D03*
%TO.N,L04*%
X170180000Y-118364000D03*
X189484000Y-117602000D03*
%TO.N,L05*%
X165354000Y-120396000D03*
X146050000Y-122613996D03*
%TO.N,L06*%
X126186808Y-126253997D03*
X141224000Y-124714000D03*
%TO.N,L07*%
X121666000Y-128270000D03*
X239014000Y-133350000D03*
X120392942Y-129543539D03*
X238760000Y-120142000D03*
%TO.N,L08*%
X218948000Y-133350000D03*
X234188000Y-134620000D03*
%TO.N,L09*%
X214122000Y-134874000D03*
X195580000Y-134620000D03*
%TO.N,L10*%
X172466000Y-137160000D03*
X190500000Y-136652000D03*
%TO.N,L11*%
X167640000Y-139446000D03*
X149352000Y-141224000D03*
%TO.N,L12*%
X144780000Y-143510000D03*
X129540000Y-144526000D03*
%TO.N,L13*%
X239014000Y-152400000D03*
X238506000Y-138938000D03*
X124968000Y-147066000D03*
%TO.N,L30*%
X232664000Y-192532000D03*
%TO.N,L14*%
X218948000Y-152400000D03*
X234442000Y-153416000D03*
%TO.N,L15*%
X214376000Y-153670000D03*
X196850000Y-153924000D03*
%TO.N,L16*%
X174498000Y-156464000D03*
X192278000Y-155448000D03*
%TO.N,L17*%
X170180000Y-157988000D03*
X152400000Y-160020000D03*
%TO.N,L18*%
X148336000Y-162052000D03*
X132842000Y-163576000D03*
%TO.N,L19*%
X238919007Y-171355007D03*
X238992975Y-157982942D03*
X128524000Y-165354000D03*
%TO.N,L20*%
X218948000Y-171450000D03*
X234696000Y-172466000D03*
%TO.N,L21*%
X198120000Y-172720000D03*
X214630000Y-172720000D03*
%TO.N,L22*%
X176784000Y-175260000D03*
X193548000Y-174244000D03*
%TO.N,L23*%
X172466000Y-177038000D03*
X155702000Y-178816000D03*
%TO.N,L24*%
X151384000Y-180848000D03*
X135890000Y-182118000D03*
%TO.N,L25*%
X131826000Y-184404000D03*
X280416000Y-184658000D03*
%TO.N,L26*%
X275336000Y-184658000D03*
X260858000Y-180340000D03*
%TO.N,L27*%
X279654000Y-189738000D03*
X275844000Y-202438000D03*
X256286000Y-179578000D03*
%TO.N,L28*%
X256286000Y-197612000D03*
X271272000Y-202438000D03*
%TO.N,L29*%
X236982000Y-192532000D03*
X251968000Y-197612000D03*
%TD*%
D45*
%TO.N,P2*%
X120650000Y-113538000D02*
X133858000Y-113538000D01*
X140208000Y-111252000D02*
X144780000Y-106680000D01*
X127739291Y-157206627D02*
X127000000Y-157945918D01*
X128778311Y-168402311D02*
X128778311Y-173321017D01*
X192805208Y-99292000D02*
X246612000Y-99292000D01*
X123444000Y-141150098D02*
X127179145Y-144885243D01*
X128778000Y-168402000D02*
X128778311Y-168402311D01*
X127179145Y-147902855D02*
X125478995Y-149603005D01*
X250144909Y-115270909D02*
X249682000Y-114808000D01*
X127179145Y-144885243D02*
X127179145Y-147902855D01*
X133858000Y-113538000D02*
X136144000Y-111252000D01*
X118880365Y-115307635D02*
X120650000Y-113538000D01*
X246612000Y-99292000D02*
X249682000Y-102362000D01*
X144780000Y-106680000D02*
X164503610Y-106680000D01*
X168197610Y-102986000D02*
X189111208Y-102986000D01*
X136144000Y-111252000D02*
X140208000Y-111252000D01*
X127000000Y-160274000D02*
X130478461Y-163752461D01*
X121140661Y-119783932D02*
X120740661Y-120183932D01*
X118880365Y-117186975D02*
X118880365Y-115307635D01*
X123444000Y-139491256D02*
X123444000Y-141150098D01*
X120740661Y-123357042D02*
X123952000Y-126568381D01*
X128780000Y-173320000D02*
X131040000Y-175920000D01*
X164503610Y-106680000D02*
X168197610Y-102986000D01*
X130478461Y-163752461D02*
X130478461Y-166193539D01*
X118880000Y-117190000D02*
X121140000Y-119780000D01*
X122179680Y-130804320D02*
X122179680Y-135898323D01*
X120740661Y-120183932D02*
X120740661Y-123357042D01*
X125478995Y-149603005D02*
X125478995Y-154609670D01*
X251660079Y-115270909D02*
X250144909Y-115270909D01*
X123952000Y-126568381D02*
X123952000Y-129032000D01*
X128778000Y-167894000D02*
X128778000Y-168402000D01*
X124439976Y-138495280D02*
X123444000Y-139491256D01*
X189111208Y-102986000D02*
X192805208Y-99292000D01*
X125480000Y-154610000D02*
X127740000Y-157210000D01*
X249682000Y-102362000D02*
X249682000Y-114808000D01*
X123952000Y-129032000D02*
X122179680Y-130804320D01*
X122180000Y-135900000D02*
X124440000Y-138500000D01*
X130478461Y-166193539D02*
X128778000Y-167894000D01*
X127000000Y-157945918D02*
X127000000Y-160274000D01*
%TO.N,pinky1_bottom*%
X140530000Y-173480000D02*
X140360000Y-179860000D01*
X142800000Y-179280000D02*
X142430000Y-177150000D01*
%TO.N,pinky1_middle*%
X137240000Y-154770000D02*
X137070000Y-161150000D01*
X139500000Y-160570000D02*
X139130000Y-158440000D01*
%TO.N,pinky1_top*%
X136200000Y-141850000D02*
X135830000Y-139730000D01*
X133940000Y-136060000D02*
X133770000Y-142440000D01*
%TO.N,pinky1_number*%
X132900000Y-123140000D02*
X132530000Y-121020000D01*
X130640000Y-117350000D02*
X130470000Y-123720000D01*
%TO.N,P3*%
X148474466Y-164707534D02*
X148474466Y-169848054D01*
X143256000Y-135902447D02*
X143256000Y-137922000D01*
X147435446Y-153733663D02*
X146558000Y-154611109D01*
X141880000Y-132430000D02*
X144140000Y-135020000D01*
X250398813Y-117810813D02*
X251682244Y-117810813D01*
X147066000Y-144272000D02*
X145175150Y-146162850D01*
X146558000Y-156739506D02*
X150174616Y-160356122D01*
X192991604Y-99742000D02*
X246305584Y-99742000D01*
X145175150Y-146162850D02*
X145175150Y-151136706D01*
X144136131Y-135022316D02*
X143256000Y-135902447D01*
X138580000Y-113710000D02*
X140840000Y-116310000D01*
X139954000Y-117193785D02*
X139954000Y-119401262D01*
X189297604Y-103436000D02*
X192991604Y-99742000D01*
X249174000Y-102610416D02*
X249174000Y-116586000D01*
X148470000Y-169850000D02*
X150730000Y-172450000D01*
X143764000Y-125476000D02*
X141875835Y-127364165D01*
X164632006Y-107188000D02*
X168384006Y-103436000D01*
X146558000Y-154611109D02*
X146558000Y-156739506D01*
X139954000Y-119401262D02*
X143764000Y-123211262D01*
X138576520Y-113714012D02*
X145102532Y-107188000D01*
X147066000Y-141732000D02*
X147066000Y-144272000D01*
X168384006Y-103436000D02*
X189297604Y-103436000D01*
X141875835Y-127364165D02*
X141875835Y-132425359D01*
X145180000Y-151140000D02*
X147440000Y-153730000D01*
X150174616Y-160356122D02*
X150174616Y-163007384D01*
X249174000Y-116586000D02*
X250398813Y-117810813D01*
X150174616Y-163007384D02*
X148474466Y-164707534D01*
X145102532Y-107188000D02*
X164632006Y-107188000D01*
X143256000Y-137922000D02*
X147066000Y-141732000D01*
X246305584Y-99742000D02*
X249174000Y-102610416D01*
X143764000Y-123211262D02*
X143764000Y-125476000D01*
X140836816Y-116310969D02*
X139954000Y-117193785D01*
%TO.N,pink2_bottom*%
X160230000Y-170010000D02*
X160060000Y-176390000D01*
X162500000Y-175800000D02*
X162120000Y-173680000D01*
%TO.N,pink2_middle*%
X159200000Y-157090000D02*
X158820000Y-154970000D01*
X156930000Y-151300000D02*
X156760000Y-157670000D01*
%TO.N,pink2_top*%
X155900000Y-138380000D02*
X155520000Y-136250000D01*
X153630000Y-132590000D02*
X153460000Y-138960000D01*
%TO.N,pink2_number*%
X152600000Y-119670000D02*
X152220000Y-117540000D01*
X150330000Y-113870000D02*
X150160000Y-120250000D01*
%TO.N,P4*%
X172212000Y-156464000D02*
X172212000Y-159004000D01*
X170058506Y-161157494D02*
X170058506Y-165919580D01*
X189484000Y-103886000D02*
X193178000Y-100192000D01*
X248666000Y-119634000D02*
X249382716Y-120350716D01*
X246119188Y-100192000D02*
X248666000Y-102738812D01*
X167742988Y-142899012D02*
X167742988Y-147061203D01*
X193178000Y-100192000D02*
X246119188Y-100192000D01*
X163110000Y-109340000D02*
X165230000Y-112060000D01*
X166624000Y-131839275D02*
X166624000Y-134112000D01*
X169926000Y-140716000D02*
X167742988Y-142899012D01*
X165427471Y-124132529D02*
X165427471Y-128202826D01*
X172212000Y-159004000D02*
X170058506Y-161157494D01*
X164833237Y-112456143D02*
X164833237Y-116075147D01*
X167640000Y-121920000D02*
X165427471Y-124132529D01*
X163111953Y-109344449D02*
X168570402Y-103886000D01*
X169926000Y-137414000D02*
X169926000Y-140716000D01*
X170060000Y-165920000D02*
X172180000Y-168630000D01*
X249382716Y-120350716D02*
X251704410Y-120350716D01*
X168910000Y-153162000D02*
X172212000Y-156464000D01*
X164833237Y-116075147D02*
X167640000Y-118881910D01*
X167640000Y-118881910D02*
X167640000Y-121920000D01*
X169864272Y-149772897D02*
X168910000Y-150727169D01*
X166624000Y-134112000D02*
X169926000Y-137414000D01*
X165430000Y-128200000D02*
X167550000Y-130910000D01*
X167740000Y-147060000D02*
X169860000Y-149770000D01*
X165233237Y-112056143D02*
X164833237Y-112456143D01*
X168910000Y-150727169D02*
X168910000Y-153162000D01*
X168570402Y-103886000D02*
X189484000Y-103886000D01*
X167548755Y-130914520D02*
X166624000Y-131839275D01*
X248666000Y-102738812D02*
X248666000Y-119634000D01*
%TO.N,ring_bottom*%
X183750000Y-172600000D02*
X183490000Y-170460000D01*
X181790000Y-166700000D02*
X181290000Y-173050000D01*
%TO.N,ring_middle*%
X181430000Y-153740000D02*
X181170000Y-151600000D01*
X179480000Y-147840000D02*
X178970000Y-154200000D01*
%TO.N,ring_top*%
X179120000Y-134880000D02*
X178860000Y-132740000D01*
X177160000Y-128980000D02*
X176660000Y-135340000D01*
%TO.N,ring_number*%
X176800000Y-116030000D02*
X176540000Y-113880000D01*
X174840000Y-110120000D02*
X174340000Y-116480000D01*
%TO.N,P5*%
X191770000Y-150622000D02*
X194564000Y-153416000D01*
X187840000Y-106260000D02*
X189820000Y-109080000D01*
X190500000Y-128681953D02*
X190500000Y-131826000D01*
X189818905Y-109083958D02*
X189230000Y-109672863D01*
X193040000Y-137922000D02*
X190493193Y-140468807D01*
X194564000Y-153416000D02*
X194564000Y-156718000D01*
X190490000Y-144170000D02*
X192470000Y-146990000D01*
X191770000Y-115570000D02*
X191770000Y-118872000D01*
X189167820Y-121474180D02*
X189167820Y-125218678D01*
X189230000Y-109672863D02*
X189230000Y-113030000D01*
X192469651Y-146991392D02*
X191770000Y-147691043D01*
X248158000Y-102867208D02*
X248158000Y-122174000D01*
X191820000Y-163130000D02*
X193800000Y-165950000D01*
X248874619Y-122890619D02*
X251726575Y-122890619D01*
X191818566Y-159463434D02*
X191818566Y-163126112D01*
X189170000Y-125220000D02*
X191140000Y-128040000D01*
X189230000Y-113030000D02*
X191770000Y-115570000D01*
X193465408Y-100642000D02*
X245932792Y-100642000D01*
X248158000Y-122174000D02*
X248874619Y-122890619D01*
X245932792Y-100642000D02*
X248158000Y-102867208D01*
X191770000Y-147691043D02*
X191770000Y-150622000D01*
X194564000Y-156718000D02*
X191818566Y-159463434D01*
X190500000Y-131826000D02*
X193040000Y-134366000D01*
X187842447Y-106264961D02*
X193465408Y-100642000D01*
X193040000Y-134366000D02*
X193040000Y-137922000D01*
X191770000Y-118872000D02*
X189167820Y-121474180D01*
X190493193Y-140468807D02*
X190493193Y-144172395D01*
X191144278Y-128037675D02*
X190500000Y-128681953D01*
%TO.N,middle_bottom*%
X203490000Y-164520000D02*
X202660000Y-170840000D01*
X205140000Y-170510000D02*
X204990000Y-168360000D01*
%TO.N,middle_middle*%
X202170000Y-145560000D02*
X201330000Y-151890000D01*
X203820000Y-151560000D02*
X203670000Y-149410000D01*
%TO.N,middle_top*%
X202490000Y-132610000D02*
X202340000Y-130450000D01*
X200840000Y-126610000D02*
X200010000Y-132930000D01*
%TO.N,middle_number*%
X201170000Y-113650000D02*
X201010000Y-111500000D01*
X199520000Y-107650000D02*
X198680000Y-113980000D01*
%TO.N,P6*%
X214122000Y-127156150D02*
X214122000Y-130556000D01*
X216154000Y-113861351D02*
X216154000Y-116840000D01*
X213406750Y-158449250D02*
X213406750Y-161466487D01*
X216285996Y-101092000D02*
X245746396Y-101092000D01*
X247650000Y-102995604D02*
X247650000Y-124460000D01*
X245746396Y-101092000D02*
X247650000Y-102995604D01*
X213240000Y-142470000D02*
X215040000Y-145400000D01*
X216210830Y-139497327D02*
X213240946Y-142467211D01*
X213410000Y-161470000D02*
X215210000Y-164400000D01*
X213868000Y-108245070D02*
X213868000Y-111575351D01*
X213080000Y-123470000D02*
X214880000Y-126400000D01*
X213075142Y-119918858D02*
X213075142Y-123467934D01*
X247650000Y-124460000D02*
X248620522Y-125430522D01*
X216210830Y-132644830D02*
X216210830Y-139497327D01*
X214875818Y-126402332D02*
X214122000Y-127156150D01*
X216662000Y-152146000D02*
X216662000Y-155194000D01*
X215041622Y-145401609D02*
X214122000Y-146321231D01*
X212910000Y-104470000D02*
X214710000Y-107400000D01*
X214122000Y-130556000D02*
X216210830Y-132644830D01*
X216662000Y-155194000D02*
X213406750Y-158449250D01*
X248620522Y-125430522D02*
X251748741Y-125430522D01*
X216154000Y-116840000D02*
X213075142Y-119918858D01*
X214122000Y-146321231D02*
X214122000Y-149606000D01*
X212909338Y-104468658D02*
X216285996Y-101092000D01*
X213868000Y-111575351D02*
X216154000Y-113861351D01*
X214710014Y-107403056D02*
X213868000Y-108245070D01*
X214122000Y-149606000D02*
X216662000Y-152146000D01*
%TO.N,pointer_bottom*%
X226250000Y-169650000D02*
X226230000Y-167490000D01*
X224980000Y-163570000D02*
X223760000Y-169830000D01*
%TO.N,pointer_middle*%
X226090000Y-150660000D02*
X226070000Y-148500000D01*
X224810000Y-144570000D02*
X223590000Y-150830000D01*
%TO.N,pointer_top*%
X224640000Y-125570000D02*
X223420000Y-131830000D01*
X225920000Y-131660000D02*
X225900000Y-129500000D01*
%TO.N,pointer_number*%
X225760000Y-112660000D02*
X225740000Y-110500000D01*
X224480000Y-106570000D02*
X223260000Y-112830000D01*
%TO.N,P7*%
X232910000Y-104290000D02*
X234710000Y-107230000D01*
X234709252Y-107228525D02*
X233426000Y-108511777D01*
X233426000Y-108511777D02*
X233426000Y-110998000D01*
X233070000Y-123290000D02*
X234880000Y-126230000D01*
X236474000Y-137668000D02*
X233240185Y-140901815D01*
X236474000Y-154432000D02*
X233405989Y-157500011D01*
X234875056Y-126227801D02*
X233680000Y-127422857D01*
X233426000Y-110998000D02*
X236220000Y-113792000D01*
X233934000Y-146333939D02*
X233934000Y-149098000D01*
X232908576Y-104294127D02*
X235602703Y-101600000D01*
X247142000Y-126746000D02*
X248366426Y-127970426D01*
X235602703Y-101600000D02*
X245618000Y-101600000D01*
X233410000Y-161290000D02*
X235210000Y-164230000D01*
X236474000Y-151638000D02*
X236474000Y-154432000D01*
X235040861Y-145227078D02*
X233934000Y-146333939D01*
X236474000Y-132842000D02*
X236474000Y-137668000D01*
X245618000Y-101600000D02*
X247142000Y-103124000D01*
X233240000Y-142290000D02*
X235040000Y-145230000D01*
X233680000Y-127422857D02*
X233680000Y-130048000D01*
X233680000Y-130048000D02*
X236474000Y-132842000D01*
X233405989Y-157500011D02*
X233405989Y-161291956D01*
X233934000Y-149098000D02*
X236474000Y-151638000D01*
X248366426Y-127970426D02*
X251770906Y-127970426D01*
X247142000Y-103124000D02*
X247142000Y-126746000D01*
X233240185Y-140901815D02*
X233240185Y-142292680D01*
X236220000Y-113792000D02*
X236220000Y-120147783D01*
X236220000Y-120147783D02*
X233074380Y-123293403D01*
%TO.N,pointer2_bottom*%
X246250000Y-169480000D02*
X246230000Y-167320000D01*
X244970000Y-163390000D02*
X243750000Y-169650000D01*
%TO.N,pointer2_middle*%
X244810000Y-144390000D02*
X243590000Y-150650000D01*
X246090000Y-150480000D02*
X246070000Y-148320000D01*
%TO.N,pointer2_top*%
X245920000Y-131480000D02*
X245900000Y-129320000D01*
X244640000Y-125390000D02*
X243420000Y-131650000D01*
%TO.N,pointer2_number*%
X245760000Y-112480000D02*
X245740000Y-110320000D01*
X244480000Y-106390000D02*
X243260000Y-112650000D01*
%TO.N,P14*%
X270764000Y-166719508D02*
X270764000Y-128778000D01*
X270764000Y-128778000D02*
X269823433Y-127837433D01*
X276860000Y-182291382D02*
X277991229Y-183422611D01*
X277622000Y-185308320D02*
X277622000Y-186767578D01*
X278463595Y-176739722D02*
X276860000Y-178343317D01*
X272990000Y-191400000D02*
X273970000Y-194700000D01*
X276860000Y-178343317D02*
X276860000Y-182291382D01*
X277480000Y-173440000D02*
X278460000Y-176740000D01*
X277991229Y-183422611D02*
X277991229Y-184939091D01*
X277483754Y-173439262D02*
X270764000Y-166719508D01*
X277991229Y-184939091D02*
X277622000Y-185308320D01*
X277622000Y-186767578D02*
X272992880Y-191396698D01*
X269823433Y-127837433D02*
X267010326Y-127837433D01*
%TO.N,near_thumb*%
X244560000Y-192620000D02*
X245100000Y-190520000D01*
X244900000Y-186400000D02*
X242100000Y-192130000D01*
%TO.N,home_thumb*%
X264260000Y-191410000D02*
X261460000Y-197140000D01*
X263920000Y-197620000D02*
X264460000Y-195530000D01*
%TO.N,P16*%
X260944463Y-165608000D02*
X267970000Y-165608000D01*
X258120000Y-168430000D02*
X259100000Y-171730000D01*
X257302000Y-173530764D02*
X257302000Y-176784000D01*
X234270000Y-181380000D02*
X235250000Y-184680000D01*
X267970000Y-165608000D02*
X270002000Y-163576000D01*
X270002000Y-163576000D02*
X270002000Y-131064000D01*
X259100642Y-171732122D02*
X257302000Y-173530764D01*
X269315337Y-130377337D02*
X267032491Y-130377337D01*
X258318000Y-181701025D02*
X253629927Y-186389098D01*
X258120801Y-168431662D02*
X260944463Y-165608000D01*
X257302000Y-176784000D02*
X258628276Y-178110276D01*
X258318000Y-180286509D02*
X258318000Y-181701025D01*
X258628276Y-179976233D02*
X258318000Y-180286509D01*
X258628276Y-178110276D02*
X258628276Y-179976233D01*
X270002000Y-131064000D02*
X269315337Y-130377337D01*
X253630000Y-186390000D02*
X254610000Y-189690000D01*
%TO.N,far_thumb*%
X283620000Y-196420000D02*
X280820000Y-202150000D01*
X283280000Y-202630000D02*
X283820000Y-200540000D01*
%TO.N,home2_thumb2*%
X268410000Y-179670000D02*
X268950000Y-177570000D01*
X268750000Y-173450000D02*
X265950000Y-179190000D01*
%TO.N,far2_thumb2*%
X287770000Y-184670000D02*
X288310000Y-182580000D01*
X288120000Y-178460000D02*
X285320000Y-184190000D01*
%TO.N,P21*%
X184150000Y-175880000D02*
X184420000Y-178020000D01*
X247396000Y-178562000D02*
X247396000Y-192145267D01*
X246280000Y-172780000D02*
X246300000Y-174940000D01*
X205370000Y-173810000D02*
X205520000Y-175960000D01*
X243730000Y-195810000D02*
X243190000Y-197900000D01*
X163070000Y-179050000D02*
X163440000Y-181180000D01*
X143370000Y-182530000D02*
X143750000Y-184650000D01*
X226280000Y-172950000D02*
X226300000Y-175110000D01*
X246300579Y-174939951D02*
X246300579Y-177466579D01*
X247396000Y-192145267D02*
X243730652Y-195810615D01*
X246300579Y-177466579D02*
X247396000Y-178562000D01*
%TO.N,P20*%
X276606000Y-167132000D02*
X281940000Y-167132000D01*
X263090000Y-200820000D02*
X262550000Y-202910000D01*
X291846000Y-184150000D02*
X290068000Y-185928000D01*
X281940000Y-167132000D02*
X283464000Y-168656000D01*
X226120000Y-153960000D02*
X226140000Y-156120000D01*
X287782000Y-195326000D02*
X287782000Y-199644000D01*
X287782000Y-199644000D02*
X286004000Y-201422000D01*
X246120000Y-153780000D02*
X246130000Y-155940000D01*
X289052000Y-190754000D02*
X289052000Y-194056000D01*
X287020000Y-168656000D02*
X289560000Y-171196000D01*
X293116000Y-178816000D02*
X291846000Y-180086000D01*
X159770000Y-160340000D02*
X160150000Y-162470000D01*
X272288000Y-162814000D02*
X276606000Y-167132000D01*
X289052000Y-194056000D02*
X287782000Y-195326000D01*
X204050000Y-154850000D02*
X204200000Y-157010000D01*
X282460000Y-205830000D02*
X281920000Y-207920000D01*
X140070000Y-163820000D02*
X140450000Y-165940000D01*
X292100000Y-171196000D02*
X293116000Y-172212000D01*
X286004000Y-201422000D02*
X286004000Y-204470000D01*
X271018000Y-117602000D02*
X272288000Y-118872000D01*
X286004000Y-204470000D02*
X284648185Y-205825815D01*
X284648185Y-205825815D02*
X282456558Y-205825815D01*
X293116000Y-172212000D02*
X293116000Y-178816000D01*
X290068000Y-185928000D02*
X290068000Y-189738000D01*
X290068000Y-189738000D02*
X289052000Y-190754000D01*
X283464000Y-168656000D02*
X287020000Y-168656000D01*
X289560000Y-171196000D02*
X292100000Y-171196000D01*
X272288000Y-118872000D02*
X272288000Y-162814000D01*
X181840000Y-157020000D02*
X182100000Y-159160000D01*
X291846000Y-180086000D02*
X291846000Y-184150000D01*
%TO.N,P19*%
X225950000Y-134960000D02*
X225970000Y-137120000D01*
X202720000Y-135900000D02*
X202870000Y-138050000D01*
X271526000Y-120650000D02*
X271018000Y-120142000D01*
X271526000Y-163068000D02*
X271526000Y-120650000D01*
X276352000Y-167894000D02*
X271526000Y-163068000D01*
X281686000Y-167894000D02*
X276352000Y-167894000D01*
X291592000Y-171958000D02*
X289306000Y-171958000D01*
X245950000Y-134780000D02*
X245970000Y-136940000D01*
X156470000Y-141630000D02*
X156850000Y-143760000D01*
X286950000Y-187870000D02*
X286410000Y-189960000D01*
X179520000Y-138160000D02*
X179780000Y-140300000D01*
X292354000Y-178308000D02*
X292354000Y-172720000D01*
X292354000Y-172720000D02*
X291592000Y-171958000D01*
X289306000Y-171958000D02*
X286766000Y-169418000D01*
X291084000Y-183731812D02*
X291084000Y-179578000D01*
X267580000Y-182860000D02*
X267040000Y-184950000D01*
X291084000Y-179578000D02*
X292354000Y-178308000D01*
X286947432Y-187868380D02*
X291084000Y-183731812D01*
X283210000Y-169418000D02*
X281686000Y-167894000D01*
X286766000Y-169418000D02*
X283210000Y-169418000D01*
X136770000Y-145100000D02*
X137150000Y-147230000D01*
%TO.N,P18*%
X225790000Y-115960000D02*
X225800000Y-118120000D01*
X245780000Y-115780000D02*
X245800000Y-117940000D01*
X153170000Y-122920000D02*
X153550000Y-125050000D01*
X201400000Y-116950000D02*
X201550000Y-119100000D01*
X177210000Y-119300000D02*
X177470000Y-121450000D01*
X133480000Y-126390000D02*
X133850000Y-128520000D01*
%TO.N,P1*%
X254420000Y-105090000D02*
X255930000Y-105070000D01*
%TO.N,P0*%
X254440000Y-107630000D02*
X255950000Y-107610000D01*
%TO.N,P8*%
X246634000Y-127000000D02*
X246634000Y-122936000D01*
X237186555Y-114357178D02*
X238448822Y-114357178D01*
X241300000Y-114300000D02*
X240284000Y-114300000D01*
X238448822Y-114357178D02*
X238506000Y-114300000D01*
X243078000Y-119380000D02*
X243078000Y-116078000D01*
X246634000Y-122936000D02*
X243078000Y-119380000D01*
X238506000Y-114300000D02*
X240284000Y-114300000D01*
X251793071Y-130510329D02*
X250144329Y-130510329D01*
X243078000Y-116078000D02*
X241300000Y-114300000D01*
X250144329Y-130510329D02*
X246634000Y-127000000D01*
%TO.N,RAW*%
X263970000Y-105000000D02*
X262450000Y-105020000D01*
%TO.N,RST*%
X264010000Y-110080000D02*
X262500000Y-110100000D01*
%TO.N,VCC*%
X240538000Y-165354000D02*
X239522000Y-164338000D01*
X241046000Y-153416000D02*
X241808000Y-152654000D01*
X218948000Y-165608000D02*
X218948000Y-162814000D01*
X239776000Y-153416000D02*
X241046000Y-153416000D01*
X221234000Y-140462000D02*
X218948000Y-142748000D01*
X241300000Y-117602000D02*
X239268000Y-115570000D01*
X196088000Y-130048000D02*
X195072000Y-129032000D01*
X171704000Y-121474334D02*
X170180000Y-119950334D01*
X264334509Y-119046509D02*
X262519499Y-117231499D01*
X239776000Y-172466000D02*
X242316000Y-172466000D01*
X281432000Y-185166000D02*
X281215000Y-185383000D01*
X154940000Y-157734000D02*
X150876000Y-153670000D01*
X134874000Y-164846000D02*
X135890000Y-163830000D01*
X281215000Y-185383000D02*
X278787428Y-185383000D01*
X199390000Y-161290000D02*
X199390000Y-154940000D01*
X149839619Y-142727619D02*
X147947039Y-142727619D01*
X239764965Y-172454965D02*
X237693567Y-172454965D01*
X242316000Y-172720000D02*
X242316000Y-172466000D01*
X173482000Y-146812000D02*
X175006000Y-145288000D01*
X134849515Y-183623278D02*
X136670722Y-183623278D01*
X261403000Y-181065000D02*
X261874000Y-180594000D01*
X177550535Y-176525465D02*
X177800000Y-176276000D01*
X239014000Y-134620000D02*
X241300000Y-134620000D01*
X278384000Y-203200000D02*
X278294956Y-203289044D01*
X264030000Y-112620000D02*
X262520000Y-112640000D01*
X134874000Y-176276000D02*
X136144000Y-177546000D01*
X194128885Y-136099116D02*
X195624884Y-136099116D01*
X282194000Y-185928000D02*
X282194000Y-191008000D01*
X278787428Y-185383000D02*
X278736036Y-185331608D01*
X180340000Y-176530000D02*
X180340000Y-175514000D01*
X238850412Y-134456412D02*
X239014000Y-134620000D01*
X217694328Y-172629496D02*
X219619496Y-172629496D01*
X282194000Y-191008000D02*
X278384000Y-194818000D01*
X175260000Y-136398000D02*
X171704000Y-132842000D01*
X219964000Y-166624000D02*
X218948000Y-165608000D01*
X200660000Y-174244000D02*
X200660000Y-178054000D01*
X152146000Y-139954000D02*
X148336000Y-136144000D01*
X262519499Y-117231499D02*
X262519499Y-112636044D01*
X274245162Y-203289044D02*
X272810206Y-204724000D01*
X218948000Y-162814000D02*
X221488000Y-160274000D01*
X157988000Y-179832000D02*
X157988000Y-184404000D01*
X170180000Y-119950334D02*
X168635658Y-119950334D01*
X133538070Y-164911930D02*
X131550200Y-164911930D01*
X128270000Y-139192000D02*
X128270000Y-129032000D01*
X218937057Y-134630943D02*
X218948000Y-134620000D01*
X239776000Y-172466000D02*
X239764965Y-172454965D01*
X258572000Y-197104000D02*
X258572000Y-189230000D01*
X219670220Y-153630220D02*
X217528524Y-153630220D01*
X195567091Y-154940000D02*
X195454258Y-155052833D01*
X199898000Y-152146000D02*
X196342000Y-148590000D01*
X195326000Y-117094000D02*
X195274601Y-117145399D01*
X148336000Y-125730000D02*
X146558000Y-123952000D01*
X221488000Y-119888000D02*
X219202000Y-122174000D01*
X272810206Y-204724000D02*
X260096000Y-204724000D01*
X197358000Y-123444000D02*
X197358000Y-119126000D01*
X239155136Y-115457136D02*
X239268000Y-115570000D01*
X173266693Y-157667088D02*
X175072912Y-157667088D01*
X265430000Y-169164000D02*
X265430000Y-166624000D01*
X237527762Y-153455689D02*
X239736311Y-153455689D01*
X264334509Y-144371413D02*
X264334509Y-119046509D01*
X241808000Y-150114000D02*
X240284000Y-148590000D01*
X239522000Y-164338000D02*
X239522000Y-161290000D01*
X242316000Y-181356000D02*
X242316000Y-177038000D01*
X134874000Y-164846000D02*
X134874000Y-176276000D01*
X259373083Y-180324008D02*
X260114075Y-181065000D01*
X131064000Y-145796000D02*
X131572000Y-145796000D01*
X197358000Y-119126000D02*
X195326000Y-117094000D01*
X154432000Y-172466000D02*
X154432000Y-161036000D01*
X241808000Y-132080000D02*
X239776000Y-130048000D01*
X198628000Y-141732000D02*
X198628000Y-135890000D01*
X220980000Y-172720000D02*
X219710000Y-172720000D01*
X239776000Y-130048000D02*
X239776000Y-128524000D01*
X221488000Y-153670000D02*
X221488000Y-150368000D01*
X239268000Y-128016000D02*
X239268000Y-123698000D01*
X126727236Y-127489236D02*
X124951569Y-127489236D01*
X221742000Y-131826000D02*
X221742000Y-134112000D01*
X175260000Y-157480000D02*
X177546000Y-157480000D01*
X146558000Y-123952000D02*
X146493728Y-124016272D01*
X175006000Y-145288000D02*
X175006000Y-138684000D01*
X128250884Y-146200583D02*
X129389417Y-146200583D01*
X177546000Y-157480000D02*
X177546000Y-154432000D01*
X150876000Y-142748000D02*
X151130000Y-142748000D01*
X241046000Y-159766000D02*
X241046000Y-153416000D01*
X138684000Y-185166000D02*
X138684000Y-181864000D01*
X146493728Y-124016272D02*
X144647724Y-124016272D01*
X172720000Y-138684000D02*
X175006000Y-138684000D01*
X176276000Y-165608000D02*
X176276000Y-169418000D01*
X170951176Y-138808711D02*
X172595289Y-138808711D01*
X237196154Y-115457136D02*
X239155136Y-115457136D01*
X135890000Y-163830000D02*
X135890000Y-161798000D01*
X241808000Y-134112000D02*
X241808000Y-132080000D01*
X195834000Y-135890000D02*
X198628000Y-135890000D01*
X239268000Y-123698000D02*
X241300000Y-121666000D01*
X240284000Y-146558000D02*
X239268000Y-145542000D01*
X129389417Y-146200583D02*
X129794000Y-145796000D01*
X240284000Y-148590000D02*
X240284000Y-146558000D01*
X200660000Y-171450000D02*
X198628000Y-169418000D01*
X240538000Y-167767000D02*
X240538000Y-165354000D01*
X149860000Y-142748000D02*
X149839619Y-142727619D01*
X254882209Y-198281444D02*
X255228765Y-198628000D01*
X177546000Y-164338000D02*
X176276000Y-165608000D01*
X140208000Y-186690000D02*
X141732000Y-186690000D01*
X262636000Y-176784000D02*
X262636000Y-171958000D01*
X219009667Y-115631667D02*
X219202000Y-115824000D01*
X195072000Y-129032000D02*
X195072000Y-125730000D01*
X195274601Y-117145399D02*
X192803512Y-117145399D01*
X199136000Y-174244000D02*
X198882000Y-173990000D01*
X238760000Y-184912000D02*
X242316000Y-181356000D01*
X242316000Y-172720000D02*
X242316000Y-177038000D01*
X195624884Y-136099116D02*
X195834000Y-135890000D01*
X151130000Y-142748000D02*
X152146000Y-141732000D01*
X136906000Y-183388000D02*
X138684000Y-185166000D01*
X176276000Y-169418000D02*
X177038000Y-170180000D01*
X219964000Y-168148000D02*
X219964000Y-166624000D01*
X221234000Y-134620000D02*
X221234000Y-140462000D01*
X126746000Y-127508000D02*
X126727236Y-127489236D01*
X197358000Y-154940000D02*
X195567091Y-154940000D01*
X241300000Y-134620000D02*
X241808000Y-134112000D01*
X149860000Y-142748000D02*
X150876000Y-142748000D01*
X221488000Y-118110000D02*
X221488000Y-119888000D01*
X221488000Y-150368000D02*
X219964000Y-148844000D01*
X263144000Y-181864000D02*
X263144000Y-177292000D01*
X257048000Y-201676000D02*
X257048000Y-198628000D01*
X175260000Y-138430000D02*
X175260000Y-136398000D01*
X180340000Y-175514000D02*
X177038000Y-172212000D01*
X180340000Y-176530000D02*
X178054000Y-176530000D01*
X239522000Y-161290000D02*
X241046000Y-159766000D01*
X235519256Y-193273844D02*
X236961844Y-193273844D01*
X152146000Y-141732000D02*
X152146000Y-139954000D01*
X220980000Y-172720000D02*
X220980000Y-177038000D01*
X219202000Y-122174000D02*
X219202000Y-129286000D01*
X237361958Y-134456412D02*
X238850412Y-134456412D01*
X196342000Y-148590000D02*
X196342000Y-144018000D01*
X255228765Y-198628000D02*
X257048000Y-198628000D01*
X219202000Y-115824000D02*
X221488000Y-118110000D01*
X177546000Y-157480000D02*
X177546000Y-164338000D01*
X219710000Y-153670000D02*
X219670220Y-153630220D01*
X129794000Y-145796000D02*
X131064000Y-145796000D01*
X260114075Y-181065000D02*
X261403000Y-181065000D01*
X157988000Y-179832000D02*
X157988000Y-177546000D01*
X198628000Y-169418000D02*
X198628000Y-167640000D01*
X132334000Y-145034000D02*
X132334000Y-143256000D01*
X262636000Y-171958000D02*
X265430000Y-169164000D01*
X239776000Y-128524000D02*
X239268000Y-128016000D01*
X198628000Y-135890000D02*
X198628000Y-133350000D01*
X258572000Y-189230000D02*
X263144000Y-184658000D01*
X236961844Y-193273844D02*
X237490000Y-193802000D01*
X200660000Y-174244000D02*
X200660000Y-171450000D01*
X152759033Y-161438967D02*
X153162000Y-161036000D01*
X154545670Y-180150314D02*
X156399686Y-180150314D01*
X239268000Y-142748000D02*
X241300000Y-140716000D01*
X278294956Y-203289044D02*
X276606000Y-203289044D01*
X196342000Y-144018000D02*
X198628000Y-141732000D01*
X217362720Y-134630943D02*
X218937057Y-134630943D01*
X197866000Y-166878000D02*
X197866000Y-162814000D01*
X281432000Y-185166000D02*
X282194000Y-185928000D01*
X218948000Y-146812000D02*
X219964000Y-147828000D01*
X221488000Y-160274000D02*
X221488000Y-153670000D01*
X217196916Y-115631667D02*
X219009667Y-115631667D01*
X128270000Y-129032000D02*
X126746000Y-127508000D01*
X178054000Y-176530000D02*
X177800000Y-176276000D01*
X155956000Y-173990000D02*
X154432000Y-172466000D01*
X198865450Y-174006550D02*
X198882000Y-173990000D01*
X199898000Y-154432000D02*
X199898000Y-152146000D01*
X136144000Y-179324000D02*
X136144000Y-177546000D01*
X177038000Y-172212000D02*
X177038000Y-170180000D01*
X177546000Y-154432000D02*
X173482000Y-150368000D01*
X221742000Y-134112000D02*
X221234000Y-134620000D01*
X241808000Y-152654000D02*
X241808000Y-150114000D01*
X175072912Y-157667088D02*
X175260000Y-157480000D01*
X219964000Y-147828000D02*
X219964000Y-148844000D01*
X257048000Y-198628000D02*
X258572000Y-197104000D01*
X171704000Y-132842000D02*
X171704000Y-121474334D01*
X150876000Y-153670000D02*
X150876000Y-142748000D01*
X197866000Y-162814000D02*
X199390000Y-161290000D01*
X196779631Y-174006550D02*
X198865450Y-174006550D01*
X155956000Y-175514000D02*
X155956000Y-173990000D01*
X172595289Y-138808711D02*
X172720000Y-138684000D01*
X199390000Y-154940000D02*
X199898000Y-154432000D01*
X197358000Y-154940000D02*
X199390000Y-154940000D01*
X263144000Y-177292000D02*
X262636000Y-176784000D01*
X173482000Y-150368000D02*
X173482000Y-146812000D01*
X132334000Y-143256000D02*
X128270000Y-139192000D01*
X198628000Y-167640000D02*
X197866000Y-166878000D01*
X220980000Y-172720000D02*
X220980000Y-169164000D01*
X151246355Y-161438967D02*
X152759033Y-161438967D01*
X196088000Y-130810000D02*
X196088000Y-130048000D01*
X239736311Y-153455689D02*
X239776000Y-153416000D01*
X242316000Y-169545000D02*
X240538000Y-167767000D01*
X241300000Y-121666000D02*
X241300000Y-117602000D01*
X239268000Y-145542000D02*
X239268000Y-142748000D01*
X260096000Y-204724000D02*
X257048000Y-201676000D01*
X154940000Y-160528000D02*
X154940000Y-157734000D01*
X200660000Y-174244000D02*
X199136000Y-174244000D01*
X242316000Y-172466000D02*
X242316000Y-169545000D01*
X237490000Y-193802000D02*
X238760000Y-192532000D01*
X175582211Y-176525465D02*
X177550535Y-176525465D01*
X138684000Y-185166000D02*
X140208000Y-186690000D01*
X154432000Y-161036000D02*
X154940000Y-160528000D01*
X157988000Y-179832000D02*
X156718000Y-179832000D01*
X219710000Y-153670000D02*
X221488000Y-153670000D01*
X133604000Y-164846000D02*
X133538070Y-164911930D01*
X131572000Y-145796000D02*
X132334000Y-145034000D01*
X241300000Y-140716000D02*
X241300000Y-134620000D01*
X221234000Y-134620000D02*
X218948000Y-134620000D01*
X148336000Y-136144000D02*
X148336000Y-125730000D01*
X218948000Y-142748000D02*
X218948000Y-146812000D01*
X198628000Y-133350000D02*
X196088000Y-130810000D01*
X220980000Y-169164000D02*
X219964000Y-168148000D01*
X238760000Y-192532000D02*
X238760000Y-184912000D01*
X135890000Y-161798000D02*
X131064000Y-156972000D01*
X261874000Y-180594000D02*
X263144000Y-181864000D01*
X195072000Y-125730000D02*
X197358000Y-123444000D01*
X219619496Y-172629496D02*
X219710000Y-172720000D01*
X156399686Y-180150314D02*
X156718000Y-179832000D01*
X278384000Y-194818000D02*
X278384000Y-203200000D01*
X219202000Y-129286000D02*
X221742000Y-131826000D01*
X180340000Y-176530000D02*
X180340000Y-180340000D01*
X153162000Y-161036000D02*
X154432000Y-161036000D01*
X263144000Y-181864000D02*
X263144000Y-184658000D01*
X276606000Y-203289044D02*
X274245162Y-203289044D01*
X175006000Y-138684000D02*
X175260000Y-138430000D01*
X157988000Y-177546000D02*
X155956000Y-175514000D01*
X136670722Y-183623278D02*
X136906000Y-183388000D01*
X138684000Y-181864000D02*
X136144000Y-179324000D01*
X133604000Y-164846000D02*
X134874000Y-164846000D01*
X131064000Y-156972000D02*
X131064000Y-145796000D01*
%TO.N,GND*%
X259588000Y-199136000D02*
X258318000Y-200406000D01*
X251243000Y-196813000D02*
X251243000Y-198157000D01*
X255995748Y-110175238D02*
X255973582Y-110153072D01*
X211074000Y-115570000D02*
X211074000Y-117602000D01*
X192532000Y-173228000D02*
X188468000Y-173228000D01*
X255995748Y-112692976D02*
X255995748Y-110175238D01*
X192225161Y-135128000D02*
X192226611Y-135129450D01*
X130556000Y-183134000D02*
X124968000Y-183134000D01*
X208534000Y-132588000D02*
X210566000Y-134620000D01*
X211074000Y-115570000D02*
X208280000Y-112776000D01*
X138176000Y-140462000D02*
X138176000Y-123190000D01*
X245364000Y-98044000D02*
X257810000Y-98044000D01*
X141478000Y-143510000D02*
X141224000Y-143510000D01*
X235500004Y-133350000D02*
X235522428Y-133372424D01*
X252476000Y-175768000D02*
X252476000Y-152840882D01*
X215326235Y-133350000D02*
X215523190Y-133546955D01*
X164084000Y-138176000D02*
X167386000Y-138176000D01*
X163068000Y-139192000D02*
X164084000Y-138176000D01*
X211836000Y-133350000D02*
X210566000Y-134620000D01*
X263990000Y-107540000D02*
X262480000Y-107560000D01*
X185420000Y-153416000D02*
X187198000Y-155194000D01*
X228600000Y-173990000D02*
X230124000Y-172466000D01*
X130832234Y-182857766D02*
X130556000Y-183134000D01*
X117602000Y-146812000D02*
X117602000Y-129286000D01*
X142654512Y-123250760D02*
X141417240Y-123250760D01*
X145796000Y-161036000D02*
X147320000Y-161036000D01*
X188214000Y-154178000D02*
X187198000Y-155194000D01*
X253492000Y-200406000D02*
X256032000Y-200406000D01*
X235356624Y-114373148D02*
X232991148Y-114373148D01*
X248158000Y-192786000D02*
X248158000Y-185166000D01*
X233934000Y-171450000D02*
X231140000Y-171450000D01*
X134366000Y-119380000D02*
X134366000Y-114808000D01*
X231902000Y-133350000D02*
X233934000Y-133350000D01*
X255561000Y-178816000D02*
X255576150Y-178800850D01*
X272658984Y-201676000D02*
X272748870Y-201765886D01*
X125896743Y-145796000D02*
X126257672Y-145435071D01*
X229108000Y-116840000D02*
X230378000Y-115570000D01*
X213467768Y-152546232D02*
X213360000Y-152654000D01*
X185420000Y-137668000D02*
X185420000Y-153416000D01*
X215688994Y-152546232D02*
X213467768Y-152546232D01*
X190500000Y-135128000D02*
X192225161Y-135128000D01*
X144041893Y-141962107D02*
X145953827Y-141962107D01*
X213366321Y-114547679D02*
X213360000Y-114554000D01*
X134366000Y-114808000D02*
X135382000Y-113792000D01*
X144780000Y-178308000D02*
X144780000Y-162052000D01*
X188722000Y-116332000D02*
X190744971Y-116332000D01*
X208534000Y-136652000D02*
X208534000Y-151892000D01*
X165398446Y-119081554D02*
X165354000Y-119126000D01*
X232410000Y-191262000D02*
X228600000Y-187452000D01*
X188468000Y-173228000D02*
X187198000Y-171958000D01*
X267208000Y-199136000D02*
X259588000Y-199136000D01*
X208280000Y-105410000D02*
X209804000Y-103886000D01*
X229108000Y-116840000D02*
X229108000Y-133096000D01*
X150368000Y-179578000D02*
X150561198Y-179384802D01*
X255576150Y-178800850D02*
X257876791Y-178800850D01*
X231140000Y-171450000D02*
X230124000Y-172466000D01*
X255905762Y-112782962D02*
X255995748Y-112692976D01*
X165100000Y-174244000D02*
X165100000Y-157988000D01*
X183388000Y-107188000D02*
X183388000Y-115570000D01*
X213360000Y-152654000D02*
X211836000Y-152654000D01*
X252130286Y-196758286D02*
X251714000Y-196342000D01*
X187960000Y-135128000D02*
X190500000Y-135128000D01*
X119888000Y-127000000D02*
X120650000Y-127000000D01*
X166685242Y-119081554D02*
X165398446Y-119081554D01*
X186690000Y-136398000D02*
X187960000Y-135128000D01*
X212090000Y-114554000D02*
X211074000Y-115570000D01*
X120396000Y-164338000D02*
X120396000Y-149606000D01*
X251714000Y-196342000D02*
X248158000Y-192786000D01*
X259588000Y-104669069D02*
X262475168Y-107556237D01*
X167386000Y-138176000D02*
X168764691Y-138176000D01*
X228600000Y-187452000D02*
X228600000Y-173990000D01*
X259878333Y-110153072D02*
X262475168Y-107556237D01*
X230378000Y-115570000D02*
X231648000Y-114300000D01*
X228600000Y-170942000D02*
X230124000Y-172466000D01*
X163068000Y-139192000D02*
X163068000Y-155956000D01*
X160274000Y-120396000D02*
X160274000Y-136398000D01*
X211836000Y-152654000D02*
X210707136Y-153782864D01*
X233934000Y-133350000D02*
X235500004Y-133350000D01*
X254799000Y-179578000D02*
X253746000Y-179578000D01*
X255905762Y-146392884D02*
X255905762Y-112782962D01*
X234022964Y-191750686D02*
X232898686Y-191750686D01*
X160274000Y-120396000D02*
X157226000Y-117348000D01*
X124206000Y-145796000D02*
X125896743Y-145796000D01*
X228854000Y-151892000D02*
X230632000Y-153670000D01*
X120396000Y-149606000D02*
X117602000Y-146812000D01*
X186690000Y-136398000D02*
X185420000Y-137668000D01*
X127699582Y-164146418D02*
X129556988Y-164146418D01*
X141224000Y-143510000D02*
X138176000Y-140462000D01*
X168764691Y-138176000D02*
X169000760Y-137939931D01*
X248158000Y-185166000D02*
X253746000Y-179578000D01*
X210566000Y-134620000D02*
X208534000Y-136652000D01*
X166878000Y-176022000D02*
X165100000Y-174244000D01*
X124143582Y-164146418D02*
X127699582Y-164146418D01*
X209550000Y-171450000D02*
X208788000Y-170688000D01*
X188722000Y-116332000D02*
X186690000Y-116332000D01*
X274574000Y-183642000D02*
X277073294Y-183642000D01*
X165354000Y-119126000D02*
X161036000Y-119126000D01*
X190744971Y-116332000D02*
X190901238Y-116175733D01*
X270510000Y-201676000D02*
X272658984Y-201676000D01*
X256254888Y-146742010D02*
X255905762Y-146392884D01*
X184150000Y-133858000D02*
X186690000Y-136398000D01*
X169418000Y-156798308D02*
X166289692Y-156798308D01*
X160274000Y-136398000D02*
X163068000Y-139192000D01*
X232898686Y-191750686D02*
X232410000Y-191262000D01*
X208534000Y-120142000D02*
X208534000Y-132588000D01*
X230632000Y-134620000D02*
X228854000Y-136398000D01*
X149253143Y-160673455D02*
X147682545Y-160673455D01*
X213360000Y-114554000D02*
X212090000Y-114554000D01*
X193457151Y-154178000D02*
X193551984Y-154083167D01*
X143764000Y-142240000D02*
X144041893Y-141962107D01*
X259588000Y-99822000D02*
X259588000Y-104669069D01*
X184658000Y-105918000D02*
X183388000Y-107188000D01*
X141478000Y-143510000D02*
X141478000Y-158750000D01*
X117602000Y-129286000D02*
X119888000Y-127000000D01*
X231930299Y-152371701D02*
X230632000Y-153670000D01*
X192723116Y-173036884D02*
X192532000Y-173228000D01*
X147682545Y-160673455D02*
X147320000Y-161036000D01*
X120650000Y-127000000D02*
X120926276Y-126723724D01*
X229108000Y-133096000D02*
X230632000Y-134620000D01*
X187198000Y-171958000D02*
X187198000Y-155194000D01*
X186690000Y-116332000D02*
X185420000Y-117602000D01*
X228600000Y-113792000D02*
X228600000Y-105156000D01*
X267208000Y-199390000D02*
X267208000Y-199136000D01*
X211074000Y-117602000D02*
X208534000Y-120142000D01*
X208534000Y-151892000D02*
X210424864Y-153782864D01*
X157226000Y-117348000D02*
X157226000Y-112014000D01*
X228854000Y-136398000D02*
X228854000Y-151892000D01*
X252476000Y-152840882D02*
X256274959Y-149041923D01*
X269494000Y-201676000D02*
X267208000Y-199390000D01*
X233680000Y-152371701D02*
X231930299Y-152371701D01*
X215357386Y-114547679D02*
X213366321Y-114547679D01*
X210707136Y-153782864D02*
X210566000Y-153782864D01*
X141417240Y-123250760D02*
X141224000Y-123444000D01*
X141478000Y-158750000D02*
X144780000Y-162052000D01*
X124968000Y-183134000D02*
X122174000Y-180340000D01*
X251714000Y-196342000D02*
X251243000Y-196813000D01*
X120926276Y-126723724D02*
X122958357Y-126723724D01*
X183388000Y-115570000D02*
X185420000Y-117602000D01*
X120396000Y-149606000D02*
X124206000Y-145796000D01*
X191516000Y-154178000D02*
X188214000Y-154178000D01*
X194877357Y-173036884D02*
X192723116Y-173036884D01*
X169418000Y-156798308D02*
X171316277Y-156798308D01*
X138430000Y-123444000D02*
X138049000Y-123063000D01*
X171561315Y-175656685D02*
X171196000Y-176022000D01*
X272796000Y-183642000D02*
X274574000Y-183642000D01*
X251243000Y-198157000D02*
X253492000Y-200406000D01*
X122174000Y-180340000D02*
X122174000Y-166116000D01*
X210566000Y-157734000D02*
X210566000Y-153782864D01*
X160274000Y-119888000D02*
X160274000Y-120396000D01*
X228600000Y-155702000D02*
X228600000Y-170942000D01*
X163068000Y-155956000D02*
X165100000Y-157988000D01*
X213868000Y-133350000D02*
X211836000Y-133350000D01*
X161036000Y-119126000D02*
X160274000Y-119888000D01*
X255561000Y-178816000D02*
X254799000Y-179578000D01*
X270510000Y-201676000D02*
X269494000Y-201676000D01*
X191516000Y-154178000D02*
X193457151Y-154178000D01*
X235775014Y-171450000D02*
X235854037Y-171370977D01*
X141224000Y-123444000D02*
X138430000Y-123444000D01*
X132856303Y-182857766D02*
X130832234Y-182857766D01*
X208788000Y-170688000D02*
X208788000Y-159512000D01*
X267208000Y-189230000D02*
X272796000Y-183642000D01*
X171196000Y-176022000D02*
X166878000Y-176022000D01*
X228600000Y-105156000D02*
X229870000Y-103886000D01*
X254460000Y-110170000D02*
X255970000Y-110150000D01*
X144780000Y-162052000D02*
X145796000Y-161036000D01*
X173631795Y-175656685D02*
X171561315Y-175656685D01*
X277073294Y-183642000D02*
X277239744Y-183808450D01*
X138049000Y-123063000D02*
X134366000Y-119380000D01*
X230378000Y-115570000D02*
X228600000Y-113792000D01*
X213868000Y-133350000D02*
X215326235Y-133350000D01*
X122174000Y-166116000D02*
X120396000Y-164338000D01*
X185420000Y-117602000D02*
X184150000Y-118872000D01*
X157226000Y-112014000D02*
X160020000Y-109220000D01*
X208280000Y-112776000D02*
X208280000Y-105410000D01*
X210424864Y-153782864D02*
X210566000Y-153782864D01*
X253385917Y-196758286D02*
X252130286Y-196758286D01*
X257810000Y-98044000D02*
X259588000Y-99822000D01*
X233680000Y-152371701D02*
X235688232Y-152371701D01*
X146050000Y-179578000D02*
X144780000Y-178308000D01*
X255973582Y-110153072D02*
X259878333Y-110153072D01*
X138176000Y-123190000D02*
X138049000Y-123063000D01*
X231648000Y-114300000D02*
X232918000Y-114300000D01*
X254480000Y-112710000D02*
X256000000Y-112690000D01*
X213614000Y-171450000D02*
X215759290Y-171450000D01*
X184150000Y-118872000D02*
X184150000Y-133858000D01*
X143764000Y-142240000D02*
X142494000Y-143510000D01*
X142494000Y-143510000D02*
X141478000Y-143510000D01*
X166289692Y-156798308D02*
X165100000Y-157988000D01*
X230632000Y-134620000D02*
X231902000Y-133350000D01*
X150368000Y-179578000D02*
X146050000Y-179578000D01*
X208788000Y-159512000D02*
X210566000Y-157734000D01*
X122174000Y-166116000D02*
X124143582Y-164146418D01*
X215759290Y-171450000D02*
X215854798Y-171545508D01*
X213614000Y-171450000D02*
X209550000Y-171450000D01*
X267208000Y-199136000D02*
X267208000Y-189230000D01*
X150561198Y-179384802D02*
X152552458Y-179384802D01*
X233934000Y-171450000D02*
X235775014Y-171450000D01*
X253746000Y-177038000D02*
X252476000Y-175768000D01*
X230632000Y-153670000D02*
X228600000Y-155702000D01*
X253746000Y-179578000D02*
X253746000Y-177038000D01*
X232991148Y-114373148D02*
X232918000Y-114300000D01*
%TO.N,_1_0*%
X253570000Y-105090000D02*
X251570000Y-105110000D01*
%TO.N,_1_23*%
X264810000Y-105000000D02*
X266810000Y-104980000D01*
%TO.N,_1_1*%
X253590000Y-107630000D02*
X251590000Y-107650000D01*
%TO.N,_1_22*%
X264830000Y-107540000D02*
X266830000Y-107520000D01*
%TO.N,_1_2*%
X253620000Y-110170000D02*
X251620000Y-110190000D01*
%TO.N,_1_21*%
X264860000Y-110080000D02*
X266860000Y-110060000D01*
%TO.N,_1_3*%
X253640000Y-112710000D02*
X251640000Y-112730000D01*
%TO.N,_1_20*%
X264880000Y-112620000D02*
X266880000Y-112600000D01*
%TO.N,L02*%
X235269329Y-115570000D02*
X235366223Y-115473106D01*
X233934000Y-115570000D02*
X235269329Y-115570000D01*
X218417709Y-114531709D02*
X218440000Y-114554000D01*
X217187317Y-114531709D02*
X218417709Y-114531709D01*
%TO.N,L03*%
X214044363Y-115647637D02*
X213868000Y-115824000D01*
X194310000Y-115824000D02*
X192950859Y-115824000D01*
X215366985Y-115647637D02*
X214044363Y-115647637D01*
X192950859Y-115824000D02*
X192726780Y-116048079D01*
%TO.N,L04*%
X190649023Y-117602000D02*
X190977970Y-117273053D01*
X189484000Y-117602000D02*
X190649023Y-117602000D01*
X169685467Y-118858533D02*
X168501602Y-118858533D01*
X170180000Y-118364000D02*
X169685467Y-118858533D01*
%TO.N,L05*%
X146050000Y-122613996D02*
X145731012Y-122932984D01*
X165576645Y-120173355D02*
X165354000Y-120396000D01*
X145731012Y-122932984D02*
X144456711Y-122932984D01*
X166819298Y-120173355D02*
X165576645Y-120173355D01*
%TO.N,L06*%
X142845525Y-124334048D02*
X141603952Y-124334048D01*
X126034857Y-126405948D02*
X124760556Y-126405948D01*
X141603952Y-124334048D02*
X141224000Y-124714000D01*
X126186808Y-126253997D02*
X126034857Y-126405948D01*
%TO.N,L07*%
X238760000Y-120142000D02*
X238760000Y-133096000D01*
X238760000Y-133096000D02*
X239014000Y-133350000D01*
X239007546Y-133356454D02*
X239014000Y-133350000D01*
X123149370Y-127807012D02*
X122128988Y-127807012D01*
X122128988Y-127807012D02*
X121666000Y-128270000D01*
X237352359Y-133356454D02*
X239007546Y-133356454D01*
X120392942Y-129543539D02*
X120392942Y-129543058D01*
X120392942Y-129543058D02*
X121666000Y-128270000D01*
%TO.N,L08*%
X218767015Y-133530985D02*
X218948000Y-133350000D01*
X234188000Y-134620000D02*
X235384409Y-134620000D01*
X217353121Y-133530985D02*
X218767015Y-133530985D01*
X235384409Y-134620000D02*
X235532027Y-134472382D01*
%TO.N,L09*%
X215305702Y-134874000D02*
X215532789Y-134646913D01*
X214122000Y-134874000D02*
X215305702Y-134874000D01*
X194052153Y-135001796D02*
X195198204Y-135001796D01*
X195198204Y-135001796D02*
X195580000Y-134620000D01*
%TO.N,L10*%
X191878113Y-136652000D02*
X192303343Y-136226770D01*
X171909090Y-137716910D02*
X172466000Y-137160000D01*
X190500000Y-136652000D02*
X191878113Y-136652000D01*
X170817120Y-137716910D02*
X171909090Y-137716910D01*
%TO.N,L11*%
X168720548Y-139446000D02*
X169134816Y-139031732D01*
X147756026Y-141644331D02*
X148931669Y-141644331D01*
X148931669Y-141644331D02*
X149352000Y-141224000D01*
X167640000Y-139446000D02*
X168720548Y-139446000D01*
%TO.N,L12*%
X128948705Y-145117295D02*
X129540000Y-144526000D01*
X128059871Y-145117295D02*
X128948705Y-145117295D01*
X144780000Y-143510000D02*
X145680235Y-143510000D01*
X145680235Y-143510000D02*
X146144840Y-143045395D01*
%TO.N,L13*%
X239522000Y-146877946D02*
X239522000Y-151892000D01*
X238969731Y-152355731D02*
X239014000Y-152400000D01*
X125901044Y-147066000D02*
X126448685Y-146518359D01*
X238506000Y-138938000D02*
X238506000Y-145861946D01*
X238506000Y-145861946D02*
X239522000Y-146877946D01*
X239522000Y-151892000D02*
X239014000Y-152400000D01*
X237518163Y-152355731D02*
X238969731Y-152355731D01*
X124968000Y-147066000D02*
X125901044Y-147066000D01*
%TO.N,L30*%
X233747546Y-192815648D02*
X232947648Y-192815648D01*
X232947648Y-192815648D02*
X232664000Y-192532000D01*
%TO.N,L14*%
X235697831Y-153471659D02*
X234497659Y-153471659D01*
X217518925Y-152530262D02*
X218817738Y-152530262D01*
X218817738Y-152530262D02*
X218948000Y-152400000D01*
X234497659Y-153471659D02*
X234442000Y-153416000D01*
%TO.N,L15*%
X215698593Y-153646190D02*
X214399810Y-153646190D01*
X195409039Y-153924000D02*
X195377526Y-153955513D01*
X214399810Y-153646190D02*
X214376000Y-153670000D01*
X196850000Y-153924000D02*
X195409039Y-153924000D01*
%TO.N,L16*%
X174386713Y-156575287D02*
X174498000Y-156464000D01*
X192278000Y-155448000D02*
X193361203Y-155448000D01*
X193361203Y-155448000D02*
X193628716Y-155180487D01*
X173132637Y-156575287D02*
X174386713Y-156575287D01*
%TO.N,L17*%
X152064321Y-160355679D02*
X152400000Y-160020000D01*
X170180000Y-157988000D02*
X171352442Y-157988000D01*
X171352442Y-157988000D02*
X171450333Y-157890109D01*
X151055342Y-160355679D02*
X152064321Y-160355679D01*
%TO.N,L18*%
X131359187Y-163828642D02*
X132589358Y-163828642D01*
X149444156Y-161756743D02*
X148631257Y-161756743D01*
X132589358Y-163828642D02*
X132842000Y-163576000D01*
X148631257Y-161756743D02*
X148336000Y-162052000D01*
%TO.N,L19*%
X238992975Y-157982942D02*
X238992975Y-164824975D01*
X128648294Y-165229706D02*
X128524000Y-165354000D01*
X238919007Y-171355007D02*
X237683968Y-171355007D01*
X239522000Y-165354000D02*
X239522000Y-170752014D01*
X239522000Y-170752014D02*
X238919007Y-171355007D01*
X129748001Y-165229706D02*
X128648294Y-165229706D01*
X238992975Y-164824975D02*
X239522000Y-165354000D01*
%TO.N,L20*%
X234696000Y-172466000D02*
X235858701Y-172466000D01*
X218868462Y-171529538D02*
X218948000Y-171450000D01*
X235858701Y-172466000D02*
X235863636Y-172470935D01*
X217684729Y-171529538D02*
X218868462Y-171529538D01*
%TO.N,L21*%
X215789863Y-172720000D02*
X215864397Y-172645466D01*
X196702899Y-172909230D02*
X197930770Y-172909230D01*
X197930770Y-172909230D02*
X198120000Y-172720000D01*
X214630000Y-172720000D02*
X215789863Y-172720000D01*
%TO.N,L22*%
X176610336Y-175433664D02*
X176784000Y-175260000D01*
X193657796Y-174134204D02*
X193548000Y-174244000D01*
X194954089Y-174134204D02*
X193657796Y-174134204D01*
X175448155Y-175433664D02*
X176610336Y-175433664D01*
%TO.N,L23*%
X173765851Y-176748486D02*
X172755514Y-176748486D01*
X155450974Y-179067026D02*
X155702000Y-178816000D01*
X154354657Y-179067026D02*
X155450974Y-179067026D01*
X172755514Y-176748486D02*
X172466000Y-177038000D01*
%TO.N,L24*%
X151763910Y-180468090D02*
X151384000Y-180848000D01*
X135468010Y-182539990D02*
X135890000Y-182118000D01*
X134658502Y-182539990D02*
X135468010Y-182539990D01*
X152743471Y-180468090D02*
X151763910Y-180468090D01*
%TO.N,L25*%
X280416000Y-184658000D02*
X280024646Y-184266646D01*
X131826000Y-184404000D02*
X132584370Y-184404000D01*
X132584370Y-184404000D02*
X133047316Y-183941054D01*
X280024646Y-184266646D02*
X279011454Y-184266646D01*
%TO.N,L26*%
X259777046Y-179259046D02*
X259648501Y-179259046D01*
X275551412Y-184873412D02*
X275336000Y-184658000D01*
X260858000Y-180340000D02*
X259777046Y-179259046D01*
X276964326Y-184873412D02*
X275551412Y-184873412D01*
%TO.N,L27*%
X257601373Y-179865812D02*
X256573812Y-179865812D01*
X279654000Y-189738000D02*
X279654000Y-192532000D01*
X277622000Y-194564000D02*
X277622000Y-200660000D01*
X277622000Y-200660000D02*
X275844000Y-202438000D01*
X256573812Y-179865812D02*
X256286000Y-179578000D01*
X279654000Y-192532000D02*
X277622000Y-194564000D01*
X275630082Y-202224082D02*
X274520580Y-202224082D01*
X275844000Y-202438000D02*
X275630082Y-202224082D01*
%TO.N,L28*%
X255553145Y-197612000D02*
X255157627Y-197216482D01*
X271272000Y-202438000D02*
X272080604Y-202438000D01*
X272080604Y-202438000D02*
X272473452Y-202830848D01*
X256286000Y-197612000D02*
X255553145Y-197612000D01*
%TO.N,L29*%
X236658882Y-192208882D02*
X236982000Y-192532000D01*
X251968000Y-197612000D02*
X252899251Y-197612000D01*
X252899251Y-197612000D02*
X253110499Y-197823248D01*
X235794674Y-192208882D02*
X236658882Y-192208882D01*
%TD*%
M02*
