0
SECTION
2
HEADER
9
$INSUNITS
70
4
0
ENDSEC
0
SECTION
2
TABLES
0
TABLE
2
LTYPE
0
LTYPE
72
65
70
64
2
CONTINUOUS
3
______
73
0
40
0
0
ENDTAB
0
TABLE
2
LAYER
0
ENDTAB
0
ENDSEC
0
SECTION
2
ENTITIES
0
LINE
8
0
10
127.3586457
20
-186.7211166
11
141.1459542
21
-184.2900421
0
LINE
8
0
10
141.1459542
20
-184.2900421
11
138.7148797
21
-170.5027336
0
LINE
8
0
10
138.7148797
20
-170.5027336
11
124.9275712
21
-172.9338081
0
LINE
8
0
10
124.9275712
20
-172.9338081
11
127.3586457
21
-186.7211166
0
LINE
8
0
10
124.0593303
20
-168.0097693
11
137.8466388
21
-165.5786948
0
LINE
8
0
10
137.8466388
20
-165.5786948
11
135.4155643
21
-151.7913863
0
LINE
8
0
10
135.4155643
20
-151.7913863
11
121.6282558
21
-154.2224608
0
LINE
8
0
10
121.6282558
20
-154.2224608
11
124.0593303
21
-168.0097693
0
LINE
8
0
10
120.7600149
20
-149.298422
11
134.5473234
21
-146.8673475
0
LINE
8
0
10
134.5473234
20
-146.8673475
11
132.1162489
21
-133.080039
0
LINE
8
0
10
132.1162489
20
-133.080039
11
118.3289404
21
-135.5111135
0
LINE
8
0
10
118.3289404
20
-135.5111135
11
120.7600149
21
-149.298422
0
LINE
8
0
10
117.4606995
20
-130.5870747
11
131.248008
21
-128.1560002
0
LINE
8
0
10
131.248008
20
-128.1560002
11
128.8169335
21
-114.3686917
0
LINE
8
0
10
128.8169335
20
-114.3686917
11
115.029625
21
-116.7997662
0
LINE
8
0
10
115.029625
20
-116.7997662
11
117.4606995
21
-130.5870747
0
LINE
8
0
10
147.0548007
20
-183.248153
11
160.8421092
21
-180.8170785
0
LINE
8
0
10
160.8421092
20
-180.8170785
11
158.4110347
21
-167.02977
0
LINE
8
0
10
158.4110347
20
-167.02977
11
144.6237262
21
-169.4608445
0
LINE
8
0
10
144.6237262
20
-169.4608445
11
147.0548007
21
-183.248153
0
LINE
8
0
10
143.7554853
20
-164.5368057
11
157.5427938
21
-162.1057312
0
LINE
8
0
10
157.5427938
20
-162.1057312
11
155.1117193
21
-148.3184227
0
LINE
8
0
10
155.1117193
20
-148.3184227
11
141.3244108
21
-150.7494972
0
LINE
8
0
10
141.3244108
20
-150.7494972
11
143.7554853
21
-164.5368057
0
LINE
8
0
10
140.45617
20
-145.8254584
11
154.2434785
21
-143.3943839
0
LINE
8
0
10
154.2434785
20
-143.3943839
11
151.812404
21
-129.6070754
0
LINE
8
0
10
151.812404
20
-129.6070754
11
138.0250955
21
-132.0381499
0
LINE
8
0
10
138.0250955
20
-132.0381499
11
140.45617
21
-145.8254584
0
LINE
8
0
10
137.1568546
20
-127.1141111
11
150.9441631
21
-124.6830366
0
LINE
8
0
10
150.9441631
20
-124.6830366
11
148.5130886
21
-110.8957281
0
LINE
8
0
10
148.5130886
20
-110.8957281
11
134.7257801
21
-113.3268026
0
LINE
8
0
10
134.7257801
20
-113.3268026
11
137.1568546
21
-127.1141111
0
LINE
8
0
10
167.939479
20
-179.2270162
11
181.8351252
21
-177.5208454
0
LINE
8
0
10
181.8351252
20
-177.5208454
11
180.1289544
21
-163.6251992
0
LINE
8
0
10
180.1289544
20
-163.6251992
11
166.2333082
21
-165.33137
0
LINE
8
0
10
166.2333082
20
-165.33137
11
167.939479
21
-179.2270162
0
LINE
8
0
10
165.6239615
20
-160.3686394
11
179.5196077
21
-158.6624686
0
LINE
8
0
10
179.5196077
20
-158.6624686
11
177.8134369
21
-144.7668224
0
LINE
8
0
10
177.8134369
20
-144.7668224
11
163.9177907
21
-146.4729932
0
LINE
8
0
10
163.9177907
20
-146.4729932
11
165.6239615
21
-160.3686394
0
LINE
8
0
10
163.308444
20
-141.5102625
11
177.2040902
21
-139.8040917
0
LINE
8
0
10
177.2040902
20
-139.8040917
11
175.4979194
21
-125.9084455
0
LINE
8
0
10
175.4979194
20
-125.9084455
11
161.6022732
21
-127.6146163
0
LINE
8
0
10
161.6022732
20
-127.6146163
11
163.308444
21
-141.5102625
0
LINE
8
0
10
160.9929266
20
-122.6518857
11
174.8885728
21
-120.9457149
0
LINE
8
0
10
174.8885728
20
-120.9457149
11
173.182402
21
-107.0500687
0
LINE
8
0
10
173.182402
20
-107.0500687
11
159.2867558
21
-108.7562395
0
LINE
8
0
10
159.2867558
20
-108.7562395
11
160.9929266
21
-122.6518857
0
LINE
8
0
10
189.0059857
20
-176.3044096
11
202.9718824
21
-175.3278189
0
LINE
8
0
10
202.9718824
20
-175.3278189
11
201.9952917
21
-161.3619222
0
LINE
8
0
10
201.9952917
20
-161.3619222
11
188.029395
21
-162.3385129
0
LINE
8
0
10
188.029395
20
-162.3385129
11
189.0059857
21
-176.3044096
0
LINE
8
0
10
187.6806127
20
-157.3506927
11
201.6465094
21
-156.374102
0
LINE
8
0
10
201.6465094
20
-156.374102
11
200.6699187
21
-142.4082053
0
LINE
8
0
10
200.6699187
20
-142.4082053
11
186.704022
21
-143.384796
0
LINE
8
0
10
186.704022
20
-143.384796
11
187.6806127
21
-157.3506927
0
LINE
8
0
10
186.3552397
20
-138.3969757
11
200.3211364
21
-137.420385
0
LINE
8
0
10
200.3211364
20
-137.420385
11
199.3445457
21
-123.4544883
0
LINE
8
0
10
199.3445457
20
-123.4544883
11
185.378649
21
-124.431079
0
LINE
8
0
10
185.378649
20
-124.431079
11
186.3552397
21
-138.3969757
0
LINE
8
0
10
185.0298667
20
-119.4432588
11
198.9957634
21
-118.4666681
0
LINE
8
0
10
198.9957634
20
-118.4666681
11
198.0191727
21
-104.5007714
0
LINE
8
0
10
198.0191727
20
-104.5007714
11
184.053276
21
-105.4773621
0
LINE
8
0
10
184.053276
20
-105.4773621
11
185.0298667
21
-119.4432588
0
LINE
8
0
10
209.7949007
20
-174.4485003
11
223.7943676
21
-174.3263288
0
LINE
8
0
10
223.7943676
20
-174.3263288
11
223.6721961
21
-160.3268619
0
LINE
8
0
10
223.6721961
20
-160.3268619
11
209.6727292
21
-160.4490334
0
LINE
8
0
10
209.6727292
20
-160.4490334
11
209.7949007
21
-174.4485003
0
LINE
8
0
10
209.6290965
20
-155.4492238
11
223.6285634
21
-155.3270523
0
LINE
8
0
10
223.6285634
20
-155.3270523
11
223.5063919
21
-141.3275854
0
LINE
8
0
10
223.5063919
20
-141.3275854
11
209.506925
21
-141.4497569
0
LINE
8
0
10
209.506925
20
-141.4497569
11
209.6290965
21
-155.4492238
0
LINE
8
0
10
209.4632923
20
-136.4499473
11
223.4627592
21
-136.3277758
0
LINE
8
0
10
223.4627592
20
-136.3277758
11
223.3405877
21
-122.3283089
0
LINE
8
0
10
223.3405877
20
-122.3283089
11
209.3411208
21
-122.4504804
0
LINE
8
0
10
209.3411208
20
-122.4504804
11
209.4632923
21
-136.4499473
0
LINE
8
0
10
209.2974881
20
-117.4506708
11
223.296955
21
-117.3284993
0
LINE
8
0
10
223.296955
20
-117.3284993
11
223.1747835
21
-103.3290324
0
LINE
8
0
10
223.1747835
20
-103.3290324
11
209.1753166
21
-103.4512039
0
LINE
8
0
10
209.1753166
20
-103.4512039
11
209.2974881
21
-117.4506708
0
LINE
8
0
10
229.7941391
20
-174.2739696
11
243.793606
21
-174.1517981
0
LINE
8
0
10
243.793606
20
-174.1517981
11
243.6714345
21
-160.1523312
0
LINE
8
0
10
243.6714345
20
-160.1523312
11
229.6719676
21
-160.2745027
0
LINE
8
0
10
229.6719676
20
-160.2745027
11
229.7941391
21
-174.2739696
0
LINE
8
0
10
229.6283349
20
-155.274693
11
243.6278018
21
-155.1525215
0
LINE
8
0
10
243.6278018
20
-155.1525215
11
243.5056303
21
-141.1530546
0
LINE
8
0
10
243.5056303
20
-141.1530546
11
229.5061634
21
-141.2752261
0
LINE
8
0
10
229.5061634
20
-141.2752261
11
229.6283349
21
-155.274693
0
LINE
8
0
10
229.4625307
20
-136.2754165
11
243.4619976
21
-136.153245
0
LINE
8
0
10
243.4619976
20
-136.153245
11
243.3398261
21
-122.1537781
0
LINE
8
0
10
243.3398261
20
-122.1537781
11
229.3403592
21
-122.2759496
0
LINE
8
0
10
229.3403592
20
-122.2759496
11
229.4625307
21
-136.2754165
0
LINE
8
0
10
229.2967266
20
-117.27614
11
243.2961935
21
-117.1539685
0
LINE
8
0
10
243.2961935
20
-117.1539685
11
243.174022
21
-103.1545016
0
LINE
8
0
10
243.174022
20
-103.1545016
11
229.1745551
21
-103.2766731
0
LINE
8
0
10
229.1745551
20
-103.2766731
11
229.2967266
21
-117.27614
0
LINE
8
0
10
227.4182029
20
-192.9863442
11
240.9722699
21
-196.4916642
0
LINE
8
0
10
240.9722699
20
-196.4916642
11
244.4775899
21
-182.9375972
0
LINE
8
0
10
244.4775899
20
-182.9375972
11
230.9235229
21
-179.4322772
0
LINE
8
0
10
230.9235229
20
-179.4322772
11
227.4182029
21
-192.9863442
0
LINE
8
0
10
246.7811557
20
-197.9939443
11
260.3352227
21
-201.4992643
0
LINE
8
0
10
260.3352227
20
-201.4992643
11
263.8405427
21
-187.9451973
0
LINE
8
0
10
263.8405427
20
-187.9451973
11
250.2864757
21
-184.4398773
0
LINE
8
0
10
250.2864757
20
-184.4398773
11
246.7811557
21
-197.9939443
0
LINE
8
0
10
266.1441086
20
-203.0015443
11
279.6981756
21
-206.5068643
0
LINE
8
0
10
279.6981756
20
-206.5068643
11
283.2034956
21
-192.9527973
0
LINE
8
0
10
283.2034956
20
-192.9527973
11
269.6494286
21
-189.4474773
0
LINE
8
0
10
269.6494286
20
-189.4474773
11
266.1441086
21
-203.0015443
0
LINE
8
0
10
251.2720298
20
-180.0365089
11
264.8260968
21
-183.5418289
0
LINE
8
0
10
264.8260968
20
-183.5418289
11
268.3314168
21
-169.9877619
0
LINE
8
0
10
268.3314168
20
-169.9877619
11
254.7773498
21
-166.4824419
0
LINE
8
0
10
254.7773498
20
-166.4824419
11
251.2720298
21
-180.0365089
0
LINE
8
0
10
270.6349826
20
-185.0441089
11
284.1890496
21
-188.5494289
0
LINE
8
0
10
284.1890496
20
-188.5494289
11
287.6943696
21
-174.9953619
0
LINE
8
0
10
287.6943696
20
-174.9953619
11
274.1403026
21
-171.4900419
0
LINE
8
0
10
274.1403026
20
-171.4900419
11
270.6349826
21
-185.0441089
0
ENDSEC
0
EOF