0
SECTION
2
HEADER
9
$INSUNITS
70
4
0
ENDSEC
0
SECTION
2
TABLES
0
TABLE
2
LTYPE
0
LTYPE
72
65
70
64
2
CONTINUOUS
3
______
73
0
40
0
0
ENDTAB
0
TABLE
2
LAYER
0
ENDTAB
0
ENDSEC
0
SECTION
2
ENTITIES
0
LINE
8
0
10
125.6495024
20
-188.5456246
11
143.376042
21
-185.4199574
0
LINE
8
0
10
143.376042
20
-185.4199574
11
140.424023
21
-168.6782256
0
LINE
8
0
10
140.424023
20
-168.6782256
11
122.6974834
21
-171.8038928
0
LINE
8
0
10
122.6974834
20
-171.8038928
11
125.6495024
21
-188.5456246
0
LINE
8
0
10
122.350187
20
-169.8342773
11
140.0767266
21
-166.7086101
0
LINE
8
0
10
140.0767266
20
-166.7086101
11
137.1247076
21
-149.9668783
0
LINE
8
0
10
137.1247076
20
-149.9668783
11
119.398168
21
-153.0925455
0
LINE
8
0
10
119.398168
20
-153.0925455
11
122.350187
21
-169.8342773
0
LINE
8
0
10
119.0508716
20
-151.12293
11
136.7774112
21
-147.9972628
0
LINE
8
0
10
136.7774112
20
-147.9972628
11
133.8253922
21
-131.255531
0
LINE
8
0
10
133.8253922
20
-131.255531
11
116.0988526
21
-134.3811982
0
LINE
8
0
10
116.0988526
20
-134.3811982
11
119.0508716
21
-151.12293
0
LINE
8
0
10
115.7515562
20
-132.4115827
11
133.4780958
21
-129.2859155
0
LINE
8
0
10
133.4780958
20
-129.2859155
11
130.5260768
21
-112.5441837
0
LINE
8
0
10
130.5260768
20
-112.5441837
11
112.7995372
21
-115.6698509
0
LINE
8
0
10
112.7995372
20
-115.6698509
11
115.7515562
21
-132.4115827
0
LINE
8
0
10
145.3456574
20
-185.072661
11
163.072197
21
-181.9469938
0
LINE
8
0
10
163.072197
20
-181.9469938
11
160.120178
21
-165.205262
0
LINE
8
0
10
160.120178
20
-165.205262
11
142.3936384
21
-168.3309292
0
LINE
8
0
10
142.3936384
20
-168.3309292
11
145.3456574
21
-185.072661
0
LINE
8
0
10
142.046342
20
-166.3613137
11
159.7728816
21
-163.2356465
0
LINE
8
0
10
159.7728816
20
-163.2356465
11
156.8208626
21
-146.4939147
0
LINE
8
0
10
156.8208626
20
-146.4939147
11
139.094323
21
-149.6195819
0
LINE
8
0
10
139.094323
20
-149.6195819
11
142.046342
21
-166.3613137
0
LINE
8
0
10
138.7470267
20
-147.6499664
11
156.4735663
21
-144.5242992
0
LINE
8
0
10
156.4735663
20
-144.5242992
11
153.5215473
21
-127.7825674
0
LINE
8
0
10
153.5215473
20
-127.7825674
11
135.7950077
21
-130.9082346
0
LINE
8
0
10
135.7950077
20
-130.9082346
11
138.7470267
21
-147.6499664
0
LINE
8
0
10
135.4477113
20
-128.9386191
11
153.1742509
21
-125.8129519
0
LINE
8
0
10
153.1742509
20
-125.8129519
11
150.2222319
21
-109.0712201
0
LINE
8
0
10
150.2222319
20
-109.0712201
11
132.4956923
21
-112.1968873
0
LINE
8
0
10
132.4956923
20
-112.1968873
11
135.4477113
21
-128.9386191
0
LINE
8
0
10
166.1371908
20
-180.9595741
11
184.0030215
21
-178.7659259
0
LINE
8
0
10
184.0030215
20
-178.7659259
11
181.9312426
21
-161.8926413
0
LINE
8
0
10
181.9312426
20
-161.8926413
11
164.0654119
21
-164.0862895
0
LINE
8
0
10
164.0654119
20
-164.0862895
11
166.1371908
21
-180.9595741
0
LINE
8
0
10
163.8216733
20
-162.1011973
11
181.687504
21
-159.9075491
0
LINE
8
0
10
181.687504
20
-159.9075491
11
179.6157251
21
-143.0342645
0
LINE
8
0
10
179.6157251
20
-143.0342645
11
161.7498944
21
-145.2279127
0
LINE
8
0
10
161.7498944
20
-145.2279127
11
163.8216733
21
-162.1011973
0
LINE
8
0
10
161.5061558
20
-143.2428204
11
179.3719865
21
-141.0491722
0
LINE
8
0
10
179.3719865
20
-141.0491722
11
177.3002076
21
-124.1758876
0
LINE
8
0
10
177.3002076
20
-124.1758876
11
159.4343769
21
-126.3695358
0
LINE
8
0
10
159.4343769
20
-126.3695358
11
161.5061558
21
-143.2428204
0
LINE
8
0
10
159.1906384
20
-124.3844436
11
177.0564691
21
-122.1907954
0
LINE
8
0
10
177.0564691
20
-122.1907954
11
174.9846902
21
-105.3175108
0
LINE
8
0
10
174.9846902
20
-105.3175108
11
157.1188595
21
-107.511159
0
LINE
8
0
10
157.1188595
20
-107.511159
11
159.1906384
21
-124.3844436
0
LINE
8
0
10
187.1154923
20
-177.9402686
11
205.0716452
21
-176.6846521
0
LINE
8
0
10
205.0716452
20
-176.6846521
11
203.8857851
21
-159.7260632
0
LINE
8
0
10
203.8857851
20
-159.7260632
11
185.9296322
21
-160.9816797
0
LINE
8
0
10
185.9296322
20
-160.9816797
11
187.1154923
21
-177.9402686
0
LINE
8
0
10
185.7901193
20
-158.9865517
11
203.7462722
21
-157.7309352
0
LINE
8
0
10
203.7462722
20
-157.7309352
11
202.5604121
21
-140.7723463
0
LINE
8
0
10
202.5604121
20
-140.7723463
11
184.6042592
21
-142.0279628
0
LINE
8
0
10
184.6042592
20
-142.0279628
11
185.7901193
21
-158.9865517
0
LINE
8
0
10
184.4647463
20
-140.0328347
11
202.4208992
21
-138.7772182
0
LINE
8
0
10
202.4208992
20
-138.7772182
11
201.2350391
21
-121.8186293
0
LINE
8
0
10
201.2350391
20
-121.8186293
11
183.2788862
21
-123.0742458
0
LINE
8
0
10
183.2788862
20
-123.0742458
11
184.4647463
21
-140.0328347
0
LINE
8
0
10
183.1393733
20
-121.0791178
11
201.0955262
21
-119.8235013
0
LINE
8
0
10
201.0955262
20
-119.8235013
11
199.9096661
21
-102.8649124
0
LINE
8
0
10
199.9096661
20
-102.8649124
11
181.9535132
21
-104.1205289
0
LINE
8
0
10
181.9535132
20
-104.1205289
11
183.1393733
21
-121.0791178
0
LINE
8
0
10
207.8080666
20
-175.9658963
11
225.8073813
21
-175.8088186
0
LINE
8
0
10
225.8073813
20
-175.8088186
11
225.6590302
21
-158.8094659
0
LINE
8
0
10
225.6590302
20
-158.8094659
11
207.6597155
21
-158.9665436
0
LINE
8
0
10
207.6597155
20
-158.9665436
11
207.8080666
21
-175.9658963
0
LINE
8
0
10
207.6422624
20
-156.9666198
11
225.6415771
21
-156.8095421
0
LINE
8
0
10
225.6415771
20
-156.8095421
11
225.493226
21
-139.8101894
0
LINE
8
0
10
225.493226
20
-139.8101894
11
207.4939113
21
-139.9672671
0
LINE
8
0
10
207.4939113
20
-139.9672671
11
207.6422624
21
-156.9666198
0
LINE
8
0
10
207.4764582
20
-137.9673433
11
225.4757729
21
-137.8102656
0
LINE
8
0
10
225.4757729
20
-137.8102656
11
225.3274218
21
-120.8109129
0
LINE
8
0
10
225.3274218
20
-120.8109129
11
207.3281071
21
-120.9679906
0
LINE
8
0
10
207.3281071
20
-120.9679906
11
207.4764582
21
-137.9673433
0
LINE
8
0
10
207.310654
20
-118.9680668
11
225.3099687
21
-118.8109891
0
LINE
8
0
10
225.3099687
20
-118.8109891
11
225.1616176
21
-101.8116364
0
LINE
8
0
10
225.1616176
20
-101.8116364
11
207.1623029
21
-101.9687141
0
LINE
8
0
10
207.1623029
20
-101.9687141
11
207.310654
21
-118.9680668
0
LINE
8
0
10
227.807305
20
-175.7913656
11
245.8066197
21
-175.6342879
0
LINE
8
0
10
245.8066197
20
-175.6342879
11
245.6582686
21
-158.6349352
0
LINE
8
0
10
245.6582686
20
-158.6349352
11
227.6589539
21
-158.7920129
0
LINE
8
0
10
227.6589539
20
-158.7920129
11
227.807305
21
-175.7913656
0
LINE
8
0
10
227.6415008
20
-156.792089
11
245.6408155
21
-156.6350113
0
LINE
8
0
10
245.6408155
20
-156.6350113
11
245.4924644
21
-139.6356586
0
LINE
8
0
10
245.4924644
20
-139.6356586
11
227.4931497
21
-139.7927363
0
LINE
8
0
10
227.4931497
20
-139.7927363
11
227.6415008
21
-156.792089
0
LINE
8
0
10
227.4756966
20
-137.7928125
11
245.4750113
21
-137.6357348
0
LINE
8
0
10
245.4750113
20
-137.6357348
11
245.3266602
21
-120.6363821
0
LINE
8
0
10
245.3266602
20
-120.6363821
11
227.3273455
21
-120.7934598
0
LINE
8
0
10
227.3273455
20
-120.7934598
11
227.4756966
21
-137.7928125
0
LINE
8
0
10
227.3098925
20
-118.793536
11
245.3092072
21
-118.6364583
0
LINE
8
0
10
245.3092072
20
-118.6364583
11
245.1608561
21
-101.6371056
0
LINE
8
0
10
245.1608561
20
-101.6371056
11
227.1615414
21
-101.7941833
0
LINE
8
0
10
227.1615414
20
-101.7941833
11
227.3098925
21
-118.793536
0
LINE
8
0
10
225.1063376
20
-193.9378056
11
242.5329951
21
-198.4446457
0
LINE
8
0
10
242.5329951
20
-198.4446457
11
246.7894552
21
-181.9861358
0
LINE
8
0
10
246.7894552
20
-181.9861358
11
229.3627977
21
-177.4792957
0
LINE
8
0
10
229.3627977
20
-177.4792957
11
225.1063376
21
-193.9378056
0
LINE
8
0
10
244.4692904
20
-198.9454057
11
261.8959479
21
-203.4522458
0
LINE
8
0
10
261.8959479
20
-203.4522458
11
266.152408
21
-186.9937359
0
LINE
8
0
10
266.152408
20
-186.9937359
11
248.7257505
21
-182.4868958
0
LINE
8
0
10
248.7257505
20
-182.4868958
11
244.4692904
21
-198.9454057
0
LINE
8
0
10
263.8322433
20
-203.9530057
11
281.2589008
21
-208.4598458
0
LINE
8
0
10
281.2589008
20
-208.4598458
11
285.5153609
21
-192.0013359
0
LINE
8
0
10
285.5153609
20
-192.0013359
11
268.0887034
21
-187.4944958
0
LINE
8
0
10
268.0887034
20
-187.4944958
11
263.8322433
21
-203.9530057
0
LINE
8
0
10
248.9601645
20
-180.9879703
11
266.386822
21
-185.4948104
0
LINE
8
0
10
266.386822
20
-185.4948104
11
270.6432821
21
-169.0363005
0
LINE
8
0
10
270.6432821
20
-169.0363005
11
253.2166246
21
-164.5294604
0
LINE
8
0
10
253.2166246
20
-164.5294604
11
248.9601645
21
-180.9879703
0
LINE
8
0
10
268.3231173
20
-185.9955703
11
285.7497748
21
-190.5024104
0
LINE
8
0
10
285.7497748
20
-190.5024104
11
290.0062349
21
-174.0439005
0
LINE
8
0
10
290.0062349
20
-174.0439005
11
272.5795774
21
-169.5370604
0
LINE
8
0
10
272.5795774
20
-169.5370604
11
268.3231173
21
-185.9955703
0
ENDSEC
0
EOF